<svg version="1.1" viewBox="0.0 0.0 497.0997375328084 524.1443569553805" fill="none" stroke="none" stroke-linecap="square" stroke-miterlimit="10" xmlns:xlink="http://www.w3.org/1999/xlink" xmlns="http://www.w3.org/2000/svg"><clipPath id="p.0"><path d="m0 0l497.09973 0l0 524.14435l-497.09973 0l0 -524.14435z" clip-rule="nonzero"/></clipPath><g clip-path="url(#p.0)"><path fill="#000000" fill-opacity="0.0" d="m0 0l497.09973 0l0 524.14435l-497.09973 0z" fill-rule="evenodd"/><path fill="#000000" fill-opacity="0.0" d="m85.68146 172.9608l39.46457 -23.46457" fill-rule="evenodd"/><path stroke="#000000" stroke-width="8.0" stroke-linejoin="round" stroke-linecap="butt" d="m85.68146 172.9608l39.46457 -23.46457" fill-rule="evenodd"/><path fill="#000000" fill-opacity="0.0" d="m124.59597 150.03166l39.55906 22.929138" fill-rule="evenodd"/><path stroke="#000000" stroke-width="8.0" stroke-linejoin="round" stroke-linecap="butt" d="m124.59597 150.03166l39.55906 22.929138" fill-rule="evenodd"/><path fill="#b7b7b7" d="m132.74352 7.5984597l0 0c2.1598969 0 3.910843 1.7509427 3.910843 3.9108396l0 420.02084c0 1.0372009 -0.41203308 2.031952 -1.145462 2.7653809c-0.7334137 0.73339844 -1.7281494 1.1454468 -2.7653809 1.1454468l-15.642883 0c-2.1598969 0 -3.9108353 -1.750946 -3.9108353 -3.9108276l0 -420.02084c0 -2.1598969 1.7509384 -3.9108396 3.9108353 -3.9108396z" fill-rule="evenodd"/><path stroke="#000000" stroke-width="1.0" stroke-linejoin="round" stroke-linecap="butt" d="m132.74352 7.5984597l0 0c2.1598969 0 3.910843 1.7509427 3.910843 3.9108396l0 420.02084c0 1.0372009 -0.41203308 2.031952 -1.145462 2.7653809c-0.7334137 0.73339844 -1.7281494 1.1454468 -2.7653809 1.1454468l-15.642883 0c-2.1598969 0 -3.9108353 -1.750946 -3.9108353 -3.9108276l0 -420.02084c0 -2.1598969 1.7509384 -3.9108396 3.9108353 -3.9108396z" fill-rule="evenodd"/><path fill="#999999" d="m81.83297 413.30685l86.15194 0c1.8906708 0 3.703888 0.7510681 5.0407867 2.0879822c1.3368988 1.3368835 2.087967 3.150116 2.087967 5.0407715l0 35.642914c0 4.5776367E-4 -3.6621094E-4 8.239746E-4 -8.392334E-4 8.239746E-4l-100.40861 -8.239746E-4l0 0c-4.6539307E-4 0 -8.392334E-4 -3.6621094E-4 -8.392334E-4 -8.544922E-4l8.392334E-4 -35.64206l0 0c0 -3.9371033 3.1916504 -7.1287537 7.1287537 -7.1287537z" fill-rule="evenodd"/><path stroke="#000000" stroke-width="1.0" stroke-linejoin="round" stroke-linecap="butt" d="m81.83297 413.30685l86.15194 0c1.8906708 0 3.703888 0.7510681 5.0407867 2.0879822c1.3368988 1.3368835 2.087967 3.150116 2.087967 5.0407715l0 35.642914c0 4.5776367E-4 -3.6621094E-4 8.239746E-4 -8.392334E-4 8.239746E-4l-100.40861 -8.239746E-4l0 0c-4.6539307E-4 0 -8.392334E-4 -3.6621094E-4 -8.392334E-4 -8.544922E-4l8.392334E-4 -35.64206l0 0c0 -3.9371033 3.1916504 -7.1287537 7.1287537 -7.1287537z" fill-rule="evenodd"/><path fill="#ffffff" d="m191.28142 101.85489l0 0c1.5703125 1.0885086 1.7407074 3.0587616 0.38058472 4.400696l-9.850586 9.718842l0 0c-0.65315247 0.64442444 -1.5791168 1.054802 -2.5741882 1.1408539c-0.9950714 0.08605957 -1.9777527 -0.15925598 -2.731842 -0.6819763l-117.97177 -81.77524c-1.5703125 -1.0885048 -1.7407036 -3.0587616 -0.3805809 -4.400694l9.850586 -9.718845c1.3601227 -1.3419323 3.7357101 -1.5473785 5.3060226 -0.45887566z" fill-rule="evenodd"/><path stroke="#ff0000" stroke-width="1.0" stroke-linejoin="round" stroke-linecap="butt" d="m191.28142 101.85489l0 0c1.5703125 1.0885086 1.7407074 3.0587616 0.38058472 4.400696l-9.850586 9.718842l0 0c-0.65315247 0.64442444 -1.5791168 1.054802 -2.5741882 1.1408539c-0.9950714 0.08605957 -1.9777527 -0.15925598 -2.731842 -0.6819763l-117.97177 -81.77524c-1.5703125 -1.0885048 -1.7407036 -3.0587616 -0.3805809 -4.400694l9.850586 -9.718845c1.3601227 -1.3419323 3.7357101 -1.5473785 5.3060226 -0.45887566z" fill-rule="evenodd"/><path fill="#ffffff" d="m171.1098 16.592663l0 0c1.495758 -1.2374058 3.920868 -1.2374058 5.416626 0l10.832962 8.9618225l0 0c0.71829224 0.594223 1.1218262 1.4001637 1.1218262 2.2405224c0 0.84035873 -0.40353394 1.6462994 -1.1218262 2.2405224l-108.65347 89.88621c-1.4957657 1.2374039 -3.9208755 1.2374039 -5.4166336 0l-10.832954 -8.9618225c-1.4957657 -1.2374039 -1.4957657 -3.243637 0 -4.4810486z" fill-rule="evenodd"/><path stroke="#ff0000" stroke-width="1.0" stroke-linejoin="round" stroke-linecap="butt" d="m171.1098 16.592663l0 0c1.495758 -1.2374058 3.920868 -1.2374058 5.416626 0l10.832962 8.9618225l0 0c0.71829224 0.594223 1.1218262 1.4001637 1.1218262 2.2405224c0 0.84035873 -0.40353394 1.6462994 -1.1218262 2.2405224l-108.65347 89.88621c-1.4957657 1.2374039 -3.9208755 1.2374039 -5.4166336 0l-10.832954 -8.9618225c-1.4957657 -1.2374039 -1.4957657 -3.243637 0 -4.4810486z" fill-rule="evenodd"/><path fill="#000000" fill-opacity="0.0" d="m71.06637 18.401382l54.400803 38.291294l-14.352127 13.960545l-54.400803 -38.291298z" fill-rule="evenodd"/><path fill="#000000" fill-opacity="0.0" d="m139.81952 67.09212l49.011185 34.500572l-14.352127 13.960541l-49.011177 -34.500572z" fill-rule="evenodd"/><path fill="#000000" fill-opacity="0.0" d="m73.927826 96.13497l90.210464 -74.612076l15.6642 12.958591l-90.210464 74.61208z" fill-rule="evenodd"/><path fill="#ff0000" d="m277.13263 203.97285l17.634827 14.591248l-32.19522 26.638702l-17.634842 -14.591248z" fill-rule="evenodd"/><path stroke="#000000" stroke-width="1.0" stroke-linejoin="round" stroke-linecap="butt" d="m277.13263 203.97285l17.634827 14.591248l-32.19522 26.638702l-17.634842 -14.591248z" fill-rule="evenodd"/><path fill="#ffffff" d="m309.32788 177.33415l17.634827 14.591248l-32.19525 26.638702l-17.634827 -14.591248z" fill-rule="evenodd"/><path stroke="#000000" stroke-width="1.0" stroke-linejoin="round" stroke-linecap="butt" d="m309.32788 177.33415l17.634827 14.591248l-32.19525 26.638702l-17.634827 -14.591248z" fill-rule="evenodd"/><path fill="#ff0000" d="m341.5231 150.69545l17.634827 14.591248l-32.19522 26.638702l-17.634827 -14.591248z" fill-rule="evenodd"/><path stroke="#000000" stroke-width="1.0" stroke-linejoin="round" stroke-linecap="butt" d="m341.5231 150.69545l17.634827 14.591248l-32.19522 26.638702l-17.634827 -14.591248z" fill-rule="evenodd"/><path fill="#ffffff" d="m373.71835 124.056755l17.634827 14.591255l-32.19525 26.638687l-17.634827 -14.591248z" fill-rule="evenodd"/><path stroke="#000000" stroke-width="1.0" stroke-linejoin="round" stroke-linecap="butt" d="m373.71835 124.056755l17.634827 14.591255l-32.19525 26.638687l-17.634827 -14.591248z" fill-rule="evenodd"/><path fill="#ff0000" d="m405.91357 97.41805l17.634827 14.591255l-32.19522 26.638702l-17.634827 -14.591255z" fill-rule="evenodd"/><path stroke="#000000" stroke-width="1.0" stroke-linejoin="round" stroke-linecap="butt" d="m405.91357 97.41805l17.634827 14.591255l-32.19522 26.638702l-17.634827 -14.591255z" fill-rule="evenodd"/><path fill="#ffffff" d="m438.10883 70.77936l17.634827 14.591248l-32.19525 26.638702l-17.634827 -14.591255z" fill-rule="evenodd"/><path stroke="#000000" stroke-width="1.0" stroke-linejoin="round" stroke-linecap="butt" d="m438.10883 70.77936l17.634827 14.591248l-32.19525 26.638702l-17.634827 -14.591255z" fill-rule="evenodd"/><path fill="#ffffff" d="m180.54692 283.88895l17.634827 14.591248l-32.195236 26.638702l-17.634827 -14.591248z" fill-rule="evenodd"/><path stroke="#000000" stroke-width="1.0" stroke-linejoin="round" stroke-linecap="butt" d="m180.54692 283.88895l17.634827 14.591248l-32.195236 26.638702l-17.634827 -14.591248z" fill-rule="evenodd"/><path fill="#ff0000" d="m212.74216 257.25024l17.634827 14.591248l-32.195236 26.638702l-17.634827 -14.591248z" fill-rule="evenodd"/><path stroke="#000000" stroke-width="1.0" stroke-linejoin="round" stroke-linecap="butt" d="m212.74216 257.25024l17.634827 14.591248l-32.195236 26.638702l-17.634827 -14.591248z" fill-rule="evenodd"/><path fill="#ffffff" d="m244.9374 230.61156l17.634842 14.591248l-32.19525 26.638687l-17.634827 -14.591248z" fill-rule="evenodd"/><path stroke="#000000" stroke-width="1.0" stroke-linejoin="round" stroke-linecap="butt" d="m244.9374 230.61156l17.634842 14.591248l-32.19525 26.638687l-17.634827 -14.591248z" fill-rule="evenodd"/><path fill="#000000" d="m126.45701 298.67096l0 0c4.9576187 -4.1019897 12.995491 -4.1019897 17.953102 0l35.90515 29.708313l0 0c2.380722 1.9698486 3.7182007 4.6415405 3.7182007 7.427307c0 2.785797 -1.3374786 5.4574585 -3.7182007 7.427307l-53.03018 43.877747c-4.9576187 4.1019897 -12.995499 4.1019897 -17.95311 0l-35.905144 -29.708313c-4.957611 -4.101959 -4.957611 -10.752594 0 -14.854584z" fill-rule="evenodd"/><path stroke="#000000" stroke-width="1.0" stroke-linejoin="round" stroke-linecap="butt" d="m126.45701 298.67096l0 0c4.9576187 -4.1019897 12.995491 -4.1019897 17.953102 0l35.90515 29.708313l0 0c2.380722 1.9698486 3.7182007 4.6415405 3.7182007 7.427307c0 2.785797 -1.3374786 5.4574585 -3.7182007 7.427307l-53.03018 43.877747c-4.9576187 4.1019897 -12.995499 4.1019897 -17.95311 0l-35.905144 -29.708313c-4.957611 -4.101959 -4.957611 -10.752594 0 -14.854584z" fill-rule="evenodd"/><path fill="#000000" d="m70.63635 362.2266l0 0c3.0252762 -2.5031433 7.930214 -2.5031433 10.95549 0l21.910316 18.128845l0 0c1.4527893 1.2020569 2.268959 2.8323975 2.268959 4.5323486c0 1.6999512 -0.81616974 3.3302917 -2.268959 4.5323486l-28.118141 23.265259c-3.0252762 2.5031433 -7.930214 2.5031433 -10.95549 0l-21.910316 -18.128845c-3.0252762 -2.5031433 -3.0252762 -6.5615234 0 -9.064697z" fill-rule="evenodd"/><path stroke="#000000" stroke-width="1.0" stroke-linejoin="round" stroke-linecap="butt" d="m70.63635 362.2266l0 0c3.0252762 -2.5031433 7.930214 -2.5031433 10.95549 0l21.910316 18.128845l0 0c1.4527893 1.2020569 2.268959 2.8323975 2.268959 4.5323486c0 1.6999512 -0.81616974 3.3302917 -2.268959 4.5323486l-28.118141 23.265259c-3.0252762 2.5031433 -7.930214 2.5031433 -10.95549 0l-21.910316 -18.128845c-3.0252762 -2.5031433 -3.0252762 -6.5615234 0 -9.064697z" fill-rule="evenodd"/><path fill="#000000" d="m43.793064 182.35294l0 0c0 -13.193954 13.776939 -23.889755 30.771656 -23.889755l0 0c16.994713 0 30.771652 10.695801 30.771652 23.889755l0 0c0 13.193954 -13.776939 23.88977 -30.771652 23.88977l0 0c-16.994717 0 -30.771656 -10.695816 -30.771656 -23.88977z" fill-rule="evenodd"/><path stroke="#000000" stroke-width="1.0" stroke-linejoin="round" stroke-linecap="butt" d="m43.793064 182.35294l0 0c0 -13.193954 13.776939 -23.889755 30.771656 -23.889755l0 0c16.994713 0 30.771652 10.695801 30.771652 23.889755l0 0c0 13.193954 -13.776939 23.88977 -30.771652 23.88977l0 0c-16.994717 0 -30.771656 -10.695816 -30.771656 -23.88977z" fill-rule="evenodd"/><path fill="#000000" d="m66.477745 187.11668l0 -3.671875l-3.6406212 0l0 -1.515625l3.6406212 0l0 -3.640625l1.546875 0l0 3.640625l3.640625 0l0 1.515625l-3.640625 0l0 3.671875l-1.546875 0z" fill-rule="nonzero"/><path fill="#ff0000" d="m58.851654 182.33693l0 0c0 -7.3232117 7.0365295 -13.259857 15.71653 -13.259857l0 0c8.680008 0 15.716537 5.9366455 15.716537 13.259857l0 0c0 7.3231964 -7.0365295 13.259842 -15.716537 13.259842l0 0c-8.68 0 -15.71653 -5.9366455 -15.71653 -13.259842z" fill-rule="evenodd"/><path stroke="#000000" stroke-width="1.0" stroke-linejoin="round" stroke-linecap="butt" d="m58.851654 182.33693l0 0c0 -7.3232117 7.0365295 -13.259857 15.71653 -13.259857l0 0c8.680008 0 15.716537 5.9366455 15.716537 13.259857l0 0c0 7.3231964 -7.0365295 13.259842 -15.716537 13.259842l0 0c-8.68 0 -15.71653 -5.9366455 -15.71653 -13.259842z" fill-rule="evenodd"/><path fill="#000000" d="m144.49316 182.35294l0 0c0 -13.193954 13.776947 -23.889755 30.771667 -23.889755l0 0c16.994705 0 30.771652 10.695801 30.771652 23.889755l0 0c0 13.193954 -13.776947 23.88977 -30.771652 23.88977l0 0c-16.99472 0 -30.771667 -10.695816 -30.771667 -23.88977z" fill-rule="evenodd"/><path stroke="#000000" stroke-width="1.0" stroke-linejoin="round" stroke-linecap="butt" d="m144.49316 182.35294l0 0c0 -13.193954 13.776947 -23.889755 30.771667 -23.889755l0 0c16.994705 0 30.771652 10.695801 30.771652 23.889755l0 0c0 13.193954 -13.776947 23.88977 -30.771652 23.88977l0 0c-16.99472 0 -30.771667 -10.695816 -30.771667 -23.88977z" fill-rule="evenodd"/><path fill="#ff0000" d="m159.55176 182.33693l0 0c0 -7.3232117 7.0365295 -13.259857 15.716537 -13.259857l0 0c8.680008 0 15.716537 5.9366455 15.716537 13.259857l0 0c0 7.3231964 -7.0365295 13.259842 -15.716537 13.259842l0 0c-8.680008 0 -15.716537 -5.9366455 -15.716537 -13.259842z" fill-rule="evenodd"/><path stroke="#000000" stroke-width="1.0" stroke-linejoin="round" stroke-linecap="butt" d="m159.55176 182.33693l0 0c0 -7.3232117 7.0365295 -13.259857 15.716537 -13.259857l0 0c8.680008 0 15.716537 5.9366455 15.716537 13.259857l0 0c0 7.3231964 -7.0365295 13.259842 -15.716537 13.259842l0 0c-8.680008 0 -15.716537 -5.9366455 -15.716537 -13.259842z" fill-rule="evenodd"/></g></svg>