<svg version="1.1" viewBox="0.0 0.0 605.6167979002624 482.0498687664042" fill="none" stroke="none" stroke-linecap="square" stroke-miterlimit="10" xmlns:xlink="http://www.w3.org/1999/xlink" xmlns="http://www.w3.org/2000/svg"><clipPath id="p.0"><path d="m0 0l605.6168 0l0 482.04987l-605.6168 0l0 -482.04987z" clip-rule="nonzero"/></clipPath><g clip-path="url(#p.0)"><path fill="#000000" fill-opacity="0.0" d="m0 0l605.6168 0l0 482.04987l-605.6168 0z" fill-rule="evenodd"/><path fill="#000000" fill-opacity="0.0" d="m85.68146 172.9608l39.46457 -23.46457" fill-rule="evenodd"/><path stroke="#000000" stroke-width="8.0" stroke-linejoin="round" stroke-linecap="butt" d="m85.68146 172.9608l39.46457 -23.46457" fill-rule="evenodd"/><path fill="#000000" fill-opacity="0.0" d="m124.59597 150.03166l39.55906 22.929138" fill-rule="evenodd"/><path stroke="#000000" stroke-width="8.0" stroke-linejoin="round" stroke-linecap="butt" d="m124.59597 150.03166l39.55906 22.929138" fill-rule="evenodd"/><path fill="#b7b7b7" d="m132.74352 7.5984597l0 0c2.1598969 0 3.910843 1.7509427 3.910843 3.9108396l0 420.02084c0 1.0372009 -0.41203308 2.031952 -1.145462 2.7653809c-0.7334137 0.73339844 -1.7281494 1.1454468 -2.7653809 1.1454468l-15.642883 0c-2.1598969 0 -3.9108353 -1.750946 -3.9108353 -3.9108276l0 -420.02084c0 -2.1598969 1.7509384 -3.9108396 3.9108353 -3.9108396z" fill-rule="evenodd"/><path stroke="#000000" stroke-width="1.0" stroke-linejoin="round" stroke-linecap="butt" d="m132.74352 7.5984597l0 0c2.1598969 0 3.910843 1.7509427 3.910843 3.9108396l0 420.02084c0 1.0372009 -0.41203308 2.031952 -1.145462 2.7653809c-0.7334137 0.73339844 -1.7281494 1.1454468 -2.7653809 1.1454468l-15.642883 0c-2.1598969 0 -3.9108353 -1.750946 -3.9108353 -3.9108276l0 -420.02084c0 -2.1598969 1.7509384 -3.9108396 3.9108353 -3.9108396z" fill-rule="evenodd"/><path fill="#999999" d="m81.83297 413.30685l86.15194 0c1.8906708 0 3.703888 0.7510681 5.0407867 2.0879822c1.3368988 1.3368835 2.087967 3.150116 2.087967 5.0407715l0 35.642914c0 4.5776367E-4 -3.6621094E-4 8.239746E-4 -8.392334E-4 8.239746E-4l-100.40861 -8.239746E-4l0 0c-4.6539307E-4 0 -8.392334E-4 -3.6621094E-4 -8.392334E-4 -8.544922E-4l8.392334E-4 -35.64206l0 0c0 -3.9371033 3.1916504 -7.1287537 7.1287537 -7.1287537z" fill-rule="evenodd"/><path stroke="#000000" stroke-width="1.0" stroke-linejoin="round" stroke-linecap="butt" d="m81.83297 413.30685l86.15194 0c1.8906708 0 3.703888 0.7510681 5.0407867 2.0879822c1.3368988 1.3368835 2.087967 3.150116 2.087967 5.0407715l0 35.642914c0 4.5776367E-4 -3.6621094E-4 8.239746E-4 -8.392334E-4 8.239746E-4l-100.40861 -8.239746E-4l0 0c-4.6539307E-4 0 -8.392334E-4 -3.6621094E-4 -8.392334E-4 -8.544922E-4l8.392334E-4 -35.64206l0 0c0 -3.9371033 3.1916504 -7.1287537 7.1287537 -7.1287537z" fill-rule="evenodd"/><path fill="#ffffff" d="m191.28142 101.85489l0 0c1.5703125 1.0885086 1.7407074 3.0587616 0.38058472 4.400696l-9.850586 9.718842l0 0c-0.65315247 0.64442444 -1.5791168 1.054802 -2.5741882 1.1408539c-0.9950714 0.08605957 -1.9777527 -0.15925598 -2.731842 -0.6819763l-117.97177 -81.77524c-1.5703125 -1.0885048 -1.7407036 -3.0587616 -0.3805809 -4.400694l9.850586 -9.718845c1.3601227 -1.3419323 3.7357101 -1.5473785 5.3060226 -0.45887566z" fill-rule="evenodd"/><path stroke="#ff0000" stroke-width="1.0" stroke-linejoin="round" stroke-linecap="butt" d="m191.28142 101.85489l0 0c1.5703125 1.0885086 1.7407074 3.0587616 0.38058472 4.400696l-9.850586 9.718842l0 0c-0.65315247 0.64442444 -1.5791168 1.054802 -2.5741882 1.1408539c-0.9950714 0.08605957 -1.9777527 -0.15925598 -2.731842 -0.6819763l-117.97177 -81.77524c-1.5703125 -1.0885048 -1.7407036 -3.0587616 -0.3805809 -4.400694l9.850586 -9.718845c1.3601227 -1.3419323 3.7357101 -1.5473785 5.3060226 -0.45887566z" fill-rule="evenodd"/><path fill="#ffffff" d="m171.1098 16.592663l0 0c1.495758 -1.2374058 3.920868 -1.2374058 5.416626 0l10.832962 8.9618225l0 0c0.71829224 0.594223 1.1218262 1.4001637 1.1218262 2.2405224c0 0.84035873 -0.40353394 1.6462994 -1.1218262 2.2405224l-108.65347 89.88621c-1.4957657 1.2374039 -3.9208755 1.2374039 -5.4166336 0l-10.832954 -8.9618225c-1.4957657 -1.2374039 -1.4957657 -3.243637 0 -4.4810486z" fill-rule="evenodd"/><path stroke="#ff0000" stroke-width="1.0" stroke-linejoin="round" stroke-linecap="butt" d="m171.1098 16.592663l0 0c1.495758 -1.2374058 3.920868 -1.2374058 5.416626 0l10.832962 8.9618225l0 0c0.71829224 0.594223 1.1218262 1.4001637 1.1218262 2.2405224c0 0.84035873 -0.40353394 1.6462994 -1.1218262 2.2405224l-108.65347 89.88621c-1.4957657 1.2374039 -3.9208755 1.2374039 -5.4166336 0l-10.832954 -8.9618225c-1.4957657 -1.2374039 -1.4957657 -3.243637 0 -4.4810486z" fill-rule="evenodd"/><path fill="#000000" fill-opacity="0.0" d="m71.06637 18.401382l54.400803 38.291294l-14.352127 13.960545l-54.400803 -38.291298z" fill-rule="evenodd"/><path fill="#000000" fill-opacity="0.0" d="m139.81952 67.09212l49.011185 34.500572l-14.352127 13.960541l-49.011177 -34.500572z" fill-rule="evenodd"/><path fill="#000000" fill-opacity="0.0" d="m73.927826 96.13497l90.210464 -74.612076l15.6642 12.958591l-90.210464 74.61208z" fill-rule="evenodd"/><path fill="#000000" d="m43.793064 182.35294l0 0c0 -13.193954 13.776939 -23.889755 30.771656 -23.889755l0 0c16.994713 0 30.771652 10.695801 30.771652 23.889755l0 0c0 13.193954 -13.776939 23.88977 -30.771652 23.88977l0 0c-16.994717 0 -30.771656 -10.695816 -30.771656 -23.88977z" fill-rule="evenodd"/><path stroke="#000000" stroke-width="1.0" stroke-linejoin="round" stroke-linecap="butt" d="m43.793064 182.35294l0 0c0 -13.193954 13.776939 -23.889755 30.771656 -23.889755l0 0c16.994713 0 30.771652 10.695801 30.771652 23.889755l0 0c0 13.193954 -13.776939 23.88977 -30.771652 23.88977l0 0c-16.994717 0 -30.771656 -10.695816 -30.771656 -23.88977z" fill-rule="evenodd"/><path fill="#000000" d="m66.477745 187.11668l0 -3.671875l-3.6406212 0l0 -1.515625l3.6406212 0l0 -3.640625l1.546875 0l0 3.640625l3.640625 0l0 1.515625l-3.640625 0l0 3.671875l-1.546875 0z" fill-rule="nonzero"/><path fill="#ff0000" d="m58.851654 182.33693l0 0c0 -7.3232117 7.0365295 -13.259857 15.71653 -13.259857l0 0c8.680008 0 15.716537 5.9366455 15.716537 13.259857l0 0c0 7.3231964 -7.0365295 13.259842 -15.716537 13.259842l0 0c-8.68 0 -15.71653 -5.9366455 -15.71653 -13.259842z" fill-rule="evenodd"/><path stroke="#000000" stroke-width="1.0" stroke-linejoin="round" stroke-linecap="butt" d="m58.851654 182.33693l0 0c0 -7.3232117 7.0365295 -13.259857 15.71653 -13.259857l0 0c8.680008 0 15.716537 5.9366455 15.716537 13.259857l0 0c0 7.3231964 -7.0365295 13.259842 -15.716537 13.259842l0 0c-8.68 0 -15.71653 -5.9366455 -15.71653 -13.259842z" fill-rule="evenodd"/><path fill="#000000" d="m144.49316 182.35294l0 0c0 -13.193954 13.776947 -23.889755 30.771667 -23.889755l0 0c16.994705 0 30.771652 10.695801 30.771652 23.889755l0 0c0 13.193954 -13.776947 23.88977 -30.771652 23.88977l0 0c-16.99472 0 -30.771667 -10.695816 -30.771667 -23.88977z" fill-rule="evenodd"/><path stroke="#000000" stroke-width="1.0" stroke-linejoin="round" stroke-linecap="butt" d="m144.49316 182.35294l0 0c0 -13.193954 13.776947 -23.889755 30.771667 -23.889755l0 0c16.994705 0 30.771652 10.695801 30.771652 23.889755l0 0c0 13.193954 -13.776947 23.88977 -30.771652 23.88977l0 0c-16.99472 0 -30.771667 -10.695816 -30.771667 -23.88977z" fill-rule="evenodd"/><path fill="#ff0000" d="m159.55176 182.33693l0 0c0 -7.3232117 7.0365295 -13.259857 15.716537 -13.259857l0 0c8.680008 0 15.716537 5.9366455 15.716537 13.259857l0 0c0 7.3231964 -7.0365295 13.259842 -15.716537 13.259842l0 0c-8.680008 0 -15.716537 -5.9366455 -15.716537 -13.259842z" fill-rule="evenodd"/><path stroke="#000000" stroke-width="1.0" stroke-linejoin="round" stroke-linecap="butt" d="m159.55176 182.33693l0 0c0 -7.3232117 7.0365295 -13.259857 15.716537 -13.259857l0 0c8.680008 0 15.716537 5.9366455 15.716537 13.259857l0 0c0 7.3231964 -7.0365295 13.259842 -15.716537 13.259842l0 0c-8.680008 0 -15.716537 -5.9366455 -15.716537 -13.259842z" fill-rule="evenodd"/><path fill="#000000" fill-opacity="0.0" d="m86.774734 172.96394l38.58767 -23.53363" fill-rule="evenodd"/><path stroke="#000000" stroke-width="8.0" stroke-linejoin="round" stroke-linecap="butt" d="m86.774734 172.96394l38.58767 -23.53363" fill-rule="evenodd"/><path fill="#000000" fill-opacity="0.0" d="m124.70073 149.96478l38.66646 22.99916" fill-rule="evenodd"/><path stroke="#000000" stroke-width="8.0" stroke-linejoin="round" stroke-linecap="butt" d="m124.70073 149.96478l38.66646 22.99916" fill-rule="evenodd"/><path fill="#b7b7b7" d="m132.71356 7.596737l0 0c2.1105194 0 3.8214264 1.710907 3.8214264 3.8214178l0 420.18817c0 1.0135193 -0.4026184 1.9855042 -1.1192627 2.7021484c-0.71665955 0.7166748 -1.6886597 1.1192627 -2.7021637 1.1192627l-15.28521 0c-2.1105118 0 -3.8214188 -1.710907 -3.8214188 -3.8214111l0 -420.18817c0 -2.1105108 1.710907 -3.8214178 3.8214188 -3.8214178z" fill-rule="evenodd"/><path stroke="#000000" stroke-width="1.0" stroke-linejoin="round" stroke-linecap="butt" d="m132.71356 7.596737l0 0c2.1105194 0 3.8214264 1.710907 3.8214264 3.8214178l0 420.18817c0 1.0135193 -0.4026184 1.9855042 -1.1192627 2.7021484c-0.71665955 0.7166748 -1.6886597 1.1192627 -2.7021637 1.1192627l-15.28521 0c-2.1105118 0 -3.8214188 -1.710907 -3.8214188 -3.8214111l0 -420.18817c0 -2.1105108 1.710907 -3.8214178 3.8214188 -3.8214178z" fill-rule="evenodd"/><path fill="#ff0000" d="m347.42105 329.55585l0 20.639465l-44.43808 0l0 -20.639465z" fill-rule="evenodd"/><path stroke="#000000" stroke-width="1.0" stroke-linejoin="round" stroke-linecap="butt" d="m347.42105 329.55585l0 20.639465l-44.43808 0l0 -20.639465z" fill-rule="evenodd"/><path fill="#ffffff" d="m391.85916 329.55585l0 20.639465l-44.43811 0l0 -20.639465z" fill-rule="evenodd"/><path stroke="#000000" stroke-width="1.0" stroke-linejoin="round" stroke-linecap="butt" d="m391.85916 329.55585l0 20.639465l-44.43811 0l0 -20.639465z" fill-rule="evenodd"/><path fill="#ff0000" d="m436.29727 329.55585l0 20.639465l-44.43811 0l0 -20.639465z" fill-rule="evenodd"/><path stroke="#000000" stroke-width="1.0" stroke-linejoin="round" stroke-linecap="butt" d="m436.29727 329.55585l0 20.639465l-44.43811 0l0 -20.639465z" fill-rule="evenodd"/><path fill="#ffffff" d="m480.73535 329.55585l0 20.639465l-44.43808 0l0 -20.639465z" fill-rule="evenodd"/><path stroke="#000000" stroke-width="1.0" stroke-linejoin="round" stroke-linecap="butt" d="m480.73535 329.55585l0 20.639465l-44.43808 0l0 -20.639465z" fill-rule="evenodd"/><path fill="#ff0000" d="m525.17346 329.55585l0 20.639465l-44.43811 0l0 -20.639465z" fill-rule="evenodd"/><path stroke="#000000" stroke-width="1.0" stroke-linejoin="round" stroke-linecap="butt" d="m525.17346 329.55585l0 20.639465l-44.43811 0l0 -20.639465z" fill-rule="evenodd"/><path fill="#ffffff" d="m569.6116 329.55585l0 20.639465l-44.43811 0l0 -20.639465z" fill-rule="evenodd"/><path stroke="#000000" stroke-width="1.0" stroke-linejoin="round" stroke-linecap="butt" d="m569.6116 329.55585l0 20.639465l-44.43811 0l0 -20.639465z" fill-rule="evenodd"/><path fill="#ffffff" d="m214.10677 329.55585l0 20.639465l-44.438095 0l0 -20.639465z" fill-rule="evenodd"/><path stroke="#000000" stroke-width="1.0" stroke-linejoin="round" stroke-linecap="butt" d="m214.10677 329.55585l0 20.639465l-44.438095 0l0 -20.639465z" fill-rule="evenodd"/><path fill="#ff0000" d="m258.54486 329.55585l0 20.639465l-44.438095 0l0 -20.639465z" fill-rule="evenodd"/><path stroke="#000000" stroke-width="1.0" stroke-linejoin="round" stroke-linecap="butt" d="m258.54486 329.55585l0 20.639465l-44.438095 0l0 -20.639465z" fill-rule="evenodd"/><path fill="#ffffff" d="m302.98297 329.55585l0 20.639465l-44.43811 0l0 -20.639465z" fill-rule="evenodd"/><path stroke="#000000" stroke-width="1.0" stroke-linejoin="round" stroke-linecap="butt" d="m302.98297 329.55585l0 20.639465l-44.43811 0l0 -20.639465z" fill-rule="evenodd"/><path fill="#000000" d="m166.332 308.35757l0 0c5.802307 0 10.505997 4.7036743 10.505997 10.505981l0 42.022736l0 0c0 2.7863464 -1.1068878 5.4585876 -3.0771332 7.4288635c-1.9702606 1.9702454 -4.642502 3.077118 -7.4288635 3.077118l-76.96406 0c-5.8022995 0 -10.505997 -4.7036743 -10.505997 -10.505981l0 -42.022736c0 -5.802307 4.703697 -10.505981 10.505997 -10.505981z" fill-rule="evenodd"/><path stroke="#000000" stroke-width="1.0" stroke-linejoin="round" stroke-linecap="butt" d="m166.332 308.35757l0 0c5.802307 0 10.505997 4.7036743 10.505997 10.505981l0 42.022736l0 0c0 2.7863464 -1.1068878 5.4585876 -3.0771332 7.4288635c-1.9702606 1.9702454 -4.642502 3.077118 -7.4288635 3.077118l-76.96406 0c-5.8022995 0 -10.505997 -4.7036743 -10.505997 -10.505981l0 -42.022736c0 -5.802307 4.703697 -10.505981 10.505997 -10.505981z" fill-rule="evenodd"/><path fill="#999999" d="m83.20385 413.32217l83.734215 0c1.8885956 0 3.699829 0.75024414 5.035248 2.0856628c1.335434 1.3354187 2.085678 3.1466675 2.085678 5.035248l0 35.60373c0 4.5776367E-4 -3.6621094E-4 8.239746E-4 -8.239746E-4 8.239746E-4l-97.97523 -8.239746E-4l0 0c-4.5013428E-4 0 -8.163452E-4 -3.6621094E-4 -8.163452E-4 -8.239746E-4l8.163452E-4 -35.602905l0 0c0 -3.9327698 3.1881409 -7.1209106 7.1209106 -7.1209106z" fill-rule="evenodd"/><path stroke="#000000" stroke-width="1.0" stroke-linejoin="round" stroke-linecap="butt" d="m83.20385 413.32217l83.734215 0c1.8885956 0 3.699829 0.75024414 5.035248 2.0856628c1.335434 1.3354187 2.085678 3.1466675 2.085678 5.035248l0 35.60373c0 4.5776367E-4 -3.6621094E-4 8.239746E-4 -8.239746E-4 8.239746E-4l-97.97523 -8.239746E-4l0 0c-4.5013428E-4 0 -8.163452E-4 -3.6621094E-4 -8.163452E-4 -8.239746E-4l8.163452E-4 -35.602905l0 0c0 -3.9327698 3.1881409 -7.1209106 7.1209106 -7.1209106z" fill-rule="evenodd"/><path fill="#ffffff" d="m189.82843 101.87808l0 0c1.5387421 1.0932693 1.7102203 3.0675964 0.3829956 4.4097824l-9.61235 9.72068l0 0c-0.6373596 0.6445389 -1.54216 1.0541229 -2.515335 1.138649c-0.9731903 0.08451843 -1.9350586 -0.16294098 -2.6739807 -0.68795013l-115.09541 -81.77414c-1.5387535 -1.0932693 -1.710228 -3.0675964 -0.38299942 -4.4097824l9.61235 -9.720678c1.3272324 -1.342186 3.650566 -1.543972 5.189316 -0.45070267z" fill-rule="evenodd"/><path stroke="#ff0000" stroke-width="1.0" stroke-linejoin="round" stroke-linecap="butt" d="m189.82843 101.87808l0 0c1.5387421 1.0932693 1.7102203 3.0675964 0.3829956 4.4097824l-9.61235 9.72068l0 0c-0.6373596 0.6445389 -1.54216 1.0541229 -2.515335 1.138649c-0.9731903 0.08451843 -1.9350586 -0.16294098 -2.6739807 -0.68795013l-115.09541 -81.77414c-1.5387535 -1.0932693 -1.710228 -3.0675964 -0.38299942 -4.4097824l9.61235 -9.720678c1.3272324 -1.342186 3.650566 -1.543972 5.189316 -0.45070267z" fill-rule="evenodd"/><path fill="#ffffff" d="m170.15627 16.608034l0 0c1.4595947 -1.2376404 3.8260498 -1.2376404 5.2856445 0l10.570953 8.9635105l0 0c0.70092773 0.59433556 1.094696 1.4004269 1.094696 2.2409458c0 0.84051704 -0.3937683 1.6466084 -1.094696 2.240944l-106.0257 89.90316c-1.4595947 1.2376404 -3.8260498 1.2376404 -5.2856445 0l-10.570953 -8.963516c-1.4595909 -1.2376404 -1.4595909 -3.2442474 0 -4.481888z" fill-rule="evenodd"/><path stroke="#ff0000" stroke-width="1.0" stroke-linejoin="round" stroke-linecap="butt" d="m170.15627 16.608034l0 0c1.4595947 -1.2376404 3.8260498 -1.2376404 5.2856445 0l10.570953 8.9635105l0 0c0.70092773 0.59433556 1.094696 1.4004269 1.094696 2.2409458c0 0.84051704 -0.3937683 1.6466084 -1.094696 2.240944l-106.0257 89.90316c-1.4595947 1.2376404 -3.8260498 1.2376404 -5.2856445 0l-10.570953 -8.963516c-1.4595909 -1.2376404 -1.4595909 -3.2442474 0 -4.481888z" fill-rule="evenodd"/><path fill="#000000" fill-opacity="0.0" d="m72.532364 18.417093l53.085136 38.298515l-14.00502 13.963177l-53.085136 -38.29852z" fill-rule="evenodd"/><path fill="#000000" fill-opacity="0.0" d="m139.62274 67.11701l47.825867 34.50708l-14.00502 13.963173l-47.825867 -34.50708z" fill-rule="evenodd"/><path fill="#000000" fill-opacity="0.0" d="m75.32462 96.165344l88.02874 -74.62615l15.28537 12.961033l-88.02875 74.62616z" fill-rule="evenodd"/><path fill="#000000" d="m74.06282 320.64188l0 0c3.5407257 0 6.411049 2.8703308 6.411049 6.4110413l0 25.643463l0 0c0 1.7003174 -0.67544556 3.3309937 -1.8777542 4.5332947c-1.2023087 1.202301 -2.832985 1.8777466 -4.5332947 1.8777466l-41.11003 0c-3.5407276 0 -6.4110527 -2.8703308 -6.4110527 -6.4110413l0 -25.643463c0 -3.5407104 2.870325 -6.4110413 6.4110527 -6.4110413z" fill-rule="evenodd"/><path stroke="#000000" stroke-width="1.0" stroke-linejoin="round" stroke-linecap="butt" d="m74.06282 320.64188l0 0c3.5407257 0 6.411049 2.8703308 6.411049 6.4110413l0 25.643463l0 0c0 1.7003174 -0.67544556 3.3309937 -1.8777542 4.5332947c-1.2023087 1.202301 -2.832985 1.8777466 -4.5332947 1.8777466l-41.11003 0c-3.5407276 0 -6.4110527 -2.8703308 -6.4110527 -6.4110413l0 -25.643463c0 -3.5407104 2.870325 -6.4110413 6.4110527 -6.4110413z" fill-rule="evenodd"/><path fill="#000000" d="m45.91929 182.33546l0 0c0 -13.181763 13.440052 -23.867676 30.019196 -23.867676l0 0c16.579147 0 30.019203 10.685913 30.019203 23.867676l0 0c0 13.181747 -13.440056 23.867676 -30.019203 23.867676l0 0c-16.579144 0 -30.019196 -10.685928 -30.019196 -23.867676z" fill-rule="evenodd"/><path stroke="#000000" stroke-width="1.0" stroke-linejoin="round" stroke-linecap="butt" d="m45.91929 182.33546l0 0c0 -13.181763 13.440052 -23.867676 30.019196 -23.867676l0 0c16.579147 0 30.019203 10.685913 30.019203 23.867676l0 0c0 13.181747 -13.440056 23.867676 -30.019203 23.867676l0 0c-16.579144 0 -30.019196 -10.685928 -30.019196 -23.867676z" fill-rule="evenodd"/><path fill="#000000" d="m68.38358 187.09921l0 -3.671875l-3.640625 0l0 -1.515625l3.640625 0l0 -3.640625l1.546875 0l0 3.640625l3.640625 0l0 1.515625l-3.640625 0l0 3.671875l-1.546875 0z" fill-rule="nonzero"/><path fill="#ff0000" d="m60.613724 182.33546l0 0c0 -7.3196106 6.8611298 -13.253326 15.32476 -13.253326l0 0c8.463638 0 15.324768 5.933716 15.324768 13.253326l0 0c0 7.3195953 -6.8611298 13.253311 -15.324768 13.253311l0 0c-8.463631 0 -15.32476 -5.933716 -15.32476 -13.253311z" fill-rule="evenodd"/><path stroke="#000000" stroke-width="1.0" stroke-linejoin="round" stroke-linecap="butt" d="m60.613724 182.33546l0 0c0 -7.3196106 6.8611298 -13.253326 15.32476 -13.253326l0 0c8.463638 0 15.324768 5.933716 15.324768 13.253326l0 0c0 7.3195953 -6.8611298 13.253311 -15.324768 13.253311l0 0c-8.463631 0 -15.32476 -5.933716 -15.32476 -13.253311z" fill-rule="evenodd"/><path fill="#000000" d="m144.18423 182.33546l0 0c0 -13.181763 13.440048 -23.867676 30.019196 -23.867676l0 0c16.579147 0 30.01921 10.685913 30.01921 23.867676l0 0c0 13.181747 -13.440063 23.867676 -30.01921 23.867676l0 0c-16.579147 0 -30.019196 -10.685928 -30.019196 -23.867676z" fill-rule="evenodd"/><path stroke="#000000" stroke-width="1.0" stroke-linejoin="round" stroke-linecap="butt" d="m144.18423 182.33546l0 0c0 -13.181763 13.440048 -23.867676 30.019196 -23.867676l0 0c16.579147 0 30.01921 10.685913 30.01921 23.867676l0 0c0 13.181747 -13.440063 23.867676 -30.01921 23.867676l0 0c-16.579147 0 -30.019196 -10.685928 -30.019196 -23.867676z" fill-rule="evenodd"/><path fill="#000000" d="m166.64853 187.09921l0 -3.671875l-3.640625 0l0 -1.515625l3.640625 0l0 -3.640625l1.546875 0l0 3.640625l3.640625 0l0 1.515625l-3.640625 0l0 3.671875l-1.546875 0z" fill-rule="nonzero"/><path fill="#ff0000" d="m158.87868 182.33546l0 0c0 -7.3196106 6.8611298 -13.253326 15.324753 -13.253326l0 0c8.463638 0 15.324768 5.933716 15.324768 13.253326l0 0c0 7.3195953 -6.8611298 13.253311 -15.324768 13.253311l0 0c-8.463623 0 -15.324753 -5.933716 -15.324753 -13.253311z" fill-rule="evenodd"/><path stroke="#000000" stroke-width="1.0" stroke-linejoin="round" stroke-linecap="butt" d="m158.87868 182.33546l0 0c0 -7.3196106 6.8611298 -13.253326 15.324753 -13.253326l0 0c8.463638 0 15.324768 5.933716 15.324768 13.253326l0 0c0 7.3195953 -6.8611298 13.253311 -15.324768 13.253311l0 0c-8.463623 0 -15.324753 -5.933716 -15.324753 -13.253311z" fill-rule="evenodd"/></g></svg>