<svg version="1.1" viewBox="0.0 0.0 767.2703412073491 430.251968503937" fill="none" stroke="none" stroke-linecap="square" stroke-miterlimit="10" xmlns:xlink="http://www.w3.org/1999/xlink" xmlns="http://www.w3.org/2000/svg"><clipPath id="p.0"><path d="m0 0l767.2703 0l0 430.25198l-767.2703 0l0 -430.25198z" clip-rule="nonzero"/></clipPath><g clip-path="url(#p.0)"><path fill="#000000" fill-opacity="0.0" d="m0 0l767.2703 0l0 430.25198l-767.2703 0z" fill-rule="evenodd"/><path fill="#000000" fill-opacity="0.0" d="m167.15486 386.28217l522.96063 0l0 61.007874l-522.96063 0z" fill-rule="evenodd"/><path fill="#000000" d="m180.51424 417.12402q-1.359375 -1.703125 -2.296875 -4.0q-0.9375 -2.296875 -0.9375 -4.765625q0 -2.15625 0.703125 -4.140625q0.828125 -2.3125 2.53125 -4.59375l1.171875 0q-1.09375 1.890625 -1.453125 2.703125q-0.546875 1.25 -0.875 2.625q-0.390625 1.703125 -0.390625 3.421875q0 4.375 2.71875 8.75l-1.171875 0zm9.400177 -5.109375q-0.921875 0.765625 -1.765625 1.09375q-0.828125 0.3125 -1.796875 0.3125q-1.59375 0 -2.453125 -0.78125q-0.859375 -0.78125 -0.859375 -1.984375q0 -0.71875 0.328125 -1.296875q0.328125 -0.59375 0.84375 -0.9375q0.53125 -0.359375 1.1875 -0.546875q0.46875 -0.125 1.453125 -0.25q1.984375 -0.234375 2.921875 -0.5625q0.015625 -0.34375 0.015625 -0.421875q0 -1.0 -0.46875 -1.421875q-0.625 -0.546875 -1.875 -0.546875q-1.15625 0 -1.703125 0.40625q-0.546875 0.40625 -0.8125 1.421875l-1.609375 -0.21875q0.21875 -1.015625 0.71875 -1.640625q0.5 -0.640625 1.453125 -0.984375q0.953125 -0.34375 2.1875 -0.34375q1.25 0 2.015625 0.296875q0.78125 0.28125 1.140625 0.734375q0.375 0.4375 0.515625 1.109375q0.078125 0.421875 0.078125 1.515625l0 2.1875q0 2.28125 0.109375 2.890625q0.109375 0.59375 0.40625 1.15625l-1.703125 0q-0.265625 -0.515625 -0.328125 -1.1875zm-0.140625 -3.671875q-0.890625 0.375 -2.671875 0.625q-1.015625 0.140625 -1.4375 0.328125q-0.421875 0.1875 -0.65625 0.53125q-0.21875 0.34375 -0.21875 0.78125q0 0.65625 0.5 1.09375q0.5 0.4375 1.453125 0.4375q0.9375 0 1.671875 -0.40625q0.75 -0.421875 1.09375 -1.140625q0.265625 -0.5625 0.265625 -1.640625l0 -0.609375zm5.281967 8.78125l-1.1875 0q2.734375 -4.375 2.734375 -8.75q0 -1.71875 -0.390625 -3.390625q-0.3125 -1.375 -0.875 -2.625q-0.359375 -0.828125 -1.46875 -2.734375l1.1875 0q1.703125 2.28125 2.53125 4.59375q0.6875 1.984375 0.6875 4.140625q0 2.46875 -0.9375 4.765625q-0.9375 2.296875 -2.28125 4.0z" fill-rule="nonzero"/><path fill="#000000" d="m564.5142 417.12402q-1.359375 -1.703125 -2.296875 -4.0q-0.9375 -2.296875 -0.9375 -4.765625q0 -2.15625 0.703125 -4.140625q0.828125 -2.3125 2.53125 -4.59375l1.171875 0q-1.09375 1.890625 -1.453125 2.703125q-0.546875 1.25 -0.875 2.625q-0.390625 1.703125 -0.390625 3.421875q0 4.375 2.71875 8.75l-1.171875 0zm4.5877075 -3.921875l-1.515625 0l0 -13.359375l1.640625 0l0 4.765625q1.046875 -1.296875 2.65625 -1.296875q0.890625 0 1.6875 0.359375q0.796875 0.359375 1.3125 1.015625q0.515625 0.640625 0.796875 1.5625q0.296875 0.921875 0.296875 1.96875q0 2.484375 -1.234375 3.84375q-1.21875 1.359375 -2.953125 1.359375q-1.703125 0 -2.6875 -1.4375l0 1.21875zm-0.015625 -4.90625q0 1.734375 0.484375 2.515625q0.765625 1.265625 2.09375 1.265625q1.078125 0 1.859375 -0.9375q0.78125 -0.9375 0.78125 -2.78125q0 -1.890625 -0.75 -2.796875q-0.75 -0.90625 -1.828125 -0.90625q-1.0625 0 -1.859375 0.9375q-0.78125 0.9375 -0.78125 2.703125zm9.969421 8.828125l-1.1875 0q2.734375 -4.375 2.734375 -8.75q0 -1.71875 -0.390625 -3.390625q-0.3125 -1.375 -0.875 -2.625q-0.359375 -0.828125 -1.46875 -2.734375l1.1875 0q1.703125 2.28125 2.53125 4.59375q0.6875 1.984375 0.6875 4.140625q0 2.46875 -0.9375 4.765625q-0.9375 2.296875 -2.28125 4.0z" fill-rule="nonzero"/><path fill="#000000" fill-opacity="0.0" d="m502.90552 73.456696l157.07086 0l0 234.2362l-157.07086 0z" fill-rule="evenodd"/><path stroke="#000000" stroke-width="4.0" stroke-linejoin="round" stroke-linecap="butt" d="m502.90552 73.456696l157.07086 0l0 234.2362l-157.07086 0z" fill-rule="evenodd"/><path fill="#000000" fill-opacity="0.0" d="m408.02625 119.9895l94.897644 -0.28346252" fill-rule="evenodd"/><path stroke="#000000" stroke-width="4.0" stroke-linejoin="round" stroke-linecap="butt" d="m408.02625 119.9895l94.897644 -0.28346252" fill-rule="evenodd"/><path fill="#000000" fill-opacity="0.0" d="m420.90552 261.30447l80.31494 -0.40945435" fill-rule="evenodd"/><path stroke="#000000" stroke-width="4.0" stroke-linejoin="round" stroke-linecap="butt" d="m420.90552 261.30447l80.31494 -0.40945435" fill-rule="evenodd"/><path fill="#000000" fill-opacity="0.0" d="m503.64304 230.22835l42.236237 31.559067" fill-rule="evenodd"/><path stroke="#000000" stroke-width="4.0" stroke-linejoin="round" stroke-linecap="butt" d="m503.64304 230.22835l42.236237 31.559067" fill-rule="evenodd"/><path fill="#000000" fill-opacity="0.0" d="m502.5092 287.65616l44.251984 -26.771637" fill-rule="evenodd"/><path stroke="#000000" stroke-width="4.0" stroke-linejoin="round" stroke-linecap="butt" d="m502.5092 287.65616l44.251984 -26.771637" fill-rule="evenodd"/><path fill="#000000" fill-opacity="0.0" d="m659.9764 119.732285l80.31494 -0.40944672" fill-rule="evenodd"/><path stroke="#000000" stroke-width="4.0" stroke-linejoin="round" stroke-linecap="butt" d="m659.9764 119.732285l80.31494 -0.40944672" fill-rule="evenodd"/><path fill="#000000" fill-opacity="0.0" d="m620.93964 308.7848l0 49.322815" fill-rule="evenodd"/><path stroke="#000000" stroke-width="4.0" stroke-linejoin="round" stroke-linecap="butt" d="m620.93964 308.7848l0 49.322815" fill-rule="evenodd"/><path fill="#000000" fill-opacity="0.0" d="m394.32547 87.30446l116.15747 0l0 29.732285l-116.15747 0z" fill-rule="evenodd"/><path fill="#000000" d="m404.68484 114.22446l0 -13.359375l5.6875 0q2.140625 0 3.109375 0.359375q0.96875 0.359375 1.546875 1.28125q0.578125 0.921875 0.578125 2.109375q0 1.5 -0.890625 2.484375q-0.875 0.96875 -2.625 1.234375q0.875 0.5 1.4375 1.125q0.578125 0.609375 1.53125 2.15625l1.640625 2.609375l-3.234375 0l-1.9375 -2.90625q-1.046875 -1.5625 -1.4375 -1.96875q-0.375 -0.40625 -0.8125 -0.546875q-0.421875 -0.15625 -1.34375 -0.15625l-0.546875 0l0 5.578125l-2.703125 0zm2.703125 -7.703125l2.0 0q1.9375 0 2.421875 -0.15625q0.484375 -0.171875 0.75 -0.578125q0.28125 -0.40625 0.28125 -1.0q0 -0.671875 -0.359375 -1.078125q-0.359375 -0.421875 -1.015625 -0.53125q-0.328125 -0.046875 -1.96875 -0.046875l-2.109375 0l0 3.390625zm17.113556 7.703125l0 -1.453125q-0.53125 0.78125 -1.390625 1.234375q-0.859375 0.4375 -1.8125 0.4375q-0.96875 0 -1.75 -0.421875q-0.765625 -0.4375 -1.125 -1.203125q-0.34375 -0.78125 -0.34375 -2.140625l0 -6.125l2.5625 0l0 4.4375q0 2.046875 0.140625 2.515625q0.140625 0.453125 0.515625 0.71875q0.375 0.265625 0.953125 0.265625q0.65625 0 1.171875 -0.359375q0.515625 -0.359375 0.703125 -0.890625q0.203125 -0.53125 0.203125 -2.609375l0 -4.078125l2.546875 0l0 9.671875l-2.375 0zm9.474121 -9.671875l0 2.03125l-1.75 0l0 3.90625q0 1.1875 0.046875 1.390625q0.046875 0.1875 0.21875 0.3125q0.1875 0.125 0.4375 0.125q0.359375 0 1.03125 -0.25l0.21875 2.0q-0.890625 0.375 -2.015625 0.375q-0.703125 0 -1.265625 -0.234375q-0.546875 -0.234375 -0.8125 -0.59375q-0.25 -0.375 -0.34375 -1.0q-0.09375 -0.453125 -0.09375 -1.8125l0 -4.21875l-1.171875 0l0 -2.03125l1.171875 0l0 -1.921875l2.578125 -1.5l0 3.421875l1.75 0zm3.681427 2.953125l-2.328125 -0.421875q0.40625 -1.40625 1.359375 -2.078125q0.953125 -0.671875 2.84375 -0.671875q1.703125 0 2.546875 0.40625q0.84375 0.40625 1.171875 1.03125q0.34375 0.625 0.34375 2.28125l-0.015625 3.0q0 1.265625 0.109375 1.875q0.125 0.609375 0.46875 1.296875l-2.53125 0q-0.109375 -0.25 -0.25 -0.75q-0.0625 -0.234375 -0.09375 -0.3125q-0.65625 0.640625 -1.40625 0.96875q-0.734375 0.3125 -1.59375 0.3125q-1.484375 0 -2.34375 -0.8125q-0.859375 -0.8125 -0.859375 -2.046875q0 -0.828125 0.390625 -1.46875q0.390625 -0.640625 1.09375 -0.96875q0.703125 -0.34375 2.03125 -0.609375q1.796875 -0.328125 2.484375 -0.625l0 -0.25q0 -0.75 -0.359375 -1.0625q-0.359375 -0.3125 -1.375 -0.3125q-0.6875 0 -1.078125 0.28125q-0.375 0.265625 -0.609375 0.9375zm3.421875 2.078125q-0.484375 0.15625 -1.5625 0.390625q-1.0625 0.21875 -1.390625 0.4375q-0.5 0.359375 -0.5 0.90625q0 0.53125 0.40625 0.9375q0.40625 0.390625 1.015625 0.390625q0.703125 0 1.328125 -0.46875q0.46875 -0.34375 0.609375 -0.84375q0.09375 -0.328125 0.09375 -1.25l0 -0.5zm21.600677 4.640625l-2.9375 0l-1.171875 -3.03125l-5.328125 0l-1.109375 3.03125l-2.859375 0l5.203125 -13.359375l2.84375 0l5.359375 13.359375zm-4.96875 -5.28125l-1.84375 -4.953125l-1.796875 4.953125l3.640625 0zm5.7073364 0.9375l2.625 -0.25q0.234375 1.3125 0.953125 1.9375q0.734375 0.609375 1.96875 0.609375q1.296875 0 1.953125 -0.546875q0.671875 -0.546875 0.671875 -1.28125q0 -0.484375 -0.28125 -0.8125q-0.28125 -0.328125 -0.96875 -0.578125q-0.484375 -0.15625 -2.171875 -0.578125q-2.15625 -0.546875 -3.03125 -1.328125q-1.234375 -1.09375 -1.234375 -2.6875q0 -1.015625 0.578125 -1.90625q0.578125 -0.890625 1.65625 -1.34375q1.09375 -0.46875 2.640625 -0.46875q2.515625 0 3.78125 1.109375q1.28125 1.09375 1.34375 2.9375l-2.703125 0.109375q-0.171875 -1.03125 -0.75 -1.46875q-0.5625 -0.453125 -1.703125 -0.453125q-1.171875 0 -1.84375 0.46875q-0.421875 0.3125 -0.421875 0.84375q0 0.46875 0.40625 0.796875q0.5 0.4375 2.46875 0.90625q1.96875 0.453125 2.90625 0.953125q0.953125 0.5 1.484375 1.359375q0.53125 0.859375 0.53125 2.125q0 1.15625 -0.640625 2.15625q-0.640625 1.0 -1.8125 1.484375q-1.15625 0.484375 -2.890625 0.484375q-2.53125 0 -3.890625 -1.171875q-1.359375 -1.171875 -1.625 -3.40625zm21.677948 -0.5625l2.609375 0.828125q-0.59375 2.1875 -2.0 3.25q-1.390625 1.0625 -3.546875 1.0625q-2.65625 0 -4.375 -1.8125q-1.703125 -1.828125 -1.703125 -4.984375q0 -3.328125 1.71875 -5.171875q1.71875 -1.84375 4.515625 -1.84375q2.453125 0 3.984375 1.4375q0.921875 0.859375 1.375 2.46875l-2.671875 0.640625q-0.234375 -1.046875 -0.984375 -1.640625q-0.75 -0.609375 -1.828125 -0.609375q-1.484375 0 -2.421875 1.078125q-0.921875 1.0625 -0.921875 3.4375q0 2.53125 0.90625 3.609375q0.921875 1.078125 2.375 1.078125q1.078125 0 1.84375 -0.671875q0.78125 -0.6875 1.125 -2.15625z" fill-rule="nonzero"/><path fill="#000000" fill-opacity="0.0" d="m672.24146 87.53018l64.25195 0l0 29.732285l-64.25195 0z" fill-rule="evenodd"/><path fill="#000000" d="m682.6008 114.45018l0 -13.359375l4.328125 0q2.453125 0 3.203125 0.203125q1.140625 0.296875 1.921875 1.3125q0.78125 1.0 0.78125 2.59375q0 1.234375 -0.453125 2.078125q-0.453125 0.828125 -1.140625 1.3125q-0.6875 0.46875 -1.390625 0.625q-0.96875 0.203125 -2.796875 0.203125l-1.765625 0l0 5.03125l-2.6875 0zm2.6875 -11.09375l0 3.78125l1.484375 0q1.59375 0 2.125 -0.203125q0.546875 -0.203125 0.84375 -0.65625q0.3125 -0.453125 0.3125 -1.03125q0 -0.734375 -0.4375 -1.203125q-0.421875 -0.484375 -1.078125 -0.59375q-0.484375 -0.09375 -1.9375 -0.09375l-1.3125 0zm11.6467285 4.375l-2.328125 -0.421875q0.40625 -1.40625 1.359375 -2.078125q0.953125 -0.671875 2.84375 -0.671875q1.703125 0 2.546875 0.40625q0.84375 0.40625 1.171875 1.03125q0.34375 0.625 0.34375 2.28125l-0.015625 3.0q0 1.265625 0.109375 1.875q0.125 0.609375 0.46875 1.296875l-2.53125 0q-0.109375 -0.25 -0.25 -0.75q-0.0625 -0.234375 -0.09375 -0.3125q-0.65625 0.640625 -1.40625 0.96875q-0.734375 0.3125 -1.59375 0.3125q-1.484375 0 -2.34375 -0.8125q-0.859375 -0.8125 -0.859375 -2.046875q0 -0.828125 0.390625 -1.46875q0.390625 -0.640625 1.09375 -0.96875q0.703125 -0.34375 2.03125 -0.609375q1.796875 -0.328125 2.484375 -0.625l0 -0.25q0 -0.75 -0.359375 -1.0625q-0.359375 -0.3125 -1.375 -0.3125q-0.6875 0 -1.078125 0.28125q-0.375 0.265625 -0.609375 0.9375zm3.421875 2.078125q-0.484375 0.15625 -1.5625 0.390625q-1.0625 0.21875 -1.390625 0.4375q-0.5 0.359375 -0.5 0.90625q0 0.53125 0.40625 0.9375q0.40625 0.390625 1.015625 0.390625q0.703125 0 1.328125 -0.46875q0.46875 -0.34375 0.609375 -0.84375q0.09375 -0.328125 0.09375 -1.25l0 -0.5zm5.0944214 4.640625l0 -13.359375l2.625 0l5.453125 8.921875l0 -8.921875l2.515625 0l0 13.359375l-2.703125 0l-5.390625 -8.703125l0 8.703125l-2.5 0z" fill-rule="nonzero"/><path fill="#000000" fill-opacity="0.0" d="m401.2467 204.42258l101.165375 -0.9763794" fill-rule="evenodd"/><path stroke="#000000" stroke-width="4.0" stroke-linejoin="round" stroke-linecap="butt" d="m401.2467 204.42258l101.165375 -0.9763794" fill-rule="evenodd"/><path fill="#000000" fill-opacity="0.0" d="m394.32547 169.95013l124.37796 0l0 29.732285l-124.37796 0z" fill-rule="evenodd"/><path fill="#000000" d="m404.13797 190.27638q0 -2.046875 0.609375 -3.421875q0.453125 -1.03125 1.234375 -1.828125q0.796875 -0.8125 1.734375 -1.203125q1.25 -0.53125 2.875 -0.53125q2.953125 0 4.71875 1.828125q1.78125 1.828125 1.78125 5.09375q0 3.234375 -1.765625 5.0625q-1.75 1.828125 -4.6875 1.828125q-2.984375 0 -4.75 -1.8125q-1.75 -1.828125 -1.75 -5.015625zm2.78125 -0.09375q0 2.265625 1.046875 3.4375q1.046875 1.171875 2.65625 1.171875q1.609375 0 2.640625 -1.15625q1.046875 -1.171875 1.046875 -3.484375q0 -2.296875 -1.015625 -3.421875q-1.0 -1.140625 -2.671875 -1.140625q-1.671875 0 -2.6875 1.15625q-1.015625 1.140625 -1.015625 3.4375zm20.698914 -0.125l-2.53125 0.453125q-0.125 -0.75 -0.578125 -1.125q-0.453125 -0.390625 -1.171875 -0.390625q-0.953125 0 -1.53125 0.65625q-0.5625 0.65625 -0.5625 2.203125q0 1.734375 0.578125 2.4375q0.578125 0.703125 1.546875 0.703125q0.734375 0 1.203125 -0.40625q0.46875 -0.421875 0.65625 -1.421875l2.515625 0.421875q-0.390625 1.734375 -1.515625 2.625q-1.109375 0.875 -2.96875 0.875q-2.125 0 -3.390625 -1.328125q-1.25 -1.34375 -1.25 -3.71875q0 -2.390625 1.265625 -3.71875q1.265625 -1.34375 3.421875 -1.34375q1.765625 0 2.796875 0.765625q1.046875 0.75 1.515625 2.3125zm8.297607 6.8125l0 -1.453125q-0.53125 0.78125 -1.390625 1.234375q-0.859375 0.4375 -1.8125 0.4375q-0.96875 0 -1.75 -0.421875q-0.765625 -0.4375 -1.125 -1.203125q-0.34375 -0.78125 -0.34375 -2.140625l0 -6.125l2.5625 0l0 4.4375q0 2.046875 0.140625 2.515625q0.140625 0.453125 0.515625 0.71875q0.375 0.265625 0.953125 0.265625q0.65625 0 1.171875 -0.359375q0.515625 -0.359375 0.703125 -0.890625q0.203125 -0.53125 0.203125 -2.609375l0 -4.078125l2.546875 0l0 9.671875l-2.375 0zm4.9584656 -9.671875l2.390625 0l0 1.421875q0.46875 -0.734375 1.25 -1.1875q0.796875 -0.453125 1.765625 -0.453125q1.6875 0 2.859375 1.328125q1.171875 1.3125 1.171875 3.671875q0 2.421875 -1.1875 3.765625q-1.1875 1.34375 -2.859375 1.34375q-0.8125 0 -1.46875 -0.3125q-0.640625 -0.328125 -1.359375 -1.09375l0 4.875l-2.5625 0l0 -13.359375zm2.53125 4.671875q0 1.625 0.640625 2.40625q0.65625 0.78125 1.578125 0.78125q0.90625 0 1.484375 -0.71875q0.59375 -0.71875 0.59375 -2.34375q0 -1.515625 -0.609375 -2.25q-0.609375 -0.75 -1.515625 -0.75q-0.9375 0 -1.5625 0.734375q-0.609375 0.71875 -0.609375 2.140625zm10.849121 -1.71875l-2.328125 -0.421875q0.40625 -1.40625 1.359375 -2.078125q0.953125 -0.671875 2.84375 -0.671875q1.703125 0 2.546875 0.40625q0.84375 0.40625 1.171875 1.03125q0.34375 0.625 0.34375 2.28125l-0.015625 3.0q0 1.265625 0.109375 1.875q0.125 0.609375 0.46875 1.296875l-2.53125 0q-0.109375 -0.25 -0.25 -0.75q-0.0625 -0.234375 -0.09375 -0.3125q-0.65625 0.640625 -1.40625 0.96875q-0.734375 0.3125 -1.59375 0.3125q-1.484375 0 -2.34375 -0.8125q-0.859375 -0.8125 -0.859375 -2.046875q0 -0.828125 0.390625 -1.46875q0.390625 -0.640625 1.09375 -0.96875q0.703125 -0.34375 2.03125 -0.609375q1.796875 -0.328125 2.484375 -0.625l0 -0.25q0 -0.75 -0.359375 -1.0625q-0.359375 -0.3125 -1.375 -0.3125q-0.6875 0 -1.078125 0.28125q-0.375 0.265625 -0.609375 0.9375zm3.421875 2.078125q-0.484375 0.15625 -1.5625 0.390625q-1.0625 0.21875 -1.390625 0.4375q-0.5 0.359375 -0.5 0.90625q0 0.53125 0.40625 0.9375q0.40625 0.390625 1.015625 0.390625q0.703125 0 1.328125 -0.46875q0.46875 -0.34375 0.609375 -0.84375q0.09375 -0.328125 0.09375 -1.25l0 -0.5zm13.485077 -2.171875l-2.53125 0.453125q-0.125 -0.75 -0.578125 -1.125q-0.453125 -0.390625 -1.171875 -0.390625q-0.953125 0 -1.53125 0.65625q-0.5625 0.65625 -0.5625 2.203125q0 1.734375 0.578125 2.4375q0.578125 0.703125 1.546875 0.703125q0.734375 0 1.203125 -0.40625q0.46875 -0.421875 0.65625 -1.421875l2.515625 0.421875q-0.390625 1.734375 -1.515625 2.625q-1.109375 0.875 -2.96875 0.875q-2.125 0 -3.390625 -1.328125q-1.25 -1.34375 -1.25 -3.71875q0 -2.390625 1.265625 -3.71875q1.265625 -1.34375 3.421875 -1.34375q1.765625 0 2.796875 0.765625q1.046875 0.75 1.515625 2.3125zm1.9382324 -4.171875l0 -2.375l2.5625 0l0 2.375l-2.5625 0zm0 10.984375l0 -9.671875l2.5625 0l0 9.671875l-2.5625 0zm4.5895386 -4.96875q0 -1.28125 0.625 -2.46875q0.625 -1.203125 1.78125 -1.828125q1.15625 -0.625 2.578125 -0.625q2.1875 0 3.59375 1.421875q1.40625 1.421875 1.40625 3.609375q0 2.1875 -1.421875 3.640625q-1.421875 1.4375 -3.5625 1.4375q-1.328125 0 -2.546875 -0.59375q-1.203125 -0.609375 -1.828125 -1.765625q-0.625 -1.171875 -0.625 -2.828125zm2.625 0.125q0 1.453125 0.671875 2.21875q0.6875 0.75 1.6875 0.75q1.0 0 1.671875 -0.75q0.6875 -0.765625 0.6875 -2.234375q0 -1.421875 -0.6875 -2.1875q-0.671875 -0.765625 -1.671875 -0.765625q-1.0 0 -1.6875 0.765625q-0.671875 0.765625 -0.671875 2.203125zm1.0625 -6.015625l1.25 -2.71875l2.875 0l-2.5 2.71875l-1.625 0zm17.099121 10.859375l-2.5625 0l0 -4.9375q0 -1.5625 -0.171875 -2.015625q-0.15625 -0.46875 -0.53125 -0.71875q-0.359375 -0.265625 -0.875 -0.265625q-0.671875 0 -1.203125 0.375q-0.53125 0.359375 -0.734375 0.96875q-0.1875 0.59375 -0.1875 2.21875l0 4.375l-2.546875 0l0 -9.671875l2.375 0l0 1.421875q1.265625 -1.640625 3.1875 -1.640625q0.84375 0 1.546875 0.3125q0.703125 0.296875 1.0625 0.78125q0.359375 0.46875 0.5 1.078125q0.140625 0.59375 0.140625 1.703125l0 6.015625z" fill-rule="nonzero"/><path fill="#000000" fill-opacity="0.0" d="m430.25986 226.3307l70.9606 0l0 29.732285l-70.9606 0z" fill-rule="evenodd"/><path fill="#000000" d="m440.61923 253.2507l0 -13.359375l5.6875 0q2.140625 0 3.109375 0.359375q0.96875 0.359375 1.546875 1.28125q0.578125 0.921875 0.578125 2.109375q0 1.5 -0.890625 2.484375q-0.875 0.96875 -2.625 1.234375q0.875 0.5 1.4375 1.125q0.578125 0.609375 1.53125 2.15625l1.640625 2.609375l-3.234375 0l-1.9375 -2.90625q-1.046875 -1.5625 -1.4375 -1.96875q-0.375 -0.40625 -0.8125 -0.546875q-0.421875 -0.15625 -1.34375 -0.15625l-0.546875 0l0 5.578125l-2.703125 0zm2.703125 -7.703125l2.0 0q1.9375 0 2.421875 -0.15625q0.484375 -0.171875 0.75 -0.578125q0.28125 -0.40625 0.28125 -1.0q0 -0.671875 -0.359375 -1.078125q-0.359375 -0.421875 -1.015625 -0.53125q-0.328125 -0.046875 -1.96875 -0.046875l-2.109375 0l0 3.390625zm16.34793 4.625l2.546875 0.421875q-0.484375 1.40625 -1.546875 2.140625q-1.0625 0.734375 -2.65625 0.734375q-2.515625 0 -3.734375 -1.65625q-0.953125 -1.3125 -0.953125 -3.328125q0 -2.40625 1.25 -3.765625q1.265625 -1.359375 3.1875 -1.359375q2.15625 0 3.40625 1.421875q1.25 1.421875 1.1875 4.375l-6.40625 0q0.03125 1.140625 0.609375 1.78125q0.59375 0.625 1.484375 0.625q0.59375 0 1.0 -0.328125q0.421875 -0.328125 0.625 -1.0625zm0.15625 -2.59375q-0.03125 -1.109375 -0.578125 -1.6875q-0.546875 -0.578125 -1.328125 -0.578125q-0.84375 0 -1.390625 0.609375q-0.546875 0.609375 -0.53125 1.65625l3.828125 0zm4.6257324 5.671875l0 -13.359375l2.5625 0l0 13.359375l-2.5625 0zm4.5895386 -4.96875q0 -1.28125 0.625 -2.46875q0.625 -1.203125 1.78125 -1.828125q1.15625 -0.625 2.578125 -0.625q2.1875 0 3.59375 1.421875q1.40625 1.421875 1.40625 3.609375q0 2.1875 -1.421875 3.640625q-1.421875 1.4375 -3.5625 1.4375q-1.328125 0 -2.546875 -0.59375q-1.203125 -0.609375 -1.828125 -1.765625q-0.625 -1.171875 -0.625 -2.828125zm2.625 0.125q0 1.453125 0.671875 2.21875q0.6875 0.75 1.6875 0.75q1.0 0 1.671875 -0.75q0.6875 -0.765625 0.6875 -2.234375q0 -1.421875 -0.6875 -2.1875q-0.671875 -0.765625 -1.671875 -0.765625q-1.0 0 -1.6875 0.765625q-0.671875 0.765625 -0.671875 2.203125zm9.302246 -6.140625l0 -2.375l2.5625 0l0 2.375l-2.5625 0zm2.5625 1.3125l0 9.375q0 1.84375 -0.25 2.59375q-0.234375 0.765625 -0.921875 1.1875q-0.6875 0.4375 -1.75 0.4375q-0.390625 0 -0.828125 -0.0625q-0.4375 -0.0625 -0.953125 -0.203125l0.453125 -2.1875q0.171875 0.03125 0.34375 0.046875q0.15625 0.03125 0.296875 0.03125q0.390625 0 0.640625 -0.171875q0.25 -0.15625 0.328125 -0.40625q0.078125 -0.234375 0.078125 -1.421875l0 -9.21875l2.5625 0z" fill-rule="nonzero"/><path fill="#000000" fill-opacity="0.0" d="m506.87665 344.7139l72.409424 0l0 29.7323l-72.409424 0z" fill-rule="evenodd"/><path fill="#000000" d="m517.236 371.6339l0 -13.359375l5.6875 0q2.140625 0 3.109375 0.359375q0.96875 0.359375 1.546875 1.28125q0.578125 0.921875 0.578125 2.109375q0 1.5 -0.890625 2.484375q-0.875 0.96875 -2.625 1.234375q0.875 0.5 1.4375 1.125q0.578125 0.609375 1.53125 2.15625l1.640625 2.609375l-3.234375 0l-1.9375 -2.90625q-1.046875 -1.5625 -1.4375 -1.96875q-0.375 -0.40625 -0.8125 -0.546875q-0.421875 -0.15625 -1.34375 -0.15625l-0.546875 0l0 5.578125l-2.703125 0zm2.703125 -7.703125l2.0 0q1.9375 0 2.421875 -0.15625q0.484375 -0.171875 0.75 -0.578125q0.28125 -0.40625 0.28125 -1.0q0 -0.671875 -0.359375 -1.078125q-0.359375 -0.421875 -1.015625 -0.53125q-0.328125 -0.046875 -1.96875 -0.046875l-2.109375 0l0 3.390625zm16.347961 4.625l2.546875 0.421875q-0.484375 1.40625 -1.546875 2.140625q-1.0625 0.734375 -2.65625 0.734375q-2.515625 0 -3.734375 -1.65625q-0.953125 -1.3125 -0.953125 -3.328125q0 -2.40625 1.25 -3.765625q1.265625 -1.359375 3.1875 -1.359375q2.15625 0 3.40625 1.421875q1.25 1.421875 1.1875 4.375l-6.40625 0q0.03125 1.140625 0.609375 1.78125q0.59375 0.625 1.484375 0.625q0.59375 0 1.0 -0.328125q0.421875 -0.328125 0.625 -1.0625zm0.15625 -2.59375q-0.03125 -1.109375 -0.578125 -1.6875q-0.546875 -0.578125 -1.328125 -0.578125q-0.84375 0 -1.390625 0.609375q-0.546875 0.609375 -0.53125 1.65625l3.828125 0zm3.7194214 2.90625l2.5625 -0.390625q0.171875 0.75 0.671875 1.140625q0.5 0.390625 1.40625 0.390625q0.984375 0 1.484375 -0.375q0.34375 -0.25 0.34375 -0.671875q0 -0.296875 -0.1875 -0.484375q-0.1875 -0.1875 -0.859375 -0.34375q-3.09375 -0.6875 -3.921875 -1.25q-1.140625 -0.78125 -1.140625 -2.171875q0 -1.265625 0.984375 -2.109375q1.0 -0.859375 3.078125 -0.859375q1.984375 0 2.953125 0.65625q0.96875 0.640625 1.328125 1.90625l-2.40625 0.4375q-0.15625 -0.5625 -0.59375 -0.859375q-0.421875 -0.296875 -1.234375 -0.296875q-1.0 0 -1.4375 0.28125q-0.296875 0.203125 -0.296875 0.515625q0 0.265625 0.25 0.46875q0.34375 0.25 2.390625 0.71875q2.046875 0.453125 2.859375 1.140625q0.796875 0.671875 0.796875 1.890625q0 1.34375 -1.109375 2.296875q-1.109375 0.953125 -3.28125 0.953125q-1.984375 0 -3.140625 -0.796875q-1.140625 -0.8125 -1.5 -2.1875zm16.875732 -0.3125l2.546875 0.421875q-0.484375 1.40625 -1.546875 2.140625q-1.0625 0.734375 -2.65625 0.734375q-2.515625 0 -3.734375 -1.65625q-0.953125 -1.3125 -0.953125 -3.328125q0 -2.40625 1.25 -3.765625q1.265625 -1.359375 3.1875 -1.359375q2.15625 0 3.40625 1.421875q1.25 1.421875 1.1875 4.375l-6.40625 0q0.03125 1.140625 0.609375 1.78125q0.59375 0.625 1.484375 0.625q0.59375 0 1.0 -0.328125q0.421875 -0.328125 0.625 -1.0625zm0.15625 -2.59375q-0.03125 -1.109375 -0.578125 -1.6875q-0.546875 -0.578125 -1.328125 -0.578125q-0.84375 0 -1.390625 0.609375q-0.546875 0.609375 -0.53125 1.65625l3.828125 0zm9.063232 -4.0l0 2.03125l-1.75 0l0 3.90625q0 1.1875 0.046875 1.390625q0.046875 0.1875 0.21875 0.3125q0.1875 0.125 0.4375 0.125q0.359375 0 1.03125 -0.25l0.21875 2.0q-0.890625 0.375 -2.015625 0.375q-0.703125 0 -1.265625 -0.234375q-0.546875 -0.234375 -0.8125 -0.59375q-0.25 -0.375 -0.34375 -1.0q-0.09375 -0.453125 -0.09375 -1.8125l0 -4.21875l-1.171875 0l0 -2.03125l1.171875 0l0 -1.921875l2.578125 -1.5l0 3.421875l1.75 0z" fill-rule="nonzero"/><path fill="#000000" fill-opacity="0.0" d="m543.08136 309.82022l0 49.322815" fill-rule="evenodd"/><path stroke="#000000" stroke-width="4.0" stroke-linejoin="round" stroke-linecap="butt" d="m543.08136 309.82022l0 49.322815" fill-rule="evenodd"/><path fill="#000000" fill-opacity="0.0" d="m585.2966 344.7139l76.28351 0l0 29.7323l-76.28351 0z" fill-rule="evenodd"/><path fill="#000000" d="m595.6247 371.6339l0 -13.359375l4.03125 0l2.421875 9.109375l2.390625 -9.109375l4.046875 0l0 13.359375l-2.5 0l0 -10.515625l-2.65625 10.515625l-2.59375 0l-2.640625 -10.515625l0 10.515625l-2.5 0zm14.9627075 -4.96875q0 -1.28125 0.625 -2.46875q0.625 -1.203125 1.78125 -1.828125q1.15625 -0.625 2.578125 -0.625q2.1875 0 3.59375 1.421875q1.40625 1.421875 1.40625 3.609375q0 2.1875 -1.421875 3.640625q-1.421875 1.4375 -3.5625 1.4375q-1.328125 0 -2.546875 -0.59375q-1.203125 -0.609375 -1.828125 -1.765625q-0.625 -1.171875 -0.625 -2.828125zm2.625 0.125q0 1.453125 0.671875 2.21875q0.6875 0.75 1.6875 0.75q1.0 0 1.671875 -0.75q0.6875 -0.765625 0.6875 -2.234375q0 -1.421875 -0.6875 -2.1875q-0.671875 -0.765625 -1.671875 -0.765625q-1.0 0 -1.6875 0.765625q-0.671875 0.765625 -0.671875 2.203125zm18.239746 4.84375l-2.390625 0l0 -1.421875q-0.59375 0.828125 -1.40625 1.234375q-0.796875 0.40625 -1.609375 0.40625q-1.671875 0 -2.859375 -1.34375q-1.1875 -1.34375 -1.1875 -3.75q0 -2.453125 1.15625 -3.734375q1.15625 -1.28125 2.921875 -1.28125q1.625 0 2.8125 1.34375l0 -4.8125l2.5625 0l0 13.359375zm-6.84375 -5.046875q0 1.546875 0.4375 2.234375q0.609375 1.015625 1.71875 1.015625q0.890625 0 1.5 -0.75q0.625 -0.765625 0.625 -2.25q0 -1.671875 -0.609375 -2.40625q-0.59375 -0.734375 -1.53125 -0.734375q-0.90625 0 -1.53125 0.734375q-0.609375 0.71875 -0.609375 2.15625zm8.770935 0.078125q0 -1.28125 0.625 -2.46875q0.625 -1.203125 1.78125 -1.828125q1.15625 -0.625 2.578125 -0.625q2.1875 0 3.59375 1.421875q1.40625 1.421875 1.40625 3.609375q0 2.1875 -1.421875 3.640625q-1.421875 1.4375 -3.5625 1.4375q-1.328125 0 -2.546875 -0.59375q-1.203125 -0.609375 -1.828125 -1.765625q-0.625 -1.171875 -0.625 -2.828125zm2.625 0.125q0 1.453125 0.671875 2.21875q0.6875 0.75 1.6875 0.75q1.0 0 1.671875 -0.75q0.6875 -0.765625 0.6875 -2.234375q0 -1.421875 -0.6875 -2.1875q-0.671875 -0.765625 -1.671875 -0.765625q-1.0 0 -1.6875 0.765625q-0.671875 0.765625 -0.671875 2.203125z" fill-rule="nonzero"/><path fill="#000000" fill-opacity="0.0" d="m408.02625 155.34383l94.897644 -0.28346252" fill-rule="evenodd"/><path stroke="#000000" stroke-width="4.0" stroke-linejoin="round" stroke-linecap="butt" d="m408.02625 155.34383l94.897644 -0.28346252" fill-rule="evenodd"/><path fill="#000000" fill-opacity="0.0" d="m394.32547 122.65879l116.15747 0l0 29.732292l-116.15747 0z" fill-rule="evenodd"/><path fill="#000000" d="m404.68484 149.5788l0 -13.359375l5.6875 0q2.140625 0 3.109375 0.359375q0.96875 0.359375 1.546875 1.28125q0.578125 0.921875 0.578125 2.109375q0 1.5 -0.890625 2.484375q-0.875 0.96875 -2.625 1.234375q0.875 0.5 1.4375 1.125q0.578125 0.609375 1.53125 2.15625l1.640625 2.609375l-3.234375 0l-1.9375 -2.90625q-1.046875 -1.5625 -1.4375 -1.96875q-0.375 -0.40625 -0.8125 -0.546875q-0.421875 -0.15625 -1.34375 -0.15625l-0.546875 0l0 5.578125l-2.703125 0zm2.703125 -7.703125l2.0 0q1.9375 0 2.421875 -0.15625q0.484375 -0.171875 0.75 -0.578125q0.28125 -0.40625 0.28125 -1.0q0 -0.671875 -0.359375 -1.078125q-0.359375 -0.421875 -1.015625 -0.53125q-0.328125 -0.046875 -1.96875 -0.046875l-2.109375 0l0 3.390625zm17.113556 7.703125l0 -1.453125q-0.53125 0.78125 -1.390625 1.234375q-0.859375 0.4375 -1.8125 0.4375q-0.96875 0 -1.75 -0.421875q-0.765625 -0.4375 -1.125 -1.203125q-0.34375 -0.78125 -0.34375 -2.140625l0 -6.125l2.5625 0l0 4.4375q0 2.046875 0.140625 2.515625q0.140625 0.453125 0.515625 0.71875q0.375 0.265625 0.953125 0.265625q0.65625 0 1.171875 -0.359375q0.515625 -0.359375 0.703125 -0.890625q0.203125 -0.53125 0.203125 -2.609375l0 -4.078125l2.546875 0l0 9.671875l-2.375 0zm9.474121 -9.671875l0 2.03125l-1.75 0l0 3.90625q0 1.1875 0.046875 1.390625q0.046875 0.1875 0.21875 0.3125q0.1875 0.125 0.4375 0.125q0.359375 0 1.03125 -0.25l0.21875 2.0q-0.890625 0.375 -2.015625 0.375q-0.703125 0 -1.265625 -0.234375q-0.546875 -0.234375 -0.8125 -0.59375q-0.25 -0.375 -0.34375 -1.0q-0.09375 -0.453125 -0.09375 -1.8125l0 -4.21875l-1.171875 0l0 -2.03125l1.171875 0l0 -1.921875l2.578125 -1.5l0 3.421875l1.75 0zm3.681427 2.953125l-2.328125 -0.421875q0.40625 -1.40625 1.359375 -2.078125q0.953125 -0.671875 2.84375 -0.671875q1.703125 0 2.546875 0.40625q0.84375 0.40625 1.171875 1.03125q0.34375 0.625 0.34375 2.28125l-0.015625 3.0q0 1.265625 0.109375 1.875q0.125 0.609375 0.46875 1.296875l-2.53125 0q-0.109375 -0.25 -0.25 -0.75q-0.0625 -0.234375 -0.09375 -0.3125q-0.65625 0.640625 -1.40625 0.96875q-0.734375 0.3125 -1.59375 0.3125q-1.484375 0 -2.34375 -0.8125q-0.859375 -0.8125 -0.859375 -2.046875q0 -0.828125 0.390625 -1.46875q0.390625 -0.640625 1.09375 -0.96875q0.703125 -0.34375 2.03125 -0.609375q1.796875 -0.328125 2.484375 -0.625l0 -0.25q0 -0.75 -0.359375 -1.0625q-0.359375 -0.3125 -1.375 -0.3125q-0.6875 0 -1.078125 0.28125q-0.375 0.265625 -0.609375 0.9375zm3.421875 2.078125q-0.484375 0.15625 -1.5625 0.390625q-1.0625 0.21875 -1.390625 0.4375q-0.5 0.359375 -0.5 0.90625q0 0.53125 0.40625 0.9375q0.40625 0.390625 1.015625 0.390625q0.703125 0 1.328125 -0.46875q0.46875 -0.34375 0.609375 -0.84375q0.09375 -0.328125 0.09375 -1.25l0 -0.5zm10.230896 -8.71875l4.9375 0q1.65625 0 2.53125 0.265625q1.1875 0.34375 2.015625 1.234375q0.84375 0.875 1.28125 2.15625q0.4375 1.28125 0.4375 3.15625q0 1.640625 -0.40625 2.84375q-0.5 1.453125 -1.4375 2.359375q-0.703125 0.671875 -1.890625 1.0625q-0.890625 0.28125 -2.390625 0.28125l-5.078125 0l0 -13.359375zm2.703125 2.265625l0 8.84375l2.015625 0q1.125 0 1.625 -0.125q0.65625 -0.171875 1.078125 -0.5625q0.4375 -0.390625 0.703125 -1.28125q0.28125 -0.90625 0.28125 -2.453125q0 -1.546875 -0.28125 -2.375q-0.265625 -0.828125 -0.765625 -1.28125q-0.484375 -0.46875 -1.234375 -0.640625q-0.5625 -0.125 -2.21875 -0.125l-1.203125 0zm10.785431 11.09375l0 -13.359375l9.90625 0l0 2.265625l-7.21875 0l0 2.953125l6.71875 0l0 2.25l-6.71875 0l0 3.640625l7.46875 0l0 2.25l-10.15625 0zm11.756073 -4.34375l2.625 -0.25q0.234375 1.3125 0.953125 1.9375q0.734375 0.609375 1.96875 0.609375q1.296875 0 1.953125 -0.546875q0.671875 -0.546875 0.671875 -1.28125q0 -0.484375 -0.28125 -0.8125q-0.28125 -0.328125 -0.96875 -0.578125q-0.484375 -0.15625 -2.171875 -0.578125q-2.15625 -0.546875 -3.03125 -1.328125q-1.234375 -1.09375 -1.234375 -2.6875q0 -1.015625 0.578125 -1.90625q0.578125 -0.890625 1.65625 -1.34375q1.09375 -0.46875 2.640625 -0.46875q2.515625 0 3.78125 1.109375q1.28125 1.09375 1.34375 2.9375l-2.703125 0.109375q-0.171875 -1.03125 -0.75 -1.46875q-0.5625 -0.453125 -1.703125 -0.453125q-1.171875 0 -1.84375 0.46875q-0.421875 0.3125 -0.421875 0.84375q0 0.46875 0.40625 0.796875q0.5 0.4375 2.46875 0.90625q1.96875 0.453125 2.90625 0.953125q0.953125 0.5 1.484375 1.359375q0.53125 0.859375 0.53125 2.125q0 1.15625 -0.640625 2.15625q-0.640625 1.0 -1.8125 1.484375q-1.15625 0.484375 -2.890625 0.484375q-2.53125 0 -3.890625 -1.171875q-1.359375 -1.171875 -1.625 -3.40625z" fill-rule="nonzero"/><path fill="#000000" fill-opacity="0.0" d="m269.2546 266.94742l78.92911 0l0 62.393707l-78.92911 0z" fill-rule="evenodd"/><path fill="#000000" d="m294.975 290.5193l0 4.078125l-3.765625 0l0 -3.21875q0 -2.625 0.625 -3.796875q0.828125 -1.5625 2.59375 -2.359375l0.859375 1.375q-1.0625 0.4375 -1.578125 1.328125q-0.5 0.890625 -0.5625 2.59375l1.828125 0zm4.2773438 9.703125q0 -5.078125 1.046875 -8.171875q1.0469055 -3.09375 3.1094055 -4.765625q2.0625 -1.6875 5.1875 -1.6875q2.296875 0 4.03125 0.9375q1.75 0.921875 2.875 2.671875q1.140625 1.734375 1.78125 4.25q0.640625 2.515625 0.640625 6.765625q0 5.046875 -1.03125 8.140625q-1.03125 3.09375 -3.09375 4.78125q-2.0625 1.6875 -5.203125 1.6875q-4.140625 0 -6.5 -2.96875q-2.8437805 -3.578125 -2.8437805 -11.640625zm3.6250305 0q0 7.046875 1.640625 9.390625q1.65625 2.328125 4.078125 2.328125q2.421875 0 4.0625 -2.34375q1.65625 -2.34375 1.65625 -9.375q0 -7.0625 -1.65625 -9.390625q-1.640625 -2.328125 -4.109375 -2.328125q-2.421875 0 -3.859375 2.046875q-1.8125 2.625 -1.8125 9.671875zm19.386719 -10.71875l0 -4.078125l3.765625 0l0 3.21875q0 2.609375 -0.59375 3.765625q-0.84375 1.578125 -2.625 2.390625l-0.859375 -1.390625q1.0625 -0.4375 1.578125 -1.359375q0.515625 -0.921875 0.578125 -2.546875l-1.84375 0z" fill-rule="nonzero"/><path fill="#000000" fill-opacity="0.0" d="m266.4042 80.80315l84.62991 0l0 62.393707l-84.62991 0z" fill-rule="evenodd"/><path fill="#000000" d="m283.29532 104.37502l0 4.078125l-3.765625 0l0 -3.21875q0 -2.625 0.625 -3.796875q0.828125 -1.5625 2.59375 -2.359375l0.859375 1.375q-1.0625 0.4375 -1.578125 1.328125q-0.5 0.890625 -0.5625 2.59375l1.828125 0zm12.636719 19.203125l0 -7.859375l-7.78125 0l0 -3.28125l7.78125 0l0 -7.796875l3.328125 0l0 7.796875l7.796875 0l0 3.28125l-7.796875 0l0 7.859375l-3.328125 0zm28.25 4.6249924l-3.515625 0l0 -22.406242q-1.265625 1.21875 -3.328125 2.4375q-2.0625 1.203125 -3.703125 1.796875l0 -3.390625q2.953125 -1.390625 5.15625 -3.359375q2.203125 -1.96875 3.125 -3.828125l2.265625 0l0 28.749992zm9.761719 -24.843742l0 -4.078125l3.765625 0l0 3.21875q0 2.609375 -0.59375 3.765625q-0.84375 1.578125 -2.625 2.390625l-0.859375 -1.390625q1.0625 -0.4375 1.578125 -1.359375q0.515625 -0.921875 0.578125 -2.546875l-1.84375 0z" fill-rule="nonzero"/><path fill="#000000" fill-opacity="0.0" d="m50.776707 274.1261l15.499233 -9.603363" fill-rule="evenodd"/><path stroke="#000000" stroke-width="8.0" stroke-linejoin="round" stroke-linecap="butt" d="m50.776707 274.1261l15.499233 -9.603363" fill-rule="evenodd"/><path fill="#000000" fill-opacity="0.0" d="m66.01017 264.7408l15.530891 9.385284" fill-rule="evenodd"/><path stroke="#000000" stroke-width="8.0" stroke-linejoin="round" stroke-linecap="butt" d="m66.01017 264.7408l15.530891 9.385284" fill-rule="evenodd"/><path fill="#b7b7b7" d="m69.22863 206.64456l0 0c0.8477173 0 1.5349274 0.6872101 1.5349274 1.5349274l0 171.51555c0 0.40707397 -0.16171265 0.79748535 -0.4495697 1.0853577c-0.28785706 0.2878418 -0.67826843 0.44955444 -1.0853577 0.44955444l-6.1394997 0c-0.8477135 0 -1.5349236 -0.6871948 -1.5349236 -1.5349121l0 -171.51555c0 -0.8477173 0.6872101 -1.5349274 1.5349236 -1.5349274z" fill-rule="evenodd"/><path stroke="#000000" stroke-width="1.0" stroke-linejoin="round" stroke-linecap="butt" d="m69.22863 206.64456l0 0c0.8477173 0 1.5349274 0.6872101 1.5349274 1.5349274l0 171.51555c0 0.40707397 -0.16171265 0.79748535 -0.4495697 1.0853577c-0.28785706 0.2878418 -0.67826843 0.44955444 -1.0853577 0.44955444l-6.1394997 0c-0.8477135 0 -1.5349236 -0.6871948 -1.5349236 -1.5349121l0 -171.51555c0 -0.8477173 0.6872101 -1.5349274 1.5349236 -1.5349274z" fill-rule="evenodd"/><path fill="#ff0000" d="m155.46867 338.0267l0 8.422363l-17.849136 0l0 -8.422363z" fill-rule="evenodd"/><path stroke="#000000" stroke-width="1.0" stroke-linejoin="round" stroke-linecap="butt" d="m155.46867 338.0267l0 8.422363l-17.849136 0l0 -8.422363z" fill-rule="evenodd"/><path fill="#ffffff" d="m173.31781 338.0267l0 8.422363l-17.849136 0l0 -8.422363z" fill-rule="evenodd"/><path stroke="#000000" stroke-width="1.0" stroke-linejoin="round" stroke-linecap="butt" d="m173.31781 338.0267l0 8.422363l-17.849136 0l0 -8.422363z" fill-rule="evenodd"/><path fill="#ff0000" d="m191.16695 338.0267l0 8.422363l-17.849136 0l0 -8.422363z" fill-rule="evenodd"/><path stroke="#000000" stroke-width="1.0" stroke-linejoin="round" stroke-linecap="butt" d="m191.16695 338.0267l0 8.422363l-17.849136 0l0 -8.422363z" fill-rule="evenodd"/><path fill="#ffffff" d="m209.01608 338.0267l0 8.422363l-17.849136 0l0 -8.422363z" fill-rule="evenodd"/><path stroke="#000000" stroke-width="1.0" stroke-linejoin="round" stroke-linecap="butt" d="m209.01608 338.0267l0 8.422363l-17.849136 0l0 -8.422363z" fill-rule="evenodd"/><path fill="#ff0000" d="m226.86522 338.0267l0 8.422363l-17.849136 0l0 -8.422363z" fill-rule="evenodd"/><path stroke="#000000" stroke-width="1.0" stroke-linejoin="round" stroke-linecap="butt" d="m226.86522 338.0267l0 8.422363l-17.849136 0l0 -8.422363z" fill-rule="evenodd"/><path fill="#ffffff" d="m244.71436 338.0267l0 8.422363l-17.849136 0l0 -8.422363z" fill-rule="evenodd"/><path stroke="#000000" stroke-width="1.0" stroke-linejoin="round" stroke-linecap="butt" d="m244.71436 338.0267l0 8.422363l-17.849136 0l0 -8.422363z" fill-rule="evenodd"/><path fill="#ffffff" d="m101.921265 338.0267l0 8.422363l-17.849136 0l0 -8.422363z" fill-rule="evenodd"/><path stroke="#000000" stroke-width="1.0" stroke-linejoin="round" stroke-linecap="butt" d="m101.921265 338.0267l0 8.422363l-17.849136 0l0 -8.422363z" fill-rule="evenodd"/><path fill="#ff0000" d="m119.7704 338.0267l0 8.422363l-17.849136 0l0 -8.422363z" fill-rule="evenodd"/><path stroke="#000000" stroke-width="1.0" stroke-linejoin="round" stroke-linecap="butt" d="m119.7704 338.0267l0 8.422363l-17.849136 0l0 -8.422363z" fill-rule="evenodd"/><path fill="#ffffff" d="m137.61954 338.0267l0 8.422363l-17.849136 0l0 -8.422363z" fill-rule="evenodd"/><path stroke="#000000" stroke-width="1.0" stroke-linejoin="round" stroke-linecap="butt" d="m137.61954 338.0267l0 8.422363l-17.849136 0l0 -8.422363z" fill-rule="evenodd"/><path fill="#000000" d="m82.66459 329.3763l0 0c2.367752 0 4.2871933 1.9194336 4.2871933 4.287201l0 17.148224l0 0c0 1.1370544 -0.45168304 2.2275085 -1.2556915 3.0315247c-0.80400085 0.8039856 -1.8944702 1.2556763 -3.0315018 1.2556763l-30.778965 0c-2.367752 0 -4.2871933 -1.9194336 -4.2871933 -4.287201l0 -17.148224c0 -2.3677673 1.9194412 -4.287201 4.2871933 -4.287201z" fill-rule="evenodd"/><path stroke="#000000" stroke-width="1.0" stroke-linejoin="round" stroke-linecap="butt" d="m82.66459 329.3763l0 0c2.367752 0 4.2871933 1.9194336 4.2871933 4.287201l0 17.148224l0 0c0 1.1370544 -0.45168304 2.2275085 -1.2556915 3.0315247c-0.80400085 0.8039856 -1.8944702 1.2556763 -3.0315018 1.2556763l-30.778965 0c-2.367752 0 -4.2871933 -1.9194336 -4.2871933 -4.287201l0 -17.148224c0 -2.3677673 1.9194412 -4.287201 4.2871933 -4.287201z" fill-rule="evenodd"/><path fill="#999999" d="m49.388046 372.20932l33.54167 0c0.77067566 0 1.5097885 0.30615234 2.054741 0.85110474c0.54494476 0.5449219 0.8510971 1.2840576 0.8510971 2.054718l0 14.528839c0 1.8310547E-4 -1.449585E-4 3.3569336E-4 -3.2806396E-4 3.3569336E-4l-39.35302 -3.3569336E-4l0 0c-1.8310547E-4 0 -3.2806396E-4 -1.2207031E-4 -3.2806396E-4 -3.0517578E-4l3.2806396E-4 -14.528534l0 0c0 -1.6048584 1.3009872 -2.9058228 2.905838 -2.9058228z" fill-rule="evenodd"/><path stroke="#000000" stroke-width="1.0" stroke-linejoin="round" stroke-linecap="butt" d="m49.388046 372.20932l33.54167 0c0.77067566 0 1.5097885 0.30615234 2.054741 0.85110474c0.54494476 0.5449219 0.8510971 1.2840576 0.8510971 2.054718l0 14.528839c0 1.8310547E-4 -1.449585E-4 3.3569336E-4 -3.2806396E-4 3.3569336E-4l-39.35302 -3.3569336E-4l0 0c-1.8310547E-4 0 -3.2806396E-4 -1.2207031E-4 -3.2806396E-4 -3.0517578E-4l3.2806396E-4 -14.528534l0 0c0 -1.6048584 1.3009872 -2.9058228 2.905838 -2.9058228z" fill-rule="evenodd"/><path fill="#ffffff" d="m92.16653 245.11586l0 0c0.6197357 0.44734192 0.6899643 1.2539825 0.15686035 1.8016815l-3.8609238 3.9667358l0 0c-0.25600433 0.26301575 -0.61974335 0.42991638 -1.0112 0.46400452c-0.39146423 0.034072876 -0.7785721 -0.06745911 -1.0761795 -0.28227234l-46.22351 -33.36528c-0.6197319 -0.44734192 -0.6899605 -1.2539825 -0.15686035 -1.8016968l3.8609238 -3.9667206c0.5330963 -0.54771423 1.4676514 -0.6290741 2.0873833 -0.18173218z" fill-rule="evenodd"/><path stroke="#ff0000" stroke-width="1.0" stroke-linejoin="round" stroke-linecap="butt" d="m92.16653 245.11586l0 0c0.6197357 0.44734192 0.6899643 1.2539825 0.15686035 1.8016815l-3.8609238 3.9667358l0 0c-0.25600433 0.26301575 -0.61974335 0.42991638 -1.0112 0.46400452c-0.39146423 0.034072876 -0.7785721 -0.06745911 -1.0761795 -0.28227234l-46.22351 -33.36528c-0.6197319 -0.44734192 -0.6899605 -1.2539825 -0.15686035 -1.8016968l3.8609238 -3.9667206c0.5330963 -0.54771423 1.4676514 -0.6290741 2.0873833 -0.18173218z" fill-rule="evenodd"/><path fill="#ffffff" d="m84.26798 210.32181l0 0c0.58625793 -0.5050354 1.5367813 -0.5050354 2.1230392 0l4.245964 3.6577606l0 0c0.2815323 0.2425232 0.43969727 0.57147217 0.43969727 0.9144592c0 0.34298706 -0.15816498 0.67193604 -0.43969727 0.9144592l-42.586597 36.686874c-0.58626175 0.5050354 -1.5367813 0.5050354 -2.1230469 0l-4.24596 -3.6577606c-0.58626556 -0.5050354 -0.58626556 -1.323883 0 -1.8289185z" fill-rule="evenodd"/><path stroke="#ff0000" stroke-width="1.0" stroke-linejoin="round" stroke-linecap="butt" d="m84.26798 210.32181l0 0c0.58625793 -0.5050354 1.5367813 -0.5050354 2.1230392 0l4.245964 3.6577606l0 0c0.2815323 0.2425232 0.43969727 0.57147217 0.43969727 0.9144592c0 0.34298706 -0.15816498 0.67193604 -0.43969727 0.9144592l-42.586597 36.686874c-0.58626175 0.5050354 -1.5367813 0.5050354 -2.1230469 0l-4.24596 -3.6577606c-0.58626556 -0.5050354 -0.58626556 -1.323883 0 -1.8289185z" fill-rule="evenodd"/><path fill="#000000" fill-opacity="0.0" d="m45.056072 211.06004l21.32233 15.6285095l-5.6252937 5.6979675l-21.322334 -15.6285095z" fill-rule="evenodd"/><path fill="#000000" fill-opacity="0.0" d="m72.00379 230.93306l19.209877 14.081329l-5.6252975 5.6979675l-19.209877 -14.081329z" fill-rule="evenodd"/><path fill="#000000" fill-opacity="0.0" d="m46.17762 242.78683l35.35788 -30.452759l6.139572 5.2890167l-35.357887 30.452774z" fill-rule="evenodd"/><path fill="#000000" d="m45.62972 334.3892l0 0c1.4448662 0 2.6161652 1.1712952 2.6161652 2.61615l0 10.464355l0 0c0 0.69384766 -0.27563095 1.3592834 -0.76625824 1.849884c-0.4906273 0.4906311 -1.1560593 0.76626587 -1.8499069 0.76626587l-16.430212 0c-1.4448662 0 -2.6161633 -1.1712952 -2.6161633 -2.61615l0 -10.464355c0 -1.4448547 1.1712971 -2.61615 2.6161633 -2.61615z" fill-rule="evenodd"/><path stroke="#000000" stroke-width="1.0" stroke-linejoin="round" stroke-linecap="butt" d="m45.62972 334.3892l0 0c1.4448662 0 2.6161652 1.1712952 2.6161652 2.61615l0 10.464355l0 0c0 0.69384766 -0.27563095 1.3592834 -0.76625824 1.849884c-0.4906273 0.4906311 -1.1560593 0.76626587 -1.8499069 0.76626587l-16.430212 0c-1.4448662 0 -2.6161633 -1.1712952 -2.6161633 -2.61615l0 -10.464355c0 -1.4448547 1.1712971 -2.61615 2.6161633 -2.61615z" fill-rule="evenodd"/><path fill="#000000" d="m34.36659 277.95035l0 0c0 -5.3790894 5.398369 -9.739685 12.057598 -9.739685l0 0c6.6592293 0 12.057602 4.3605957 12.057602 9.739685l0 0c0 5.3790894 -5.3983727 9.739716 -12.057602 9.739716l0 0c-6.6592293 0 -12.057598 -4.360626 -12.057598 -9.739716z" fill-rule="evenodd"/><path stroke="#000000" stroke-width="1.0" stroke-linejoin="round" stroke-linecap="butt" d="m34.36659 277.95035l0 0c0 -5.3790894 5.398369 -9.739685 12.057598 -9.739685l0 0c6.6592293 0 12.057602 4.3605957 12.057602 9.739685l0 0c0 5.3790894 -5.3983727 9.739716 -12.057602 9.739716l0 0c-6.6592293 0 -12.057598 -4.360626 -12.057598 -9.739716z" fill-rule="evenodd"/><path fill="#000000" d="m50.622074 282.7141l0 -3.671875l-3.640625 0l0 -1.515625l3.640625 0l0 -3.640625l1.546875 0l0 3.640625l3.640625 0l0 1.515625l-3.640625 0l0 3.671875l-1.546875 0z" fill-rule="nonzero"/><path fill="#ff0000" d="m40.2688 277.95035l0 0c0 -2.986908 2.7558632 -5.4082947 6.155388 -5.4082947l0 0c3.3995285 0 6.1553917 2.4213867 6.1553917 5.4082947l0 0c0 2.9869385 -2.7558632 5.4082947 -6.1553917 5.4082947l0 0c-3.3995247 0 -6.155388 -2.4213562 -6.155388 -5.4082947z" fill-rule="evenodd"/><path stroke="#000000" stroke-width="1.0" stroke-linejoin="round" stroke-linecap="butt" d="m40.2688 277.95035l0 0c0 -2.986908 2.7558632 -5.4082947 6.155388 -5.4082947l0 0c3.3995285 0 6.1553917 2.4213867 6.1553917 5.4082947l0 0c0 2.9869385 -2.7558632 5.4082947 -6.1553917 5.4082947l0 0c-3.3995247 0 -6.155388 -2.4213562 -6.155388 -5.4082947z" fill-rule="evenodd"/><path fill="#000000" d="m73.835976 277.95035l0 0c0 -5.3790894 5.398369 -9.739685 12.057602 -9.739685l0 0c6.6592255 0 12.057594 4.3605957 12.057594 9.739685l0 0c0 5.3790894 -5.398369 9.739716 -12.057594 9.739716l0 0c-6.659233 0 -12.057602 -4.360626 -12.057602 -9.739716z" fill-rule="evenodd"/><path stroke="#000000" stroke-width="1.0" stroke-linejoin="round" stroke-linecap="butt" d="m73.835976 277.95035l0 0c0 -5.3790894 5.398369 -9.739685 12.057602 -9.739685l0 0c6.6592255 0 12.057594 4.3605957 12.057594 9.739685l0 0c0 5.3790894 -5.398369 9.739716 -12.057594 9.739716l0 0c-6.659233 0 -12.057602 -4.360626 -12.057602 -9.739716z" fill-rule="evenodd"/><path fill="#000000" d="m90.09146 282.7141l0 -3.671875l-3.640625 0l0 -1.515625l3.640625 0l0 -3.640625l1.546875 0l0 3.640625l3.640625 0l0 1.515625l-3.640625 0l0 3.671875l-1.546875 0z" fill-rule="nonzero"/><path fill="#ff0000" d="m79.73819 277.95035l0 0c0 -2.986908 2.7558594 -5.4082947 6.155388 -5.4082947l0 0c3.3995285 0 6.155388 2.4213867 6.155388 5.4082947l0 0c0 2.9869385 -2.7558594 5.4082947 -6.155388 5.4082947l0 0c-3.3995285 0 -6.155388 -2.4213562 -6.155388 -5.4082947z" fill-rule="evenodd"/><path stroke="#000000" stroke-width="1.0" stroke-linejoin="round" stroke-linecap="butt" d="m79.73819 277.95035l0 0c0 -2.986908 2.7558594 -5.4082947 6.155388 -5.4082947l0 0c3.3995285 0 6.155388 2.4213867 6.155388 5.4082947l0 0c0 2.9869385 -2.7558594 5.4082947 -6.155388 5.4082947l0 0c-3.3995285 0 -6.155388 -2.4213562 -6.155388 -5.4082947z" fill-rule="evenodd"/><path fill="#000000" fill-opacity="0.0" d="m50.565453 77.512474l16.062988 -9.921257" fill-rule="evenodd"/><path stroke="#000000" stroke-width="8.0" stroke-linejoin="round" stroke-linecap="butt" d="m50.565453 77.512474l16.062988 -9.921257" fill-rule="evenodd"/><path fill="#000000" fill-opacity="0.0" d="m66.39877 67.81169l16.09449 9.700783" fill-rule="evenodd"/><path stroke="#000000" stroke-width="8.0" stroke-linejoin="round" stroke-linecap="butt" d="m66.39877 67.81169l16.09449 9.700783" fill-rule="evenodd"/><path fill="#b7b7b7" d="m69.7152 7.598601l0 0c0.879776 0 1.5929718 0.71319723 1.5929718 1.5929704l0 177.69226c0 0.42248535 -0.16783142 0.82766724 -0.466568 1.1264038c-0.2987442 0.29873657 -0.70391846 0.466568 -1.1264038 0.466568l-6.371689 0c-0.8797722 0 -1.5929718 -0.7131958 -1.5929718 -1.5929718l0 -177.69226l0 0c0 -0.87977314 0.7131996 -1.5929704 1.5929718 -1.5929704z" fill-rule="evenodd"/><path stroke="#000000" stroke-width="1.0" stroke-linejoin="round" stroke-linecap="butt" d="m69.7152 7.598601l0 0c0.879776 0 1.5929718 0.71319723 1.5929718 1.5929704l0 177.69226c0 0.42248535 -0.16783142 0.82766724 -0.466568 1.1264038c-0.2987442 0.29873657 -0.70391846 0.466568 -1.1264038 0.466568l-6.371689 0c-0.8797722 0 -1.5929718 -0.7131958 -1.5929718 -1.5929718l0 -177.69226l0 0c0 -0.87977314 0.7131996 -1.5929704 1.5929718 -1.5929704z" fill-rule="evenodd"/><path fill="#999999" d="m49.11912 179.13103l34.820477 0c0.7984543 0 1.5642014 0.31718445 2.1287994 0.8817749c0.56459045 0.56459045 0.8817749 1.3303375 0.8817749 2.1287994l0 15.052521c0 1.9836426E-4 -1.5258789E-4 3.3569336E-4 -3.3569336E-4 3.3569336E-4l-40.841293 -3.3569336E-4l0 0c-1.9073486E-4 0 -3.4332275E-4 -1.5258789E-4 -3.4332275E-4 -3.3569336E-4l3.4332275E-4 -15.052185l0 0c0 -1.6627045 1.3478813 -3.0105743 3.0105782 -3.0105743z" fill-rule="evenodd"/><path stroke="#000000" stroke-width="1.0" stroke-linejoin="round" stroke-linecap="butt" d="m49.11912 179.13103l34.820477 0c0.7984543 0 1.5642014 0.31718445 2.1287994 0.8817749c0.56459045 0.56459045 0.8817749 1.3303375 0.8817749 2.1287994l0 15.052521c0 1.9836426E-4 -1.5258789E-4 3.3569336E-4 -3.3569336E-4 3.3569336E-4l-40.841293 -3.3569336E-4l0 0c-1.9073486E-4 0 -3.4332275E-4 -1.5258789E-4 -3.4332275E-4 -3.3569336E-4l3.4332275E-4 -15.052185l0 0c0 -1.6627045 1.3478813 -3.0105743 3.0105782 -3.0105743z" fill-rule="evenodd"/><path fill="#ffffff" d="m93.52091 47.45681l0 0c0.6429825 0.4633255 0.7157135 1.2989349 0.1624527 1.8663826l-4.006935 4.109703l0 0c-0.26568604 0.27249908 -0.6431427 0.44544983 -1.0493469 0.48080826c-0.40620422 0.035354614 -0.80786896 -0.06977844 -1.1166382 -0.29227448l-47.972294 -34.568405c-0.64297867 -0.4633255 -0.7157135 -1.2989349 -0.1624527 -1.8663826l4.006939 -4.109704c0.5532608 -0.5674486 1.5230026 -0.6518574 2.165985 -0.18853188z" fill-rule="evenodd"/><path stroke="#ff0000" stroke-width="1.0" stroke-linejoin="round" stroke-linecap="butt" d="m93.52091 47.45681l0 0c0.6429825 0.4633255 0.7157135 1.2989349 0.1624527 1.8663826l-4.006935 4.109703l0 0c-0.26568604 0.27249908 -0.6431427 0.44544983 -1.0493469 0.48080826c-0.40620422 0.035354614 -0.80786896 -0.06977844 -1.1166382 -0.29227448l-47.972294 -34.568405c-0.64297867 -0.4633255 -0.7157135 -1.2989349 -0.1624527 -1.8663826l4.006939 -4.109704c0.5532608 -0.5674486 1.5230026 -0.6518574 2.165985 -0.18853188z" fill-rule="evenodd"/><path fill="#ffffff" d="m85.32331 11.408393l0 0c0.6084366 -0.5232487 1.594902 -0.5232487 2.2033386 0l4.40654 3.789589l0 0c0.2921753 0.25127316 0.45632172 0.5920725 0.45632172 0.9474268c0 0.3553524 -0.16414642 0.69615173 -0.45632172 0.94742584l-44.19716 38.009216c-0.6084366 0.5232506 -1.594902 0.5232506 -2.2033386 0l-4.406536 -3.789589c-0.6084366 -0.52324677 -0.6084366 -1.3716011 0 -1.8948517z" fill-rule="evenodd"/><path stroke="#ff0000" stroke-width="1.0" stroke-linejoin="round" stroke-linecap="butt" d="m85.32331 11.408393l0 0c0.6084366 -0.5232487 1.594902 -0.5232487 2.2033386 0l4.40654 3.789589l0 0c0.2921753 0.25127316 0.45632172 0.5920725 0.45632172 0.9474268c0 0.3553524 -0.16414642 0.69615173 -0.45632172 0.94742584l-44.19716 38.009216c-0.6084366 0.5232506 -1.594902 0.5232506 -2.2033386 0l-4.406536 -3.789589c-0.6084366 -0.52324677 -0.6084366 -1.3716011 0 -1.8948517z" fill-rule="evenodd"/><path fill="#000000" fill-opacity="0.0" d="m44.628475 12.173226l22.128712 16.19183l-5.838043 5.903345l-22.128708 -16.191832z" fill-rule="evenodd"/><path fill="#000000" fill-opacity="0.0" d="m72.595314 32.762554l19.936363 14.58889l-5.8380356 5.903343l-19.936363 -14.588886z" fill-rule="evenodd"/><path fill="#000000" fill-opacity="0.0" d="m45.792435 45.0436l36.69507 -31.550411l6.37175 5.479659l-36.695065 31.550413z" fill-rule="evenodd"/><path fill="#ff0000" d="m128.53236 90.59482l7.1746216 6.1701202l-13.098442 11.264557l-7.174614 -6.1701202z" fill-rule="evenodd"/><path stroke="#000000" stroke-width="1.0" stroke-linejoin="round" stroke-linecap="butt" d="m128.53236 90.59482l7.1746216 6.1701202l-13.098442 11.264557l-7.174614 -6.1701202z" fill-rule="evenodd"/><path fill="#ffffff" d="m141.6308 79.33026l7.1746216 6.1701202l-13.098434 11.264557l-7.1746216 -6.1701202z" fill-rule="evenodd"/><path stroke="#000000" stroke-width="1.0" stroke-linejoin="round" stroke-linecap="butt" d="m141.6308 79.33026l7.1746216 6.1701202l-13.098434 11.264557l-7.1746216 -6.1701202z" fill-rule="evenodd"/><path fill="#ff0000" d="m154.72923 68.06571l7.1746216 6.1701126l-13.098434 11.264557l-7.1746216 -6.1701202z" fill-rule="evenodd"/><path stroke="#000000" stroke-width="1.0" stroke-linejoin="round" stroke-linecap="butt" d="m154.72923 68.06571l7.1746216 6.1701126l-13.098434 11.264557l-7.1746216 -6.1701202z" fill-rule="evenodd"/><path fill="#ffffff" d="m167.82767 56.801155l7.1746216 6.1701164l-13.098434 11.264553l-7.1746216 -6.1701126z" fill-rule="evenodd"/><path stroke="#000000" stroke-width="1.0" stroke-linejoin="round" stroke-linecap="butt" d="m167.82767 56.801155l7.1746216 6.1701164l-13.098434 11.264553l-7.1746216 -6.1701126z" fill-rule="evenodd"/><path fill="#ff0000" d="m180.9261 45.536602l7.1746216 6.1701164l-13.098434 11.264553l-7.1746216 -6.1701164z" fill-rule="evenodd"/><path stroke="#000000" stroke-width="1.0" stroke-linejoin="round" stroke-linecap="butt" d="m180.9261 45.536602l7.1746216 6.1701164l-13.098434 11.264553l-7.1746216 -6.1701164z" fill-rule="evenodd"/><path fill="#ffffff" d="m194.02454 34.272045l7.1746216 6.1701202l-13.098434 11.264553l-7.1746216 -6.1701164z" fill-rule="evenodd"/><path stroke="#000000" stroke-width="1.0" stroke-linejoin="round" stroke-linecap="butt" d="m194.02454 34.272045l7.1746216 6.1701202l-13.098434 11.264553l-7.1746216 -6.1701164z" fill-rule="evenodd"/><path fill="#ffffff" d="m89.23705 124.38848l7.1746216 6.1701126l-13.098434 11.264557l-7.1746216 -6.1701202z" fill-rule="evenodd"/><path stroke="#000000" stroke-width="1.0" stroke-linejoin="round" stroke-linecap="butt" d="m89.23705 124.38848l7.1746216 6.1701126l-13.098434 11.264557l-7.1746216 -6.1701202z" fill-rule="evenodd"/><path fill="#ff0000" d="m102.33549 113.12393l7.1746216 6.1701126l-13.098434 11.264549l-7.1746216 -6.1701126z" fill-rule="evenodd"/><path stroke="#000000" stroke-width="1.0" stroke-linejoin="round" stroke-linecap="butt" d="m102.33549 113.12393l7.1746216 6.1701126l-13.098434 11.264549l-7.1746216 -6.1701126z" fill-rule="evenodd"/><path fill="#ffffff" d="m115.43393 101.859375l7.174614 6.1701202l-13.098434 11.264549l-7.1746216 -6.1701126z" fill-rule="evenodd"/><path stroke="#000000" stroke-width="1.0" stroke-linejoin="round" stroke-linecap="butt" d="m115.43393 101.859375l7.174614 6.1701202l-13.098434 11.264549l-7.1746216 -6.1701126z" fill-rule="evenodd"/><path fill="#000000" d="m67.2309 130.63927l0 0c2.0169754 -1.7345734 5.28714 -1.7345734 7.3041153 0l14.60778 12.562592l0 0c0.9685898 0.8329773 1.5127335 1.9627228 1.5127335 3.1407318c0 1.178009 -0.5441437 2.3077698 -1.5127335 3.140747l-21.575005 18.554337c-2.0169754 1.7345886 -5.287136 1.7345886 -7.3041077 0l-14.607788 -12.562592c-2.0169754 -1.7345734 -2.0169754 -4.5468903 0 -6.281479z" fill-rule="evenodd"/><path stroke="#000000" stroke-width="1.0" stroke-linejoin="round" stroke-linecap="butt" d="m67.2309 130.63927l0 0c2.0169754 -1.7345734 5.28714 -1.7345734 7.3041153 0l14.60778 12.562592l0 0c0.9685898 0.8329773 1.5127335 1.9627228 1.5127335 3.1407318c0 1.178009 -0.5441437 2.3077698 -1.5127335 3.140747l-21.575005 18.554337c-2.0169754 1.7345886 -5.287136 1.7345886 -7.3041077 0l-14.607788 -12.562592c-2.0169754 -1.7345734 -2.0169754 -4.5468903 0 -6.281479z" fill-rule="evenodd"/><path fill="#000000" d="m44.52061 157.51468l0 0c1.2308121 -1.0584869 3.2263565 -1.0584869 4.4571724 0l8.914078 7.666031l0 0c0.59106064 0.50831604 0.92311096 1.1977234 0.92311096 1.9165802c0 0.71884155 -0.33205032 1.4082489 -0.92311096 1.916565l-11.439693 9.838043c-1.2308159 1.0584869 -3.2263603 1.0584869 -4.4571724 0l-8.914082 -7.666031c-1.2308121 -1.0585022 -1.2308121 -2.774643 0 -3.8331451z" fill-rule="evenodd"/><path stroke="#000000" stroke-width="1.0" stroke-linejoin="round" stroke-linecap="butt" d="m44.52061 157.51468l0 0c1.2308121 -1.0584869 3.2263565 -1.0584869 4.4571724 0l8.914078 7.666031l0 0c0.59106064 0.50831604 0.92311096 1.1977234 0.92311096 1.9165802c0 0.71884155 -0.33205032 1.4082489 -0.92311096 1.916565l-11.439693 9.838043c-1.2308159 1.0584869 -3.2263603 1.0584869 -4.4571724 0l-8.914082 -7.666031c-1.2308121 -1.0585022 -1.2308121 -2.774643 0 -3.8331451z" fill-rule="evenodd"/><path fill="#000000" d="m33.53473 81.47456l0 0c0 -5.572983 5.6025276 -10.090767 12.513599 -10.090767l0 0c6.911072 0 12.513599 4.517784 12.513599 10.090767l0 0c0 5.572975 -5.6025276 10.090759 -12.513599 10.090759l0 0c-6.911072 0 -12.513599 -4.517784 -12.513599 -10.090759z" fill-rule="evenodd"/><path stroke="#000000" stroke-width="1.0" stroke-linejoin="round" stroke-linecap="butt" d="m33.53473 81.47456l0 0c0 -5.572983 5.6025276 -10.090767 12.513599 -10.090767l0 0c6.911072 0 12.513599 4.517784 12.513599 10.090767l0 0c0 5.572975 -5.6025276 10.090759 -12.513599 10.090759l0 0c-6.911072 0 -12.513599 -4.517784 -12.513599 -10.090759z" fill-rule="evenodd"/><path fill="#000000" d="m50.568653 86.23831l0 -3.671875l-3.640625 0l0 -1.515625l3.640625 0l0 -3.640625l1.546875 0l0 3.640625l3.640625 0l0 1.515625l-3.640625 0l0 3.671875l-1.546875 0z" fill-rule="nonzero"/><path fill="#ff0000" d="m39.660152 81.47456l0 0c0 -3.0945816 2.8600845 -5.603241 6.388176 -5.603241l0 0c3.5280914 0 6.388176 2.5086594 6.388176 5.603241l0 0c0 3.0945816 -2.8600845 5.6032333 -6.388176 5.6032333l0 0c-3.5280914 0 -6.388176 -2.5086517 -6.388176 -5.6032333z" fill-rule="evenodd"/><path stroke="#000000" stroke-width="1.0" stroke-linejoin="round" stroke-linecap="butt" d="m39.660152 81.47456l0 0c0 -3.0945816 2.8600845 -5.603241 6.388176 -5.603241l0 0c3.5280914 0 6.388176 2.5086594 6.388176 5.603241l0 0c0 3.0945816 -2.8600845 5.6032333 -6.388176 5.6032333l0 0c-3.5280914 0 -6.388176 -2.5086517 -6.388176 -5.6032333z" fill-rule="evenodd"/><path fill="#000000" d="m74.49679 81.47456l0 0c0 -5.572983 5.6025314 -10.090767 12.513603 -10.090767l0 0c6.911064 0 12.513596 4.517784 12.513596 10.090767l0 0c0 5.572975 -5.6025314 10.090759 -12.513596 10.090759l0 0c-6.911072 0 -12.513603 -4.517784 -12.513603 -10.090759z" fill-rule="evenodd"/><path stroke="#000000" stroke-width="1.0" stroke-linejoin="round" stroke-linecap="butt" d="m74.49679 81.47456l0 0c0 -5.572983 5.6025314 -10.090767 12.513603 -10.090767l0 0c6.911064 0 12.513596 4.517784 12.513596 10.090767l0 0c0 5.572975 -5.6025314 10.090759 -12.513596 10.090759l0 0c-6.911072 0 -12.513603 -4.517784 -12.513603 -10.090759z" fill-rule="evenodd"/><path fill="#ff0000" d="m80.622215 81.47456l0 0c0 -3.0945816 2.860077 -5.603241 6.388176 -5.603241l0 0c3.5280914 0 6.388176 2.5086594 6.388176 5.603241l0 0c0 3.0945816 -2.8600845 5.6032333 -6.388176 5.6032333l0 0c-3.528099 0 -6.388176 -2.5086517 -6.388176 -5.6032333z" fill-rule="evenodd"/><path stroke="#000000" stroke-width="1.0" stroke-linejoin="round" stroke-linecap="butt" d="m80.622215 81.47456l0 0c0 -3.0945816 2.860077 -5.603241 6.388176 -5.603241l0 0c3.5280914 0 6.388176 2.5086594 6.388176 5.603241l0 0c0 3.0945816 -2.8600845 5.6032333 -6.388176 5.6032333l0 0c-3.528099 0 -6.388176 -2.5086517 -6.388176 -5.6032333z" fill-rule="evenodd"/></g></svg>