<?xml version="1.0" encoding="UTF-8" standalone="no"?>
<!DOCTYPE svg PUBLIC "-//W3C//DTD SVG 1.1//EN"
 "http://www.w3.org/Graphics/SVG/1.1/DTD/svg11.dtd">
<!-- Generated by graphviz version 9.0.0 (20230911.1827)
 -->
<!-- Title: finite_state_machine Pages: 1 -->
<svg width="1391pt" height="258pt"
 viewBox="0.00 0.00 1391.00 258.25" xmlns="http://www.w3.org/2000/svg" xmlns:xlink="http://www.w3.org/1999/xlink">
<g id="graph0" class="graph" transform="scale(1 1) rotate(0) translate(4 254.25)">
<title>finite_state_machine</title>
<polygon fill="white" stroke="none" points="-4,4 -4,-254.25 1387,-254.25 1387,4 -4,4"/>
<!-- ne26 -->
<g id="node1" class="node">
<title>ne26</title>
<path fill="white" stroke="black" stroke-width="2" d="M12,-12C12,-12 285,-12 285,-12 291,-12 297,-18 297,-24 297,-24 297,-125 297,-125 297,-131 291,-137 285,-137 285,-137 12,-137 12,-137 6,-137 0,-131 0,-125 0,-125 0,-24 0,-24 0,-18 6,-12 12,-12"/>
<polygon fill="white" stroke="none" points="8,-16 8,-133 289,-133 289,-16 8,-16"/>
<polygon fill="black" stroke="none" points="10,-110 10,-131 287,-131 287,-110 10,-110"/>
<text text-anchor="start" x="132" y="-114.7" font-family="Courier New" font-size="14.00" fill="white">ne26</text>
<polygon fill="#8470ff" stroke="none" points="10,-87 10,-108 123,-108 123,-87 10,-87"/>
<text text-anchor="start" x="70.5" y="-91.7" font-family="Courier New" font-size="14.00">Border</text>
<text text-anchor="start" x="128" y="-91.7" font-family="Courier New" font-size="14.00">Buf01</text>
<polygon fill="darkcyan" stroke="none" points="10,-64 10,-85 123,-85 123,-64 10,-64"/>
<text text-anchor="start" x="12.88" y="-68.7" font-family="Courier New" font-size="14.00">LevelCrossing</text>
<text text-anchor="start" x="128" y="-68.7" font-family="Courier New" font-size="14.00">Lc03 Lc04</text>
<polygon fill="cornflowerblue" stroke="none" points="10,-41 10,-62 123,-62 123,-41 10,-41"/>
<text text-anchor="start" x="54" y="-45.7" font-family="Courier New" font-size="14.00">Platform</text>
<text text-anchor="start" x="128" y="-45.7" font-family="Courier New" font-size="14.00">Plat01</text>
<polygon fill="yellowgreen" stroke="none" points="10,-18 10,-39 123,-39 123,-18 10,-18"/>
<text text-anchor="start" x="70.5" y="-22.7" font-family="Courier New" font-size="14.00">Signal</text>
<text text-anchor="start" x="127.62" y="-22.7" font-family="Courier New" font-size="14.00">L04 X05 X06 X07 C24</text>
</g>
<!-- ne26&#45;&#45;ne26 -->
<g id="edge1" class="edge">
<title>ne26&#45;&#45;ne26</title>
<path fill="none" stroke="black" d="M132.58,-137.33C134.76,-148.06 140.06,-155.5 148.5,-155.5 156.94,-155.5 162.24,-148.06 164.42,-137.33"/>
<text text-anchor="middle" x="148.5" y="-157.95" font-family="Times New Roman,serif" font-size="14.00">R_01</text>
</g>
<!-- ne26&#45;&#45;ne26 -->
<g id="edge2" class="edge">
<title>ne26&#45;&#45;ne26</title>
<path fill="none" stroke="black" d="M114.41,-137.34C114.76,-157.51 126.12,-173.5 148.5,-173.5 170.88,-173.5 182.24,-157.51 182.59,-137.34"/>
<text text-anchor="middle" x="148.5" y="-175.95" font-family="Times New Roman,serif" font-size="14.00">R_02</text>
</g>
<!-- ne3 -->
<g id="node4" class="node">
<title>ne3</title>
<path fill="white" stroke="black" stroke-width="2" d="M375.75,-12C375.75,-12 582.75,-12 582.75,-12 588.75,-12 594.75,-18 594.75,-24 594.75,-24 594.75,-125 594.75,-125 594.75,-131 588.75,-137 582.75,-137 582.75,-137 375.75,-137 375.75,-137 369.75,-137 363.75,-131 363.75,-125 363.75,-125 363.75,-24 363.75,-24 363.75,-18 369.75,-12 375.75,-12"/>
<polygon fill="white" stroke="none" points="371.75,-16 371.75,-133 586.75,-133 586.75,-16 371.75,-16"/>
<polygon fill="black" stroke="none" points="373.75,-110 373.75,-131 584.75,-131 584.75,-110 373.75,-110"/>
<text text-anchor="start" x="466.88" y="-114.7" font-family="Courier New" font-size="14.00" fill="white">ne3</text>
<polygon fill="red" stroke="none" points="373.75,-87 373.75,-108 486.75,-108 486.75,-87 373.75,-87"/>
<text text-anchor="start" x="434.25" y="-91.7" font-family="Courier New" font-size="14.00">Switch</text>
<text text-anchor="start" x="491.75" y="-91.7" font-family="Courier New" font-size="14.00">Sw12</text>
<polygon fill="#8470ff" stroke="none" points="373.75,-64 373.75,-85 486.75,-85 486.75,-64 373.75,-64"/>
<text text-anchor="start" x="434.25" y="-68.7" font-family="Courier New" font-size="14.00">Border</text>
<text text-anchor="start" x="491.75" y="-68.7" font-family="Courier New" font-size="14.00">Buf02</text>
<polygon fill="darkcyan" stroke="none" points="373.75,-41 373.75,-62 486.75,-62 486.75,-41 373.75,-41"/>
<text text-anchor="start" x="376.62" y="-45.7" font-family="Courier New" font-size="14.00">LevelCrossing</text>
<text text-anchor="start" x="491.75" y="-45.7" font-family="Courier New" font-size="14.00">Lc06</text>
<polygon fill="yellowgreen" stroke="none" points="373.75,-18 373.75,-39 486.75,-39 486.75,-18 373.75,-18"/>
<text text-anchor="start" x="434.25" y="-22.7" font-family="Courier New" font-size="14.00">Signal</text>
<text text-anchor="start" x="491.38" y="-22.7" font-family="Courier New" font-size="14.00">L01 X16 S25</text>
</g>
<!-- ne26&#45;&#45;ne3 -->
<g id="edge12" class="edge">
<title>ne26&#45;&#45;ne3</title>
<path fill="none" stroke="black" d="M297.05,-74.5C319.41,-74.5 342.19,-74.5 363.71,-74.5"/>
<text text-anchor="middle" x="330.38" y="-76.95" font-family="Times New Roman,serif" font-size="14.00">R_11</text>
</g>
<!-- ne23 -->
<g id="node2" class="node">
<title>ne23</title>
<path fill="white" stroke="black" stroke-width="2" d="M800.25,-0.5C800.25,-0.5 1073.25,-0.5 1073.25,-0.5 1079.25,-0.5 1085.25,-6.5 1085.25,-12.5 1085.25,-12.5 1085.25,-136.5 1085.25,-136.5 1085.25,-142.5 1079.25,-148.5 1073.25,-148.5 1073.25,-148.5 800.25,-148.5 800.25,-148.5 794.25,-148.5 788.25,-142.5 788.25,-136.5 788.25,-136.5 788.25,-12.5 788.25,-12.5 788.25,-6.5 794.25,-0.5 800.25,-0.5"/>
<polygon fill="white" stroke="none" points="796.25,-4.5 796.25,-144.5 1077.25,-144.5 1077.25,-4.5 796.25,-4.5"/>
<polygon fill="black" stroke="none" points="798.25,-121.5 798.25,-142.5 1075.25,-142.5 1075.25,-121.5 798.25,-121.5"/>
<text text-anchor="start" x="920.25" y="-126.2" font-family="Courier New" font-size="14.00" fill="white">ne23</text>
<polygon fill="red" stroke="none" points="798.25,-98.5 798.25,-119.5 911.25,-119.5 911.25,-98.5 798.25,-98.5"/>
<text text-anchor="start" x="858.75" y="-103.2" font-family="Courier New" font-size="14.00">Switch</text>
<text text-anchor="start" x="916.25" y="-103.2" font-family="Courier New" font-size="14.00">Sw11</text>
<polygon fill="#8470ff" stroke="none" points="798.25,-75.5 798.25,-96.5 911.25,-96.5 911.25,-75.5 798.25,-75.5"/>
<text text-anchor="start" x="858.75" y="-80.2" font-family="Courier New" font-size="14.00">Border</text>
<text text-anchor="start" x="916.25" y="-80.2" font-family="Courier New" font-size="14.00">Buf18</text>
<polygon fill="darkcyan" stroke="none" points="798.25,-52.5 798.25,-73.5 911.25,-73.5 911.25,-52.5 798.25,-52.5"/>
<text text-anchor="start" x="801.12" y="-57.2" font-family="Courier New" font-size="14.00">LevelCrossing</text>
<text text-anchor="start" x="916.25" y="-57.2" font-family="Courier New" font-size="14.00">Lc07 Lc09</text>
<polygon fill="cornflowerblue" stroke="none" points="798.25,-29.5 798.25,-50.5 911.25,-50.5 911.25,-29.5 798.25,-29.5"/>
<text text-anchor="start" x="842.25" y="-34.2" font-family="Courier New" font-size="14.00">Platform</text>
<text text-anchor="start" x="916.25" y="-34.2" font-family="Courier New" font-size="14.00">Plat02</text>
<polygon fill="yellowgreen" stroke="none" points="798.25,-6.5 798.25,-27.5 911.25,-27.5 911.25,-6.5 798.25,-6.5"/>
<text text-anchor="start" x="858.75" y="-11.2" font-family="Courier New" font-size="14.00">Signal</text>
<text text-anchor="start" x="915.88" y="-11.2" font-family="Courier New" font-size="14.00">L02 X09 X12 P19 S22</text>
</g>
<!-- ne23&#45;&#45;ne23 -->
<g id="edge3" class="edge">
<title>ne23&#45;&#45;ne23</title>
<path fill="none" stroke="black" d="M926.49,-148.9C928.12,-159.71 931.54,-167 936.75,-167 941.96,-167 945.38,-159.71 947.01,-148.9"/>
<text text-anchor="middle" x="936.75" y="-169.45" font-family="Times New Roman,serif" font-size="14.00">R_03</text>
</g>
<!-- ne23&#45;&#45;ne23 -->
<g id="edge4" class="edge">
<title>ne23&#45;&#45;ne23</title>
<path fill="none" stroke="black" d="M914.15,-148.87C915.25,-169.35 922.78,-185 936.75,-185 950.72,-185 958.25,-169.35 959.35,-148.87"/>
<text text-anchor="middle" x="936.75" y="-187.45" font-family="Times New Roman,serif" font-size="14.00">R_04</text>
</g>
<!-- ne23&#45;&#45;ne23 -->
<g id="edge8" class="edge">
<title>ne23&#45;&#45;ne23</title>
<path fill="none" stroke="black" d="M902.84,-148.77C901.02,-178.29 912.33,-203 936.75,-203 961.17,-203 972.48,-178.29 970.66,-148.77"/>
<text text-anchor="middle" x="936.75" y="-205.45" font-family="Times New Roman,serif" font-size="14.00">R_08</text>
</g>
<!-- ne25 -->
<g id="node3" class="node">
<title>ne25</title>
<path fill="white" stroke="black" stroke-width="2" d="M1164,-23.5C1164,-23.5 1371,-23.5 1371,-23.5 1377,-23.5 1383,-29.5 1383,-35.5 1383,-35.5 1383,-113.5 1383,-113.5 1383,-119.5 1377,-125.5 1371,-125.5 1371,-125.5 1164,-125.5 1164,-125.5 1158,-125.5 1152,-119.5 1152,-113.5 1152,-113.5 1152,-35.5 1152,-35.5 1152,-29.5 1158,-23.5 1164,-23.5"/>
<polygon fill="white" stroke="none" points="1160,-27.5 1160,-121.5 1375,-121.5 1375,-27.5 1160,-27.5"/>
<polygon fill="black" stroke="none" points="1162,-98.5 1162,-119.5 1373,-119.5 1373,-98.5 1162,-98.5"/>
<text text-anchor="start" x="1251" y="-103.2" font-family="Courier New" font-size="14.00" fill="white">ne25</text>
<polygon fill="#8470ff" stroke="none" points="1162,-75.5 1162,-96.5 1275,-96.5 1275,-75.5 1162,-75.5"/>
<text text-anchor="start" x="1222.5" y="-80.2" font-family="Courier New" font-size="14.00">Border</text>
<text text-anchor="start" x="1280" y="-80.2" font-family="Courier New" font-size="14.00">Buf17</text>
<polygon fill="darkcyan" stroke="none" points="1162,-52.5 1162,-73.5 1275,-73.5 1275,-52.5 1162,-52.5"/>
<text text-anchor="start" x="1164.88" y="-57.2" font-family="Courier New" font-size="14.00">LevelCrossing</text>
<text text-anchor="start" x="1280" y="-57.2" font-family="Courier New" font-size="14.00">Lc05</text>
<polygon fill="yellowgreen" stroke="none" points="1162,-29.5 1162,-50.5 1275,-50.5 1275,-29.5 1162,-29.5"/>
<text text-anchor="start" x="1222.5" y="-34.2" font-family="Courier New" font-size="14.00">Signal</text>
<text text-anchor="start" x="1279.62" y="-34.2" font-family="Courier New" font-size="14.00">L03 X13 X14</text>
</g>
<!-- ne23&#45;&#45;ne25 -->
<g id="edge9" class="edge">
<title>ne23&#45;&#45;ne25</title>
<path fill="none" stroke="black" d="M1085.3,-74.5C1107.66,-74.5 1130.44,-74.5 1151.96,-74.5"/>
<text text-anchor="middle" x="1118.62" y="-76.95" font-family="Times New Roman,serif" font-size="14.00">R_09</text>
</g>
<!-- ne27 -->
<g id="node5" class="node">
<title>ne27</title>
<path fill="white" stroke="black" stroke-width="2" d="M673.5,-56.5C673.5,-56.5 709.5,-56.5 709.5,-56.5 715.5,-56.5 721.5,-62.5 721.5,-68.5 721.5,-68.5 721.5,-80.5 721.5,-80.5 721.5,-86.5 715.5,-92.5 709.5,-92.5 709.5,-92.5 673.5,-92.5 673.5,-92.5 667.5,-92.5 661.5,-86.5 661.5,-80.5 661.5,-80.5 661.5,-68.5 661.5,-68.5 661.5,-62.5 667.5,-56.5 673.5,-56.5"/>
<polygon fill="white" stroke="none" points="669.5,-61.75 669.5,-87.5 713.5,-87.5 713.5,-61.75 669.5,-61.75"/>
<polygon fill="black" stroke="none" points="671.5,-63.75 671.5,-85.5 711.5,-85.5 711.5,-63.75 671.5,-63.75"/>
<text text-anchor="start" x="675" y="-69.2" font-family="Courier New" font-size="14.00" fill="white">ne27</text>
</g>
<!-- ne23&#45;&#45;ne27 -->
<g id="edge10" class="edge">
<title>ne23&#45;&#45;ne27</title>
<path fill="none" stroke="black" d="M788.01,-52.55C771.59,-52.66 755.15,-53.89 739.5,-56.75 733.67,-57.82 727.61,-59.57 721.87,-61.56"/>
<text text-anchor="middle" x="754.88" y="-58.95" font-family="Times New Roman,serif" font-size="14.00">R_10</text>
</g>
<!-- ne25&#45;&#45;ne23 -->
<g id="edge6" class="edge">
<title>ne25&#45;&#45;ne23</title>
<path fill="none" stroke="black" d="M1151.69,-58.17C1145.71,-57.62 1139.79,-57.14 1134,-56.75 1118.3,-55.7 1101.9,-55.61 1085.57,-56.15"/>
<text text-anchor="middle" x="1118.62" y="-58.95" font-family="Times New Roman,serif" font-size="14.00">R_06</text>
</g>
<!-- ne25&#45;&#45;ne25 -->
<g id="edge5" class="edge">
<title>ne25&#45;&#45;ne25</title>
<path fill="none" stroke="black" d="M1240.57,-125.72C1243.4,-136.35 1252.38,-144 1267.5,-144 1282.62,-144 1291.6,-136.35 1294.43,-125.72"/>
<text text-anchor="middle" x="1267.5" y="-146.45" font-family="Times New Roman,serif" font-size="14.00">R_05</text>
</g>
<!-- ne3&#45;&#45;ne26 -->
<g id="edge13" class="edge">
<title>ne3&#45;&#45;ne26</title>
<path fill="none" stroke="black" d="M363.46,-56.33C357.48,-55.71 351.55,-55.18 345.75,-54.75 330.04,-53.59 313.64,-53.48 297.31,-54.08"/>
<text text-anchor="middle" x="330.38" y="-56.95" font-family="Times New Roman,serif" font-size="14.00">R_12</text>
</g>
<!-- ne3&#45;&#45;ne3 -->
<g id="edge7" class="edge">
<title>ne3&#45;&#45;ne3</title>
<path fill="none" stroke="black" d="M453.19,-137.33C456.75,-148.06 465.44,-155.5 479.25,-155.5 493.06,-155.5 501.75,-148.06 505.31,-137.33"/>
<text text-anchor="middle" x="479.25" y="-157.95" font-family="Times New Roman,serif" font-size="14.00">R_07</text>
</g>
<!-- ne3&#45;&#45;ne27 -->
<g id="edge14" class="edge">
<title>ne3&#45;&#45;ne27</title>
<path fill="none" stroke="black" d="M595.22,-74.5C619.76,-74.5 643.58,-74.5 661.27,-74.5"/>
<text text-anchor="middle" x="628.12" y="-76.95" font-family="Times New Roman,serif" font-size="14.00">R_13</text>
</g>
<!-- ne27&#45;&#45;ne23 -->
<g id="edge15" class="edge">
<title>ne27&#45;&#45;ne23</title>
<path fill="none" stroke="black" d="M721.84,-74.5C739.28,-74.5 762.86,-74.5 788,-74.5"/>
<text text-anchor="middle" x="754.88" y="-76.95" font-family="Times New Roman,serif" font-size="14.00">R_13</text>
</g>
<!-- ne27&#45;&#45;ne3 -->
<g id="edge11" class="edge">
<title>ne27&#45;&#45;ne3</title>
<path fill="none" stroke="black" d="M661.13,-61.56C655.39,-59.57 649.33,-57.82 643.5,-56.75 627.93,-53.91 611.45,-53.13 595.16,-53.66"/>
<text text-anchor="middle" x="628.12" y="-58.95" font-family="Times New Roman,serif" font-size="14.00">R_10</text>
</g>
</g>
</svg>
