<?xml version="1.0" encoding="UTF-8" standalone="no"?>
<!DOCTYPE svg PUBLIC "-//W3C//DTD SVG 1.1//EN"
 "http://www.w3.org/Graphics/SVG/1.1/DTD/svg11.dtd">
<!-- Generated by graphviz version 9.0.0 (20230911.1827)
 -->
<!-- Title: finite_state_machine Pages: 1 -->
<svg width="1819pt" height="334pt"
 viewBox="0.00 0.00 1819.25 333.50" xmlns="http://www.w3.org/2000/svg" xmlns:xlink="http://www.w3.org/1999/xlink">
<g id="graph0" class="graph" transform="scale(1 1) rotate(0) translate(4 329.5)">
<title>finite_state_machine</title>
<polygon fill="white" stroke="none" points="-4,4 -4,-329.5 1815.25,-329.5 1815.25,4 -4,4"/>
<!-- ne13 -->
<g id="node1" class="node">
<title>ne13</title>
<path fill="white" stroke="black" stroke-width="2" d="M12,-156.5C12,-156.5 219,-156.5 219,-156.5 225,-156.5 231,-162.5 231,-168.5 231,-168.5 231,-269.5 231,-269.5 231,-275.5 225,-281.5 219,-281.5 219,-281.5 12,-281.5 12,-281.5 6,-281.5 0,-275.5 0,-269.5 0,-269.5 0,-168.5 0,-168.5 0,-162.5 6,-156.5 12,-156.5"/>
<polygon fill="white" stroke="none" points="8,-160.5 8,-277.5 223,-277.5 223,-160.5 8,-160.5"/>
<polygon fill="black" stroke="none" points="10,-254.5 10,-275.5 221,-275.5 221,-254.5 10,-254.5"/>
<text text-anchor="start" x="99" y="-259.2" font-family="Courier New" font-size="14.00" fill="white">ne13</text>
<polygon fill="olive" stroke="none" points="10,-231.5 10,-252.5 123,-252.5 123,-231.5 10,-231.5"/>
<text text-anchor="start" x="37.5" y="-236.2" font-family="Courier New" font-size="14.00">BufferStop</text>
<text text-anchor="start" x="128" y="-236.2" font-family="Courier New" font-size="14.00">Buf08</text>
<polygon fill="darkcyan" stroke="none" points="10,-208.5 10,-229.5 123,-229.5 123,-208.5 10,-208.5"/>
<text text-anchor="start" x="12.88" y="-213.2" font-family="Courier New" font-size="14.00">LevelCrossing</text>
<text text-anchor="start" x="128" y="-213.2" font-family="Courier New" font-size="14.00">Lc08</text>
<polygon fill="cornflowerblue" stroke="none" points="10,-185.5 10,-206.5 123,-206.5 123,-185.5 10,-185.5"/>
<text text-anchor="start" x="54" y="-190.2" font-family="Courier New" font-size="14.00">Platform</text>
<text text-anchor="start" x="128" y="-190.2" font-family="Courier New" font-size="14.00">Plat13</text>
<polygon fill="yellowgreen" stroke="none" points="10,-162.5 10,-183.5 123,-183.5 123,-162.5 10,-162.5"/>
<text text-anchor="start" x="70.5" y="-167.2" font-family="Courier New" font-size="14.00">Signal</text>
<text text-anchor="start" x="127.62" y="-167.2" font-family="Courier New" font-size="14.00">T01 T02 P20</text>
</g>
<!-- ne13&#45;&#45;ne13 -->
<g id="edge1" class="edge">
<title>ne13&#45;&#45;ne13</title>
<path fill="none" stroke="black" d="M89.44,-281.83C93,-292.56 101.69,-300 115.5,-300 129.31,-300 138,-292.56 141.56,-281.83"/>
<text text-anchor="middle" x="115.5" y="-302.45" font-family="Times New Roman,serif" font-size="14.00">R_01</text>
</g>
<!-- ne2 -->
<g id="node10" class="node">
<title>ne2</title>
<path fill="white" stroke="black" stroke-width="2" d="M309.75,-168C309.75,-168 425.75,-168 425.75,-168 431.75,-168 437.75,-174 437.75,-180 437.75,-180 437.75,-258 437.75,-258 437.75,-264 431.75,-270 425.75,-270 425.75,-270 309.75,-270 309.75,-270 303.75,-270 297.75,-264 297.75,-258 297.75,-258 297.75,-180 297.75,-180 297.75,-174 303.75,-168 309.75,-168"/>
<polygon fill="white" stroke="none" points="305.75,-172 305.75,-266 429.75,-266 429.75,-172 305.75,-172"/>
<polygon fill="black" stroke="none" points="307.75,-243 307.75,-264 427.75,-264 427.75,-243 307.75,-243"/>
<text text-anchor="start" x="355.38" y="-247.7" font-family="Courier New" font-size="14.00" fill="white">ne2</text>
<polygon fill="red" stroke="none" points="307.75,-220 307.75,-241 362.75,-241 362.75,-220 307.75,-220"/>
<text text-anchor="start" x="310.5" y="-224.7" font-family="Courier New" font-size="14.00">Switch</text>
<text text-anchor="start" x="367.75" y="-224.7" font-family="Courier New" font-size="14.00">Sw06</text>
<polygon fill="#8470ff" stroke="none" points="307.75,-197 307.75,-218 362.75,-218 362.75,-197 307.75,-197"/>
<text text-anchor="start" x="310.5" y="-201.7" font-family="Courier New" font-size="14.00">Border</text>
<text text-anchor="start" x="367.75" y="-201.7" font-family="Courier New" font-size="14.00">Buf03</text>
<polygon fill="yellowgreen" stroke="none" points="307.75,-174 307.75,-195 362.75,-195 362.75,-174 307.75,-174"/>
<text text-anchor="start" x="310.5" y="-178.7" font-family="Courier New" font-size="14.00">Signal</text>
<text text-anchor="start" x="367.38" y="-178.7" font-family="Courier New" font-size="14.00">L08 S27</text>
</g>
<!-- ne13&#45;&#45;ne2 -->
<g id="edge10" class="edge">
<title>ne13&#45;&#45;ne2</title>
<path fill="none" stroke="black" d="M231.37,-219C253.99,-219 277.05,-219 297.58,-219"/>
<text text-anchor="middle" x="264.38" y="-221.45" font-family="Times New Roman,serif" font-size="14.00">R_09</text>
</g>
<!-- ne14 -->
<g id="node2" class="node">
<title>ne14</title>
<path fill="white" stroke="black" stroke-width="2" d="M1559.25,-132.5C1559.25,-132.5 1799.25,-132.5 1799.25,-132.5 1805.25,-132.5 1811.25,-138.5 1811.25,-144.5 1811.25,-144.5 1811.25,-245.5 1811.25,-245.5 1811.25,-251.5 1805.25,-257.5 1799.25,-257.5 1799.25,-257.5 1559.25,-257.5 1559.25,-257.5 1553.25,-257.5 1547.25,-251.5 1547.25,-245.5 1547.25,-245.5 1547.25,-144.5 1547.25,-144.5 1547.25,-138.5 1553.25,-132.5 1559.25,-132.5"/>
<polygon fill="white" stroke="none" points="1555.25,-136.5 1555.25,-253.5 1803.25,-253.5 1803.25,-136.5 1555.25,-136.5"/>
<polygon fill="black" stroke="none" points="1557.25,-230.5 1557.25,-251.5 1801.25,-251.5 1801.25,-230.5 1557.25,-230.5"/>
<text text-anchor="start" x="1662.75" y="-235.2" font-family="Courier New" font-size="14.00" fill="white">ne14</text>
<polygon fill="olive" stroke="none" points="1557.25,-207.5 1557.25,-228.5 1670.25,-228.5 1670.25,-207.5 1557.25,-207.5"/>
<text text-anchor="start" x="1584.75" y="-212.2" font-family="Courier New" font-size="14.00">BufferStop</text>
<text text-anchor="start" x="1675.25" y="-212.2" font-family="Courier New" font-size="14.00">Buf06</text>
<polygon fill="darkcyan" stroke="none" points="1557.25,-184.5 1557.25,-205.5 1670.25,-205.5 1670.25,-184.5 1557.25,-184.5"/>
<text text-anchor="start" x="1560.12" y="-189.2" font-family="Courier New" font-size="14.00">LevelCrossing</text>
<text text-anchor="start" x="1675.25" y="-189.2" font-family="Courier New" font-size="14.00">Lc06</text>
<polygon fill="cornflowerblue" stroke="none" points="1557.25,-161.5 1557.25,-182.5 1670.25,-182.5 1670.25,-161.5 1557.25,-161.5"/>
<text text-anchor="start" x="1601.25" y="-166.2" font-family="Courier New" font-size="14.00">Platform</text>
<text text-anchor="start" x="1675.25" y="-166.2" font-family="Courier New" font-size="14.00">Plat11</text>
<polygon fill="yellowgreen" stroke="none" points="1557.25,-138.5 1557.25,-159.5 1670.25,-159.5 1670.25,-138.5 1557.25,-138.5"/>
<text text-anchor="start" x="1617.75" y="-143.2" font-family="Courier New" font-size="14.00">Signal</text>
<text text-anchor="start" x="1674.88" y="-143.2" font-family="Courier New" font-size="14.00">T03 T04 X15 X16</text>
</g>
<!-- ne14&#45;&#45;ne14 -->
<g id="edge2" class="edge">
<title>ne14&#45;&#45;ne14</title>
<path fill="none" stroke="black" d="M1664.78,-257.83C1666.75,-268.56 1671.58,-276 1679.25,-276 1686.92,-276 1691.75,-268.56 1693.72,-257.83"/>
<text text-anchor="middle" x="1679.25" y="-278.45" font-family="Times New Roman,serif" font-size="14.00">R_02</text>
</g>
<!-- ne14&#45;&#45;ne14 -->
<g id="edge7" class="edge">
<title>ne14&#45;&#45;ne14</title>
<path fill="none" stroke="black" d="M1648.25,-257.84C1648.57,-278.01 1658.9,-294 1679.25,-294 1699.6,-294 1709.93,-278.01 1710.25,-257.84"/>
<text text-anchor="middle" x="1679.25" y="-296.45" font-family="Times New Roman,serif" font-size="14.00">R_07</text>
</g>
<!-- ne9 -->
<g id="node8" class="node">
<title>ne9</title>
<path fill="white" stroke="black" stroke-width="2" d="M1376.5,-98C1376.5,-98 1468.5,-98 1468.5,-98 1474.5,-98 1480.5,-104 1480.5,-110 1480.5,-110 1480.5,-142 1480.5,-142 1480.5,-148 1474.5,-154 1468.5,-154 1468.5,-154 1376.5,-154 1376.5,-154 1370.5,-154 1364.5,-148 1364.5,-142 1364.5,-142 1364.5,-110 1364.5,-110 1364.5,-104 1370.5,-98 1376.5,-98"/>
<polygon fill="white" stroke="none" points="1372.5,-102 1372.5,-150 1472.5,-150 1472.5,-102 1372.5,-102"/>
<polygon fill="black" stroke="none" points="1374.5,-127 1374.5,-148 1470.5,-148 1470.5,-127 1374.5,-127"/>
<text text-anchor="start" x="1410.12" y="-131.7" font-family="Courier New" font-size="14.00" fill="white">ne9</text>
<polygon fill="red" stroke="none" points="1374.5,-104 1374.5,-125 1429.5,-125 1429.5,-104 1374.5,-104"/>
<text text-anchor="start" x="1377.25" y="-108.7" font-family="Courier New" font-size="14.00">Switch</text>
<text text-anchor="start" x="1434.5" y="-108.7" font-family="Courier New" font-size="14.00">Sw07</text>
</g>
<!-- ne14&#45;&#45;ne9 -->
<g id="edge8" class="edge">
<title>ne14&#45;&#45;ne9</title>
<path fill="none" stroke="black" d="M1547.04,-159.07C1541.03,-157.44 1535.07,-155.82 1529.25,-154.25 1513.57,-150.01 1496.56,-145.45 1480.87,-141.26"/>
<text text-anchor="middle" x="1513.88" y="-157.45" font-family="Times New Roman,serif" font-size="14.00">R_08</text>
</g>
<!-- ne15 -->
<g id="node3" class="node">
<title>ne15</title>
<path fill="white" stroke="black" stroke-width="2" d="M1588.25,-0.5C1588.25,-0.5 1770.25,-0.5 1770.25,-0.5 1776.25,-0.5 1782.25,-6.5 1782.25,-12.5 1782.25,-12.5 1782.25,-67.5 1782.25,-67.5 1782.25,-73.5 1776.25,-79.5 1770.25,-79.5 1770.25,-79.5 1588.25,-79.5 1588.25,-79.5 1582.25,-79.5 1576.25,-73.5 1576.25,-67.5 1576.25,-67.5 1576.25,-12.5 1576.25,-12.5 1576.25,-6.5 1582.25,-0.5 1588.25,-0.5"/>
<polygon fill="white" stroke="none" points="1584.25,-4.5 1584.25,-75.5 1774.25,-75.5 1774.25,-4.5 1584.25,-4.5"/>
<polygon fill="black" stroke="none" points="1586.25,-52.5 1586.25,-73.5 1772.25,-73.5 1772.25,-52.5 1586.25,-52.5"/>
<text text-anchor="start" x="1662.75" y="-57.2" font-family="Courier New" font-size="14.00" fill="white">ne15</text>
<polygon fill="olive" stroke="none" points="1586.25,-29.5 1586.25,-50.5 1674.25,-50.5 1674.25,-29.5 1586.25,-29.5"/>
<text text-anchor="start" x="1589" y="-34.2" font-family="Courier New" font-size="14.00">BufferStop</text>
<text text-anchor="start" x="1679.25" y="-34.2" font-family="Courier New" font-size="14.00">Buf09</text>
<polygon fill="yellowgreen" stroke="none" points="1586.25,-6.5 1586.25,-27.5 1674.25,-27.5 1674.25,-6.5 1586.25,-6.5"/>
<text text-anchor="start" x="1621.75" y="-11.2" font-family="Courier New" font-size="14.00">Signal</text>
<text text-anchor="start" x="1678.88" y="-11.2" font-family="Courier New" font-size="14.00">T05 T06 C29</text>
</g>
<!-- ne15&#45;&#45;ne15 -->
<g id="edge3" class="edge">
<title>ne15&#45;&#45;ne15</title>
<path fill="none" stroke="black" d="M1648.56,-79.85C1650.45,-90.2 1660.68,-98 1679.25,-98 1697.82,-98 1708.05,-90.2 1709.94,-79.85"/>
<text text-anchor="middle" x="1679.25" y="-100.45" font-family="Times New Roman,serif" font-size="14.00">R_03</text>
</g>
<!-- ne15&#45;&#45;ne9 -->
<g id="edge20" class="edge">
<title>ne15&#45;&#45;ne9</title>
<path fill="none" stroke="black" d="M1576.09,-49.45C1550.1,-54.08 1522.7,-60.98 1498.5,-71.25 1483.21,-77.74 1468.09,-87.87 1455.47,-97.66"/>
<text text-anchor="middle" x="1513.88" y="-74.45" font-family="Times New Roman,serif" font-size="14.00">R_17</text>
</g>
<!-- ne22 -->
<g id="node4" class="node">
<title>ne22</title>
<path fill="white" stroke="black" stroke-width="2" d="M1136.75,-198.5C1136.75,-198.5 1285.75,-198.5 1285.75,-198.5 1291.75,-198.5 1297.75,-204.5 1297.75,-210.5 1297.75,-210.5 1297.75,-265.5 1297.75,-265.5 1297.75,-271.5 1291.75,-277.5 1285.75,-277.5 1285.75,-277.5 1136.75,-277.5 1136.75,-277.5 1130.75,-277.5 1124.75,-271.5 1124.75,-265.5 1124.75,-265.5 1124.75,-210.5 1124.75,-210.5 1124.75,-204.5 1130.75,-198.5 1136.75,-198.5"/>
<polygon fill="white" stroke="none" points="1132.75,-202.5 1132.75,-273.5 1289.75,-273.5 1289.75,-202.5 1132.75,-202.5"/>
<polygon fill="black" stroke="none" points="1134.75,-250.5 1134.75,-271.5 1287.75,-271.5 1287.75,-250.5 1134.75,-250.5"/>
<text text-anchor="start" x="1194.75" y="-255.2" font-family="Courier New" font-size="14.00" fill="white">ne22</text>
<polygon fill="#8470ff" stroke="none" points="1134.75,-227.5 1134.75,-248.5 1189.75,-248.5 1189.75,-227.5 1134.75,-227.5"/>
<text text-anchor="start" x="1137.5" y="-232.2" font-family="Courier New" font-size="14.00">Border</text>
<text text-anchor="start" x="1194.75" y="-232.2" font-family="Courier New" font-size="14.00">Buf02</text>
<polygon fill="yellowgreen" stroke="none" points="1134.75,-204.5 1134.75,-225.5 1189.75,-225.5 1189.75,-204.5 1134.75,-204.5"/>
<text text-anchor="start" x="1137.5" y="-209.2" font-family="Courier New" font-size="14.00">Signal</text>
<text text-anchor="start" x="1194.38" y="-209.2" font-family="Courier New" font-size="14.00">L09 J11 J12</text>
</g>
<!-- ne22&#45;&#45;ne22 -->
<g id="edge4" class="edge">
<title>ne22&#45;&#45;ne22</title>
<path fill="none" stroke="black" d="M1189.01,-277.85C1190.37,-288.2 1197.79,-296 1211.25,-296 1224.71,-296 1232.13,-288.2 1233.49,-277.85"/>
<text text-anchor="middle" x="1211.25" y="-298.45" font-family="Times New Roman,serif" font-size="14.00">R_04</text>
</g>
<!-- ne8 -->
<g id="node5" class="node">
<title>ne8</title>
<path fill="white" stroke="black" stroke-width="2" d="M930,-141.5C930,-141.5 1046,-141.5 1046,-141.5 1052,-141.5 1058,-147.5 1058,-153.5 1058,-153.5 1058,-208.5 1058,-208.5 1058,-214.5 1052,-220.5 1046,-220.5 1046,-220.5 930,-220.5 930,-220.5 924,-220.5 918,-214.5 918,-208.5 918,-208.5 918,-153.5 918,-153.5 918,-147.5 924,-141.5 930,-141.5"/>
<polygon fill="white" stroke="none" points="926,-145.5 926,-216.5 1050,-216.5 1050,-145.5 926,-145.5"/>
<polygon fill="black" stroke="none" points="928,-193.5 928,-214.5 1048,-214.5 1048,-193.5 928,-193.5"/>
<text text-anchor="start" x="975.62" y="-198.2" font-family="Courier New" font-size="14.00" fill="white">ne8</text>
<polygon fill="red" stroke="none" points="928,-170.5 928,-191.5 983,-191.5 983,-170.5 928,-170.5"/>
<text text-anchor="start" x="930.75" y="-175.2" font-family="Courier New" font-size="14.00">Switch</text>
<text text-anchor="start" x="988" y="-175.2" font-family="Courier New" font-size="14.00">Sw12</text>
<polygon fill="yellowgreen" stroke="none" points="928,-147.5 928,-168.5 983,-168.5 983,-147.5 928,-147.5"/>
<text text-anchor="start" x="930.75" y="-152.2" font-family="Courier New" font-size="14.00">Signal</text>
<text text-anchor="start" x="987.62" y="-152.2" font-family="Courier New" font-size="14.00">C21 S32</text>
</g>
<!-- ne22&#45;&#45;ne8 -->
<g id="edge5" class="edge">
<title>ne22&#45;&#45;ne8</title>
<path fill="none" stroke="black" d="M1124.43,-207.23C1118.48,-205.45 1112.54,-203.76 1106.75,-202.25 1091.17,-198.18 1074.24,-194.63 1058.19,-191.65"/>
<text text-anchor="middle" x="1091.38" y="-205.45" font-family="Times New Roman,serif" font-size="14.00">R_05</text>
</g>
<!-- ne8&#45;&#45;ne22 -->
<g id="edge22" class="edge">
<title>ne8&#45;&#45;ne22</title>
<path fill="none" stroke="black" d="M1058.24,-212.28C1064.18,-214.41 1070.16,-216.35 1076,-218 1091.42,-222.35 1108.12,-225.8 1124.34,-228.52"/>
<text text-anchor="middle" x="1091.38" y="-227.45" font-family="Times New Roman,serif" font-size="14.00">R_18</text>
</g>
<!-- ne1 -->
<g id="node9" class="node">
<title>ne1</title>
<path fill="white" stroke="black" stroke-width="2" d="M1153.25,-75C1153.25,-75 1269.25,-75 1269.25,-75 1275.25,-75 1281.25,-81 1281.25,-87 1281.25,-87 1281.25,-165 1281.25,-165 1281.25,-171 1275.25,-177 1269.25,-177 1269.25,-177 1153.25,-177 1153.25,-177 1147.25,-177 1141.25,-171 1141.25,-165 1141.25,-165 1141.25,-87 1141.25,-87 1141.25,-81 1147.25,-75 1153.25,-75"/>
<polygon fill="white" stroke="none" points="1149.25,-79 1149.25,-173 1273.25,-173 1273.25,-79 1149.25,-79"/>
<polygon fill="black" stroke="none" points="1151.25,-150 1151.25,-171 1271.25,-171 1271.25,-150 1151.25,-150"/>
<text text-anchor="start" x="1198.88" y="-154.7" font-family="Courier New" font-size="14.00" fill="white">ne1</text>
<polygon fill="red" stroke="none" points="1151.25,-127 1151.25,-148 1206.25,-148 1206.25,-127 1151.25,-127"/>
<text text-anchor="start" x="1154" y="-131.7" font-family="Courier New" font-size="14.00">Switch</text>
<text text-anchor="start" x="1211.25" y="-131.7" font-family="Courier New" font-size="14.00">Sw04</text>
<polygon fill="#8470ff" stroke="none" points="1151.25,-104 1151.25,-125 1206.25,-125 1206.25,-104 1151.25,-104"/>
<text text-anchor="start" x="1154" y="-108.7" font-family="Courier New" font-size="14.00">Border</text>
<text text-anchor="start" x="1211.25" y="-108.7" font-family="Courier New" font-size="14.00">Buf01</text>
<polygon fill="yellowgreen" stroke="none" points="1151.25,-81 1151.25,-102 1206.25,-102 1206.25,-81 1151.25,-81"/>
<text text-anchor="start" x="1154" y="-85.7" font-family="Courier New" font-size="14.00">Signal</text>
<text text-anchor="start" x="1210.88" y="-85.7" font-family="Courier New" font-size="14.00">L07 S22</text>
</g>
<!-- ne8&#45;&#45;ne1 -->
<g id="edge11" class="edge">
<title>ne8&#45;&#45;ne1</title>
<path fill="none" stroke="black" d="M1058.4,-163.75C1084.76,-157.2 1114.76,-149.74 1141.1,-143.19"/>
<text text-anchor="middle" x="1091.38" y="-161.45" font-family="Times New Roman,serif" font-size="14.00">R_10</text>
</g>
<!-- ne24 -->
<g id="node11" class="node">
<title>ne24</title>
<path fill="white" stroke="black" stroke-width="2" d="M763.25,-163C763.25,-163 799.25,-163 799.25,-163 805.25,-163 811.25,-169 811.25,-175 811.25,-175 811.25,-187 811.25,-187 811.25,-193 805.25,-199 799.25,-199 799.25,-199 763.25,-199 763.25,-199 757.25,-199 751.25,-193 751.25,-187 751.25,-187 751.25,-175 751.25,-175 751.25,-169 757.25,-163 763.25,-163"/>
<polygon fill="white" stroke="none" points="759.25,-168.25 759.25,-194 803.25,-194 803.25,-168.25 759.25,-168.25"/>
<polygon fill="black" stroke="none" points="761.25,-170.25 761.25,-192 801.25,-192 801.25,-170.25 761.25,-170.25"/>
<text text-anchor="start" x="764.75" y="-175.7" font-family="Courier New" font-size="14.00" fill="white">ne24</text>
</g>
<!-- ne8&#45;&#45;ne24 -->
<g id="edge23" class="edge">
<title>ne8&#45;&#45;ne24</title>
<path fill="none" stroke="black" d="M917.72,-164.71C901.83,-162.61 884.99,-161.66 869.25,-163.25 849.77,-165.22 828.21,-169.6 811.42,-173.52"/>
<text text-anchor="middle" x="884.62" y="-166.45" font-family="Times New Roman,serif" font-size="14.00">R_19</text>
</g>
<!-- ne23 -->
<g id="node6" class="node">
<title>ne23</title>
<path fill="white" stroke="black" stroke-width="2" d="M723.25,-218.5C723.25,-218.5 839.25,-218.5 839.25,-218.5 845.25,-218.5 851.25,-224.5 851.25,-230.5 851.25,-230.5 851.25,-285.5 851.25,-285.5 851.25,-291.5 845.25,-297.5 839.25,-297.5 839.25,-297.5 723.25,-297.5 723.25,-297.5 717.25,-297.5 711.25,-291.5 711.25,-285.5 711.25,-285.5 711.25,-230.5 711.25,-230.5 711.25,-224.5 717.25,-218.5 723.25,-218.5"/>
<polygon fill="white" stroke="none" points="719.25,-222.5 719.25,-293.5 843.25,-293.5 843.25,-222.5 719.25,-222.5"/>
<polygon fill="black" stroke="none" points="721.25,-270.5 721.25,-291.5 841.25,-291.5 841.25,-270.5 721.25,-270.5"/>
<text text-anchor="start" x="764.75" y="-275.2" font-family="Courier New" font-size="14.00" fill="white">ne23</text>
<polygon fill="#8470ff" stroke="none" points="721.25,-247.5 721.25,-268.5 776.25,-268.5 776.25,-247.5 721.25,-247.5"/>
<text text-anchor="start" x="724" y="-252.2" font-family="Courier New" font-size="14.00">Border</text>
<text text-anchor="start" x="781.25" y="-252.2" font-family="Courier New" font-size="14.00">Buf04</text>
<polygon fill="yellowgreen" stroke="none" points="721.25,-224.5 721.25,-245.5 776.25,-245.5 776.25,-224.5 721.25,-224.5"/>
<text text-anchor="start" x="724" y="-229.2" font-family="Courier New" font-size="14.00">Signal</text>
<text text-anchor="start" x="780.88" y="-229.2" font-family="Courier New" font-size="14.00">J13 J14</text>
</g>
<!-- ne12 -->
<g id="node7" class="node">
<title>ne12</title>
<path fill="white" stroke="black" stroke-width="2" d="M516.5,-179.5C516.5,-179.5 632.5,-179.5 632.5,-179.5 638.5,-179.5 644.5,-185.5 644.5,-191.5 644.5,-191.5 644.5,-246.5 644.5,-246.5 644.5,-252.5 638.5,-258.5 632.5,-258.5 632.5,-258.5 516.5,-258.5 516.5,-258.5 510.5,-258.5 504.5,-252.5 504.5,-246.5 504.5,-246.5 504.5,-191.5 504.5,-191.5 504.5,-185.5 510.5,-179.5 516.5,-179.5"/>
<polygon fill="white" stroke="none" points="512.5,-183.5 512.5,-254.5 636.5,-254.5 636.5,-183.5 512.5,-183.5"/>
<polygon fill="black" stroke="none" points="514.5,-231.5 514.5,-252.5 634.5,-252.5 634.5,-231.5 514.5,-231.5"/>
<text text-anchor="start" x="558" y="-236.2" font-family="Courier New" font-size="14.00" fill="white">ne12</text>
<polygon fill="red" stroke="none" points="514.5,-208.5 514.5,-229.5 569.5,-229.5 569.5,-208.5 514.5,-208.5"/>
<text text-anchor="start" x="517.25" y="-213.2" font-family="Courier New" font-size="14.00">Switch</text>
<text text-anchor="start" x="574.5" y="-213.2" font-family="Courier New" font-size="14.00">Sw13</text>
<polygon fill="yellowgreen" stroke="none" points="514.5,-185.5 514.5,-206.5 569.5,-206.5 569.5,-185.5 514.5,-185.5"/>
<text text-anchor="start" x="517.25" y="-190.2" font-family="Courier New" font-size="14.00">Signal</text>
<text text-anchor="start" x="574.12" y="-190.2" font-family="Courier New" font-size="14.00">C25 S35</text>
</g>
<!-- ne23&#45;&#45;ne12 -->
<g id="edge6" class="edge">
<title>ne23&#45;&#45;ne12</title>
<path fill="none" stroke="black" d="M710.95,-243.71C704.96,-242.52 699,-241.36 693.25,-240.25 677.64,-237.25 660.85,-234.15 644.97,-231.27"/>
<text text-anchor="middle" x="677.88" y="-243.45" font-family="Times New Roman,serif" font-size="14.00">R_06</text>
</g>
<!-- ne12&#45;&#45;ne23 -->
<g id="edge25" class="edge">
<title>ne12&#45;&#45;ne23</title>
<path fill="none" stroke="black" d="M644.53,-251.13C650.52,-253.07 656.56,-254.74 662.5,-256 678,-259.3 694.91,-260.78 710.95,-261.25"/>
<text text-anchor="middle" x="677.88" y="-263.45" font-family="Times New Roman,serif" font-size="14.00">R_20</text>
</g>
<!-- ne12&#45;&#45;ne2 -->
<g id="edge17" class="edge">
<title>ne12&#45;&#45;ne2</title>
<path fill="none" stroke="black" d="M504.22,-202.71C488.33,-200.61 471.49,-199.66 455.75,-201.25 449.92,-201.84 443.91,-202.64 437.89,-203.59"/>
<text text-anchor="middle" x="471.12" y="-204.45" font-family="Times New Roman,serif" font-size="14.00">R_14</text>
</g>
<!-- ne12&#45;&#45;ne24 -->
<g id="edge26" class="edge">
<title>ne12&#45;&#45;ne24</title>
<path fill="none" stroke="black" d="M644.79,-204.66C650.78,-203.48 656.74,-202.33 662.5,-201.25 692.67,-195.58 727.31,-189.7 751.17,-185.74"/>
<text text-anchor="middle" x="677.88" y="-204.45" font-family="Times New Roman,serif" font-size="14.00">R_21</text>
</g>
<!-- ne9&#45;&#45;ne14 -->
<g id="edge14" class="edge">
<title>ne9&#45;&#45;ne14</title>
<path fill="none" stroke="black" d="M1465.33,-154.4C1475.78,-160.4 1487.23,-166.09 1498.5,-170 1513.98,-175.38 1530.58,-179.6 1547.22,-182.92"/>
<text text-anchor="middle" x="1513.88" y="-181.45" font-family="Times New Roman,serif" font-size="14.00">R_12</text>
</g>
<!-- ne9&#45;&#45;ne15 -->
<g id="edge16" class="edge">
<title>ne9&#45;&#45;ne15</title>
<path fill="none" stroke="black" d="M1480.99,-106.59C1509.02,-97.13 1543.59,-85.46 1575.91,-74.55"/>
<text text-anchor="middle" x="1513.88" y="-103.45" font-family="Times New Roman,serif" font-size="14.00">R_13</text>
</g>
<!-- ne9&#45;&#45;ne1 -->
<g id="edge9" class="edge">
<title>ne9&#45;&#45;ne1</title>
<path fill="none" stroke="black" d="M1364.01,-110.97C1358.13,-109.86 1352.21,-108.92 1346.5,-108.25 1325.37,-105.78 1302.4,-107.28 1281.53,-110.24"/>
<text text-anchor="middle" x="1331.12" y="-111.45" font-family="Times New Roman,serif" font-size="14.00">R_08</text>
</g>
<!-- ne9&#45;&#45;ne1 -->
<g id="edge21" class="edge">
<title>ne9&#45;&#45;ne1</title>
<path fill="none" stroke="black" d="M1373.13,-97.6C1364.51,-93.74 1355.44,-90.37 1346.5,-88.25 1325.3,-83.22 1302.41,-86.39 1281.65,-92.62"/>
<text text-anchor="middle" x="1331.12" y="-91.45" font-family="Times New Roman,serif" font-size="14.00">R_17</text>
</g>
<!-- ne1&#45;&#45;ne8 -->
<g id="edge12" class="edge">
<title>ne1&#45;&#45;ne8</title>
<path fill="none" stroke="black" d="M1140.96,-123.14C1119.78,-123.88 1096.64,-126.35 1076,-132.25 1068.18,-134.49 1060.29,-137.55 1052.64,-141.05"/>
<text text-anchor="middle" x="1091.38" y="-135.45" font-family="Times New Roman,serif" font-size="14.00">R_11</text>
</g>
<!-- ne1&#45;&#45;ne9 -->
<g id="edge13" class="edge">
<title>ne1&#45;&#45;ne9</title>
<path fill="none" stroke="black" d="M1281.66,-158.73C1302.43,-164.84 1325.31,-167.94 1346.5,-163 1354.98,-161.02 1363.61,-157.94 1371.85,-154.38"/>
<text text-anchor="middle" x="1331.12" y="-168.45" font-family="Times New Roman,serif" font-size="14.00">R_12</text>
</g>
<!-- ne1&#45;&#45;ne9 -->
<g id="edge15" class="edge">
<title>ne1&#45;&#45;ne9</title>
<path fill="none" stroke="black" d="M1281.64,-126C1308.4,-126 1338.66,-126 1364.16,-126"/>
<text text-anchor="middle" x="1331.12" y="-128.45" font-family="Times New Roman,serif" font-size="14.00">R_13</text>
</g>
<!-- ne2&#45;&#45;ne13 -->
<g id="edge19" class="edge">
<title>ne2&#45;&#45;ne13</title>
<path fill="none" stroke="black" d="M297.66,-201.85C291.63,-200.8 285.6,-199.91 279.75,-199.25 264,-197.49 247.41,-197.41 231.08,-198.38"/>
<text text-anchor="middle" x="264.38" y="-202.45" font-family="Times New Roman,serif" font-size="14.00">R_16</text>
</g>
<!-- ne2&#45;&#45;ne12 -->
<g id="edge18" class="edge">
<title>ne2&#45;&#45;ne12</title>
<path fill="none" stroke="black" d="M438.07,-219C459.42,-219 482.91,-219 504.25,-219"/>
<text text-anchor="middle" x="471.12" y="-221.45" font-family="Times New Roman,serif" font-size="14.00">R_15</text>
</g>
<!-- ne24&#45;&#45;ne8 -->
<g id="edge27" class="edge">
<title>ne24&#45;&#45;ne8</title>
<path fill="none" stroke="black" d="M811.59,-181C839.23,-181 881.7,-181 917.93,-181"/>
<text text-anchor="middle" x="884.62" y="-183.45" font-family="Times New Roman,serif" font-size="14.00">R_21</text>
</g>
<!-- ne24&#45;&#45;ne12 -->
<g id="edge24" class="edge">
<title>ne24&#45;&#45;ne12</title>
<path fill="none" stroke="black" d="M751.23,-169.3C727.1,-161.25 692.06,-153.46 662.5,-162.25 649.88,-166 637.39,-172.23 625.97,-179.21"/>
<text text-anchor="middle" x="677.88" y="-165.45" font-family="Times New Roman,serif" font-size="14.00">R_19</text>
</g>
</g>
</svg>
