<?xml version="1.0" encoding="UTF-8" standalone="no"?>
<!DOCTYPE svg PUBLIC "-//W3C//DTD SVG 1.1//EN"
 "http://www.w3.org/Graphics/SVG/1.1/DTD/svg11.dtd">
<!-- Generated by graphviz version 9.0.0 (20230911.1827)
 -->
<!-- Title: finite_state_machine Pages: 1 -->
<svg width="2076pt" height="408pt"
 viewBox="0.00 0.00 2075.50 407.88" xmlns="http://www.w3.org/2000/svg" xmlns:xlink="http://www.w3.org/1999/xlink">
<g id="graph0" class="graph" transform="scale(1 1) rotate(0) translate(4 403.88)">
<title>finite_state_machine</title>
<polygon fill="white" stroke="none" points="-4,4 -4,-403.88 2071.5,-403.88 2071.5,4 -4,4"/>
<!-- ne3 -->
<g id="node1" class="node">
<title>ne3</title>
<path fill="white" stroke="black" stroke-width="2" d="M12,-85.53C12,-85.53 260,-85.53 260,-85.53 266,-85.53 272,-91.53 272,-97.53 272,-97.53 272,-198.53 272,-198.53 272,-204.53 266,-210.53 260,-210.53 260,-210.53 12,-210.53 12,-210.53 6,-210.53 0,-204.53 0,-198.53 0,-198.53 0,-97.53 0,-97.53 0,-91.53 6,-85.53 12,-85.53"/>
<polygon fill="white" stroke="none" points="8,-89.53 8,-206.53 264,-206.53 264,-89.53 8,-89.53"/>
<polygon fill="black" stroke="none" points="10,-183.53 10,-204.53 262,-204.53 262,-183.53 10,-183.53"/>
<text text-anchor="start" x="123.62" y="-188.23" font-family="Courier New" font-size="14.00" fill="white">ne3</text>
<polygon fill="red" stroke="none" points="10,-160.53 10,-181.53 98,-181.53 98,-160.53 10,-160.53"/>
<text text-anchor="start" x="45.5" y="-165.23" font-family="Courier New" font-size="14.00">Switch</text>
<text text-anchor="start" x="103" y="-165.23" font-family="Courier New" font-size="14.00">Sw31</text>
<polygon fill="olive" stroke="none" points="10,-137.53 10,-158.53 98,-158.53 98,-137.53 10,-137.53"/>
<text text-anchor="start" x="12.75" y="-142.23" font-family="Courier New" font-size="14.00">BufferStop</text>
<text text-anchor="start" x="103" y="-142.23" font-family="Courier New" font-size="14.00">Buf05</text>
<polygon fill="cornflowerblue" stroke="none" points="10,-114.53 10,-135.53 98,-135.53 98,-114.53 10,-114.53"/>
<text text-anchor="start" x="29" y="-119.23" font-family="Courier New" font-size="14.00">Platform</text>
<text text-anchor="start" x="103" y="-119.23" font-family="Courier New" font-size="14.00">Plat10</text>
<polygon fill="yellowgreen" stroke="none" points="10,-91.53 10,-112.53 98,-112.53 98,-91.53 10,-91.53"/>
<text text-anchor="start" x="45.5" y="-96.23" font-family="Courier New" font-size="14.00">Signal</text>
<text text-anchor="start" x="102.62" y="-96.23" font-family="Courier New" font-size="14.00">T01 T02 J17 J21 S42</text>
</g>
<!-- ne3&#45;&#45;ne3 -->
<g id="edge1" class="edge">
<title>ne3&#45;&#45;ne3</title>
<path fill="none" stroke="black" d="M121.18,-210.86C123.2,-221.59 128.14,-229.03 136,-229.03 143.86,-229.03 148.8,-221.59 150.82,-210.86"/>
<text text-anchor="middle" x="136" y="-231.48" font-family="Times New Roman,serif" font-size="14.00">R_01</text>
</g>
<!-- ne3&#45;&#45;ne3 -->
<g id="edge16" class="edge">
<title>ne3&#45;&#45;ne3</title>
<path fill="none" stroke="black" d="M104.25,-210.87C104.58,-231.04 115.16,-247.03 136,-247.03 156.84,-247.03 167.42,-231.04 167.75,-210.87"/>
<text text-anchor="middle" x="136" y="-249.48" font-family="Times New Roman,serif" font-size="14.00">R_13</text>
</g>
<!-- ne46 -->
<g id="node6" class="node">
<title>ne46</title>
<path fill="white" stroke="black" stroke-width="2" d="M350.75,-201.03C350.75,-201.03 623.75,-201.03 623.75,-201.03 629.75,-201.03 635.75,-207.03 635.75,-213.03 635.75,-213.03 635.75,-291.03 635.75,-291.03 635.75,-297.03 629.75,-303.03 623.75,-303.03 623.75,-303.03 350.75,-303.03 350.75,-303.03 344.75,-303.03 338.75,-297.03 338.75,-291.03 338.75,-291.03 338.75,-213.03 338.75,-213.03 338.75,-207.03 344.75,-201.03 350.75,-201.03"/>
<polygon fill="white" stroke="none" points="346.75,-205.03 346.75,-299.03 627.75,-299.03 627.75,-205.03 346.75,-205.03"/>
<polygon fill="black" stroke="none" points="348.75,-276.03 348.75,-297.03 625.75,-297.03 625.75,-276.03 348.75,-276.03"/>
<text text-anchor="start" x="470.75" y="-280.73" font-family="Courier New" font-size="14.00" fill="white">ne46</text>
<polygon fill="darkcyan" stroke="none" points="348.75,-253.03 348.75,-274.03 461.75,-274.03 461.75,-253.03 348.75,-253.03"/>
<text text-anchor="start" x="351.62" y="-257.73" font-family="Courier New" font-size="14.00">LevelCrossing</text>
<text text-anchor="start" x="466.75" y="-257.73" font-family="Courier New" font-size="14.00">Lc10</text>
<polygon fill="cornflowerblue" stroke="none" points="348.75,-230.03 348.75,-251.03 461.75,-251.03 461.75,-230.03 348.75,-230.03"/>
<text text-anchor="start" x="392.75" y="-234.73" font-family="Courier New" font-size="14.00">Platform</text>
<text text-anchor="start" x="466.75" y="-234.73" font-family="Courier New" font-size="14.00">Plat13</text>
<polygon fill="yellowgreen" stroke="none" points="348.75,-207.03 348.75,-228.03 461.75,-228.03 461.75,-207.03 348.75,-207.03"/>
<text text-anchor="start" x="409.25" y="-211.73" font-family="Courier New" font-size="14.00">Signal</text>
<text text-anchor="start" x="466.38" y="-211.73" font-family="Courier New" font-size="14.00">J09 J10 J16 X31 C41</text>
</g>
<!-- ne3&#45;&#45;ne46 -->
<g id="edge29" class="edge">
<title>ne3&#45;&#45;ne46</title>
<path fill="none" stroke="black" d="M201.21,-210.85C226.73,-231.66 257.69,-252.24 290,-263.03 305.37,-268.16 321.8,-271.01 338.36,-272.25"/>
<text text-anchor="middle" x="305.38" y="-271.48" font-family="Times New Roman,serif" font-size="14.00">R_22</text>
</g>
<!-- ne53 -->
<g id="node7" class="node">
<title>ne53</title>
<path fill="white" stroke="black" stroke-width="2" d="M1599.75,-127.03C1599.75,-127.03 1691.75,-127.03 1691.75,-127.03 1697.75,-127.03 1703.75,-133.03 1703.75,-139.03 1703.75,-139.03 1703.75,-171.03 1703.75,-171.03 1703.75,-177.03 1697.75,-183.03 1691.75,-183.03 1691.75,-183.03 1599.75,-183.03 1599.75,-183.03 1593.75,-183.03 1587.75,-177.03 1587.75,-171.03 1587.75,-171.03 1587.75,-139.03 1587.75,-139.03 1587.75,-133.03 1593.75,-127.03 1599.75,-127.03"/>
<polygon fill="white" stroke="none" points="1595.75,-131.03 1595.75,-179.03 1695.75,-179.03 1695.75,-131.03 1595.75,-131.03"/>
<polygon fill="black" stroke="none" points="1597.75,-156.03 1597.75,-177.03 1693.75,-177.03 1693.75,-156.03 1597.75,-156.03"/>
<text text-anchor="start" x="1629.25" y="-160.73" font-family="Courier New" font-size="14.00" fill="white">ne53</text>
<polygon fill="red" stroke="none" points="1597.75,-133.03 1597.75,-154.03 1652.75,-154.03 1652.75,-133.03 1597.75,-133.03"/>
<text text-anchor="start" x="1600.5" y="-137.73" font-family="Courier New" font-size="14.00">Switch</text>
<text text-anchor="start" x="1657.75" y="-137.73" font-family="Courier New" font-size="14.00">Sw33</text>
</g>
<!-- ne3&#45;&#45;ne53 -->
<g id="edge30" class="edge">
<title>ne3&#45;&#45;ne53</title>
<path fill="none" stroke="black" d="M272.46,-148.66C589.46,-150.13 1369.21,-153.75 1587.27,-154.76"/>
<text text-anchor="middle" x="1040.88" y="-155.48" font-family="Times New Roman,serif" font-size="14.00">R_23</text>
</g>
<!-- ne3&#45;&#45;ne53 -->
<g id="edge32" class="edge">
<title>ne3&#45;&#45;ne53</title>
<path fill="none" stroke="black" d="M272.34,-130.4C336.97,-123.42 415.49,-117.03 486.25,-117.03 486.25,-117.03 486.25,-117.03 1390,-117.03 1458.42,-117.03 1536.05,-130.6 1587.44,-141.52"/>
<text text-anchor="middle" x="1040.88" y="-119.48" font-family="Times New Roman,serif" font-size="14.00">R_24</text>
</g>
<!-- ne40 -->
<g id="node2" class="node">
<title>ne40</title>
<path fill="white" stroke="black" stroke-width="2" d="M714.5,-189.53C714.5,-189.53 995.5,-189.53 995.5,-189.53 1001.5,-189.53 1007.5,-195.53 1007.5,-201.53 1007.5,-201.53 1007.5,-302.53 1007.5,-302.53 1007.5,-308.53 1001.5,-314.53 995.5,-314.53 995.5,-314.53 714.5,-314.53 714.5,-314.53 708.5,-314.53 702.5,-308.53 702.5,-302.53 702.5,-302.53 702.5,-201.53 702.5,-201.53 702.5,-195.53 708.5,-189.53 714.5,-189.53"/>
<polygon fill="white" stroke="none" points="710.5,-193.53 710.5,-310.53 999.5,-310.53 999.5,-193.53 710.5,-193.53"/>
<polygon fill="black" stroke="none" points="712.5,-287.53 712.5,-308.53 997.5,-308.53 997.5,-287.53 712.5,-287.53"/>
<text text-anchor="start" x="838.5" y="-292.23" font-family="Courier New" font-size="14.00" fill="white">ne40</text>
<polygon fill="red" stroke="none" points="712.5,-264.53 712.5,-285.53 800.5,-285.53 800.5,-264.53 712.5,-264.53"/>
<text text-anchor="start" x="748" y="-269.23" font-family="Courier New" font-size="14.00">Switch</text>
<text text-anchor="start" x="805.5" y="-269.23" font-family="Courier New" font-size="14.00">Sw27</text>
<polygon fill="olive" stroke="none" points="712.5,-241.53 712.5,-262.53 800.5,-262.53 800.5,-241.53 712.5,-241.53"/>
<text text-anchor="start" x="715.25" y="-246.23" font-family="Courier New" font-size="14.00">BufferStop</text>
<text text-anchor="start" x="805.5" y="-246.23" font-family="Courier New" font-size="14.00">Buf01</text>
<polygon fill="cornflowerblue" stroke="none" points="712.5,-218.53 712.5,-239.53 800.5,-239.53 800.5,-218.53 712.5,-218.53"/>
<text text-anchor="start" x="731.5" y="-223.23" font-family="Courier New" font-size="14.00">Platform</text>
<text text-anchor="start" x="805.5" y="-223.23" font-family="Courier New" font-size="14.00">Plat14</text>
<polygon fill="yellowgreen" stroke="none" points="712.5,-195.53 712.5,-216.53 800.5,-216.53 800.5,-195.53 712.5,-195.53"/>
<text text-anchor="start" x="748" y="-200.23" font-family="Courier New" font-size="14.00">Signal</text>
<text text-anchor="start" x="805.12" y="-200.23" font-family="Courier New" font-size="14.00">T03 T04 J24 J25 J26 S36</text>
</g>
<!-- ne40&#45;&#45;ne40 -->
<g id="edge2" class="edge">
<title>ne40&#45;&#45;ne40</title>
<path fill="none" stroke="black" d="M838.73,-314.86C840.96,-325.59 846.38,-333.03 855,-333.03 863.62,-333.03 869.04,-325.59 871.27,-314.86"/>
<text text-anchor="middle" x="855" y="-335.48" font-family="Times New Roman,serif" font-size="14.00">R_02</text>
</g>
<!-- ne40&#45;&#45;ne40 -->
<g id="edge19" class="edge">
<title>ne40&#45;&#45;ne40</title>
<path fill="none" stroke="black" d="M820.16,-314.87C820.51,-335.04 832.13,-351.03 855,-351.03 877.87,-351.03 889.49,-335.04 889.84,-314.87"/>
<text text-anchor="middle" x="855" y="-353.48" font-family="Times New Roman,serif" font-size="14.00">R_15</text>
</g>
<!-- ne48 -->
<g id="node4" class="node">
<title>ne48</title>
<path fill="white" stroke="black" stroke-width="2" d="M1086.25,-259.03C1086.25,-259.03 1178.25,-259.03 1178.25,-259.03 1184.25,-259.03 1190.25,-265.03 1190.25,-271.03 1190.25,-271.03 1190.25,-303.03 1190.25,-303.03 1190.25,-309.03 1184.25,-315.03 1178.25,-315.03 1178.25,-315.03 1086.25,-315.03 1086.25,-315.03 1080.25,-315.03 1074.25,-309.03 1074.25,-303.03 1074.25,-303.03 1074.25,-271.03 1074.25,-271.03 1074.25,-265.03 1080.25,-259.03 1086.25,-259.03"/>
<polygon fill="white" stroke="none" points="1082.25,-263.03 1082.25,-311.03 1182.25,-311.03 1182.25,-263.03 1082.25,-263.03"/>
<polygon fill="black" stroke="none" points="1084.25,-288.03 1084.25,-309.03 1180.25,-309.03 1180.25,-288.03 1084.25,-288.03"/>
<text text-anchor="start" x="1115.75" y="-292.73" font-family="Courier New" font-size="14.00" fill="white">ne48</text>
<polygon fill="red" stroke="none" points="1084.25,-265.03 1084.25,-286.03 1139.25,-286.03 1139.25,-265.03 1084.25,-265.03"/>
<text text-anchor="start" x="1087" y="-269.73" font-family="Courier New" font-size="14.00">Switch</text>
<text text-anchor="start" x="1144.25" y="-269.73" font-family="Courier New" font-size="14.00">Sw29</text>
</g>
<!-- ne40&#45;&#45;ne48 -->
<g id="edge24" class="edge">
<title>ne40&#45;&#45;ne48</title>
<path fill="none" stroke="black" d="M1007.9,-306.92C1024.1,-308.81 1040.43,-309.1 1056.25,-307.03 1062,-306.28 1067.93,-305.21 1073.82,-303.96"/>
<text text-anchor="middle" x="1040.88" y="-310.48" font-family="Times New Roman,serif" font-size="14.00">R_19</text>
</g>
<!-- ne40&#45;&#45;ne48 -->
<g id="edge26" class="edge">
<title>ne40&#45;&#45;ne48</title>
<path fill="none" stroke="black" d="M1007.71,-271.32C1031.27,-274.32 1054.27,-277.24 1073.91,-279.74"/>
<text text-anchor="middle" x="1040.88" y="-278.48" font-family="Times New Roman,serif" font-size="14.00">R_20</text>
</g>
<!-- ne40&#45;&#45;ne46 -->
<g id="edge17" class="edge">
<title>ne40&#45;&#45;ne46</title>
<path fill="none" stroke="black" d="M702.02,-249.24C685.73,-249.15 669.4,-249.15 653.75,-249.28 648,-249.33 642.14,-249.38 636.22,-249.45"/>
<text text-anchor="middle" x="669.12" y="-251.48" font-family="Times New Roman,serif" font-size="14.00">R_14</text>
</g>
<!-- ne40&#45;&#45;ne46 -->
<g id="edge23" class="edge">
<title>ne40&#45;&#45;ne46</title>
<path fill="none" stroke="black" d="M702.15,-228.95C685.83,-228.21 669.46,-228.2 653.75,-229.28 647.96,-229.67 642.07,-230.15 636.12,-230.68"/>
<text text-anchor="middle" x="669.12" y="-231.48" font-family="Times New Roman,serif" font-size="14.00">R_18</text>
</g>
<!-- ne49 -->
<g id="node3" class="node">
<title>ne49</title>
<path fill="white" stroke="black" stroke-width="2" d="M1782.5,-182.03C1782.5,-182.03 2055.5,-182.03 2055.5,-182.03 2061.5,-182.03 2067.5,-188.03 2067.5,-194.03 2067.5,-194.03 2067.5,-272.03 2067.5,-272.03 2067.5,-278.03 2061.5,-284.03 2055.5,-284.03 2055.5,-284.03 1782.5,-284.03 1782.5,-284.03 1776.5,-284.03 1770.5,-278.03 1770.5,-272.03 1770.5,-272.03 1770.5,-194.03 1770.5,-194.03 1770.5,-188.03 1776.5,-182.03 1782.5,-182.03"/>
<polygon fill="white" stroke="none" points="1778.5,-186.03 1778.5,-280.03 2059.5,-280.03 2059.5,-186.03 1778.5,-186.03"/>
<polygon fill="black" stroke="none" points="1780.5,-257.03 1780.5,-278.03 2057.5,-278.03 2057.5,-257.03 1780.5,-257.03"/>
<text text-anchor="start" x="1902.5" y="-261.73" font-family="Courier New" font-size="14.00" fill="white">ne49</text>
<polygon fill="darkcyan" stroke="none" points="1780.5,-234.03 1780.5,-255.03 1893.5,-255.03 1893.5,-234.03 1780.5,-234.03"/>
<text text-anchor="start" x="1783.38" y="-238.73" font-family="Courier New" font-size="14.00">LevelCrossing</text>
<text text-anchor="start" x="1898.5" y="-238.73" font-family="Courier New" font-size="14.00">Lc11</text>
<polygon fill="cornflowerblue" stroke="none" points="1780.5,-211.03 1780.5,-232.03 1893.5,-232.03 1893.5,-211.03 1780.5,-211.03"/>
<text text-anchor="start" x="1824.5" y="-215.73" font-family="Courier New" font-size="14.00">Platform</text>
<text text-anchor="start" x="1898.5" y="-215.73" font-family="Courier New" font-size="14.00">Plat11</text>
<polygon fill="yellowgreen" stroke="none" points="1780.5,-188.03 1780.5,-209.03 1893.5,-209.03 1893.5,-188.03 1780.5,-188.03"/>
<text text-anchor="start" x="1841" y="-192.73" font-family="Courier New" font-size="14.00">Signal</text>
<text text-anchor="start" x="1898.12" y="-192.73" font-family="Courier New" font-size="14.00">J05 J06 J11 J12 X33</text>
</g>
<!-- ne49&#45;&#45;ne49 -->
<g id="edge3" class="edge">
<title>ne49&#45;&#45;ne49</title>
<path fill="none" stroke="black" d="M1902.55,-284.25C1904.28,-294.88 1909.76,-302.53 1919,-302.53 1928.24,-302.53 1933.72,-294.88 1935.45,-284.25"/>
<text text-anchor="middle" x="1919" y="-304.98" font-family="Times New Roman,serif" font-size="14.00">R_03</text>
</g>
<!-- ne49&#45;&#45;ne49 -->
<g id="edge11" class="edge">
<title>ne49&#45;&#45;ne49</title>
<path fill="none" stroke="black" d="M1885.03,-284.26C1883.52,-304.07 1894.84,-320.53 1919,-320.53 1943.16,-320.53 1954.48,-304.07 1952.97,-284.26"/>
<text text-anchor="middle" x="1919" y="-322.98" font-family="Times New Roman,serif" font-size="14.00">R_09</text>
</g>
<!-- ne49&#45;&#45;ne48 -->
<g id="edge4" class="edge">
<title>ne49&#45;&#45;ne48</title>
<path fill="none" stroke="black" d="M1795.34,-284.37C1718.13,-313.85 1615.54,-347.94 1521,-363.03 1405.13,-381.52 1369.91,-394.93 1257,-363.03 1224.12,-353.74 1191.38,-332.99 1167.84,-315.52"/>
<text text-anchor="middle" x="1554.38" y="-361.48" font-family="Times New Roman,serif" font-size="14.00">R_04</text>
</g>
<!-- ne49&#45;&#45;ne53 -->
<g id="edge9" class="edge">
<title>ne49&#45;&#45;ne53</title>
<path fill="none" stroke="black" d="M1770.13,-190.51C1746.62,-183.75 1723.61,-177.13 1703.94,-171.48"/>
<text text-anchor="middle" x="1737.12" y="-187.48" font-family="Times New Roman,serif" font-size="14.00">R_08</text>
</g>
<!-- ne49&#45;&#45;ne53 -->
<g id="edge21" class="edge">
<title>ne49&#45;&#45;ne53</title>
<path fill="none" stroke="black" d="M1819.03,-181.68C1797.61,-172.64 1774.71,-164.47 1752.5,-159.28 1737.02,-155.66 1719.93,-154 1704.08,-153.39"/>
<text text-anchor="middle" x="1737.12" y="-162.48" font-family="Times New Roman,serif" font-size="14.00">R_17</text>
</g>
<!-- ne48&#45;&#45;ne40 -->
<g id="edge5" class="edge">
<title>ne48&#45;&#45;ne40</title>
<path fill="none" stroke="black" d="M1076.91,-258.59C1070.1,-256.01 1063.12,-253.8 1056.25,-252.28 1040.72,-248.85 1024.34,-246.63 1007.92,-245.31"/>
<text text-anchor="middle" x="1040.88" y="-254.48" font-family="Times New Roman,serif" font-size="14.00">R_04</text>
</g>
<!-- ne48&#45;&#45;ne40 -->
<g id="edge35" class="edge">
<title>ne48&#45;&#45;ne40</title>
<path fill="none" stroke="black" d="M1104.85,-258.68C1091.59,-246.52 1074.48,-233.65 1056.25,-227.28 1040.87,-221.9 1024.48,-219.3 1007.94,-218.63"/>
<text text-anchor="middle" x="1040.88" y="-229.48" font-family="Times New Roman,serif" font-size="14.00">R_25</text>
</g>
<!-- ne48&#45;&#45;ne49 -->
<g id="edge25" class="edge">
<title>ne48&#45;&#45;ne49</title>
<path fill="none" stroke="black" d="M1155.12,-315.27C1177.38,-341.04 1214.58,-376.52 1257,-386.03 1371.49,-411.68 1403.96,-394.39 1521,-386.03 1603.84,-380.11 1626.07,-376.42 1703.75,-347.03 1748.08,-330.26 1794.83,-306.21 1833.3,-284.52"/>
<text text-anchor="middle" x="1554.38" y="-386.48" font-family="Times New Roman,serif" font-size="14.00">R_19</text>
</g>
<!-- ne50 -->
<g id="node5" class="node">
<title>ne50</title>
<path fill="white" stroke="black" stroke-width="2" d="M1269,-184.03C1269,-184.03 1509,-184.03 1509,-184.03 1515,-184.03 1521,-190.03 1521,-196.03 1521,-196.03 1521,-274.03 1521,-274.03 1521,-280.03 1515,-286.03 1509,-286.03 1509,-286.03 1269,-286.03 1269,-286.03 1263,-286.03 1257,-280.03 1257,-274.03 1257,-274.03 1257,-196.03 1257,-196.03 1257,-190.03 1263,-184.03 1269,-184.03"/>
<polygon fill="white" stroke="none" points="1265,-188.03 1265,-282.03 1513,-282.03 1513,-188.03 1265,-188.03"/>
<polygon fill="black" stroke="none" points="1267,-259.03 1267,-280.03 1511,-280.03 1511,-259.03 1267,-259.03"/>
<text text-anchor="start" x="1372.5" y="-263.73" font-family="Courier New" font-size="14.00" fill="white">ne50</text>
<polygon fill="darkcyan" stroke="none" points="1267,-236.03 1267,-257.03 1380,-257.03 1380,-236.03 1267,-236.03"/>
<text text-anchor="start" x="1269.88" y="-240.73" font-family="Courier New" font-size="14.00">LevelCrossing</text>
<text text-anchor="start" x="1385" y="-240.73" font-family="Courier New" font-size="14.00">Lc09</text>
<polygon fill="cornflowerblue" stroke="none" points="1267,-213.03 1267,-234.03 1380,-234.03 1380,-213.03 1267,-213.03"/>
<text text-anchor="start" x="1311" y="-217.73" font-family="Courier New" font-size="14.00">Platform</text>
<text text-anchor="start" x="1385" y="-217.73" font-family="Courier New" font-size="14.00">Plat12</text>
<polygon fill="yellowgreen" stroke="none" points="1267,-190.03 1267,-211.03 1380,-211.03 1380,-190.03 1267,-190.03"/>
<text text-anchor="start" x="1327.5" y="-194.73" font-family="Courier New" font-size="14.00">Signal</text>
<text text-anchor="start" x="1384.62" y="-194.73" font-family="Courier New" font-size="14.00">J07 J13 J14 B46</text>
</g>
<!-- ne48&#45;&#45;ne50 -->
<g id="edge27" class="edge">
<title>ne48&#45;&#45;ne50</title>
<path fill="none" stroke="black" d="M1190.74,-275.29C1210.48,-271.26 1233.46,-266.57 1256.61,-261.85"/>
<text text-anchor="middle" x="1223.62" y="-273.48" font-family="Times New Roman,serif" font-size="14.00">R_20</text>
</g>
<!-- ne50&#45;&#45;ne48 -->
<g id="edge34" class="edge">
<title>ne50&#45;&#45;ne48</title>
<path fill="none" stroke="black" d="M1256.74,-235.61C1240.22,-237.7 1223.71,-240.79 1208.25,-245.28 1197.52,-248.39 1186.63,-253.27 1176.61,-258.6"/>
<text text-anchor="middle" x="1223.62" y="-247.48" font-family="Times New Roman,serif" font-size="14.00">R_25</text>
</g>
<!-- ne50&#45;&#45;ne50 -->
<g id="edge6" class="edge">
<title>ne50&#45;&#45;ne50</title>
<path fill="none" stroke="black" d="M1374.04,-286.25C1375.62,-296.88 1380.6,-304.53 1389,-304.53 1397.4,-304.53 1402.38,-296.88 1403.96,-286.25"/>
<text text-anchor="middle" x="1389" y="-306.98" font-family="Times New Roman,serif" font-size="14.00">R_05</text>
</g>
<!-- ne50&#45;&#45;ne50 -->
<g id="edge14" class="edge">
<title>ne50&#45;&#45;ne50</title>
<path fill="none" stroke="black" d="M1358.11,-286.26C1356.74,-306.07 1367.04,-322.53 1389,-322.53 1410.96,-322.53 1421.26,-306.07 1419.89,-286.26"/>
<text text-anchor="middle" x="1389" y="-324.98" font-family="Times New Roman,serif" font-size="14.00">R_11</text>
</g>
<!-- ne50&#45;&#45;ne53 -->
<g id="edge12" class="edge">
<title>ne50&#45;&#45;ne53</title>
<path fill="none" stroke="black" d="M1521.07,-223.61C1537.79,-219.98 1554.4,-215.23 1569.75,-209.03 1584.92,-202.9 1599.91,-193.08 1612.46,-183.49"/>
<text text-anchor="middle" x="1554.38" y="-221.48" font-family="Times New Roman,serif" font-size="14.00">R_10</text>
</g>
<!-- ne46&#45;&#45;ne3 -->
<g id="edge18" class="edge">
<title>ne46&#45;&#45;ne3</title>
<path fill="none" stroke="black" d="M338.34,-247.94C321.83,-245.36 305.42,-241.82 290,-237.03 269.61,-230.69 249.01,-221.23 229.82,-210.81"/>
<text text-anchor="middle" x="305.38" y="-245.48" font-family="Times New Roman,serif" font-size="14.00">R_14</text>
</g>
<!-- ne46&#45;&#45;ne3 -->
<g id="edge20" class="edge">
<title>ne46&#45;&#45;ne3</title>
<path fill="none" stroke="black" d="M338.42,-212.16C322.05,-207.51 305.65,-202.74 290,-198.03 284.25,-196.3 278.38,-194.51 272.46,-192.67"/>
<text text-anchor="middle" x="305.38" y="-208.48" font-family="Times New Roman,serif" font-size="14.00">R_16</text>
</g>
<!-- ne46&#45;&#45;ne3 -->
<g id="edge28" class="edge">
<title>ne46&#45;&#45;ne3</title>
<path fill="none" stroke="black" d="M381.84,-200.68C361.9,-192.26 340.94,-184.33 320.75,-178.28 305.27,-173.64 288.82,-169.66 272.38,-166.25"/>
<text text-anchor="middle" x="305.38" y="-181.48" font-family="Times New Roman,serif" font-size="14.00">R_21</text>
</g>
<!-- ne46&#45;&#45;ne40 -->
<g id="edge8" class="edge">
<title>ne46&#45;&#45;ne40</title>
<path fill="none" stroke="black" d="M636.17,-267.98C642.1,-268.38 647.98,-268.73 653.75,-269.03 669.43,-269.83 685.79,-269.83 702.09,-269.27"/>
<text text-anchor="middle" x="669.12" y="-271.48" font-family="Times New Roman,serif" font-size="14.00">R_07</text>
</g>
<!-- ne46&#45;&#45;ne46 -->
<g id="edge7" class="edge">
<title>ne46&#45;&#45;ne46</title>
<path fill="none" stroke="black" d="M470.8,-303.25C472.53,-313.88 478.01,-321.53 487.25,-321.53 496.49,-321.53 501.97,-313.88 503.7,-303.25"/>
<text text-anchor="middle" x="487.25" y="-323.98" font-family="Times New Roman,serif" font-size="14.00">R_06</text>
</g>
<!-- ne46&#45;&#45;ne46 -->
<g id="edge15" class="edge">
<title>ne46&#45;&#45;ne46</title>
<path fill="none" stroke="black" d="M453.28,-303.26C451.77,-323.07 463.09,-339.53 487.25,-339.53 511.41,-339.53 522.73,-323.07 521.22,-303.26"/>
<text text-anchor="middle" x="487.25" y="-341.98" font-family="Times New Roman,serif" font-size="14.00">R_12</text>
</g>
<!-- ne53&#45;&#45;ne3 -->
<g id="edge10" class="edge">
<title>ne53&#45;&#45;ne3</title>
<path fill="none" stroke="black" d="M1611.21,-126.78C1598.89,-117.8 1584.36,-108.73 1569.75,-103.03 1494.62,-73.69 1470.66,-78.03 1390,-78.03 486.25,-78.03 486.25,-78.03 486.25,-78.03 398.32,-78.03 376.06,-85.01 290,-103.03 284.17,-104.25 278.25,-105.58 272.28,-107"/>
<text text-anchor="middle" x="1040.88" y="-80.48" font-family="Times New Roman,serif" font-size="14.00">R_08</text>
</g>
<!-- ne53&#45;&#45;ne3 -->
<g id="edge13" class="edge">
<title>ne53&#45;&#45;ne3</title>
<path fill="none" stroke="black" d="M1615.85,-126.58C1602.46,-114.21 1585.95,-100.06 1569.75,-89.03 1501.21,-42.36 1472.92,-39.03 1390,-39.03 486.25,-39.03 486.25,-39.03 486.25,-39.03 413.36,-39.03 335.65,-60.93 272.07,-85.1"/>
<text text-anchor="middle" x="1040.88" y="-41.48" font-family="Times New Roman,serif" font-size="14.00">R_10</text>
</g>
<!-- ne53&#45;&#45;ne3 -->
<g id="edge22" class="edge">
<title>ne53&#45;&#45;ne3</title>
<path fill="none" stroke="black" d="M1622.94,-126.69C1608.56,-108.65 1588.91,-85.16 1569.75,-66.03 1549.72,-46.02 1546.57,-37.19 1521,-25.03 1467.47,0.43 1449.27,-0.03 1390,-0.03 486.25,-0.03 486.25,-0.03 486.25,-0.03 393.56,-0.03 297.22,-44.77 229.26,-85.05"/>
<text text-anchor="middle" x="1040.88" y="-2.48" font-family="Times New Roman,serif" font-size="14.00">R_17</text>
</g>
<!-- ne53&#45;&#45;ne49 -->
<g id="edge31" class="edge">
<title>ne53&#45;&#45;ne49</title>
<path fill="none" stroke="black" d="M1682.33,-183.45C1694.25,-191.64 1708.01,-199.78 1721.75,-205.03 1737.1,-210.89 1753.55,-215.54 1770.16,-219.23"/>
<text text-anchor="middle" x="1737.12" y="-217.48" font-family="Times New Roman,serif" font-size="14.00">R_23</text>
</g>
<!-- ne53&#45;&#45;ne50 -->
<g id="edge33" class="edge">
<title>ne53&#45;&#45;ne50</title>
<path fill="none" stroke="black" d="M1587.55,-172.99C1567.77,-179.2 1544.72,-186.44 1521.48,-193.74"/>
<text text-anchor="middle" x="1554.38" y="-190.48" font-family="Times New Roman,serif" font-size="14.00">R_24</text>
</g>
</g>
</svg>
