<?xml version="1.0" encoding="UTF-8" standalone="no"?>
<!DOCTYPE svg PUBLIC "-//W3C//DTD SVG 1.1//EN"
 "http://www.w3.org/Graphics/SVG/1.1/DTD/svg11.dtd">
<!-- Generated by graphviz version 9.0.0 (20230911.1827)
 -->
<!-- Title: finite_state_machine Pages: 1 -->
<svg width="834pt" height="373pt"
 viewBox="0.00 0.00 834.25 373.00" xmlns="http://www.w3.org/2000/svg" xmlns:xlink="http://www.w3.org/1999/xlink">
<g id="graph0" class="graph" transform="scale(1 1) rotate(0) translate(4 369)">
<title>finite_state_machine</title>
<polygon fill="white" stroke="none" points="-4,4 -4,-369 830.25,-369 830.25,4 -4,4"/>
<!-- ne01 -->
<g id="node1" class="node">
<title>ne01</title>
<path fill="white" stroke="black" stroke-width="2" d="M12,-0.5C12,-0.5 161,-0.5 161,-0.5 167,-0.5 173,-6.5 173,-12.5 173,-12.5 173,-90.5 173,-90.5 173,-96.5 167,-102.5 161,-102.5 161,-102.5 12,-102.5 12,-102.5 6,-102.5 0,-96.5 0,-90.5 0,-90.5 0,-12.5 0,-12.5 0,-6.5 6,-0.5 12,-0.5"/>
<polygon fill="white" stroke="none" points="8,-4.5 8,-98.5 165,-98.5 165,-4.5 8,-4.5"/>
<polygon fill="black" stroke="none" points="10,-75.5 10,-96.5 163,-96.5 163,-75.5 10,-75.5"/>
<text text-anchor="start" x="70" y="-80.2" font-family="Courier New" font-size="14.00" fill="white">ne01</text>
<polygon fill="red" stroke="none" points="10,-52.5 10,-73.5 98,-73.5 98,-52.5 10,-52.5"/>
<text text-anchor="start" x="45.5" y="-57.2" font-family="Courier New" font-size="14.00">Switch</text>
<text text-anchor="start" x="103" y="-57.2" font-family="Courier New" font-size="14.00">Sw01</text>
<polygon fill="olive" stroke="none" points="10,-29.5 10,-50.5 98,-50.5 98,-29.5 10,-29.5"/>
<text text-anchor="start" x="12.75" y="-34.2" font-family="Courier New" font-size="14.00">BufferStop</text>
<text text-anchor="start" x="103" y="-34.2" font-family="Courier New" font-size="14.00">Buf01</text>
<polygon fill="yellowgreen" stroke="none" points="10,-6.5 10,-27.5 98,-27.5 98,-6.5 10,-6.5"/>
<text text-anchor="start" x="45.5" y="-11.2" font-family="Courier New" font-size="14.00">Signal</text>
<text text-anchor="start" x="102.62" y="-11.2" font-family="Courier New" font-size="14.00">T01 T02</text>
</g>
<!-- ne02 -->
<g id="node2" class="node">
<title>ne02</title>
<path fill="white" stroke="black" stroke-width="2" d="M251.75,-71.5C251.75,-71.5 367.75,-71.5 367.75,-71.5 373.75,-71.5 379.75,-77.5 379.75,-83.5 379.75,-83.5 379.75,-115.5 379.75,-115.5 379.75,-121.5 373.75,-127.5 367.75,-127.5 367.75,-127.5 251.75,-127.5 251.75,-127.5 245.75,-127.5 239.75,-121.5 239.75,-115.5 239.75,-115.5 239.75,-83.5 239.75,-83.5 239.75,-77.5 245.75,-71.5 251.75,-71.5"/>
<polygon fill="white" stroke="none" points="247.75,-75.5 247.75,-123.5 371.75,-123.5 371.75,-75.5 247.75,-75.5"/>
<polygon fill="black" stroke="none" points="249.75,-100.5 249.75,-121.5 369.75,-121.5 369.75,-100.5 249.75,-100.5"/>
<text text-anchor="start" x="293.25" y="-105.2" font-family="Courier New" font-size="14.00" fill="white">ne02</text>
<polygon fill="yellowgreen" stroke="none" points="249.75,-77.5 249.75,-98.5 304.75,-98.5 304.75,-77.5 249.75,-77.5"/>
<text text-anchor="start" x="252.5" y="-82.2" font-family="Courier New" font-size="14.00">Signal</text>
<text text-anchor="start" x="309.38" y="-82.2" font-family="Courier New" font-size="14.00">C21 C25</text>
</g>
<!-- ne01&#45;&#45;ne02 -->
<g id="edge1" class="edge">
<title>ne01&#45;&#45;ne02</title>
<path fill="none" stroke="black" d="M173.3,-80.16C179.26,-81.75 185.2,-83.22 191,-84.5 206.49,-87.93 223.32,-90.65 239.27,-92.78"/>
<text text-anchor="middle" x="206.38" y="-92.95" font-family="Times New Roman,serif" font-size="14.00">R_01</text>
</g>
<!-- ne03 -->
<g id="node3" class="node">
<title>ne03</title>
<path fill="white" stroke="black" stroke-width="2" d="M698.25,-21.5C698.25,-21.5 814.25,-21.5 814.25,-21.5 820.25,-21.5 826.25,-27.5 826.25,-33.5 826.25,-33.5 826.25,-65.5 826.25,-65.5 826.25,-71.5 820.25,-77.5 814.25,-77.5 814.25,-77.5 698.25,-77.5 698.25,-77.5 692.25,-77.5 686.25,-71.5 686.25,-65.5 686.25,-65.5 686.25,-33.5 686.25,-33.5 686.25,-27.5 692.25,-21.5 698.25,-21.5"/>
<polygon fill="white" stroke="none" points="694.25,-25.5 694.25,-73.5 818.25,-73.5 818.25,-25.5 694.25,-25.5"/>
<polygon fill="black" stroke="none" points="696.25,-50.5 696.25,-71.5 816.25,-71.5 816.25,-50.5 696.25,-50.5"/>
<text text-anchor="start" x="739.75" y="-55.2" font-family="Courier New" font-size="14.00" fill="white">ne03</text>
<polygon fill="yellowgreen" stroke="none" points="696.25,-27.5 696.25,-48.5 751.25,-48.5 751.25,-27.5 696.25,-27.5"/>
<text text-anchor="start" x="699" y="-32.2" font-family="Courier New" font-size="14.00">Signal</text>
<text text-anchor="start" x="755.88" y="-32.2" font-family="Courier New" font-size="14.00">B22 B26</text>
</g>
<!-- ne01&#45;&#45;ne03 -->
<g id="edge2" class="edge">
<title>ne01&#45;&#45;ne03</title>
<path fill="none" stroke="black" d="M173.43,-51.24C307.28,-50.84 562.94,-50.08 685.86,-49.71"/>
<text text-anchor="middle" x="413.12" y="-53.95" font-family="Times New Roman,serif" font-size="14.00">R_02</text>
</g>
<!-- ne02&#45;&#45;ne01 -->
<g id="edge9" class="edge">
<title>ne02&#45;&#45;ne01</title>
<path fill="none" stroke="black" d="M243.36,-71.13C236.16,-68.68 228.86,-66.48 221.75,-64.75 206.28,-60.98 189.55,-58.27 173.33,-56.34"/>
<text text-anchor="middle" x="206.38" y="-67.95" font-family="Times New Roman,serif" font-size="14.00">R_09</text>
</g>
<!-- ne04 -->
<g id="node4" class="node">
<title>ne04</title>
<path fill="white" stroke="black" stroke-width="2" d="M458.5,-63.5C458.5,-63.5 607.5,-63.5 607.5,-63.5 613.5,-63.5 619.5,-69.5 619.5,-75.5 619.5,-75.5 619.5,-153.5 619.5,-153.5 619.5,-159.5 613.5,-165.5 607.5,-165.5 607.5,-165.5 458.5,-165.5 458.5,-165.5 452.5,-165.5 446.5,-159.5 446.5,-153.5 446.5,-153.5 446.5,-75.5 446.5,-75.5 446.5,-69.5 452.5,-63.5 458.5,-63.5"/>
<polygon fill="white" stroke="none" points="454.5,-67.5 454.5,-161.5 611.5,-161.5 611.5,-67.5 454.5,-67.5"/>
<polygon fill="black" stroke="none" points="456.5,-138.5 456.5,-159.5 609.5,-159.5 609.5,-138.5 456.5,-138.5"/>
<text text-anchor="start" x="516.5" y="-143.2" font-family="Courier New" font-size="14.00" fill="white">ne04</text>
<polygon fill="red" stroke="none" points="456.5,-115.5 456.5,-136.5 544.5,-136.5 544.5,-115.5 456.5,-115.5"/>
<text text-anchor="start" x="492" y="-120.2" font-family="Courier New" font-size="14.00">Switch</text>
<text text-anchor="start" x="549.5" y="-120.2" font-family="Courier New" font-size="14.00">Sw02</text>
<polygon fill="olive" stroke="none" points="456.5,-92.5 456.5,-113.5 544.5,-113.5 544.5,-92.5 456.5,-92.5"/>
<text text-anchor="start" x="459.25" y="-97.2" font-family="Courier New" font-size="14.00">BufferStop</text>
<text text-anchor="start" x="549.5" y="-97.2" font-family="Courier New" font-size="14.00">Buf03</text>
<polygon fill="yellowgreen" stroke="none" points="456.5,-69.5 456.5,-90.5 544.5,-90.5 544.5,-69.5 456.5,-69.5"/>
<text text-anchor="start" x="492" y="-74.2" font-family="Courier New" font-size="14.00">Signal</text>
<text text-anchor="start" x="549.12" y="-74.2" font-family="Courier New" font-size="14.00">T03 T04</text>
</g>
<!-- ne02&#45;&#45;ne04 -->
<g id="edge11" class="edge">
<title>ne02&#45;&#45;ne04</title>
<path fill="none" stroke="black" d="M380.15,-104.2C401.06,-105.62 424.26,-107.2 446.11,-108.68"/>
<text text-anchor="middle" x="413.12" y="-109.95" font-family="Times New Roman,serif" font-size="14.00">R_11</text>
</g>
<!-- ne03&#45;&#45;ne01 -->
<g id="edge10" class="edge">
<title>ne03&#45;&#45;ne01</title>
<path fill="none" stroke="black" d="M686.08,-42.35C614.09,-35.74 498.07,-27.4 397.75,-30.75 321.81,-33.29 235.59,-39.31 173.35,-44.21"/>
<text text-anchor="middle" x="413.12" y="-33.95" font-family="Times New Roman,serif" font-size="14.00">R_10</text>
</g>
<!-- ne03&#45;&#45;ne04 -->
<g id="edge12" class="edge">
<title>ne03&#45;&#45;ne04</title>
<path fill="none" stroke="black" d="M685.78,-57.85C669.75,-60.6 652.89,-64.17 637.5,-68.75 631.66,-70.49 625.72,-72.47 619.79,-74.62"/>
<text text-anchor="middle" x="652.88" y="-71.95" font-family="Times New Roman,serif" font-size="14.00">R_12</text>
</g>
<!-- ne04&#45;&#45;ne02 -->
<g id="edge3" class="edge">
<title>ne04&#45;&#45;ne02</title>
<path fill="none" stroke="black" d="M446.17,-91.46C440.22,-90.38 434.29,-89.46 428.5,-88.75 414.93,-87.09 411.39,-87.91 397.75,-88.75 391.98,-89.11 386,-89.59 380.01,-90.16"/>
<text text-anchor="middle" x="413.12" y="-91.95" font-family="Times New Roman,serif" font-size="14.00">R_03</text>
</g>
<!-- ne04&#45;&#45;ne03 -->
<g id="edge4" class="edge">
<title>ne04&#45;&#45;ne03</title>
<path fill="none" stroke="black" d="M619.96,-100.91C636.17,-97.49 652.86,-93.37 668.25,-88.5 677.72,-85.5 687.53,-81.77 697,-77.81"/>
<text text-anchor="middle" x="652.88" y="-98.95" font-family="Times New Roman,serif" font-size="14.00">R_04</text>
</g>
<!-- ne05 -->
<g id="node5" class="node">
<title>ne05</title>
<path fill="white" stroke="black" stroke-width="2" d="M12,-198.5C12,-198.5 161,-198.5 161,-198.5 167,-198.5 173,-204.5 173,-210.5 173,-210.5 173,-288.5 173,-288.5 173,-294.5 167,-300.5 161,-300.5 161,-300.5 12,-300.5 12,-300.5 6,-300.5 0,-294.5 0,-288.5 0,-288.5 0,-210.5 0,-210.5 0,-204.5 6,-198.5 12,-198.5"/>
<polygon fill="white" stroke="none" points="8,-202.5 8,-296.5 165,-296.5 165,-202.5 8,-202.5"/>
<polygon fill="black" stroke="none" points="10,-273.5 10,-294.5 163,-294.5 163,-273.5 10,-273.5"/>
<text text-anchor="start" x="70" y="-278.2" font-family="Courier New" font-size="14.00" fill="white">ne05</text>
<polygon fill="red" stroke="none" points="10,-250.5 10,-271.5 98,-271.5 98,-250.5 10,-250.5"/>
<text text-anchor="start" x="45.5" y="-255.2" font-family="Courier New" font-size="14.00">Switch</text>
<text text-anchor="start" x="103" y="-255.2" font-family="Courier New" font-size="14.00">Sw03</text>
<polygon fill="olive" stroke="none" points="10,-227.5 10,-248.5 98,-248.5 98,-227.5 10,-227.5"/>
<text text-anchor="start" x="12.75" y="-232.2" font-family="Courier New" font-size="14.00">BufferStop</text>
<text text-anchor="start" x="103" y="-232.2" font-family="Courier New" font-size="14.00">Buf02</text>
<polygon fill="yellowgreen" stroke="none" points="10,-204.5 10,-225.5 98,-225.5 98,-204.5 10,-204.5"/>
<text text-anchor="start" x="45.5" y="-209.2" font-family="Courier New" font-size="14.00">Signal</text>
<text text-anchor="start" x="102.62" y="-209.2" font-family="Courier New" font-size="14.00">T05 T06</text>
</g>
<!-- ne06 -->
<g id="node6" class="node">
<title>ne06</title>
<path fill="white" stroke="black" stroke-width="2" d="M251.75,-270.5C251.75,-270.5 367.75,-270.5 367.75,-270.5 373.75,-270.5 379.75,-276.5 379.75,-282.5 379.75,-282.5 379.75,-314.5 379.75,-314.5 379.75,-320.5 373.75,-326.5 367.75,-326.5 367.75,-326.5 251.75,-326.5 251.75,-326.5 245.75,-326.5 239.75,-320.5 239.75,-314.5 239.75,-314.5 239.75,-282.5 239.75,-282.5 239.75,-276.5 245.75,-270.5 251.75,-270.5"/>
<polygon fill="white" stroke="none" points="247.75,-274.5 247.75,-322.5 371.75,-322.5 371.75,-274.5 247.75,-274.5"/>
<polygon fill="black" stroke="none" points="249.75,-299.5 249.75,-320.5 369.75,-320.5 369.75,-299.5 249.75,-299.5"/>
<text text-anchor="start" x="293.25" y="-304.2" font-family="Courier New" font-size="14.00" fill="white">ne06</text>
<polygon fill="yellowgreen" stroke="none" points="249.75,-276.5 249.75,-297.5 304.75,-297.5 304.75,-276.5 249.75,-276.5"/>
<text text-anchor="start" x="252.5" y="-281.2" font-family="Courier New" font-size="14.00">Signal</text>
<text text-anchor="start" x="309.38" y="-281.2" font-family="Courier New" font-size="14.00">C29 C33</text>
</g>
<!-- ne05&#45;&#45;ne06 -->
<g id="edge5" class="edge">
<title>ne05&#45;&#45;ne06</title>
<path fill="none" stroke="black" d="M173.28,-279.06C179.24,-280.68 185.19,-282.19 191,-283.5 206.48,-286.99 223.3,-289.74 239.25,-291.88"/>
<text text-anchor="middle" x="206.38" y="-291.95" font-family="Times New Roman,serif" font-size="14.00">R_05</text>
</g>
<!-- ne07 -->
<g id="node7" class="node">
<title>ne07</title>
<path fill="white" stroke="black" stroke-width="2" d="M698.25,-223.5C698.25,-223.5 814.25,-223.5 814.25,-223.5 820.25,-223.5 826.25,-229.5 826.25,-235.5 826.25,-235.5 826.25,-267.5 826.25,-267.5 826.25,-273.5 820.25,-279.5 814.25,-279.5 814.25,-279.5 698.25,-279.5 698.25,-279.5 692.25,-279.5 686.25,-273.5 686.25,-267.5 686.25,-267.5 686.25,-235.5 686.25,-235.5 686.25,-229.5 692.25,-223.5 698.25,-223.5"/>
<polygon fill="white" stroke="none" points="694.25,-227.5 694.25,-275.5 818.25,-275.5 818.25,-227.5 694.25,-227.5"/>
<polygon fill="black" stroke="none" points="696.25,-252.5 696.25,-273.5 816.25,-273.5 816.25,-252.5 696.25,-252.5"/>
<text text-anchor="start" x="739.75" y="-257.2" font-family="Courier New" font-size="14.00" fill="white">ne07</text>
<polygon fill="yellowgreen" stroke="none" points="696.25,-229.5 696.25,-250.5 751.25,-250.5 751.25,-229.5 696.25,-229.5"/>
<text text-anchor="start" x="699" y="-234.2" font-family="Courier New" font-size="14.00">Signal</text>
<text text-anchor="start" x="755.88" y="-234.2" font-family="Courier New" font-size="14.00">B30 B34</text>
</g>
<!-- ne05&#45;&#45;ne07 -->
<g id="edge6" class="edge">
<title>ne05&#45;&#45;ne07</title>
<path fill="none" stroke="black" d="M173.43,-249.76C307.28,-250.16 562.94,-250.92 685.86,-251.29"/>
<text text-anchor="middle" x="413.12" y="-252.95" font-family="Times New Roman,serif" font-size="14.00">R_06</text>
</g>
<!-- ne06&#45;&#45;ne05 -->
<g id="edge13" class="edge">
<title>ne06&#45;&#45;ne05</title>
<path fill="none" stroke="black" d="M242.87,-270.02C235.82,-267.63 228.7,-265.47 221.75,-263.75 206.28,-259.92 189.56,-257.11 173.34,-255.07"/>
<text text-anchor="middle" x="206.38" y="-266.95" font-family="Times New Roman,serif" font-size="14.00">R_13</text>
</g>
<!-- ne08 -->
<g id="node8" class="node">
<title>ne08</title>
<path fill="white" stroke="black" stroke-width="2" d="M458.5,-262.5C458.5,-262.5 607.5,-262.5 607.5,-262.5 613.5,-262.5 619.5,-268.5 619.5,-274.5 619.5,-274.5 619.5,-352.5 619.5,-352.5 619.5,-358.5 613.5,-364.5 607.5,-364.5 607.5,-364.5 458.5,-364.5 458.5,-364.5 452.5,-364.5 446.5,-358.5 446.5,-352.5 446.5,-352.5 446.5,-274.5 446.5,-274.5 446.5,-268.5 452.5,-262.5 458.5,-262.5"/>
<polygon fill="white" stroke="none" points="454.5,-266.5 454.5,-360.5 611.5,-360.5 611.5,-266.5 454.5,-266.5"/>
<polygon fill="black" stroke="none" points="456.5,-337.5 456.5,-358.5 609.5,-358.5 609.5,-337.5 456.5,-337.5"/>
<text text-anchor="start" x="516.5" y="-342.2" font-family="Courier New" font-size="14.00" fill="white">ne08</text>
<polygon fill="red" stroke="none" points="456.5,-314.5 456.5,-335.5 544.5,-335.5 544.5,-314.5 456.5,-314.5"/>
<text text-anchor="start" x="492" y="-319.2" font-family="Courier New" font-size="14.00">Switch</text>
<text text-anchor="start" x="549.5" y="-319.2" font-family="Courier New" font-size="14.00">Sw04</text>
<polygon fill="olive" stroke="none" points="456.5,-291.5 456.5,-312.5 544.5,-312.5 544.5,-291.5 456.5,-291.5"/>
<text text-anchor="start" x="459.25" y="-296.2" font-family="Courier New" font-size="14.00">BufferStop</text>
<text text-anchor="start" x="549.5" y="-296.2" font-family="Courier New" font-size="14.00">Buf04</text>
<polygon fill="yellowgreen" stroke="none" points="456.5,-268.5 456.5,-289.5 544.5,-289.5 544.5,-268.5 456.5,-268.5"/>
<text text-anchor="start" x="492" y="-273.2" font-family="Courier New" font-size="14.00">Signal</text>
<text text-anchor="start" x="549.12" y="-273.2" font-family="Courier New" font-size="14.00">T07 T08</text>
</g>
<!-- ne06&#45;&#45;ne08 -->
<g id="edge15" class="edge">
<title>ne06&#45;&#45;ne08</title>
<path fill="none" stroke="black" d="M380.15,-303.2C401.06,-304.62 424.26,-306.2 446.11,-307.68"/>
<text text-anchor="middle" x="413.12" y="-308.95" font-family="Times New Roman,serif" font-size="14.00">R_15</text>
</g>
<!-- ne07&#45;&#45;ne05 -->
<g id="edge14" class="edge">
<title>ne07&#45;&#45;ne05</title>
<path fill="none" stroke="black" d="M685.76,-243.83C613.76,-236.74 497.95,-227.72 397.75,-230.75 321.83,-233.04 235.61,-238.48 173.36,-242.91"/>
<text text-anchor="middle" x="413.12" y="-233.95" font-family="Times New Roman,serif" font-size="14.00">R_14</text>
</g>
<!-- ne07&#45;&#45;ne08 -->
<g id="edge16" class="edge">
<title>ne07&#45;&#45;ne08</title>
<path fill="none" stroke="black" d="M685.83,-259.35C669.8,-261.97 652.92,-265.37 637.5,-269.75 631.68,-271.4 625.76,-273.3 619.83,-275.35"/>
<text text-anchor="middle" x="652.88" y="-272.95" font-family="Times New Roman,serif" font-size="14.00">R_16</text>
</g>
<!-- ne08&#45;&#45;ne06 -->
<g id="edge7" class="edge">
<title>ne08&#45;&#45;ne06</title>
<path fill="none" stroke="black" d="M446.17,-290.46C440.22,-289.38 434.29,-288.46 428.5,-287.75 414.93,-286.09 411.39,-286.91 397.75,-287.75 391.98,-288.11 386,-288.59 380.01,-289.16"/>
<text text-anchor="middle" x="413.12" y="-290.95" font-family="Times New Roman,serif" font-size="14.00">R_07</text>
</g>
<!-- ne08&#45;&#45;ne07 -->
<g id="edge8" class="edge">
<title>ne08&#45;&#45;ne07</title>
<path fill="none" stroke="black" d="M619.94,-301.24C636.15,-298.05 652.84,-294.17 668.25,-289.5 677.08,-286.82 686.21,-283.5 695.09,-279.94"/>
<text text-anchor="middle" x="652.88" y="-299.95" font-family="Times New Roman,serif" font-size="14.00">R_08</text>
</g>
</g>
</svg>
