<?xml version="1.0" encoding="UTF-8" standalone="no"?>
<!DOCTYPE svg PUBLIC "-//W3C//DTD SVG 1.1//EN"
 "http://www.w3.org/Graphics/SVG/1.1/DTD/svg11.dtd">
<!-- Generated by graphviz version 9.0.0 (20230911.1827)
 -->
<!-- Title: finite_state_machine Pages: 1 -->
<svg width="1070pt" height="331pt"
 viewBox="0.00 0.00 1070.00 331.00" xmlns="http://www.w3.org/2000/svg" xmlns:xlink="http://www.w3.org/1999/xlink">
<g id="graph0" class="graph" transform="scale(1 1) rotate(0) translate(4 327)">
<title>finite_state_machine</title>
<polygon fill="white" stroke="none" points="-4,4 -4,-327 1066,-327 1066,4 -4,4"/>
<!-- ne19 -->
<g id="node1" class="node">
<title>ne19</title>
<path fill="white" stroke="black" stroke-width="2" d="M12,-130C12,-130 161,-130 161,-130 167,-130 173,-136 173,-142 173,-142 173,-197 173,-197 173,-203 167,-209 161,-209 161,-209 12,-209 12,-209 6,-209 0,-203 0,-197 0,-197 0,-142 0,-142 0,-136 6,-130 12,-130"/>
<polygon fill="white" stroke="none" points="8,-134 8,-205 165,-205 165,-134 8,-134"/>
<polygon fill="black" stroke="none" points="10,-182 10,-203 163,-203 163,-182 10,-182"/>
<text text-anchor="start" x="70" y="-186.7" font-family="Courier New" font-size="14.00" fill="white">ne19</text>
<polygon fill="olive" stroke="none" points="10,-159 10,-180 98,-180 98,-159 10,-159"/>
<text text-anchor="start" x="12.75" y="-163.7" font-family="Courier New" font-size="14.00">BufferStop</text>
<text text-anchor="start" x="103" y="-163.7" font-family="Courier New" font-size="14.00">Buf07</text>
<polygon fill="yellowgreen" stroke="none" points="10,-136 10,-157 98,-157 98,-136 10,-136"/>
<text text-anchor="start" x="45.5" y="-140.7" font-family="Courier New" font-size="14.00">Signal</text>
<text text-anchor="start" x="102.62" y="-140.7" font-family="Courier New" font-size="14.00">T01 T02</text>
</g>
<!-- ne20 -->
<g id="node2" class="node">
<title>ne20</title>
<path fill="white" stroke="black" stroke-width="2" d="M251.75,-118.5C251.75,-118.5 392.75,-118.5 392.75,-118.5 398.75,-118.5 404.75,-124.5 404.75,-130.5 404.75,-130.5 404.75,-208.5 404.75,-208.5 404.75,-214.5 398.75,-220.5 392.75,-220.5 392.75,-220.5 251.75,-220.5 251.75,-220.5 245.75,-220.5 239.75,-214.5 239.75,-208.5 239.75,-208.5 239.75,-130.5 239.75,-130.5 239.75,-124.5 245.75,-118.5 251.75,-118.5"/>
<polygon fill="white" stroke="none" points="247.75,-122.5 247.75,-216.5 396.75,-216.5 396.75,-122.5 247.75,-122.5"/>
<polygon fill="black" stroke="none" points="249.75,-193.5 249.75,-214.5 394.75,-214.5 394.75,-193.5 249.75,-193.5"/>
<text text-anchor="start" x="305.75" y="-198.2" font-family="Courier New" font-size="14.00" fill="white">ne20</text>
<polygon fill="red" stroke="none" points="249.75,-170.5 249.75,-191.5 304.75,-191.5 304.75,-170.5 249.75,-170.5"/>
<text text-anchor="start" x="252.5" y="-175.2" font-family="Courier New" font-size="14.00">Switch</text>
<text text-anchor="start" x="309.75" y="-175.2" font-family="Courier New" font-size="14.00">Sw03</text>
<polygon fill="#8470ff" stroke="none" points="249.75,-147.5 249.75,-168.5 304.75,-168.5 304.75,-147.5 249.75,-147.5"/>
<text text-anchor="start" x="252.5" y="-152.2" font-family="Courier New" font-size="14.00">Border</text>
<text text-anchor="start" x="309.5" y="-152.2" font-family="Courier New" font-size="14.00">LineBord04</text>
<polygon fill="yellowgreen" stroke="none" points="249.75,-124.5 249.75,-145.5 304.75,-145.5 304.75,-124.5 249.75,-124.5"/>
<text text-anchor="start" x="252.5" y="-129.2" font-family="Courier New" font-size="14.00">Signal</text>
<text text-anchor="start" x="309.75" y="-129.2" font-family="Courier New" font-size="14.00">L06 S21</text>
</g>
<!-- ne19&#45;&#45;ne20 -->
<g id="edge1" class="edge">
<title>ne19&#45;&#45;ne20</title>
<path fill="none" stroke="black" d="M173.21,-169.5C194.84,-169.5 218.01,-169.5 239.44,-169.5"/>
<text text-anchor="middle" x="206.38" y="-171.95" font-family="Times New Roman,serif" font-size="14.00">R_01</text>
</g>
<!-- ne20&#45;&#45;ne19 -->
<g id="edge12" class="edge">
<title>ne20&#45;&#45;ne19</title>
<path fill="none" stroke="black" d="M239.45,-151.94C233.48,-151.07 227.53,-150.32 221.75,-149.75 206.04,-148.21 189.36,-148.82 173.29,-150.58"/>
<text text-anchor="middle" x="206.38" y="-152.95" font-family="Times New Roman,serif" font-size="14.00">R_10</text>
</g>
<!-- ne17 -->
<g id="node7" class="node">
<title>ne17</title>
<path fill="white" stroke="black" stroke-width="2" d="M483.5,-151.5C483.5,-151.5 519.5,-151.5 519.5,-151.5 525.5,-151.5 531.5,-157.5 531.5,-163.5 531.5,-163.5 531.5,-175.5 531.5,-175.5 531.5,-181.5 525.5,-187.5 519.5,-187.5 519.5,-187.5 483.5,-187.5 483.5,-187.5 477.5,-187.5 471.5,-181.5 471.5,-175.5 471.5,-175.5 471.5,-163.5 471.5,-163.5 471.5,-157.5 477.5,-151.5 483.5,-151.5"/>
<polygon fill="white" stroke="none" points="479.5,-156.75 479.5,-182.5 523.5,-182.5 523.5,-156.75 479.5,-156.75"/>
<polygon fill="black" stroke="none" points="481.5,-158.75 481.5,-180.5 521.5,-180.5 521.5,-158.75 481.5,-158.75"/>
<text text-anchor="start" x="485" y="-164.2" font-family="Courier New" font-size="14.00" fill="white">ne17</text>
</g>
<!-- ne20&#45;&#45;ne17 -->
<g id="edge10" class="edge">
<title>ne20&#45;&#45;ne17</title>
<path fill="none" stroke="black" d="M405.13,-169.5C428.71,-169.5 452.94,-169.5 471.07,-169.5"/>
<text text-anchor="middle" x="438.12" y="-171.95" font-family="Times New Roman,serif" font-size="14.00">R_09</text>
</g>
<!-- ne14 -->
<g id="node3" class="node">
<title>ne14</title>
<path fill="white" stroke="black" stroke-width="2" d="M892,-220.5C892,-220.5 1050,-220.5 1050,-220.5 1056,-220.5 1062,-226.5 1062,-232.5 1062,-232.5 1062,-310.5 1062,-310.5 1062,-316.5 1056,-322.5 1050,-322.5 1050,-322.5 892,-322.5 892,-322.5 886,-322.5 880,-316.5 880,-310.5 880,-310.5 880,-232.5 880,-232.5 880,-226.5 886,-220.5 892,-220.5"/>
<polygon fill="white" stroke="none" points="888,-224.5 888,-318.5 1054,-318.5 1054,-224.5 888,-224.5"/>
<polygon fill="black" stroke="none" points="890,-295.5 890,-316.5 1052,-316.5 1052,-295.5 890,-295.5"/>
<text text-anchor="start" x="954.5" y="-300.2" font-family="Courier New" font-size="14.00" fill="white">ne14</text>
<polygon fill="#8470ff" stroke="none" points="890,-272.5 890,-293.5 962,-293.5 962,-272.5 890,-272.5"/>
<text text-anchor="start" x="909.5" y="-277.2" font-family="Courier New" font-size="14.00">Border</text>
<text text-anchor="start" x="966.75" y="-277.2" font-family="Courier New" font-size="14.00">LineBord01</text>
<polygon fill="cornflowerblue" stroke="none" points="890,-249.5 890,-270.5 962,-270.5 962,-249.5 890,-249.5"/>
<text text-anchor="start" x="893" y="-254.2" font-family="Courier New" font-size="14.00">Platform</text>
<text text-anchor="start" x="967" y="-254.2" font-family="Courier New" font-size="14.00">Plat01</text>
<polygon fill="yellowgreen" stroke="none" points="890,-226.5 890,-247.5 962,-247.5 962,-226.5 890,-226.5"/>
<text text-anchor="start" x="909.5" y="-231.2" font-family="Courier New" font-size="14.00">Signal</text>
<text text-anchor="start" x="967" y="-231.2" font-family="Courier New" font-size="14.00">P09 C13</text>
</g>
<!-- ne16 -->
<g id="node4" class="node">
<title>ne16</title>
<path fill="white" stroke="black" stroke-width="2" d="M610.25,-118.5C610.25,-118.5 801.25,-118.5 801.25,-118.5 807.25,-118.5 813.25,-124.5 813.25,-130.5 813.25,-130.5 813.25,-208.5 813.25,-208.5 813.25,-214.5 807.25,-220.5 801.25,-220.5 801.25,-220.5 610.25,-220.5 610.25,-220.5 604.25,-220.5 598.25,-214.5 598.25,-208.5 598.25,-208.5 598.25,-130.5 598.25,-130.5 598.25,-124.5 604.25,-118.5 610.25,-118.5"/>
<polygon fill="white" stroke="none" points="606.25,-122.5 606.25,-216.5 805.25,-216.5 805.25,-122.5 606.25,-122.5"/>
<polygon fill="black" stroke="none" points="608.25,-193.5 608.25,-214.5 803.25,-214.5 803.25,-193.5 608.25,-193.5"/>
<text text-anchor="start" x="689.25" y="-198.2" font-family="Courier New" font-size="14.00" fill="white">ne16</text>
<polygon fill="red" stroke="none" points="608.25,-170.5 608.25,-191.5 721.25,-191.5 721.25,-170.5 608.25,-170.5"/>
<text text-anchor="start" x="668.75" y="-175.2" font-family="Courier New" font-size="14.00">Switch</text>
<text text-anchor="start" x="726.12" y="-175.2" font-family="Courier New" font-size="14.00">Sw01 Sw02</text>
<polygon fill="darkcyan" stroke="none" points="608.25,-147.5 608.25,-168.5 721.25,-168.5 721.25,-147.5 608.25,-147.5"/>
<text text-anchor="start" x="611.12" y="-152.2" font-family="Courier New" font-size="14.00">LevelCrossing</text>
<text text-anchor="start" x="726.25" y="-152.2" font-family="Courier New" font-size="14.00">Lc01</text>
<polygon fill="yellowgreen" stroke="none" points="608.25,-124.5 608.25,-145.5 721.25,-145.5 721.25,-124.5 608.25,-124.5"/>
<text text-anchor="start" x="668.75" y="-129.2" font-family="Courier New" font-size="14.00">Signal</text>
<text text-anchor="start" x="726.25" y="-129.2" font-family="Courier New" font-size="14.00">S15 S18</text>
</g>
<!-- ne14&#45;&#45;ne16 -->
<g id="edge2" class="edge">
<title>ne14&#45;&#45;ne16</title>
<path fill="none" stroke="black" d="M879.61,-236.48C858.3,-228.22 835.39,-219.34 813.44,-210.84"/>
<text text-anchor="middle" x="846.62" y="-231.95" font-family="Times New Roman,serif" font-size="14.00">R_02</text>
</g>
<!-- ne16&#45;&#45;ne14 -->
<g id="edge4" class="edge">
<title>ne16&#45;&#45;ne14</title>
<path fill="none" stroke="black" d="M776.9,-220.84C793.99,-231.39 812.72,-241.42 831.25,-248.5 846.53,-254.34 863.32,-258.69 879.78,-261.95"/>
<text text-anchor="middle" x="846.62" y="-259.95" font-family="Times New Roman,serif" font-size="14.00">R_04</text>
</g>
<!-- ne15 -->
<g id="node5" class="node">
<title>ne15</title>
<path fill="white" stroke="black" stroke-width="2" d="M900.5,-122C900.5,-122 1041.5,-122 1041.5,-122 1047.5,-122 1053.5,-128 1053.5,-134 1053.5,-134 1053.5,-189 1053.5,-189 1053.5,-195 1047.5,-201 1041.5,-201 1041.5,-201 900.5,-201 900.5,-201 894.5,-201 888.5,-195 888.5,-189 888.5,-189 888.5,-134 888.5,-134 888.5,-128 894.5,-122 900.5,-122"/>
<polygon fill="white" stroke="none" points="896.5,-126 896.5,-197 1045.5,-197 1045.5,-126 896.5,-126"/>
<polygon fill="black" stroke="none" points="898.5,-174 898.5,-195 1043.5,-195 1043.5,-174 898.5,-174"/>
<text text-anchor="start" x="954.5" y="-178.7" font-family="Courier New" font-size="14.00" fill="white">ne15</text>
<polygon fill="#8470ff" stroke="none" points="898.5,-151 898.5,-172 953.5,-172 953.5,-151 898.5,-151"/>
<text text-anchor="start" x="901.25" y="-155.7" font-family="Courier New" font-size="14.00">Border</text>
<text text-anchor="start" x="958.25" y="-155.7" font-family="Courier New" font-size="14.00">LineBord02</text>
<polygon fill="yellowgreen" stroke="none" points="898.5,-128 898.5,-149 953.5,-149 953.5,-128 898.5,-128"/>
<text text-anchor="start" x="901.25" y="-132.7" font-family="Courier New" font-size="14.00">Signal</text>
<text text-anchor="start" x="958.5" y="-132.7" font-family="Courier New" font-size="14.00">L04 B14</text>
</g>
<!-- ne16&#45;&#45;ne15 -->
<g id="edge5" class="edge">
<title>ne16&#45;&#45;ne15</title>
<path fill="none" stroke="black" d="M813.66,-168.72C829.86,-168.43 846.38,-168.03 862,-167.5 870.45,-167.21 879.26,-166.84 888.05,-166.42"/>
<text text-anchor="middle" x="846.62" y="-170.95" font-family="Times New Roman,serif" font-size="14.00">R_05</text>
</g>
<!-- ne18 -->
<g id="node6" class="node">
<title>ne18</title>
<path fill="white" stroke="black" stroke-width="2" d="M892,-0.5C892,-0.5 1050,-0.5 1050,-0.5 1056,-0.5 1062,-6.5 1062,-12.5 1062,-12.5 1062,-90.5 1062,-90.5 1062,-96.5 1056,-102.5 1050,-102.5 1050,-102.5 892,-102.5 892,-102.5 886,-102.5 880,-96.5 880,-90.5 880,-90.5 880,-12.5 880,-12.5 880,-6.5 886,-0.5 892,-0.5"/>
<polygon fill="white" stroke="none" points="888,-4.5 888,-98.5 1054,-98.5 1054,-4.5 888,-4.5"/>
<polygon fill="black" stroke="none" points="890,-75.5 890,-96.5 1052,-96.5 1052,-75.5 890,-75.5"/>
<text text-anchor="start" x="954.5" y="-80.2" font-family="Courier New" font-size="14.00" fill="white">ne18</text>
<polygon fill="#8470ff" stroke="none" points="890,-52.5 890,-73.5 962,-73.5 962,-52.5 890,-52.5"/>
<text text-anchor="start" x="909.5" y="-57.2" font-family="Courier New" font-size="14.00">Border</text>
<text text-anchor="start" x="966.75" y="-57.2" font-family="Courier New" font-size="14.00">LineBord03</text>
<polygon fill="cornflowerblue" stroke="none" points="890,-29.5 890,-50.5 962,-50.5 962,-29.5 890,-29.5"/>
<text text-anchor="start" x="893" y="-34.2" font-family="Courier New" font-size="14.00">Platform</text>
<text text-anchor="start" x="967" y="-34.2" font-family="Courier New" font-size="14.00">Plat02</text>
<polygon fill="yellowgreen" stroke="none" points="890,-6.5 890,-27.5 962,-27.5 962,-6.5 890,-6.5"/>
<text text-anchor="start" x="909.5" y="-11.2" font-family="Courier New" font-size="14.00">Signal</text>
<text text-anchor="start" x="967" y="-11.2" font-family="Courier New" font-size="14.00">P12 C17</text>
</g>
<!-- ne16&#45;&#45;ne18 -->
<g id="edge7" class="edge">
<title>ne16&#45;&#45;ne18</title>
<path fill="none" stroke="black" d="M813.44,-121.67C835.39,-111.84 858.3,-101.57 879.61,-92.02"/>
<text text-anchor="middle" x="846.62" y="-112.95" font-family="Times New Roman,serif" font-size="14.00">R_07</text>
</g>
<!-- ne16&#45;&#45;ne17 -->
<g id="edge8" class="edge">
<title>ne16&#45;&#45;ne17</title>
<path fill="none" stroke="black" d="M597.99,-149.02C581.7,-148.28 565.11,-148.9 549.5,-151.75 543.67,-152.82 537.61,-154.57 531.87,-156.56"/>
<text text-anchor="middle" x="564.88" y="-154.95" font-family="Times New Roman,serif" font-size="14.00">R_08</text>
</g>
<!-- ne15&#45;&#45;ne16 -->
<g id="edge3" class="edge">
<title>ne15&#45;&#45;ne16</title>
<path fill="none" stroke="black" d="M888.09,-153.32C879.29,-152.68 870.46,-152.13 862,-151.75 848.35,-151.13 844.88,-150.78 831.25,-151.75 825.48,-152.16 819.57,-152.67 813.61,-153.27"/>
<text text-anchor="middle" x="846.62" y="-154.95" font-family="Times New Roman,serif" font-size="14.00">R_03</text>
</g>
<!-- ne18&#45;&#45;ne16 -->
<g id="edge6" class="edge">
<title>ne18&#45;&#45;ne16</title>
<path fill="none" stroke="black" d="M879.65,-56.94C863.12,-59.9 846.34,-64.29 831.25,-70.75 805,-81.98 779.62,-100.27 758.71,-118.08"/>
<text text-anchor="middle" x="846.62" y="-73.95" font-family="Times New Roman,serif" font-size="14.00">R_06</text>
</g>
<!-- ne17&#45;&#45;ne20 -->
<g id="edge9" class="edge">
<title>ne17&#45;&#45;ne20</title>
<path fill="none" stroke="black" d="M471.13,-156.56C465.39,-154.57 459.33,-152.82 453.5,-151.75 437.9,-148.9 421.17,-148.91 405.07,-150.43"/>
<text text-anchor="middle" x="438.12" y="-154.95" font-family="Times New Roman,serif" font-size="14.00">R_08</text>
</g>
<!-- ne17&#45;&#45;ne16 -->
<g id="edge11" class="edge">
<title>ne17&#45;&#45;ne16</title>
<path fill="none" stroke="black" d="M531.91,-169.5C549.66,-169.5 573.48,-169.5 597.75,-169.5"/>
<text text-anchor="middle" x="564.88" y="-171.95" font-family="Times New Roman,serif" font-size="14.00">R_09</text>
</g>
</g>
</svg>
