<?xml version="1.0" encoding="UTF-8" standalone="no"?>
<!DOCTYPE svg PUBLIC "-//W3C//DTD SVG 1.1//EN"
 "http://www.w3.org/Graphics/SVG/1.1/DTD/svg11.dtd">
<!-- Generated by graphviz version 9.0.0 (20230911.1827)
 -->
<!-- Title: finite_state_machine Pages: 1 -->
<svg width="1653pt" height="339pt"
 viewBox="0.00 0.00 1652.50 339.00" xmlns="http://www.w3.org/2000/svg" xmlns:xlink="http://www.w3.org/1999/xlink">
<g id="graph0" class="graph" transform="scale(1 1) rotate(0) translate(4 335)">
<title>finite_state_machine</title>
<polygon fill="white" stroke="none" points="-4,4 -4,-335 1648.5,-335 1648.5,4 -4,4"/>
<!-- ne4 -->
<g id="node1" class="node">
<title>ne4</title>
<path fill="white" stroke="black" stroke-width="2" d="M12,-128.5C12,-128.5 194,-128.5 194,-128.5 200,-128.5 206,-134.5 206,-140.5 206,-140.5 206,-195.5 206,-195.5 206,-201.5 200,-207.5 194,-207.5 194,-207.5 12,-207.5 12,-207.5 6,-207.5 0,-201.5 0,-195.5 0,-195.5 0,-140.5 0,-140.5 0,-134.5 6,-128.5 12,-128.5"/>
<polygon fill="white" stroke="none" points="8,-132.5 8,-203.5 198,-203.5 198,-132.5 8,-132.5"/>
<polygon fill="black" stroke="none" points="10,-180.5 10,-201.5 196,-201.5 196,-180.5 10,-180.5"/>
<text text-anchor="start" x="90.62" y="-185.2" font-family="Courier New" font-size="14.00" fill="white">ne4</text>
<polygon fill="olive" stroke="none" points="10,-157.5 10,-178.5 98,-178.5 98,-157.5 10,-157.5"/>
<text text-anchor="start" x="12.75" y="-162.2" font-family="Courier New" font-size="14.00">BufferStop</text>
<text text-anchor="start" x="103" y="-162.2" font-family="Courier New" font-size="14.00">Buf11</text>
<polygon fill="yellowgreen" stroke="none" points="10,-134.5 10,-155.5 98,-155.5 98,-134.5 10,-134.5"/>
<text text-anchor="start" x="45.5" y="-139.2" font-family="Courier New" font-size="14.00">Signal</text>
<text text-anchor="start" x="102.62" y="-139.2" font-family="Courier New" font-size="14.00">T01 T02 B26</text>
</g>
<!-- ne4&#45;&#45;ne4 -->
<g id="edge1" class="edge">
<title>ne4&#45;&#45;ne4</title>
<path fill="none" stroke="black" d="M77.69,-207.85C79.25,-218.2 87.68,-226 103,-226 118.32,-226 126.75,-218.2 128.31,-207.85"/>
<text text-anchor="middle" x="103" y="-228.45" font-family="Times New Roman,serif" font-size="14.00">R_01</text>
</g>
<!-- ne3 -->
<g id="node10" class="node">
<title>ne3</title>
<path fill="white" stroke="black" stroke-width="2" d="M284.75,-128.5C284.75,-128.5 400.75,-128.5 400.75,-128.5 406.75,-128.5 412.75,-134.5 412.75,-140.5 412.75,-140.5 412.75,-195.5 412.75,-195.5 412.75,-201.5 406.75,-207.5 400.75,-207.5 400.75,-207.5 284.75,-207.5 284.75,-207.5 278.75,-207.5 272.75,-201.5 272.75,-195.5 272.75,-195.5 272.75,-140.5 272.75,-140.5 272.75,-134.5 278.75,-128.5 284.75,-128.5"/>
<polygon fill="white" stroke="none" points="280.75,-132.5 280.75,-203.5 404.75,-203.5 404.75,-132.5 280.75,-132.5"/>
<polygon fill="black" stroke="none" points="282.75,-180.5 282.75,-201.5 402.75,-201.5 402.75,-180.5 282.75,-180.5"/>
<text text-anchor="start" x="330.38" y="-185.2" font-family="Courier New" font-size="14.00" fill="white">ne3</text>
<polygon fill="red" stroke="none" points="282.75,-157.5 282.75,-178.5 337.75,-178.5 337.75,-157.5 282.75,-157.5"/>
<text text-anchor="start" x="285.5" y="-162.2" font-family="Courier New" font-size="14.00">Switch</text>
<text text-anchor="start" x="342.75" y="-162.2" font-family="Courier New" font-size="14.00">Sw02</text>
<polygon fill="yellowgreen" stroke="none" points="282.75,-134.5 282.75,-155.5 337.75,-155.5 337.75,-134.5 282.75,-134.5"/>
<text text-anchor="start" x="285.5" y="-139.2" font-family="Courier New" font-size="14.00">Signal</text>
<text text-anchor="start" x="342.38" y="-139.2" font-family="Courier New" font-size="14.00">C21 S27</text>
</g>
<!-- ne4&#45;&#45;ne3 -->
<g id="edge17" class="edge">
<title>ne4&#45;&#45;ne3</title>
<path fill="none" stroke="black" d="M206.21,-168C228.61,-168 251.82,-168 272.56,-168"/>
<text text-anchor="middle" x="239.38" y="-170.45" font-family="Times New Roman,serif" font-size="14.00">R_14</text>
</g>
<!-- ne6 -->
<g id="node2" class="node">
<title>ne6</title>
<path fill="white" stroke="black" stroke-width="2" d="M938,-251.5C938,-251.5 1087,-251.5 1087,-251.5 1093,-251.5 1099,-257.5 1099,-263.5 1099,-263.5 1099,-318.5 1099,-318.5 1099,-324.5 1093,-330.5 1087,-330.5 1087,-330.5 938,-330.5 938,-330.5 932,-330.5 926,-324.5 926,-318.5 926,-318.5 926,-263.5 926,-263.5 926,-257.5 932,-251.5 938,-251.5"/>
<polygon fill="white" stroke="none" points="934,-255.5 934,-326.5 1091,-326.5 1091,-255.5 934,-255.5"/>
<polygon fill="black" stroke="none" points="936,-303.5 936,-324.5 1089,-324.5 1089,-303.5 936,-303.5"/>
<text text-anchor="start" x="1000.12" y="-308.2" font-family="Courier New" font-size="14.00" fill="white">ne6</text>
<polygon fill="olive" stroke="none" points="936,-280.5 936,-301.5 1024,-301.5 1024,-280.5 936,-280.5"/>
<text text-anchor="start" x="938.75" y="-285.2" font-family="Courier New" font-size="14.00">BufferStop</text>
<text text-anchor="start" x="1029" y="-285.2" font-family="Courier New" font-size="14.00">Buf10</text>
<polygon fill="yellowgreen" stroke="none" points="936,-257.5 936,-278.5 1024,-278.5 1024,-257.5 936,-257.5"/>
<text text-anchor="start" x="971.5" y="-262.2" font-family="Courier New" font-size="14.00">Signal</text>
<text text-anchor="start" x="1028.62" y="-262.2" font-family="Courier New" font-size="14.00">T03 T04</text>
</g>
<!-- ne2 -->
<g id="node3" class="node">
<title>ne2</title>
<path fill="white" stroke="black" stroke-width="2" d="M726.75,-204C726.75,-204 818.75,-204 818.75,-204 824.75,-204 830.75,-210 830.75,-216 830.75,-216 830.75,-248 830.75,-248 830.75,-254 824.75,-260 818.75,-260 818.75,-260 726.75,-260 726.75,-260 720.75,-260 714.75,-254 714.75,-248 714.75,-248 714.75,-216 714.75,-216 714.75,-210 720.75,-204 726.75,-204"/>
<polygon fill="white" stroke="none" points="722.75,-208 722.75,-256 822.75,-256 822.75,-208 722.75,-208"/>
<polygon fill="black" stroke="none" points="724.75,-233 724.75,-254 820.75,-254 820.75,-233 724.75,-233"/>
<text text-anchor="start" x="760.38" y="-237.7" font-family="Courier New" font-size="14.00" fill="white">ne2</text>
<polygon fill="red" stroke="none" points="724.75,-210 724.75,-231 779.75,-231 779.75,-210 724.75,-210"/>
<text text-anchor="start" x="727.5" y="-214.7" font-family="Courier New" font-size="14.00">Switch</text>
<text text-anchor="start" x="784.75" y="-214.7" font-family="Courier New" font-size="14.00">Sw03</text>
</g>
<!-- ne6&#45;&#45;ne2 -->
<g id="edge2" class="edge">
<title>ne6&#45;&#45;ne2</title>
<path fill="none" stroke="black" d="M925.53,-257.28C919.64,-255.45 913.76,-253.74 908,-252.25 883.13,-245.79 855.1,-241.17 831.11,-237.98"/>
<text text-anchor="middle" x="892.62" y="-254.45" font-family="Times New Roman,serif" font-size="14.00">R_02</text>
</g>
<!-- ne2&#45;&#45;ne6 -->
<g id="edge16" class="edge">
<title>ne2&#45;&#45;ne6</title>
<path fill="none" stroke="black" d="M830.99,-253.8C845.9,-258.95 862.05,-264.08 877.25,-268 892.82,-272.01 909.59,-275.52 925.83,-278.5"/>
<text text-anchor="middle" x="892.62" y="-276.45" font-family="Times New Roman,serif" font-size="14.00">R_13</text>
</g>
<!-- ne1 -->
<g id="node4" class="node">
<title>ne1</title>
<path fill="white" stroke="black" stroke-width="2" d="M491.5,-176C491.5,-176 607.5,-176 607.5,-176 613.5,-176 619.5,-182 619.5,-188 619.5,-188 619.5,-266 619.5,-266 619.5,-272 613.5,-278 607.5,-278 607.5,-278 491.5,-278 491.5,-278 485.5,-278 479.5,-272 479.5,-266 479.5,-266 479.5,-188 479.5,-188 479.5,-182 485.5,-176 491.5,-176"/>
<polygon fill="white" stroke="none" points="487.5,-180 487.5,-274 611.5,-274 611.5,-180 487.5,-180"/>
<polygon fill="black" stroke="none" points="489.5,-251 489.5,-272 609.5,-272 609.5,-251 489.5,-251"/>
<text text-anchor="start" x="537.12" y="-255.7" font-family="Courier New" font-size="14.00" fill="white">ne1</text>
<polygon fill="red" stroke="none" points="489.5,-228 489.5,-249 544.5,-249 544.5,-228 489.5,-228"/>
<text text-anchor="start" x="492.25" y="-232.7" font-family="Courier New" font-size="14.00">Switch</text>
<text text-anchor="start" x="549.5" y="-232.7" font-family="Courier New" font-size="14.00">Sw01</text>
<polygon fill="#8470ff" stroke="none" points="489.5,-205 489.5,-226 544.5,-226 544.5,-205 489.5,-205"/>
<text text-anchor="start" x="492.25" y="-209.7" font-family="Courier New" font-size="14.00">Border</text>
<text text-anchor="start" x="549.5" y="-209.7" font-family="Courier New" font-size="14.00">Buf09</text>
<polygon fill="yellowgreen" stroke="none" points="489.5,-182 489.5,-203 544.5,-203 544.5,-182 489.5,-182"/>
<text text-anchor="start" x="492.25" y="-186.7" font-family="Courier New" font-size="14.00">Signal</text>
<text text-anchor="start" x="549.12" y="-186.7" font-family="Courier New" font-size="14.00">J18 S22</text>
</g>
<!-- ne2&#45;&#45;ne1 -->
<g id="edge3" class="edge">
<title>ne2&#45;&#45;ne1</title>
<path fill="none" stroke="black" d="M714.27,-229.66C699.29,-229.12 683.17,-228.6 668.25,-228.25 652.61,-227.88 635.81,-227.62 619.93,-227.44"/>
<text text-anchor="middle" x="652.88" y="-230.45" font-family="Times New Roman,serif" font-size="14.00">R_02</text>
</g>
<!-- ne2&#45;&#45;ne1 -->
<g id="edge21" class="edge">
<title>ne2&#45;&#45;ne1</title>
<path fill="none" stroke="black" d="M714.53,-213.89C690.8,-208.36 662.94,-204.4 637.5,-207.25 631.65,-207.91 625.62,-208.8 619.59,-209.85"/>
<text text-anchor="middle" x="652.88" y="-210.45" font-family="Times New Roman,serif" font-size="14.00">R_17</text>
</g>
<!-- ne7 -->
<g id="node11" class="node">
<title>ne7</title>
<path fill="white" stroke="black" stroke-width="2" d="M938,-143C938,-143 1087,-143 1087,-143 1093,-143 1099,-149 1099,-155 1099,-155 1099,-187 1099,-187 1099,-193 1093,-199 1087,-199 1087,-199 938,-199 938,-199 932,-199 926,-193 926,-187 926,-187 926,-155 926,-155 926,-149 932,-143 938,-143"/>
<polygon fill="white" stroke="none" points="934,-147 934,-195 1091,-195 1091,-147 934,-147"/>
<polygon fill="black" stroke="none" points="936,-172 936,-193 1089,-193 1089,-172 936,-172"/>
<text text-anchor="start" x="1000.12" y="-176.7" font-family="Courier New" font-size="14.00" fill="white">ne7</text>
<polygon fill="yellowgreen" stroke="none" points="936,-149 936,-170 991,-170 991,-149 936,-149"/>
<text text-anchor="start" x="938.75" y="-153.7" font-family="Courier New" font-size="14.00">Signal</text>
<text text-anchor="start" x="995.62" y="-153.7" font-family="Courier New" font-size="14.00">J19 J20 C29</text>
</g>
<!-- ne2&#45;&#45;ne7 -->
<g id="edge14" class="edge">
<title>ne2&#45;&#45;ne7</title>
<path fill="none" stroke="black" d="M831,-217.31C859.44,-210.01 894.39,-201.05 925.93,-192.95"/>
<text text-anchor="middle" x="892.62" y="-208.45" font-family="Times New Roman,serif" font-size="14.00">R_12</text>
</g>
<!-- ne1&#45;&#45;ne2 -->
<g id="edge13" class="edge">
<title>ne1&#45;&#45;ne2</title>
<path fill="none" stroke="black" d="M619.83,-276.3C625.63,-278.96 631.55,-281.25 637.5,-283 670.75,-292.78 707.47,-276.9 734.09,-260.35"/>
<text text-anchor="middle" x="652.88" y="-287.45" font-family="Times New Roman,serif" font-size="14.00">R_12</text>
</g>
<!-- ne1&#45;&#45;ne2 -->
<g id="edge15" class="edge">
<title>ne1&#45;&#45;ne2</title>
<path fill="none" stroke="black" d="M619.65,-241.76C625.67,-242.67 631.68,-243.44 637.5,-244 662.77,-246.45 690.74,-244.66 714.57,-241.8"/>
<text text-anchor="middle" x="652.88" y="-247.45" font-family="Times New Roman,serif" font-size="14.00">R_13</text>
</g>
<!-- ne1&#45;&#45;ne3 -->
<g id="edge12" class="edge">
<title>ne1&#45;&#45;ne3</title>
<path fill="none" stroke="black" d="M479.44,-191.59C473.46,-189.22 467.43,-187.06 461.5,-185.25 446.09,-180.54 429.14,-177.1 413.01,-174.59"/>
<text text-anchor="middle" x="446.12" y="-188.45" font-family="Times New Roman,serif" font-size="14.00">R_11</text>
</g>
<!-- ne10 -->
<g id="node5" class="node">
<title>ne10</title>
<path fill="white" stroke="black" stroke-width="2" d="M698.25,-103.5C698.25,-103.5 847.25,-103.5 847.25,-103.5 853.25,-103.5 859.25,-109.5 859.25,-115.5 859.25,-115.5 859.25,-170.5 859.25,-170.5 859.25,-176.5 853.25,-182.5 847.25,-182.5 847.25,-182.5 698.25,-182.5 698.25,-182.5 692.25,-182.5 686.25,-176.5 686.25,-170.5 686.25,-170.5 686.25,-115.5 686.25,-115.5 686.25,-109.5 692.25,-103.5 698.25,-103.5"/>
<polygon fill="white" stroke="none" points="694.25,-107.5 694.25,-178.5 851.25,-178.5 851.25,-107.5 694.25,-107.5"/>
<polygon fill="black" stroke="none" points="696.25,-155.5 696.25,-176.5 849.25,-176.5 849.25,-155.5 696.25,-155.5"/>
<text text-anchor="start" x="756.25" y="-160.2" font-family="Courier New" font-size="14.00" fill="white">ne10</text>
<polygon fill="olive" stroke="none" points="696.25,-132.5 696.25,-153.5 784.25,-153.5 784.25,-132.5 696.25,-132.5"/>
<text text-anchor="start" x="699" y="-137.2" font-family="Courier New" font-size="14.00">BufferStop</text>
<text text-anchor="start" x="789.25" y="-137.2" font-family="Courier New" font-size="14.00">Buf05</text>
<polygon fill="yellowgreen" stroke="none" points="696.25,-109.5 696.25,-130.5 784.25,-130.5 784.25,-109.5 696.25,-109.5"/>
<text text-anchor="start" x="731.75" y="-114.2" font-family="Courier New" font-size="14.00">Signal</text>
<text text-anchor="start" x="788.88" y="-114.2" font-family="Courier New" font-size="14.00">T05 T06</text>
</g>
<!-- ne5 -->
<g id="node6" class="node">
<title>ne5</title>
<path fill="white" stroke="black" stroke-width="2" d="M491.5,-70.5C491.5,-70.5 607.5,-70.5 607.5,-70.5 613.5,-70.5 619.5,-76.5 619.5,-82.5 619.5,-82.5 619.5,-137.5 619.5,-137.5 619.5,-143.5 613.5,-149.5 607.5,-149.5 607.5,-149.5 491.5,-149.5 491.5,-149.5 485.5,-149.5 479.5,-143.5 479.5,-137.5 479.5,-137.5 479.5,-82.5 479.5,-82.5 479.5,-76.5 485.5,-70.5 491.5,-70.5"/>
<polygon fill="white" stroke="none" points="487.5,-74.5 487.5,-145.5 611.5,-145.5 611.5,-74.5 487.5,-74.5"/>
<polygon fill="black" stroke="none" points="489.5,-122.5 489.5,-143.5 609.5,-143.5 609.5,-122.5 489.5,-122.5"/>
<text text-anchor="start" x="537.12" y="-127.2" font-family="Courier New" font-size="14.00" fill="white">ne5</text>
<polygon fill="red" stroke="none" points="489.5,-99.5 489.5,-120.5 544.5,-120.5 544.5,-99.5 489.5,-99.5"/>
<text text-anchor="start" x="492.25" y="-104.2" font-family="Courier New" font-size="14.00">Switch</text>
<text text-anchor="start" x="549.5" y="-104.2" font-family="Courier New" font-size="14.00">Sw05</text>
<polygon fill="yellowgreen" stroke="none" points="489.5,-76.5 489.5,-97.5 544.5,-97.5 544.5,-76.5 489.5,-76.5"/>
<text text-anchor="start" x="492.25" y="-81.2" font-family="Courier New" font-size="14.00">Signal</text>
<text text-anchor="start" x="549.12" y="-81.2" font-family="Courier New" font-size="14.00">J16 S33</text>
</g>
<!-- ne10&#45;&#45;ne5 -->
<g id="edge4" class="edge">
<title>ne10&#45;&#45;ne5</title>
<path fill="none" stroke="black" d="M685.78,-114.61C679.89,-113.29 674.01,-112.14 668.25,-111.25 652.69,-108.83 635.84,-107.76 619.88,-107.43"/>
<text text-anchor="middle" x="652.88" y="-114.45" font-family="Times New Roman,serif" font-size="14.00">R_03</text>
</g>
<!-- ne5&#45;&#45;ne10 -->
<g id="edge22" class="edge">
<title>ne5&#45;&#45;ne10</title>
<path fill="none" stroke="black" d="M619.75,-124.01C625.74,-125.08 631.72,-126.09 637.5,-127 653.15,-129.46 669.88,-131.73 686.04,-133.75"/>
<text text-anchor="middle" x="652.88" y="-134.45" font-family="Times New Roman,serif" font-size="14.00">R_18</text>
</g>
<!-- ne11 -->
<g id="node9" class="node">
<title>ne11</title>
<path fill="white" stroke="black" stroke-width="2" d="M714.75,-0.5C714.75,-0.5 830.75,-0.5 830.75,-0.5 836.75,-0.5 842.75,-6.5 842.75,-12.5 842.75,-12.5 842.75,-67.5 842.75,-67.5 842.75,-73.5 836.75,-79.5 830.75,-79.5 830.75,-79.5 714.75,-79.5 714.75,-79.5 708.75,-79.5 702.75,-73.5 702.75,-67.5 702.75,-67.5 702.75,-12.5 702.75,-12.5 702.75,-6.5 708.75,-0.5 714.75,-0.5"/>
<polygon fill="white" stroke="none" points="710.75,-4.5 710.75,-75.5 834.75,-75.5 834.75,-4.5 710.75,-4.5"/>
<polygon fill="black" stroke="none" points="712.75,-52.5 712.75,-73.5 832.75,-73.5 832.75,-52.5 712.75,-52.5"/>
<text text-anchor="start" x="756.25" y="-57.2" font-family="Courier New" font-size="14.00" fill="white">ne11</text>
<polygon fill="#8470ff" stroke="none" points="712.75,-29.5 712.75,-50.5 767.75,-50.5 767.75,-29.5 712.75,-29.5"/>
<text text-anchor="start" x="715.5" y="-34.2" font-family="Courier New" font-size="14.00">Border</text>
<text text-anchor="start" x="772.75" y="-34.2" font-family="Courier New" font-size="14.00">Buf12</text>
<polygon fill="yellowgreen" stroke="none" points="712.75,-6.5 712.75,-27.5 767.75,-27.5 767.75,-6.5 712.75,-6.5"/>
<text text-anchor="start" x="715.5" y="-11.2" font-family="Courier New" font-size="14.00">Signal</text>
<text text-anchor="start" x="772.38" y="-11.2" font-family="Courier New" font-size="14.00">J13 J14</text>
</g>
<!-- ne5&#45;&#45;ne11 -->
<g id="edge23" class="edge">
<title>ne5&#45;&#45;ne11</title>
<path fill="none" stroke="black" d="M619.9,-88.04C646.26,-79.7 676.26,-70.21 702.6,-61.88"/>
<text text-anchor="middle" x="652.88" y="-84.45" font-family="Times New Roman,serif" font-size="14.00">R_19</text>
</g>
<!-- ne5&#45;&#45;ne3 -->
<g id="edge8" class="edge">
<title>ne5&#45;&#45;ne3</title>
<path fill="none" stroke="black" d="M479.02,-104.26C462.9,-104.7 446.01,-106.62 430.75,-111.25 418.32,-115.02 406.01,-121.15 394.72,-128.03"/>
<text text-anchor="middle" x="446.12" y="-114.45" font-family="Times New Roman,serif" font-size="14.00">R_07</text>
</g>
<!-- ne41 -->
<g id="node7" class="node">
<title>ne41</title>
<path fill="white" stroke="black" stroke-width="2" d="M1177.75,-120C1177.75,-120 1359.75,-120 1359.75,-120 1365.75,-120 1371.75,-126 1371.75,-132 1371.75,-132 1371.75,-210 1371.75,-210 1371.75,-216 1365.75,-222 1359.75,-222 1359.75,-222 1177.75,-222 1177.75,-222 1171.75,-222 1165.75,-216 1165.75,-210 1165.75,-210 1165.75,-132 1165.75,-132 1165.75,-126 1171.75,-120 1177.75,-120"/>
<polygon fill="white" stroke="none" points="1173.75,-124 1173.75,-218 1363.75,-218 1363.75,-124 1173.75,-124"/>
<polygon fill="black" stroke="none" points="1175.75,-195 1175.75,-216 1361.75,-216 1361.75,-195 1175.75,-195"/>
<text text-anchor="start" x="1252.25" y="-199.7" font-family="Courier New" font-size="14.00" fill="white">ne41</text>
<polygon fill="red" stroke="none" points="1175.75,-172 1175.75,-193 1263.75,-193 1263.75,-172 1175.75,-172"/>
<text text-anchor="start" x="1211.25" y="-176.7" font-family="Courier New" font-size="14.00">Switch</text>
<text text-anchor="start" x="1268.75" y="-176.7" font-family="Courier New" font-size="14.00">Sw08</text>
<polygon fill="olive" stroke="none" points="1175.75,-149 1175.75,-170 1263.75,-170 1263.75,-149 1175.75,-149"/>
<text text-anchor="start" x="1178.5" y="-153.7" font-family="Courier New" font-size="14.00">BufferStop</text>
<text text-anchor="start" x="1268.75" y="-153.7" font-family="Courier New" font-size="14.00">Buf05</text>
<polygon fill="yellowgreen" stroke="none" points="1175.75,-126 1175.75,-147 1263.75,-147 1263.75,-126 1175.75,-126"/>
<text text-anchor="start" x="1211.25" y="-130.7" font-family="Courier New" font-size="14.00">Signal</text>
<text text-anchor="start" x="1268.38" y="-130.7" font-family="Courier New" font-size="14.00">T07 T08 S37</text>
</g>
<!-- ne41&#45;&#45;ne41 -->
<g id="edge5" class="edge">
<title>ne41&#45;&#45;ne41</title>
<path fill="none" stroke="black" d="M1244.08,-222.22C1246.68,-232.85 1254.9,-240.5 1268.75,-240.5 1282.6,-240.5 1290.82,-232.85 1293.42,-222.22"/>
<text text-anchor="middle" x="1268.75" y="-242.95" font-family="Times New Roman,serif" font-size="14.00">R_04</text>
</g>
<!-- ne42 -->
<g id="node8" class="node">
<title>ne42</title>
<path fill="white" stroke="black" stroke-width="2" d="M1450.5,-131.5C1450.5,-131.5 1632.5,-131.5 1632.5,-131.5 1638.5,-131.5 1644.5,-137.5 1644.5,-143.5 1644.5,-143.5 1644.5,-198.5 1644.5,-198.5 1644.5,-204.5 1638.5,-210.5 1632.5,-210.5 1632.5,-210.5 1450.5,-210.5 1450.5,-210.5 1444.5,-210.5 1438.5,-204.5 1438.5,-198.5 1438.5,-198.5 1438.5,-143.5 1438.5,-143.5 1438.5,-137.5 1444.5,-131.5 1450.5,-131.5"/>
<polygon fill="white" stroke="none" points="1446.5,-135.5 1446.5,-206.5 1636.5,-206.5 1636.5,-135.5 1446.5,-135.5"/>
<polygon fill="black" stroke="none" points="1448.5,-183.5 1448.5,-204.5 1634.5,-204.5 1634.5,-183.5 1448.5,-183.5"/>
<text text-anchor="start" x="1525" y="-188.2" font-family="Courier New" font-size="14.00" fill="white">ne42</text>
<polygon fill="olive" stroke="none" points="1448.5,-160.5 1448.5,-181.5 1536.5,-181.5 1536.5,-160.5 1448.5,-160.5"/>
<text text-anchor="start" x="1451.25" y="-165.2" font-family="Courier New" font-size="14.00">BufferStop</text>
<text text-anchor="start" x="1541.5" y="-165.2" font-family="Courier New" font-size="14.00">Buf06</text>
<polygon fill="yellowgreen" stroke="none" points="1448.5,-137.5 1448.5,-158.5 1536.5,-158.5 1536.5,-137.5 1448.5,-137.5"/>
<text text-anchor="start" x="1484" y="-142.2" font-family="Courier New" font-size="14.00">Signal</text>
<text text-anchor="start" x="1541.12" y="-142.2" font-family="Courier New" font-size="14.00">T09 T10 B36</text>
</g>
<!-- ne41&#45;&#45;ne42 -->
<g id="edge26" class="edge">
<title>ne41&#45;&#45;ne42</title>
<path fill="none" stroke="black" d="M1372.11,-171C1393.82,-171 1416.74,-171 1438.45,-171"/>
<text text-anchor="middle" x="1405.12" y="-173.45" font-family="Times New Roman,serif" font-size="14.00">R_22</text>
</g>
<!-- ne41&#45;&#45;ne7 -->
<g id="edge25" class="edge">
<title>ne41&#45;&#45;ne7</title>
<path fill="none" stroke="black" d="M1165.28,-151.34C1149.15,-150.05 1132.64,-149.77 1117,-151.25 1111.26,-151.79 1105.37,-152.5 1099.45,-153.32"/>
<text text-anchor="middle" x="1132.38" y="-154.45" font-family="Times New Roman,serif" font-size="14.00">R_21</text>
</g>
<!-- ne42&#45;&#45;ne41 -->
<g id="edge6" class="edge">
<title>ne42&#45;&#45;ne41</title>
<path fill="none" stroke="black" d="M1438.03,-153.65C1421.9,-152.44 1405.39,-152.1 1389.75,-153.25 1383.97,-153.67 1378.05,-154.21 1372.09,-154.84"/>
<text text-anchor="middle" x="1405.12" y="-156.45" font-family="Times New Roman,serif" font-size="14.00">R_05</text>
</g>
<!-- ne42&#45;&#45;ne42 -->
<g id="edge24" class="edge">
<title>ne42&#45;&#45;ne42</title>
<path fill="none" stroke="black" d="M1516.19,-210.85C1517.75,-221.2 1526.18,-229 1541.5,-229 1556.82,-229 1565.25,-221.2 1566.81,-210.85"/>
<text text-anchor="middle" x="1541.5" y="-231.45" font-family="Times New Roman,serif" font-size="14.00">R_20</text>
</g>
<!-- ne11&#45;&#45;ne5 -->
<g id="edge7" class="edge">
<title>ne11&#45;&#45;ne5</title>
<path fill="none" stroke="black" d="M702.47,-25.94C681.07,-24.37 657.8,-25.58 637.5,-33.25 617.34,-40.87 598.83,-55.53 584.12,-70.01"/>
<text text-anchor="middle" x="652.88" y="-36.45" font-family="Times New Roman,serif" font-size="14.00">R_06</text>
</g>
<!-- ne3&#45;&#45;ne4 -->
<g id="edge19" class="edge">
<title>ne3&#45;&#45;ne4</title>
<path fill="none" stroke="black" d="M272.66,-150.85C266.63,-149.8 260.6,-148.91 254.75,-148.25 239.01,-146.49 222.37,-146.63 206.11,-147.89"/>
<text text-anchor="middle" x="239.38" y="-151.45" font-family="Times New Roman,serif" font-size="14.00">R_16</text>
</g>
<!-- ne3&#45;&#45;ne1 -->
<g id="edge11" class="edge">
<title>ne3&#45;&#45;ne1</title>
<path fill="none" stroke="black" d="M413.06,-199.05C418.99,-201.22 424.94,-203.24 430.75,-205 446.18,-209.66 463.06,-213.52 479.09,-216.63"/>
<text text-anchor="middle" x="446.12" y="-215.45" font-family="Times New Roman,serif" font-size="14.00">R_10</text>
</g>
<!-- ne3&#45;&#45;ne5 -->
<g id="edge18" class="edge">
<title>ne3&#45;&#45;ne5</title>
<path fill="none" stroke="black" d="M413.07,-148.36C434.42,-142.32 457.91,-135.66 479.25,-129.62"/>
<text text-anchor="middle" x="446.12" y="-145.45" font-family="Times New Roman,serif" font-size="14.00">R_15</text>
</g>
<!-- ne7&#45;&#45;ne2 -->
<g id="edge20" class="edge">
<title>ne7&#45;&#45;ne2</title>
<path fill="none" stroke="black" d="M925.8,-168C909.32,-169.54 892.47,-172.64 877.25,-178.25 867.8,-181.73 867.86,-186.78 859.25,-192 850.42,-197.35 840.76,-202.49 831.21,-207.2"/>
<text text-anchor="middle" x="892.62" y="-181.45" font-family="Times New Roman,serif" font-size="14.00">R_17</text>
</g>
<!-- ne7&#45;&#45;ne41 -->
<g id="edge9" class="edge">
<title>ne7&#45;&#45;ne41</title>
<path fill="none" stroke="black" d="M1099.22,-171C1120.56,-171 1143.64,-171 1165.68,-171"/>
<text text-anchor="middle" x="1132.38" y="-173.45" font-family="Times New Roman,serif" font-size="14.00">R_08</text>
</g>
<!-- ne7&#45;&#45;ne7 -->
<g id="edge10" class="edge">
<title>ne7&#45;&#45;ne7</title>
<path fill="none" stroke="black" d="M990.05,-199.15C989.56,-209.26 997.05,-217.5 1012.5,-217.5 1027.95,-217.5 1035.44,-209.26 1034.95,-199.15"/>
<text text-anchor="middle" x="1012.5" y="-219.95" font-family="Times New Roman,serif" font-size="14.00">R_09</text>
</g>
</g>
</svg>
