<?xml version="1.0" encoding="UTF-8" standalone="no"?>
<!DOCTYPE svg PUBLIC "-//W3C//DTD SVG 1.1//EN"
 "http://www.w3.org/Graphics/SVG/1.1/DTD/svg11.dtd">
<!-- Generated by graphviz version 9.0.0 (20230911.1827)
 -->
<!-- Title: finite_state_machine Pages: 1 -->
<svg width="909pt" height="347pt"
 viewBox="0.00 0.00 909.25 346.50" xmlns="http://www.w3.org/2000/svg" xmlns:xlink="http://www.w3.org/1999/xlink">
<g id="graph0" class="graph" transform="scale(1 1) rotate(0) translate(4 342.5)">
<title>finite_state_machine</title>
<polygon fill="white" stroke="none" points="-4,4 -4,-342.5 905.25,-342.5 905.25,4 -4,4"/>
<!-- ne1 -->
<g id="node1" class="node">
<title>ne1</title>
<path fill="white" stroke="black" stroke-width="2" d="M12,-112.5C12,-112.5 194,-112.5 194,-112.5 200,-112.5 206,-118.5 206,-124.5 206,-124.5 206,-202.5 206,-202.5 206,-208.5 200,-214.5 194,-214.5 194,-214.5 12,-214.5 12,-214.5 6,-214.5 0,-208.5 0,-202.5 0,-202.5 0,-124.5 0,-124.5 0,-118.5 6,-112.5 12,-112.5"/>
<polygon fill="white" stroke="none" points="8,-116.5 8,-210.5 198,-210.5 198,-116.5 8,-116.5"/>
<polygon fill="black" stroke="none" points="10,-187.5 10,-208.5 196,-208.5 196,-187.5 10,-187.5"/>
<text text-anchor="start" x="90.62" y="-192.2" font-family="Courier New" font-size="14.00" fill="white">ne1</text>
<polygon fill="red" stroke="none" points="10,-164.5 10,-185.5 98,-185.5 98,-164.5 10,-164.5"/>
<text text-anchor="start" x="45.5" y="-169.2" font-family="Courier New" font-size="14.00">Switch</text>
<text text-anchor="start" x="103" y="-169.2" font-family="Courier New" font-size="14.00">Sw18</text>
<polygon fill="olive" stroke="none" points="10,-141.5 10,-162.5 98,-162.5 98,-141.5 10,-141.5"/>
<text text-anchor="start" x="12.75" y="-146.2" font-family="Courier New" font-size="14.00">BufferStop</text>
<text text-anchor="start" x="103" y="-146.2" font-family="Courier New" font-size="14.00">Buf01</text>
<polygon fill="yellowgreen" stroke="none" points="10,-118.5 10,-139.5 98,-139.5 98,-118.5 10,-118.5"/>
<text text-anchor="start" x="45.5" y="-123.2" font-family="Courier New" font-size="14.00">Signal</text>
<text text-anchor="start" x="102.62" y="-123.2" font-family="Courier New" font-size="14.00">T01 T02 S14</text>
</g>
<!-- ne1&#45;&#45;ne1 -->
<g id="edge1" class="edge">
<title>ne1&#45;&#45;ne1</title>
<path fill="none" stroke="black" d="M78.33,-214.72C80.93,-225.35 89.15,-233 103,-233 116.85,-233 125.07,-225.35 127.67,-214.72"/>
<text text-anchor="middle" x="103" y="-235.45" font-family="Times New Roman,serif" font-size="14.00">R_01</text>
</g>
<!-- ne40 -->
<g id="node3" class="node">
<title>ne40</title>
<path fill="white" stroke="black" stroke-width="2" d="M284.75,-193.5C284.75,-193.5 376.75,-193.5 376.75,-193.5 382.75,-193.5 388.75,-199.5 388.75,-205.5 388.75,-205.5 388.75,-237.5 388.75,-237.5 388.75,-243.5 382.75,-249.5 376.75,-249.5 376.75,-249.5 284.75,-249.5 284.75,-249.5 278.75,-249.5 272.75,-243.5 272.75,-237.5 272.75,-237.5 272.75,-205.5 272.75,-205.5 272.75,-199.5 278.75,-193.5 284.75,-193.5"/>
<polygon fill="white" stroke="none" points="280.75,-197.5 280.75,-245.5 380.75,-245.5 380.75,-197.5 280.75,-197.5"/>
<polygon fill="black" stroke="none" points="282.75,-222.5 282.75,-243.5 378.75,-243.5 378.75,-222.5 282.75,-222.5"/>
<text text-anchor="start" x="314.25" y="-227.2" font-family="Courier New" font-size="14.00" fill="white">ne40</text>
<polygon fill="red" stroke="none" points="282.75,-199.5 282.75,-220.5 337.75,-220.5 337.75,-199.5 282.75,-199.5"/>
<text text-anchor="start" x="285.5" y="-204.2" font-family="Courier New" font-size="14.00">Switch</text>
<text text-anchor="start" x="342.75" y="-204.2" font-family="Courier New" font-size="14.00">Sw14</text>
</g>
<!-- ne1&#45;&#45;ne40 -->
<g id="edge9" class="edge">
<title>ne1&#45;&#45;ne40</title>
<path fill="none" stroke="black" d="M170.57,-214.86C187.17,-224.99 205.53,-234.14 224,-239.5 239.47,-243.99 256.56,-243.39 272.41,-240.63"/>
<text text-anchor="middle" x="239.38" y="-244.95" font-family="Times New Roman,serif" font-size="14.00">R_07</text>
</g>
<!-- ne1&#45;&#45;ne40 -->
<g id="edge11" class="edge">
<title>ne1&#45;&#45;ne40</title>
<path fill="none" stroke="black" d="M206.25,-195.8C212.24,-197.45 218.19,-199.03 224,-200.5 239.61,-204.44 256.66,-208.11 272.43,-211.24"/>
<text text-anchor="middle" x="239.38" y="-208.95" font-family="Times New Roman,serif" font-size="14.00">R_08</text>
</g>
<!-- ne41 -->
<g id="node7" class="node">
<title>ne41</title>
<path fill="white" stroke="black" stroke-width="2" d="M289.25,-54.5C289.25,-54.5 372.25,-54.5 372.25,-54.5 378.25,-54.5 384.25,-60.5 384.25,-66.5 384.25,-66.5 384.25,-98.5 384.25,-98.5 384.25,-104.5 378.25,-110.5 372.25,-110.5 372.25,-110.5 289.25,-110.5 289.25,-110.5 283.25,-110.5 277.25,-104.5 277.25,-98.5 277.25,-98.5 277.25,-66.5 277.25,-66.5 277.25,-60.5 283.25,-54.5 289.25,-54.5"/>
<polygon fill="white" stroke="none" points="285.25,-58.5 285.25,-106.5 376.25,-106.5 376.25,-58.5 285.25,-58.5"/>
<polygon fill="black" stroke="none" points="287.25,-83.5 287.25,-104.5 374.25,-104.5 374.25,-83.5 287.25,-83.5"/>
<text text-anchor="start" x="314.25" y="-88.2" font-family="Courier New" font-size="14.00" fill="white">ne41</text>
<polygon fill="yellowgreen" stroke="none" points="287.25,-60.5 287.25,-81.5 342.25,-81.5 342.25,-60.5 287.25,-60.5"/>
<text text-anchor="start" x="290" y="-65.2" font-family="Courier New" font-size="14.00">Signal</text>
<text text-anchor="start" x="346.88" y="-65.2" font-family="Courier New" font-size="14.00">B18</text>
</g>
<!-- ne1&#45;&#45;ne41 -->
<g id="edge8" class="edge">
<title>ne1&#45;&#45;ne41</title>
<path fill="none" stroke="black" d="M206.31,-126.79C230.69,-118.04 255.73,-109.06 276.84,-101.48"/>
<text text-anchor="middle" x="239.38" y="-120.95" font-family="Times New Roman,serif" font-size="14.00">R_06</text>
</g>
<!-- ne31 -->
<g id="node2" class="node">
<title>ne31</title>
<path fill="white" stroke="black" stroke-width="2" d="M484,-259C484,-259 633,-259 633,-259 639,-259 645,-265 645,-271 645,-271 645,-326 645,-326 645,-332 639,-338 633,-338 633,-338 484,-338 484,-338 478,-338 472,-332 472,-326 472,-326 472,-271 472,-271 472,-265 478,-259 484,-259"/>
<polygon fill="white" stroke="none" points="480,-263 480,-334 637,-334 637,-263 480,-263"/>
<polygon fill="black" stroke="none" points="482,-311 482,-332 635,-332 635,-311 482,-311"/>
<text text-anchor="start" x="542" y="-315.7" font-family="Courier New" font-size="14.00" fill="white">ne31</text>
<polygon fill="olive" stroke="none" points="482,-288 482,-309 570,-309 570,-288 482,-288"/>
<text text-anchor="start" x="484.75" y="-292.7" font-family="Courier New" font-size="14.00">BufferStop</text>
<text text-anchor="start" x="575" y="-292.7" font-family="Courier New" font-size="14.00">Buf03</text>
<polygon fill="yellowgreen" stroke="none" points="482,-265 482,-286 570,-286 570,-265 482,-265"/>
<text text-anchor="start" x="517.5" y="-269.7" font-family="Courier New" font-size="14.00">Signal</text>
<text text-anchor="start" x="574.62" y="-269.7" font-family="Courier New" font-size="14.00">T03 T04</text>
</g>
<!-- ne31&#45;&#45;ne40 -->
<g id="edge2" class="edge">
<title>ne31&#45;&#45;ne40</title>
<path fill="none" stroke="black" d="M471.71,-269.24C444.05,-259.8 414.09,-249.58 389.01,-241.03"/>
<text text-anchor="middle" x="422.12" y="-256.95" font-family="Times New Roman,serif" font-size="14.00">R_02</text>
</g>
<!-- ne40&#45;&#45;ne1 -->
<g id="edge3" class="edge">
<title>ne40&#45;&#45;ne1</title>
<path fill="none" stroke="black" d="M276.92,-193.08C269.62,-189.9 262.1,-187.01 254.75,-184.75 239.34,-180.02 222.71,-176.34 206.32,-173.47"/>
<text text-anchor="middle" x="239.38" y="-186.95" font-family="Times New Roman,serif" font-size="14.00">R_02</text>
</g>
<!-- ne40&#45;&#45;ne1 -->
<g id="edge5" class="edge">
<title>ne40&#45;&#45;ne1</title>
<path fill="none" stroke="black" d="M306.11,-193.2C292.67,-179.36 274.58,-164.13 254.75,-156.75 239.53,-151.09 222.83,-148.56 206.28,-147.99"/>
<text text-anchor="middle" x="239.38" y="-158.95" font-family="Times New Roman,serif" font-size="14.00">R_03</text>
</g>
<!-- ne40&#45;&#45;ne31 -->
<g id="edge10" class="edge">
<title>ne40&#45;&#45;ne31</title>
<path fill="none" stroke="black" d="M364.91,-249.86C377.31,-259.09 391.98,-268.49 406.75,-274.5 427,-282.74 449.86,-288.16 471.53,-291.73"/>
<text text-anchor="middle" x="422.12" y="-285.95" font-family="Times New Roman,serif" font-size="14.00">R_07</text>
</g>
<!-- ne32 -->
<g id="node4" class="node">
<title>ne32</title>
<path fill="white" stroke="black" stroke-width="2" d="M484,-159C484,-159 633,-159 633,-159 639,-159 645,-165 645,-171 645,-171 645,-226 645,-226 645,-232 639,-238 633,-238 633,-238 484,-238 484,-238 478,-238 472,-232 472,-226 472,-226 472,-171 472,-171 472,-165 478,-159 484,-159"/>
<polygon fill="white" stroke="none" points="480,-163 480,-234 637,-234 637,-163 480,-163"/>
<polygon fill="black" stroke="none" points="482,-211 482,-232 635,-232 635,-211 482,-211"/>
<text text-anchor="start" x="542" y="-215.7" font-family="Courier New" font-size="14.00" fill="white">ne32</text>
<polygon fill="olive" stroke="none" points="482,-188 482,-209 570,-209 570,-188 482,-188"/>
<text text-anchor="start" x="484.75" y="-192.7" font-family="Courier New" font-size="14.00">BufferStop</text>
<text text-anchor="start" x="575" y="-192.7" font-family="Courier New" font-size="14.00">Buf21</text>
<polygon fill="yellowgreen" stroke="none" points="482,-165 482,-186 570,-186 570,-165 482,-165"/>
<text text-anchor="start" x="517.5" y="-169.7" font-family="Courier New" font-size="14.00">Signal</text>
<text text-anchor="start" x="574.62" y="-169.7" font-family="Courier New" font-size="14.00">T05 T06</text>
</g>
<!-- ne40&#45;&#45;ne32 -->
<g id="edge12" class="edge">
<title>ne40&#45;&#45;ne32</title>
<path fill="none" stroke="black" d="M389.01,-215.67C414.09,-213.11 444.05,-210.06 471.71,-207.24"/>
<text text-anchor="middle" x="422.12" y="-214.95" font-family="Times New Roman,serif" font-size="14.00">R_08</text>
</g>
<!-- ne32&#45;&#45;ne40 -->
<g id="edge4" class="edge">
<title>ne32&#45;&#45;ne40</title>
<path fill="none" stroke="black" d="M471.51,-179.42C450.16,-177.44 427.46,-177.72 406.75,-182.75 397.21,-185.07 387.52,-188.83 378.42,-193.12"/>
<text text-anchor="middle" x="422.12" y="-184.95" font-family="Times New Roman,serif" font-size="14.00">R_03</text>
</g>
<!-- ne42 -->
<g id="node5" class="node">
<title>ne42</title>
<path fill="white" stroke="black" stroke-width="2" d="M467.5,-0.5C467.5,-0.5 649.5,-0.5 649.5,-0.5 655.5,-0.5 661.5,-6.5 661.5,-12.5 661.5,-12.5 661.5,-90.5 661.5,-90.5 661.5,-96.5 655.5,-102.5 649.5,-102.5 649.5,-102.5 467.5,-102.5 467.5,-102.5 461.5,-102.5 455.5,-96.5 455.5,-90.5 455.5,-90.5 455.5,-12.5 455.5,-12.5 455.5,-6.5 461.5,-0.5 467.5,-0.5"/>
<polygon fill="white" stroke="none" points="463.5,-4.5 463.5,-98.5 653.5,-98.5 653.5,-4.5 463.5,-4.5"/>
<polygon fill="black" stroke="none" points="465.5,-75.5 465.5,-96.5 651.5,-96.5 651.5,-75.5 465.5,-75.5"/>
<text text-anchor="start" x="542" y="-80.2" font-family="Courier New" font-size="14.00" fill="white">ne42</text>
<polygon fill="red" stroke="none" points="465.5,-52.5 465.5,-73.5 553.5,-73.5 553.5,-52.5 465.5,-52.5"/>
<text text-anchor="start" x="501" y="-57.2" font-family="Courier New" font-size="14.00">Switch</text>
<text text-anchor="start" x="558.5" y="-57.2" font-family="Courier New" font-size="14.00">Sw19</text>
<polygon fill="olive" stroke="none" points="465.5,-29.5 465.5,-50.5 553.5,-50.5 553.5,-29.5 465.5,-29.5"/>
<text text-anchor="start" x="468.25" y="-34.2" font-family="Courier New" font-size="14.00">BufferStop</text>
<text text-anchor="start" x="558.5" y="-34.2" font-family="Courier New" font-size="14.00">Buf29</text>
<polygon fill="yellowgreen" stroke="none" points="465.5,-6.5 465.5,-27.5 553.5,-27.5 553.5,-6.5 465.5,-6.5"/>
<text text-anchor="start" x="501" y="-11.2" font-family="Courier New" font-size="14.00">Signal</text>
<text text-anchor="start" x="558.12" y="-11.2" font-family="Courier New" font-size="14.00">T07 T08 H20</text>
</g>
<!-- ne42&#45;&#45;ne42 -->
<g id="edge6" class="edge">
<title>ne42&#45;&#45;ne42</title>
<path fill="none" stroke="black" d="M533.83,-102.72C536.43,-113.35 544.65,-121 558.5,-121 572.35,-121 580.57,-113.35 583.17,-102.72"/>
<text text-anchor="middle" x="558.5" y="-123.45" font-family="Times New Roman,serif" font-size="14.00">R_04</text>
</g>
<!-- ne43 -->
<g id="node6" class="node">
<title>ne43</title>
<path fill="white" stroke="black" stroke-width="2" d="M740.25,-12C740.25,-12 889.25,-12 889.25,-12 895.25,-12 901.25,-18 901.25,-24 901.25,-24 901.25,-79 901.25,-79 901.25,-85 895.25,-91 889.25,-91 889.25,-91 740.25,-91 740.25,-91 734.25,-91 728.25,-85 728.25,-79 728.25,-79 728.25,-24 728.25,-24 728.25,-18 734.25,-12 740.25,-12"/>
<polygon fill="white" stroke="none" points="736.25,-16 736.25,-87 893.25,-87 893.25,-16 736.25,-16"/>
<polygon fill="black" stroke="none" points="738.25,-64 738.25,-85 891.25,-85 891.25,-64 738.25,-64"/>
<text text-anchor="start" x="798.25" y="-68.7" font-family="Courier New" font-size="14.00" fill="white">ne43</text>
<polygon fill="olive" stroke="none" points="738.25,-41 738.25,-62 826.25,-62 826.25,-41 738.25,-41"/>
<text text-anchor="start" x="741" y="-45.7" font-family="Courier New" font-size="14.00">BufferStop</text>
<text text-anchor="start" x="831.25" y="-45.7" font-family="Courier New" font-size="14.00">Buf28</text>
<polygon fill="yellowgreen" stroke="none" points="738.25,-18 738.25,-39 826.25,-39 826.25,-18 738.25,-18"/>
<text text-anchor="start" x="773.75" y="-22.7" font-family="Courier New" font-size="14.00">Signal</text>
<text text-anchor="start" x="830.88" y="-22.7" font-family="Courier New" font-size="14.00">T09 T10</text>
</g>
<!-- ne42&#45;&#45;ne43 -->
<g id="edge16" class="edge">
<title>ne42&#45;&#45;ne43</title>
<path fill="none" stroke="black" d="M661.81,-51.5C683.75,-51.5 706.72,-51.5 727.96,-51.5"/>
<text text-anchor="middle" x="694.88" y="-53.95" font-family="Times New Roman,serif" font-size="14.00">R_11</text>
</g>
<!-- ne42&#45;&#45;ne41 -->
<g id="edge14" class="edge">
<title>ne42&#45;&#45;ne41</title>
<path fill="none" stroke="black" d="M455.15,-44.33C438.84,-44.9 422.25,-46.51 406.75,-49.75 399.38,-51.29 391.84,-53.59 384.53,-56.28"/>
<text text-anchor="middle" x="422.12" y="-52.95" font-family="Times New Roman,serif" font-size="14.00">R_10</text>
</g>
<!-- ne43&#45;&#45;ne42 -->
<g id="edge7" class="edge">
<title>ne43&#45;&#45;ne42</title>
<path fill="none" stroke="black" d="M727.77,-35.61C721.85,-34.87 715.97,-34.24 710.25,-33.75 694.63,-32.42 678.12,-32.67 661.99,-33.83"/>
<text text-anchor="middle" x="694.88" y="-36.95" font-family="Times New Roman,serif" font-size="14.00">R_05</text>
</g>
<!-- ne41&#45;&#45;ne1 -->
<g id="edge15" class="edge">
<title>ne41&#45;&#45;ne1</title>
<path fill="none" stroke="black" d="M276.92,-82.46C259.71,-83.67 240.74,-86.33 224,-91.75 208.53,-96.76 192.93,-104.06 178.34,-112.11"/>
<text text-anchor="middle" x="239.38" y="-94.95" font-family="Times New Roman,serif" font-size="14.00">R_10</text>
</g>
<!-- ne41&#45;&#45;ne42 -->
<g id="edge13" class="edge">
<title>ne41&#45;&#45;ne42</title>
<path fill="none" stroke="black" d="M384.68,-75.23C405.79,-72.33 430.84,-68.89 455.23,-65.54"/>
<text text-anchor="middle" x="422.12" y="-74.95" font-family="Times New Roman,serif" font-size="14.00">R_09</text>
</g>
</g>
</svg>
