<?xml version="1.0" encoding="UTF-8" standalone="no"?>
<!DOCTYPE svg PUBLIC "-//W3C//DTD SVG 1.1//EN"
 "http://www.w3.org/Graphics/SVG/1.1/DTD/svg11.dtd">
<!-- Generated by graphviz version 9.0.0 (20230911.1827)
 -->
<!-- Title: finite_state_machine Pages: 1 -->
<svg width="7200pt" height="2628pt"
 viewBox="0.00 0.00 7200.00 2627.65" xmlns="http://www.w3.org/2000/svg" xmlns:xlink="http://www.w3.org/1999/xlink">
<g id="graph0" class="graph" transform="scale(5.6327 5.6327) rotate(0) translate(4 462.5)">
<title>finite_state_machine</title>
<polygon fill="white" stroke="none" points="-4,4 -4,-462.5 1274.25,-462.5 1274.25,4 -4,4"/>
<!-- ne13 -->
<g id="node1" class="node">
<title>ne13</title>
<path fill="white" stroke="black" stroke-width="2" d="M12,-155.25C12,-155.25 219,-155.25 219,-155.25 225,-155.25 231,-161.25 231,-167.25 231,-167.25 231,-268.25 231,-268.25 231,-274.25 225,-280.25 219,-280.25 219,-280.25 12,-280.25 12,-280.25 6,-280.25 0,-274.25 0,-268.25 0,-268.25 0,-167.25 0,-167.25 0,-161.25 6,-155.25 12,-155.25"/>
<polygon fill="white" stroke="none" points="8,-159.25 8,-276.25 223,-276.25 223,-159.25 8,-159.25"/>
<polygon fill="black" stroke="none" points="10,-253.25 10,-274.25 221,-274.25 221,-253.25 10,-253.25"/>
<text text-anchor="start" x="99" y="-257.95" font-family="Courier New" font-size="14.00" fill="white">ne13</text>
<polygon fill="olive" stroke="none" points="10,-230.25 10,-251.25 123,-251.25 123,-230.25 10,-230.25"/>
<text text-anchor="start" x="37.5" y="-234.95" font-family="Courier New" font-size="14.00">BufferStop</text>
<text text-anchor="start" x="128" y="-234.95" font-family="Courier New" font-size="14.00">Buf08</text>
<polygon fill="darkcyan" stroke="none" points="10,-207.25 10,-228.25 123,-228.25 123,-207.25 10,-207.25"/>
<text text-anchor="start" x="12.88" y="-211.95" font-family="Courier New" font-size="14.00">LevelCrossing</text>
<text text-anchor="start" x="128" y="-211.95" font-family="Courier New" font-size="14.00">Lc08</text>
<polygon fill="cornflowerblue" stroke="none" points="10,-184.25 10,-205.25 123,-205.25 123,-184.25 10,-184.25"/>
<text text-anchor="start" x="54" y="-188.95" font-family="Courier New" font-size="14.00">Platform</text>
<text text-anchor="start" x="128" y="-188.95" font-family="Courier New" font-size="14.00">Plat13</text>
<polygon fill="yellowgreen" stroke="none" points="10,-161.25 10,-182.25 123,-182.25 123,-161.25 10,-161.25"/>
<text text-anchor="start" x="70.5" y="-165.95" font-family="Courier New" font-size="14.00">Signal</text>
<text text-anchor="start" x="127.62" y="-165.95" font-family="Courier New" font-size="14.00">T01 T02 P20</text>
</g>
<!-- ne13&#45;&#45;ne13 -->
<g id="edge1" class="edge">
<title>ne13&#45;&#45;ne13</title>
<path fill="none" stroke="black" d="M231.31,-231.11C242.15,-228.37 249,-223.91 249,-217.75 249,-211.59 242.15,-207.13 231.31,-204.39"/>
<text text-anchor="middle" x="264.38" y="-212.32" font-family="Times New Roman,serif" font-size="14.00">R_01</text>
</g>
<!-- ne2 -->
<g id="node10" class="node">
<title>ne2</title>
<path fill="white" stroke="black" stroke-width="2" d="M152.5,-0.5C152.5,-0.5 268.5,-0.5 268.5,-0.5 274.5,-0.5 280.5,-6.5 280.5,-12.5 280.5,-12.5 280.5,-90.5 280.5,-90.5 280.5,-96.5 274.5,-102.5 268.5,-102.5 268.5,-102.5 152.5,-102.5 152.5,-102.5 146.5,-102.5 140.5,-96.5 140.5,-90.5 140.5,-90.5 140.5,-12.5 140.5,-12.5 140.5,-6.5 146.5,-0.5 152.5,-0.5"/>
<polygon fill="white" stroke="none" points="148.5,-4.5 148.5,-98.5 272.5,-98.5 272.5,-4.5 148.5,-4.5"/>
<polygon fill="black" stroke="none" points="150.5,-75.5 150.5,-96.5 270.5,-96.5 270.5,-75.5 150.5,-75.5"/>
<text text-anchor="start" x="198.12" y="-80.2" font-family="Courier New" font-size="14.00" fill="white">ne2</text>
<polygon fill="red" stroke="none" points="150.5,-52.5 150.5,-73.5 205.5,-73.5 205.5,-52.5 150.5,-52.5"/>
<text text-anchor="start" x="153.25" y="-57.2" font-family="Courier New" font-size="14.00">Switch</text>
<text text-anchor="start" x="210.5" y="-57.2" font-family="Courier New" font-size="14.00">Sw06</text>
<polygon fill="#8470ff" stroke="none" points="150.5,-29.5 150.5,-50.5 205.5,-50.5 205.5,-29.5 150.5,-29.5"/>
<text text-anchor="start" x="153.25" y="-34.2" font-family="Courier New" font-size="14.00">Border</text>
<text text-anchor="start" x="210.5" y="-34.2" font-family="Courier New" font-size="14.00">Buf03</text>
<polygon fill="yellowgreen" stroke="none" points="150.5,-6.5 150.5,-27.5 205.5,-27.5 205.5,-6.5 150.5,-6.5"/>
<text text-anchor="start" x="153.25" y="-11.2" font-family="Courier New" font-size="14.00">Signal</text>
<text text-anchor="start" x="210.12" y="-11.2" font-family="Courier New" font-size="14.00">L08 S27</text>
</g>
<!-- ne13&#45;&#45;ne2 -->
<g id="edge10" class="edge">
<title>ne13&#45;&#45;ne2</title>
<path fill="none" stroke="black" d="M111.92,-154.86C113.32,-143.12 116.27,-131.29 121.75,-121 126.51,-112.07 132.99,-103.94 140.31,-96.65"/>
<text text-anchor="middle" x="136.88" y="-123.45" font-family="Times New Roman,serif" font-size="14.00">R_09</text>
</g>
<!-- ne14 -->
<g id="node2" class="node">
<title>ne14</title>
<path fill="white" stroke="black" stroke-width="2" d="M647.5,-333C647.5,-333 887.5,-333 887.5,-333 893.5,-333 899.5,-339 899.5,-345 899.5,-345 899.5,-446 899.5,-446 899.5,-452 893.5,-458 887.5,-458 887.5,-458 647.5,-458 647.5,-458 641.5,-458 635.5,-452 635.5,-446 635.5,-446 635.5,-345 635.5,-345 635.5,-339 641.5,-333 647.5,-333"/>
<polygon fill="white" stroke="none" points="643.5,-337 643.5,-454 891.5,-454 891.5,-337 643.5,-337"/>
<polygon fill="black" stroke="none" points="645.5,-431 645.5,-452 889.5,-452 889.5,-431 645.5,-431"/>
<text text-anchor="start" x="751" y="-435.7" font-family="Courier New" font-size="14.00" fill="white">ne14</text>
<polygon fill="olive" stroke="none" points="645.5,-408 645.5,-429 758.5,-429 758.5,-408 645.5,-408"/>
<text text-anchor="start" x="673" y="-412.7" font-family="Courier New" font-size="14.00">BufferStop</text>
<text text-anchor="start" x="763.5" y="-412.7" font-family="Courier New" font-size="14.00">Buf06</text>
<polygon fill="darkcyan" stroke="none" points="645.5,-385 645.5,-406 758.5,-406 758.5,-385 645.5,-385"/>
<text text-anchor="start" x="648.38" y="-389.7" font-family="Courier New" font-size="14.00">LevelCrossing</text>
<text text-anchor="start" x="763.5" y="-389.7" font-family="Courier New" font-size="14.00">Lc06</text>
<polygon fill="cornflowerblue" stroke="none" points="645.5,-362 645.5,-383 758.5,-383 758.5,-362 645.5,-362"/>
<text text-anchor="start" x="689.5" y="-366.7" font-family="Courier New" font-size="14.00">Platform</text>
<text text-anchor="start" x="763.5" y="-366.7" font-family="Courier New" font-size="14.00">Plat11</text>
<polygon fill="yellowgreen" stroke="none" points="645.5,-339 645.5,-360 758.5,-360 758.5,-339 645.5,-339"/>
<text text-anchor="start" x="706" y="-343.7" font-family="Courier New" font-size="14.00">Signal</text>
<text text-anchor="start" x="763.12" y="-343.7" font-family="Courier New" font-size="14.00">T03 T04 X15 X16</text>
</g>
<!-- ne14&#45;&#45;ne14 -->
<g id="edge2" class="edge">
<title>ne14&#45;&#45;ne14</title>
<path fill="none" stroke="black" d="M899.64,-401.94C910.65,-400.55 917.5,-398.41 917.5,-395.5 917.5,-392.59 910.65,-390.45 899.64,-389.06"/>
<text text-anchor="middle" x="932.88" y="-390.07" font-family="Times New Roman,serif" font-size="14.00">R_02</text>
</g>
<!-- ne14&#45;&#45;ne14 -->
<g id="edge7" class="edge">
<title>ne14&#45;&#45;ne14</title>
<path fill="none" stroke="black" d="M899.86,-411.55C927.86,-409.83 948.25,-404.48 948.25,-395.5 948.25,-386.52 927.86,-381.17 899.86,-379.45"/>
<text text-anchor="middle" x="963.62" y="-390.07" font-family="Times New Roman,serif" font-size="14.00">R_07</text>
</g>
<!-- ne9 -->
<g id="node8" class="node">
<title>ne9</title>
<path fill="white" stroke="black" stroke-width="2" d="M774.5,-189.75C774.5,-189.75 866.5,-189.75 866.5,-189.75 872.5,-189.75 878.5,-195.75 878.5,-201.75 878.5,-201.75 878.5,-233.75 878.5,-233.75 878.5,-239.75 872.5,-245.75 866.5,-245.75 866.5,-245.75 774.5,-245.75 774.5,-245.75 768.5,-245.75 762.5,-239.75 762.5,-233.75 762.5,-233.75 762.5,-201.75 762.5,-201.75 762.5,-195.75 768.5,-189.75 774.5,-189.75"/>
<polygon fill="white" stroke="none" points="770.5,-193.75 770.5,-241.75 870.5,-241.75 870.5,-193.75 770.5,-193.75"/>
<polygon fill="black" stroke="none" points="772.5,-218.75 772.5,-239.75 868.5,-239.75 868.5,-218.75 772.5,-218.75"/>
<text text-anchor="start" x="808.12" y="-223.45" font-family="Courier New" font-size="14.00" fill="white">ne9</text>
<polygon fill="red" stroke="none" points="772.5,-195.75 772.5,-216.75 827.5,-216.75 827.5,-195.75 772.5,-195.75"/>
<text text-anchor="start" x="775.25" y="-200.45" font-family="Courier New" font-size="14.00">Switch</text>
<text text-anchor="start" x="832.5" y="-200.45" font-family="Courier New" font-size="14.00">Sw07</text>
</g>
<!-- ne14&#45;&#45;ne9 -->
<g id="edge8" class="edge">
<title>ne14&#45;&#45;ne9</title>
<path fill="none" stroke="black" d="M762.44,-332.68C762.96,-321.23 764.51,-309.49 767.75,-298.75 773.56,-279.48 785.66,-260.55 796.81,-245.95"/>
<text text-anchor="middle" x="782.88" y="-301.2" font-family="Times New Roman,serif" font-size="14.00">R_08</text>
</g>
<!-- ne15 -->
<g id="node3" class="node">
<title>ne15</title>
<path fill="white" stroke="black" stroke-width="2" d="M1027.5,-356C1027.5,-356 1209.5,-356 1209.5,-356 1215.5,-356 1221.5,-362 1221.5,-368 1221.5,-368 1221.5,-423 1221.5,-423 1221.5,-429 1215.5,-435 1209.5,-435 1209.5,-435 1027.5,-435 1027.5,-435 1021.5,-435 1015.5,-429 1015.5,-423 1015.5,-423 1015.5,-368 1015.5,-368 1015.5,-362 1021.5,-356 1027.5,-356"/>
<polygon fill="white" stroke="none" points="1023.5,-360 1023.5,-431 1213.5,-431 1213.5,-360 1023.5,-360"/>
<polygon fill="black" stroke="none" points="1025.5,-408 1025.5,-429 1211.5,-429 1211.5,-408 1025.5,-408"/>
<text text-anchor="start" x="1102" y="-412.7" font-family="Courier New" font-size="14.00" fill="white">ne15</text>
<polygon fill="olive" stroke="none" points="1025.5,-385 1025.5,-406 1113.5,-406 1113.5,-385 1025.5,-385"/>
<text text-anchor="start" x="1028.25" y="-389.7" font-family="Courier New" font-size="14.00">BufferStop</text>
<text text-anchor="start" x="1118.5" y="-389.7" font-family="Courier New" font-size="14.00">Buf09</text>
<polygon fill="yellowgreen" stroke="none" points="1025.5,-362 1025.5,-383 1113.5,-383 1113.5,-362 1025.5,-362"/>
<text text-anchor="start" x="1061" y="-366.7" font-family="Courier New" font-size="14.00">Signal</text>
<text text-anchor="start" x="1118.12" y="-366.7" font-family="Courier New" font-size="14.00">T05 T06 C29</text>
</g>
<!-- ne15&#45;&#45;ne15 -->
<g id="edge3" class="edge">
<title>ne15&#45;&#45;ne15</title>
<path fill="none" stroke="black" d="M1221.77,-409.31C1232.58,-406.61 1239.5,-402.01 1239.5,-395.5 1239.5,-388.99 1232.58,-384.39 1221.77,-381.69"/>
<text text-anchor="middle" x="1254.88" y="-390.07" font-family="Times New Roman,serif" font-size="14.00">R_03</text>
</g>
<!-- ne15&#45;&#45;ne9 -->
<g id="edge20" class="edge">
<title>ne15&#45;&#45;ne9</title>
<path fill="none" stroke="black" d="M1052.56,-355.65C1030.37,-342.58 1005.49,-327.91 982.75,-314.5 943.73,-291.49 899.44,-265.35 867,-246.2"/>
<text text-anchor="middle" x="997.88" y="-301.2" font-family="Times New Roman,serif" font-size="14.00">R_17</text>
</g>
<!-- ne22 -->
<g id="node4" class="node">
<title>ne22</title>
<path fill="white" stroke="black" stroke-width="2" d="M408,-356C408,-356 557,-356 557,-356 563,-356 569,-362 569,-368 569,-368 569,-423 569,-423 569,-429 563,-435 557,-435 557,-435 408,-435 408,-435 402,-435 396,-429 396,-423 396,-423 396,-368 396,-368 396,-362 402,-356 408,-356"/>
<polygon fill="white" stroke="none" points="404,-360 404,-431 561,-431 561,-360 404,-360"/>
<polygon fill="black" stroke="none" points="406,-408 406,-429 559,-429 559,-408 406,-408"/>
<text text-anchor="start" x="466" y="-412.7" font-family="Courier New" font-size="14.00" fill="white">ne22</text>
<polygon fill="#8470ff" stroke="none" points="406,-385 406,-406 461,-406 461,-385 406,-385"/>
<text text-anchor="start" x="408.75" y="-389.7" font-family="Courier New" font-size="14.00">Border</text>
<text text-anchor="start" x="466" y="-389.7" font-family="Courier New" font-size="14.00">Buf02</text>
<polygon fill="yellowgreen" stroke="none" points="406,-362 406,-383 461,-383 461,-362 406,-362"/>
<text text-anchor="start" x="408.75" y="-366.7" font-family="Courier New" font-size="14.00">Signal</text>
<text text-anchor="start" x="465.62" y="-366.7" font-family="Courier New" font-size="14.00">L09 J11 J12</text>
</g>
<!-- ne22&#45;&#45;ne22 -->
<g id="edge4" class="edge">
<title>ne22&#45;&#45;ne22</title>
<path fill="none" stroke="black" d="M569.39,-409.92C580.03,-407.34 587,-402.53 587,-395.5 587,-388.47 580.03,-383.66 569.39,-381.08"/>
<text text-anchor="middle" x="602.38" y="-390.07" font-family="Times New Roman,serif" font-size="14.00">R_04</text>
</g>
<!-- ne8 -->
<g id="node5" class="node">
<title>ne8</title>
<path fill="white" stroke="black" stroke-width="2" d="M478.5,-178.25C478.5,-178.25 594.5,-178.25 594.5,-178.25 600.5,-178.25 606.5,-184.25 606.5,-190.25 606.5,-190.25 606.5,-245.25 606.5,-245.25 606.5,-251.25 600.5,-257.25 594.5,-257.25 594.5,-257.25 478.5,-257.25 478.5,-257.25 472.5,-257.25 466.5,-251.25 466.5,-245.25 466.5,-245.25 466.5,-190.25 466.5,-190.25 466.5,-184.25 472.5,-178.25 478.5,-178.25"/>
<polygon fill="white" stroke="none" points="474.5,-182.25 474.5,-253.25 598.5,-253.25 598.5,-182.25 474.5,-182.25"/>
<polygon fill="black" stroke="none" points="476.5,-230.25 476.5,-251.25 596.5,-251.25 596.5,-230.25 476.5,-230.25"/>
<text text-anchor="start" x="524.12" y="-234.95" font-family="Courier New" font-size="14.00" fill="white">ne8</text>
<polygon fill="red" stroke="none" points="476.5,-207.25 476.5,-228.25 531.5,-228.25 531.5,-207.25 476.5,-207.25"/>
<text text-anchor="start" x="479.25" y="-211.95" font-family="Courier New" font-size="14.00">Switch</text>
<text text-anchor="start" x="536.5" y="-211.95" font-family="Courier New" font-size="14.00">Sw12</text>
<polygon fill="yellowgreen" stroke="none" points="476.5,-184.25 476.5,-205.25 531.5,-205.25 531.5,-184.25 476.5,-184.25"/>
<text text-anchor="start" x="479.25" y="-188.95" font-family="Courier New" font-size="14.00">Signal</text>
<text text-anchor="start" x="536.12" y="-188.95" font-family="Courier New" font-size="14.00">C21 S32</text>
</g>
<!-- ne22&#45;&#45;ne8 -->
<g id="edge5" class="edge">
<title>ne22&#45;&#45;ne8</title>
<path fill="none" stroke="black" d="M478.09,-355.52C477.33,-337.84 478.19,-316.87 483.75,-298.75 488.19,-284.28 496.15,-269.99 504.55,-257.57"/>
<text text-anchor="middle" x="498.88" y="-301.2" font-family="Times New Roman,serif" font-size="14.00">R_05</text>
</g>
<!-- ne8&#45;&#45;ne22 -->
<g id="edge22" class="edge">
<title>ne8&#45;&#45;ne22</title>
<path fill="none" stroke="black" d="M529.06,-257.32C525.3,-274.93 520.31,-295.94 514.5,-314.5 510.21,-328.21 504.64,-342.88 499.35,-355.87"/>
<text text-anchor="middle" x="533.88" y="-301.2" font-family="Times New Roman,serif" font-size="14.00">R_18</text>
</g>
<!-- ne1 -->
<g id="node9" class="node">
<title>ne1</title>
<path fill="white" stroke="black" stroke-width="2" d="M670.5,-0.5C670.5,-0.5 786.5,-0.5 786.5,-0.5 792.5,-0.5 798.5,-6.5 798.5,-12.5 798.5,-12.5 798.5,-90.5 798.5,-90.5 798.5,-96.5 792.5,-102.5 786.5,-102.5 786.5,-102.5 670.5,-102.5 670.5,-102.5 664.5,-102.5 658.5,-96.5 658.5,-90.5 658.5,-90.5 658.5,-12.5 658.5,-12.5 658.5,-6.5 664.5,-0.5 670.5,-0.5"/>
<polygon fill="white" stroke="none" points="666.5,-4.5 666.5,-98.5 790.5,-98.5 790.5,-4.5 666.5,-4.5"/>
<polygon fill="black" stroke="none" points="668.5,-75.5 668.5,-96.5 788.5,-96.5 788.5,-75.5 668.5,-75.5"/>
<text text-anchor="start" x="716.12" y="-80.2" font-family="Courier New" font-size="14.00" fill="white">ne1</text>
<polygon fill="red" stroke="none" points="668.5,-52.5 668.5,-73.5 723.5,-73.5 723.5,-52.5 668.5,-52.5"/>
<text text-anchor="start" x="671.25" y="-57.2" font-family="Courier New" font-size="14.00">Switch</text>
<text text-anchor="start" x="728.5" y="-57.2" font-family="Courier New" font-size="14.00">Sw04</text>
<polygon fill="#8470ff" stroke="none" points="668.5,-29.5 668.5,-50.5 723.5,-50.5 723.5,-29.5 668.5,-29.5"/>
<text text-anchor="start" x="671.25" y="-34.2" font-family="Courier New" font-size="14.00">Border</text>
<text text-anchor="start" x="728.5" y="-34.2" font-family="Courier New" font-size="14.00">Buf01</text>
<polygon fill="yellowgreen" stroke="none" points="668.5,-6.5 668.5,-27.5 723.5,-27.5 723.5,-6.5 668.5,-6.5"/>
<text text-anchor="start" x="671.25" y="-11.2" font-family="Courier New" font-size="14.00">Signal</text>
<text text-anchor="start" x="728.12" y="-11.2" font-family="Courier New" font-size="14.00">L07 S22</text>
</g>
<!-- ne8&#45;&#45;ne1 -->
<g id="edge11" class="edge">
<title>ne8&#45;&#45;ne1</title>
<path fill="none" stroke="black" d="M553.42,-177.82C563.12,-158.89 576.76,-136.86 593.75,-121 612.26,-103.72 635.96,-89.73 658.31,-79.01"/>
<text text-anchor="middle" x="608.88" y="-123.45" font-family="Times New Roman,serif" font-size="14.00">R_10</text>
</g>
<!-- ne24 -->
<g id="node11" class="node">
<title>ne24</title>
<path fill="white" stroke="black" stroke-width="2" d="M434.5,-33.5C434.5,-33.5 470.5,-33.5 470.5,-33.5 476.5,-33.5 482.5,-39.5 482.5,-45.5 482.5,-45.5 482.5,-57.5 482.5,-57.5 482.5,-63.5 476.5,-69.5 470.5,-69.5 470.5,-69.5 434.5,-69.5 434.5,-69.5 428.5,-69.5 422.5,-63.5 422.5,-57.5 422.5,-57.5 422.5,-45.5 422.5,-45.5 422.5,-39.5 428.5,-33.5 434.5,-33.5"/>
<polygon fill="white" stroke="none" points="430.5,-38.62 430.5,-64.38 474.5,-64.38 474.5,-38.62 430.5,-38.62"/>
<polygon fill="black" stroke="none" points="432.5,-40.62 432.5,-62.38 472.5,-62.38 472.5,-40.62 432.5,-40.62"/>
<text text-anchor="start" x="436" y="-46.08" font-family="Courier New" font-size="14.00" fill="white">ne24</text>
</g>
<!-- ne8&#45;&#45;ne24 -->
<g id="edge23" class="edge">
<title>ne8&#45;&#45;ne24</title>
<path fill="none" stroke="black" d="M507.7,-178.05C498.98,-165.3 489.85,-150.79 482.75,-136.75 471.53,-114.56 462.52,-87.2 457.34,-69.8"/>
<text text-anchor="middle" x="497.88" y="-123.45" font-family="Times New Roman,serif" font-size="14.00">R_19</text>
</g>
<!-- ne23 -->
<g id="node6" class="node">
<title>ne23</title>
<path fill="white" stroke="black" stroke-width="2" d="M249.5,-356C249.5,-356 365.5,-356 365.5,-356 371.5,-356 377.5,-362 377.5,-368 377.5,-368 377.5,-423 377.5,-423 377.5,-429 371.5,-435 365.5,-435 365.5,-435 249.5,-435 249.5,-435 243.5,-435 237.5,-429 237.5,-423 237.5,-423 237.5,-368 237.5,-368 237.5,-362 243.5,-356 249.5,-356"/>
<polygon fill="white" stroke="none" points="245.5,-360 245.5,-431 369.5,-431 369.5,-360 245.5,-360"/>
<polygon fill="black" stroke="none" points="247.5,-408 247.5,-429 367.5,-429 367.5,-408 247.5,-408"/>
<text text-anchor="start" x="291" y="-412.7" font-family="Courier New" font-size="14.00" fill="white">ne23</text>
<polygon fill="#8470ff" stroke="none" points="247.5,-385 247.5,-406 302.5,-406 302.5,-385 247.5,-385"/>
<text text-anchor="start" x="250.25" y="-389.7" font-family="Courier New" font-size="14.00">Border</text>
<text text-anchor="start" x="307.5" y="-389.7" font-family="Courier New" font-size="14.00">Buf04</text>
<polygon fill="yellowgreen" stroke="none" points="247.5,-362 247.5,-383 302.5,-383 302.5,-362 247.5,-362"/>
<text text-anchor="start" x="250.25" y="-366.7" font-family="Courier New" font-size="14.00">Signal</text>
<text text-anchor="start" x="307.12" y="-366.7" font-family="Courier New" font-size="14.00">J13 J14</text>
</g>
<!-- ne12 -->
<g id="node7" class="node">
<title>ne12</title>
<path fill="white" stroke="black" stroke-width="2" d="M309.5,-178.25C309.5,-178.25 425.5,-178.25 425.5,-178.25 431.5,-178.25 437.5,-184.25 437.5,-190.25 437.5,-190.25 437.5,-245.25 437.5,-245.25 437.5,-251.25 431.5,-257.25 425.5,-257.25 425.5,-257.25 309.5,-257.25 309.5,-257.25 303.5,-257.25 297.5,-251.25 297.5,-245.25 297.5,-245.25 297.5,-190.25 297.5,-190.25 297.5,-184.25 303.5,-178.25 309.5,-178.25"/>
<polygon fill="white" stroke="none" points="305.5,-182.25 305.5,-253.25 429.5,-253.25 429.5,-182.25 305.5,-182.25"/>
<polygon fill="black" stroke="none" points="307.5,-230.25 307.5,-251.25 427.5,-251.25 427.5,-230.25 307.5,-230.25"/>
<text text-anchor="start" x="351" y="-234.95" font-family="Courier New" font-size="14.00" fill="white">ne12</text>
<polygon fill="red" stroke="none" points="307.5,-207.25 307.5,-228.25 362.5,-228.25 362.5,-207.25 307.5,-207.25"/>
<text text-anchor="start" x="310.25" y="-211.95" font-family="Courier New" font-size="14.00">Switch</text>
<text text-anchor="start" x="367.5" y="-211.95" font-family="Courier New" font-size="14.00">Sw13</text>
<polygon fill="yellowgreen" stroke="none" points="307.5,-184.25 307.5,-205.25 362.5,-205.25 362.5,-184.25 307.5,-184.25"/>
<text text-anchor="start" x="310.25" y="-188.95" font-family="Courier New" font-size="14.00">Signal</text>
<text text-anchor="start" x="367.12" y="-188.95" font-family="Courier New" font-size="14.00">C25 S35</text>
</g>
<!-- ne23&#45;&#45;ne12 -->
<g id="edge6" class="edge">
<title>ne23&#45;&#45;ne12</title>
<path fill="none" stroke="black" d="M302.69,-355.85C301.81,-338.04 302.68,-316.88 308.75,-298.75 313.68,-284.04 322.4,-269.79 331.64,-257.49"/>
<text text-anchor="middle" x="323.88" y="-301.2" font-family="Times New Roman,serif" font-size="14.00">R_06</text>
</g>
<!-- ne12&#45;&#45;ne23 -->
<g id="edge25" class="edge">
<title>ne12&#45;&#45;ne23</title>
<path fill="none" stroke="black" d="M357.03,-257.69C352.09,-275.18 345.89,-296 339.5,-314.5 334.81,-328.07 329.14,-342.72 323.88,-355.72"/>
<text text-anchor="middle" x="359.88" y="-301.2" font-family="Times New Roman,serif" font-size="14.00">R_20</text>
</g>
<!-- ne12&#45;&#45;ne2 -->
<g id="edge17" class="edge">
<title>ne12&#45;&#45;ne2</title>
<path fill="none" stroke="black" d="M320.31,-177.86C310.04,-169.92 299.07,-161.84 288.5,-154.75 275.03,-145.72 268.14,-148.3 256.75,-136.75 247.14,-127.01 238.94,-114.86 232.24,-102.86"/>
<text text-anchor="middle" x="271.88" y="-123.45" font-family="Times New Roman,serif" font-size="14.00">R_14</text>
</g>
<!-- ne12&#45;&#45;ne24 -->
<g id="edge26" class="edge">
<title>ne12&#45;&#45;ne24</title>
<path fill="none" stroke="black" d="M363.9,-178.16C363.79,-159.96 366.05,-138.46 374.75,-121 385.42,-99.58 405.99,-81.93 423.29,-69.91"/>
<text text-anchor="middle" x="389.88" y="-123.45" font-family="Times New Roman,serif" font-size="14.00">R_21</text>
</g>
<!-- ne9&#45;&#45;ne14 -->
<g id="edge14" class="edge">
<title>ne9&#45;&#45;ne14</title>
<path fill="none" stroke="black" d="M815.36,-245.85C811.43,-265.18 805.51,-291.67 798.5,-314.5 796.66,-320.48 794.6,-326.65 792.42,-332.79"/>
<text text-anchor="middle" x="817.88" y="-301.2" font-family="Times New Roman,serif" font-size="14.00">R_12</text>
</g>
<!-- ne9&#45;&#45;ne15 -->
<g id="edge16" class="edge">
<title>ne9&#45;&#45;ne15</title>
<path fill="none" stroke="black" d="M878.86,-236.05C919.6,-249.62 974.21,-270.86 1017.5,-298.75 1042.08,-314.58 1065.99,-336.84 1084.37,-355.91"/>
<text text-anchor="middle" x="1053.88" y="-301.2" font-family="Times New Roman,serif" font-size="14.00">R_13</text>
</g>
<!-- ne9&#45;&#45;ne1 -->
<g id="edge9" class="edge">
<title>ne9&#45;&#45;ne1</title>
<path fill="none" stroke="black" d="M762.01,-191.99C739.22,-179.09 715.53,-160.88 702.75,-136.75 697.17,-126.21 697.38,-114.27 700.37,-102.76"/>
<text text-anchor="middle" x="717.88" y="-123.45" font-family="Times New Roman,serif" font-size="14.00">R_08</text>
</g>
<!-- ne9&#45;&#45;ne1 -->
<g id="edge21" class="edge">
<title>ne9&#45;&#45;ne1</title>
<path fill="none" stroke="black" d="M792.18,-189.31C778.59,-174.79 763.06,-156.01 752.75,-136.75 747.15,-126.28 742.71,-114.37 739.24,-102.87"/>
<text text-anchor="middle" x="767.88" y="-123.45" font-family="Times New Roman,serif" font-size="14.00">R_17</text>
</g>
<!-- ne1&#45;&#45;ne8 -->
<g id="edge12" class="edge">
<title>ne1&#45;&#45;ne8</title>
<path fill="none" stroke="black" d="M669.5,-102.97C641.34,-127.06 608.17,-155.44 582,-177.83"/>
<text text-anchor="middle" x="658.88" y="-123.45" font-family="Times New Roman,serif" font-size="14.00">R_11</text>
</g>
<!-- ne1&#45;&#45;ne9 -->
<g id="edge13" class="edge">
<title>ne1&#45;&#45;ne9</title>
<path fill="none" stroke="black" d="M775.5,-102.91C779.88,-108.79 783.98,-114.88 787.5,-121 799.94,-142.65 808.73,-169.74 814.1,-189.58"/>
<text text-anchor="middle" x="809.88" y="-123.45" font-family="Times New Roman,serif" font-size="14.00">R_12</text>
</g>
<!-- ne1&#45;&#45;ne9 -->
<g id="edge15" class="edge">
<title>ne1&#45;&#45;ne9</title>
<path fill="none" stroke="black" d="M798.95,-86.9C811.24,-96.21 822.36,-107.52 829.5,-121 840.68,-142.1 836.56,-169.5 830.75,-189.58"/>
<text text-anchor="middle" x="849.88" y="-123.45" font-family="Times New Roman,serif" font-size="14.00">R_13</text>
</g>
<!-- ne2&#45;&#45;ne13 -->
<g id="edge19" class="edge">
<title>ne2&#45;&#45;ne13</title>
<path fill="none" stroke="black" d="M181.32,-102.95C171.79,-119.43 161.1,-137.92 151.14,-155.12"/>
<text text-anchor="middle" x="183.88" y="-123.45" font-family="Times New Roman,serif" font-size="14.00">R_16</text>
</g>
<!-- ne2&#45;&#45;ne12 -->
<g id="edge18" class="edge">
<title>ne2&#45;&#45;ne12</title>
<path fill="none" stroke="black" d="M268.96,-102.85C275.35,-108.83 281.65,-114.96 287.5,-121 304.84,-138.89 322.74,-160.02 337.21,-177.88"/>
<text text-anchor="middle" x="315.88" y="-123.45" font-family="Times New Roman,serif" font-size="14.00">R_15</text>
</g>
<!-- ne24&#45;&#45;ne8 -->
<g id="edge27" class="edge">
<title>ne24&#45;&#45;ne8</title>
<path fill="none" stroke="black" d="M472.36,-69.78C485.9,-82.61 503.17,-101.24 513.5,-121 522.69,-138.58 528.27,-159.88 531.63,-177.93"/>
<text text-anchor="middle" x="534.88" y="-123.45" font-family="Times New Roman,serif" font-size="14.00">R_21</text>
</g>
<!-- ne24&#45;&#45;ne12 -->
<g id="edge24" class="edge">
<title>ne24&#45;&#45;ne12</title>
<path fill="none" stroke="black" d="M443.64,-69.62C430.48,-95.05 405.42,-143.48 387.64,-177.83"/>
<text text-anchor="middle" x="429.88" y="-123.45" font-family="Times New Roman,serif" font-size="14.00">R_19</text>
</g>
</g>
</svg>
