<?xml version="1.0" encoding="UTF-8" standalone="no"?>
<!DOCTYPE svg PUBLIC "-//W3C//DTD SVG 1.1//EN" "http://www.w3.org/Graphics/SVG/1.1/DTD/svg11.dtd">
<svg width="100%" height="100%" viewBox="0 0 390 226" version="1.1" xmlns="http://www.w3.org/2000/svg" xmlns:xlink="http://www.w3.org/1999/xlink" xml:space="preserve" xmlns:serif="http://www.serif.com/" style="fill-rule:evenodd;clip-rule:evenodd;stroke-linecap:round;stroke-linejoin:round;stroke-miterlimit:1.5;">
    <g>
        <path d="M292.172,116.845l2.118,-0l-0.021,1.657c0.588,-1.384 1.595,-1.825 2.56,-1.825c0.629,0 1.069,0.147 1.447,0.378l-0.713,1.909c-0.336,-0.168 -0.671,-0.294 -1.154,-0.294c-1.258,0 -2.119,0.734 -2.119,2.706l0,4.28l-2.118,-0l-0,-8.811Z" style="fill-rule:nonzero;"/>
        <path d="M312.19,125.685l-0,-14.871l0.209,-0l1.904,2.144l-0,12.727l-2.113,0Z" style="fill-rule:nonzero;"/>
        <path d="M310.692,125.669l0,-10.999l-0.209,-0l-1.904,2.144l0,8.855l2.113,0Z" style="fill-rule:nonzero;"/>
        <path d="M305.001,121.263c-0,-1.595 -0.944,-2.706 -2.497,-2.706c-1.51,-0 -2.412,1.091 -2.412,2.685c-0,1.636 0.902,2.748 2.412,2.748c1.553,-0 2.497,-1.112 2.497,-2.727Zm-7.112,-0.021c-0,-2.643 1.762,-4.574 4.07,-4.574c1.489,0 2.475,0.714 3.021,1.805l-0.021,-1.616l2.119,0l-0,8.811l-2.119,0l0.021,-1.636c-0.504,1.049 -1.574,1.825 -3.042,1.825c-2.245,-0 -4.049,-1.951 -4.049,-4.615Z" style="fill-rule:nonzero;"/>
        <path d="M315.804,114.705l0.212,-0l5.316,5.994l5.233,-5.994l0.211,-0l-0,10.993l-2.097,-0l-0,-4.597c-0,-0.826 0.106,-1.948 0.127,-1.991c-0.042,0.043 -0.635,0.996 -1.249,1.716l-2.161,2.521l-0.191,-0l-2.181,-2.521c-0.614,-0.678 -1.207,-1.631 -1.25,-1.716c0,0.043 0.127,1.165 0.127,1.991l0,4.597l-2.097,-0l0,-10.993Z" style="fill:rgb(15,155,127);fill-rule:nonzero;"/>
        <path d="M328.28,114.82l2.161,-0l-0,8.98l4.935,-0l-0,1.885l-7.096,0l0,-10.865Z" style="fill:rgb(15,155,127);fill-rule:nonzero;"/>
    </g>
    <path d="M125.935,113.178l4.692,-8.901l-9.936,1.587l5.244,7.314Z" style="fill:rgb(167,167,167);"/>
    <path d="M69.62,153.554l-9.936,1.587l4.692,-8.901l5.244,7.314Z" style="fill:rgb(167,167,167);"/>
    <path d="M124.776,108.472c-7.967,5.712 -21.247,15.233 -21.247,15.233l-16.747,12.008c-0,-0 -13.28,9.521 -21.247,15.233" style="fill:none;stroke:rgb(167,167,167);stroke-width:2px;"/>
    <path d="M103.943,153.554l9.937,1.587l-4.692,-8.901l-5.245,7.314Z" style="fill:rgb(167,167,167);"/>
    <path d="M47.628,113.178l-4.692,-8.901l9.937,1.587l-5.245,7.314Z" style="fill:rgb(167,167,167);"/>
    <path d="M108.028,150.946c-7.966,-5.712 -21.246,-15.233 -21.246,-15.233l-16.748,-12.008c0,0 -13.28,-9.521 -21.246,-15.233" style="fill:none;stroke:rgb(167,167,167);stroke-width:2px;"/>
    <path d="M55.507,143.439l1.46,9.956l7.089,-7.141l-8.549,-2.815Z" style="fill:rgb(167,167,167);"/>
    <path d="M76.976,78.236l7.089,-7.141l1.46,9.955l-8.549,-2.814Z" style="fill:rgb(167,167,167);"/>
    <path d="M59.219,146.556c3.045,-9.247 8.099,-24.597 8.099,-24.597l6.397,-19.428c-0,-0 5.054,-15.35 8.098,-24.598" style="fill:none;stroke:rgb(167,167,167);stroke-width:2px;"/>
    <path d="M52.695,96.529l-9,4.5l9,4.5l0,-9Z" style="fill:rgb(167,167,167);"/>
    <path d="M120.64,96.529l9,4.5l-9,4.5l0,-9Z" style="fill:rgb(167,167,167);"/>
    <path d="M50.895,101.029c9.663,-0 25.628,-0 25.628,-0l20.289,-0c0,-0 15.965,-0 25.628,-0" style="fill:none;stroke:rgb(167,167,167);stroke-width:2px;"/>
    <path d="M96.739,77.932l-7.089,-7.141l-1.459,9.956l8.548,-2.815Z" style="fill:rgb(167,167,167);"/>
    <path d="M118.208,143.136l-1.46,9.955l-7.089,-7.141l8.549,-2.814Z" style="fill:rgb(167,167,167);"/>
    <path d="M91.902,77.63c3.045,9.247 8.099,24.597 8.099,24.597l6.397,19.428c-0,0 5.054,15.35 8.099,24.598" style="fill:none;stroke:rgb(167,167,167);stroke-width:2px;"/>
    <path d="M105.196,68.694l-9.963,-1.411l4.849,8.817l5.114,-7.406Z" style="fill:rgb(167,167,167);"/>
    <path d="M127.414,84.036l4.848,8.817l-9.962,-1.411l5.114,-7.406Z" style="fill:rgb(167,167,167);"/>
    <path d="M101.158,71.374c6.911,4.773 18.269,12.616 25.18,17.388" style="fill:none;stroke:rgb(167,167,167);stroke-width:2px;"/>
    <g>
        <path d="M40.833,93.471l37.029,-25.57" style="fill:none;"/>
        <path d="M45.682,84.654l-4.849,8.817l9.963,-1.411l-5.114,-7.406Z" style="fill:rgb(167,167,167);"/>
        <path d="M67.899,69.312l9.963,-1.411l-4.848,8.816l-5.115,-7.405Z" style="fill:rgb(167,167,167);"/>
        <path d="M46.758,89.38c6.911,-4.773 18.269,-12.616 25.18,-17.388" style="fill:none;stroke:rgb(167,167,167);stroke-width:2px;"/>
    </g>
    <path d="M141.59,121.443l-1.346,-9.972l-7.17,7.061l8.516,2.911Z" style="fill:rgb(167,167,167);"/>
    <path d="M132.856,146.991l-7.169,7.061l-1.347,-9.972l8.516,2.911Z" style="fill:rgb(167,167,167);"/>
    <path d="M137.915,118.284c-2.717,7.947 -7.182,21.008 -9.899,28.955" style="fill:none;stroke:rgb(167,167,167);stroke-width:2px;"/>
    <path d="M41.164,147.394l7.169,7.061l1.347,-9.972l-8.516,2.911Z" style="fill:rgb(167,167,167);"/>
    <path d="M32.43,121.846l1.347,-9.972l7.169,7.061l-8.516,2.911Z" style="fill:rgb(167,167,167);"/>
    <path d="M46.004,147.642c-2.716,-7.947 -7.181,-21.008 -9.898,-28.955" style="fill:none;stroke:rgb(167,167,167);stroke-width:2px;"/>
    <path d="M100.003,168.978l9,-4.5l-9,-4.5l-0,9Z" style="fill:rgb(167,167,167);"/>
    <path d="M73.003,168.978l-9,-4.5l9,-4.5l-0,9Z" style="fill:rgb(167,167,167);"/>
    <path d="M101.803,164.478l-30.6,0" style="fill:none;stroke:rgb(167,167,167);stroke-width:2px;"/>
    <path d="M277.657,105.441l-9.95,1.499l7.169,7.061l2.781,-8.56Z" style="fill:rgb(167,167,167);"/>
    <path d="M285.51,107.993l7.169,7.061l-9.95,1.498l2.781,-8.559Z" style="fill:rgb(167,167,167);"/>
    <path d="M274.555,109.165l11.277,3.664" style="fill:none;stroke:rgb(167,167,167);stroke-width:2px;"/>
    <path d="M289.208,148.063l-1.649,9.927l8.93,-4.636l-7.281,-5.291Z" style="fill:rgb(167,167,167);"/>
    <path d="M301.089,131.711l8.931,-4.636l-1.65,9.926l-7.281,-5.29Z" style="fill:rgb(167,167,167);"/>
    <path d="M291.791,152.165c2.164,-2.979 4.347,-5.984 4.347,-5.984l5.302,-7.298c0,0 2.184,-3.005 4.348,-5.983" style="fill:none;stroke:rgb(167,167,167);stroke-width:2px;"/>
    <path d="M331.016,153.295l8.931,4.636l-1.65,-9.926l-7.281,5.29Z" style="fill:rgb(167,167,167);"/>
    <path d="M319.147,136.959l-1.65,-9.926l8.931,4.636l-7.281,5.29Z" style="fill:rgb(167,167,167);"/>
    <path d="M335.714,152.106c-2.162,-2.975 -4.342,-5.977 -4.342,-5.977l-5.3,-7.294c0,0 -2.181,-3.002 -4.343,-5.977" style="fill:none;stroke:rgb(167,167,167);stroke-width:2px;"/>
    <path d="M352.362,114.101l7.169,-7.061l-9.95,-1.498l2.781,8.559Z" style="fill:rgb(167,167,167);"/>
    <path d="M347.823,115.576l-9.95,-1.499l7.169,-7.061l2.781,8.56Z" style="fill:rgb(167,167,167);"/>
    <path d="M352.684,109.265l-7.963,2.587" style="fill:none;stroke:rgb(167,167,167);stroke-width:2px;"/>
    <path d="M318.274,80.265l-4.5,-9l-4.5,9l9,0Z" style="fill:rgb(167,167,167);"/>
    <path d="M318.274,100.327l-4.5,9l-4.5,-9l9,-0Z" style="fill:rgb(167,167,167);"/>
    <path d="M313.774,78.465c-0,3.658 -0,7.338 -0,7.338l-0,8.986c-0,-0 -0,3.68 -0,7.338" style="fill:none;stroke:rgb(167,167,167);stroke-width:2px;"/>
    <g>
        <circle cx="146.267" cy="98.981" r="15" style="fill:rgb(167,167,167);stroke:rgb(53,130,104);stroke-width:2px;"/>
        <circle cx="27.167" cy="98.981" r="15" style="fill:rgb(167,167,167);stroke:rgb(53,130,104);stroke-width:2px;"/>
        <circle cx="86.987" cy="55.508" r="15" style="fill:rgb(167,167,167);stroke:rgb(53,130,104);stroke-width:2px;"/>
        <circle cx="50.071" cy="169.219" r="15" style="fill:rgb(167,167,167);stroke:rgb(53,130,104);stroke-width:2px;"/>
        <circle cx="123.902" cy="169.219" r="15" style="fill:rgb(167,167,167);stroke:rgb(53,130,104);stroke-width:2px;"/>
        <path d="M79.674,64.76l2.026,0l1.333,-4.746l7.891,-0l1.333,4.746l2.027,0l-5.066,-18.45l-4.479,0l-5.065,18.45Zm6.611,-16.693l1.387,0l2.799,10.11l-6.985,0l2.799,-10.11Z" style="fill-rule:nonzero;"/>
        <path d="M20.807,89.71l-0,18.45l7.038,0c3.468,0 5.705,-1.277 5.705,-5.171c0,-2.668 -1.304,-3.788 -2.93,-4.347c1.492,-0.692 2.37,-1.839 2.37,-4.24c0,-3.281 -1.89,-4.692 -5.491,-4.692l-6.692,0Zm6.825,9.97c1.414,0 3.842,0.374 3.842,3.229c-0,2.721 -1.468,3.441 -3.709,3.441l-4.908,0l-0,-6.67l4.775,0Zm-0.213,-8.16c2.347,0 3.468,0.908 3.468,3.069c-0,2.214 -0.961,3.308 -3.282,3.308l-4.748,0l-0,-6.377l4.562,0Z" style="fill:rgb(10,8,175);fill-rule:nonzero;"/>
        <path d="M55.917,176.41c-1.28,0.24 -3.253,0.48 -4.747,0.48c-4.213,0 -4.88,-2.453 -4.88,-7.601c0,-5.255 0.72,-7.709 4.827,-7.709c1.44,0 3.6,0.267 4.8,0.481l0.08,-1.732c-1.173,-0.239 -3.2,-0.585 -5.093,-0.585c-5.546,-0 -6.744,3.303 -6.744,9.545c0,6.081 1.225,9.438 6.744,9.438c1.76,0 3.786,-0.293 5.093,-0.559l-0.08,-1.758Z" style="fill:rgb(203,28,99);fill-rule:nonzero;"/>
        <path d="M140.667,108.16l11.223,0l0,-1.81l-9.173,0l-0,-6.67l7.573,0l0,-1.783l-7.573,0l-0,-6.377l9.173,0l0,-1.81l-11.223,0l-0,18.45Z" style="fill:rgb(107,54,143);fill-rule:nonzero;"/>
        <path d="M123.759,178.46c5.44,0 6.825,-4.21 6.825,-9.491c-0,-5.228 -1.465,-8.959 -6.825,-8.959l-6.585,0l-0,18.45l6.585,0Zm4.721,-9.491c0,4.001 -0.88,7.681 -4.721,7.681l-4.535,0l-0,-14.83l4.535,0c3.841,0 4.721,3.148 4.721,7.149Z" style="fill:rgb(237,203,50);fill-rule:nonzero;"/>
    </g>
    <g>
        <circle cx="373.039" cy="98.981" r="15" style="fill:rgb(167,167,167);stroke:rgb(53,130,104);stroke-width:2px;"/>
        <circle cx="253.939" cy="98.981" r="15" style="fill:rgb(167,167,167);stroke:rgb(53,130,104);stroke-width:2px;"/>
        <circle cx="313.758" cy="55.508" r="15" style="fill:rgb(167,167,167);stroke:rgb(53,130,104);stroke-width:2px;"/>
        <circle cx="276.843" cy="169.219" r="15" style="fill:rgb(167,167,167);stroke:rgb(53,130,104);stroke-width:2px;"/>
        <circle cx="350.674" cy="169.219" r="15" style="fill:rgb(167,167,167);stroke:rgb(53,130,104);stroke-width:2px;"/>
        <path d="M306.445,64.76l2.026,0l1.333,-4.746l7.892,-0l1.333,4.746l2.026,0l-5.065,-18.45l-4.479,0l-5.066,18.45Zm6.612,-16.693l1.386,0l2.8,10.11l-6.985,0l2.799,-10.11Z" style="fill-rule:nonzero;"/>
        <path d="M247.579,89.71l-0,18.45l7.038,0c3.468,0 5.705,-1.277 5.705,-5.171c-0,-2.668 -1.305,-3.788 -2.931,-4.347c1.492,-0.692 2.371,-1.839 2.371,-4.24c-0,-3.281 -1.89,-4.692 -5.492,-4.692l-6.691,0Zm6.825,9.97c1.414,0 3.841,0.374 3.841,3.229c0,2.721 -1.467,3.441 -3.708,3.441l-4.908,0l-0,-6.67l4.775,0Zm-0.214,-8.16c2.348,0 3.469,0.908 3.469,3.069c-0,2.214 -0.961,3.308 -3.282,3.308l-4.748,0l-0,-6.377l4.561,0Z" style="fill:rgb(10,8,175);fill-rule:nonzero;"/>
        <path d="M282.689,176.41c-1.28,0.24 -3.254,0.48 -4.747,0.48c-4.213,0 -4.88,-2.453 -4.88,-7.601c-0,-5.255 0.72,-7.709 4.827,-7.709c1.44,0 3.6,0.267 4.8,0.481l0.08,-1.732c-1.174,-0.239 -3.2,-0.585 -5.094,-0.585c-5.545,-0 -6.743,3.303 -6.743,9.545c-0,6.081 1.225,9.438 6.743,9.438c1.76,0 3.787,-0.293 5.094,-0.559l-0.08,-1.758Z" style="fill:rgb(203,28,99);fill-rule:nonzero;"/>
        <path d="M367.439,108.16l11.223,0l-0,-1.81l-9.173,0l-0,-6.67l7.573,0l-0,-1.783l-7.573,0l-0,-6.377l9.173,0l-0,-1.81l-11.223,0l-0,18.45Z" style="fill:rgb(107,54,143);fill-rule:nonzero;"/>
        <path d="M350.53,178.46c5.441,0 6.825,-4.21 6.825,-9.491c0,-5.228 -1.464,-8.959 -6.825,-8.959l-6.585,0l0,18.45l6.585,0Zm4.722,-9.491c-0,4.001 -0.88,7.681 -4.722,7.681l-4.535,0l0,-14.83l4.535,0c3.842,0 4.722,3.148 4.722,7.149Z" style="fill:rgb(237,203,50);fill-rule:nonzero;"/>
    </g>
    <path d="M15.287,211.512l0.933,1.547l4.534,-2.987l-0,15.307l2.05,-0l-0,-17.6l-1.917,-0l-5.6,3.733Z" style="fill:rgb(167,167,167);fill-rule:nonzero;"/>
    <path d="M34.805,207.489c-4.055,-0 -6.398,2.13 -6.398,9.385c-0,6.775 2.397,8.772 6.425,8.772c4.028,-0 6.398,-2.051 6.398,-8.799c0,-7.255 -2.263,-9.358 -6.425,-9.358Zm0.027,1.837c2.934,-0 4.295,1.6 4.295,7.521c-0,5.522 -1.521,6.989 -4.295,6.989c-2.775,-0 -4.295,-1.441 -4.295,-6.962c-0,-6.001 1.414,-7.548 4.295,-7.548Z" style="fill:rgb(167,167,167);fill-rule:nonzero;"/>
    <path d="M50.087,225.379l1.997,-0l-0,-13.33l-1.997,-0l-0,13.33Zm-0,-16.347l1.997,0l-0,-2.316l-1.997,-0l-0,2.316Z" style="fill:rgb(167,167,167);fill-rule:nonzero;"/>
    <path d="M57.924,225.379l-0,-10.827c-0,0 1.84,-0.986 3.761,-0.986c2.482,-0 2.882,1.306 2.882,4.826l-0,6.987l1.97,-0l-0,-7.04c-0,-4.747 -0.825,-6.557 -4.505,-6.557c-1.974,0 -4.135,1.198 -4.135,1.198l-0,-0.931l-1.97,-0l-0,13.33l1.997,-0Z" style="fill:rgb(167,167,167);fill-rule:nonzero;"/>
    <path d="M77.07,213.779l0,-1.73l-4.24,-0l0,-4.08l-1.97,-0l0,4.08l-1.893,-0l-0,1.73l1.893,-0l0,7.016c0,3.839 0.932,4.877 3.677,4.877c0.933,0 2.72,-0.293 2.72,-0.293l-0.133,-1.65c-0,-0 -1.627,0.16 -2.374,0.16c-1.733,-0 -1.92,-0.827 -1.92,-3.735l0,-6.375l4.24,-0Z" style="fill:rgb(167,167,167);fill-rule:nonzero;"/>
    <path d="M84.459,223.889c-2.615,-0 -3.495,-1.495 -3.495,-4.35l8.8,-0l0.106,-1.517c0,-4.376 -1.81,-6.24 -5.358,-6.24c-3.388,0 -5.572,1.944 -5.572,7.012c0,4.534 1.305,6.852 5.278,6.852c2.162,-0 5.2,-0.426 5.2,-0.426l-0.054,-1.571c0,-0 -2.904,0.24 -4.905,0.24Zm-3.522,-5.947c0.027,-3.229 1.307,-4.483 3.575,-4.483c2.348,-0 3.362,1.174 3.362,4.483l-6.937,0Z" style="fill:rgb(167,167,167);fill-rule:nonzero;"/>
    <path d="M92.994,225.379l1.996,-0l0,-9.787c0,0 2.347,-1.306 4.854,-1.813l-0,-2.023c-2.56,0.506 -4.88,2.103 -4.88,2.103l-0,-1.81l-1.97,-0l-0,13.33Z" style="fill:rgb(167,167,167);fill-rule:nonzero;"/>
    <path d="M104.777,213.779l3.867,-0l-0,-1.73l-3.867,-0l-0,-1.174c-0,-2.482 0.48,-3.123 1.973,-3.123c0.8,0 2.294,0.054 2.294,0.054l0.026,-1.65c0,-0.001 -1.786,-0.187 -2.693,-0.187c-2.612,-0 -3.597,1.038 -3.597,4.879l0,1.201l-1.68,-0l0,1.73l1.68,-0l0,11.6l1.997,-0l-0,-11.6Z" style="fill:rgb(167,167,167);fill-rule:nonzero;"/>
    <path d="M120.457,216.067c-0,-2.901 -1.278,-4.285 -4.291,-4.285c-2.295,0 -5.227,0.586 -5.227,0.586l0.08,1.517c-0,-0 3.172,-0.346 5.04,-0.346c1.601,-0 2.401,0.665 2.401,2.528l0,1.145l-4.189,0.4c-2.746,0.268 -4.077,1.391 -4.077,3.954c-0,2.696 1.331,4.08 3.757,4.08c2.401,-0 4.802,-1.065 4.802,-1.065c0.799,0.798 1.757,1.065 3.171,1.065l0.08,-1.571c-0.854,-0.106 -1.494,-0.4 -1.547,-1.174l-0,-6.834Zm-1.997,2.669l0,4.405c0,0 -2.214,0.828 -4.189,0.828c-1.36,-0 -2.027,-0.908 -2.027,-2.456c-0,-1.469 0.64,-2.243 2.267,-2.403l3.949,-0.374Z" style="fill:rgb(167,167,167);fill-rule:nonzero;"/>
    <path d="M129.39,211.782c-3.972,0 -5.543,1.864 -5.543,6.692c-0,5.228 1.251,7.172 5.49,7.172c1.227,-0 3.707,-0.373 3.707,-0.373l-0.08,-1.651c-0,0 -2.134,0.24 -3.147,0.24c-3.307,0 -3.92,-1.44 -3.92,-5.388c-0,-3.575 0.827,-4.908 3.893,-4.908c1.014,-0 3.147,0.24 3.147,0.24l0.08,-1.625c-0,0 -2.4,-0.399 -3.627,-0.399Z" style="fill:rgb(167,167,167);fill-rule:nonzero;"/>
    <path d="M140.805,223.889c-2.614,-0 -3.495,-1.495 -3.495,-4.35l8.8,-0l0.107,-1.517c-0,-4.376 -1.81,-6.24 -5.358,-6.24c-3.389,0 -5.572,1.944 -5.572,7.012c-0,4.534 1.304,6.852 5.278,6.852c2.161,-0 5.199,-0.426 5.199,-0.426l-0.053,-1.571c0,-0 -2.905,0.24 -4.906,0.24Zm-3.521,-5.947c0.026,-3.229 1.307,-4.483 3.575,-4.483c2.347,-0 3.361,1.174 3.361,4.483l-6.936,0Z" style="fill:rgb(167,167,167);fill-rule:nonzero;"/>
    <path d="M158.244,212.289c0,-0.001 -2.824,-0.507 -4.826,-0.507c-2.428,0 -4.798,0.958 -4.798,3.891c0,2.667 1.438,3.228 4.452,3.708c2.908,0.453 3.602,0.8 3.602,2.187c-0,1.814 -1.174,2.294 -3.362,2.294c-1.361,0 -4.399,-0.453 -4.399,-0.453l-0.106,1.73c-0,0.001 2.984,0.507 4.691,0.507c3.202,-0 5.172,-1.039 5.172,-4.158c0,-2.587 -1.251,-3.254 -4.585,-3.814c-2.828,-0.481 -3.468,-0.827 -3.468,-2.081c-0,-1.574 1.254,-2.027 2.908,-2.027c1.708,-0 4.666,0.426 4.666,0.426l0.053,-1.703Z" style="fill:rgb(167,167,167);fill-rule:nonzero;"/>
    <g transform="matrix(1,0,0,1,-175.556,-239.759)">
        <g transform="matrix(26.6667,0,0,26.6667,174.728,259.231)">
            <path d="M0.031,-0.5l0.119,0.5l0.125,-0l0.106,-0.391l0.106,0.391l0.125,-0l0.119,-0.5l-0.075,0l-0.1,0.435l-0.017,0l-0.119,-0.425l-0.078,0l-0.119,0.425l-0.016,0l-0.101,-0.435l-0.075,0Z" style="fill:rgb(167,167,167);fill-rule:nonzero;"/>
        </g>
        <g transform="matrix(26.6667,0,0,26.6667,195.048,259.231)">
            <path d="M0.072,-0l0.075,-0l-0,-0.5l-0.075,0l0,0.5Zm0,-0.613l0.075,-0l-0,-0.087l-0.075,0l0,0.087Z" style="fill:rgb(167,167,167);fill-rule:nonzero;"/>
        </g>
        <g transform="matrix(26.6667,0,0,26.6667,200.888,259.231)">
            <path d="M0.331,-0.435l-0,-0.065l-0.159,0l-0,-0.153l-0.074,0l0,0.153l-0.071,0l0,0.065l0.071,-0l0,0.263c0,0.144 0.035,0.183 0.138,0.183c0.035,-0 0.102,-0.011 0.102,-0.011l-0.005,-0.062c-0,0 -0.061,0.006 -0.089,0.006c-0.065,0 -0.072,-0.031 -0.072,-0.14l-0,-0.239l0.159,-0Z" style="fill:rgb(167,167,167);fill-rule:nonzero;"/>
        </g>
        <g transform="matrix(26.6667,0,0,26.6667,210.248,259.231)">
            <path d="M0.147,-0l-0,-0.413c-0,-0 0.07,-0.03 0.141,-0.03c0.092,-0 0.107,0.049 0.107,0.181l0,0.262l0.075,-0l-0,-0.264c-0,-0.178 -0.032,-0.246 -0.169,-0.246c-0.074,0 -0.154,0.038 -0.154,0.038l-0,-0.246l-0.075,0l0,0.718l0.075,-0Z" style="fill:rgb(167,167,167);fill-rule:nonzero;"/>
        </g>
        <g transform="matrix(26.6667,0,0,26.6667,224.568,259.231)">
            <path d="M0.264,-0.51c-0.158,0 -0.214,0.082 -0.214,0.254c0,0.182 0.046,0.266 0.214,0.266c0.169,-0 0.214,-0.084 0.214,-0.266c-0,-0.172 -0.055,-0.254 -0.214,-0.254Zm0,0.455c-0.118,0 -0.137,-0.059 -0.137,-0.201c-0,-0.139 0.031,-0.189 0.137,-0.189c0.107,-0 0.137,0.05 0.137,0.189c0,0.142 -0.018,0.201 -0.137,0.201Z" style="fill:rgb(167,167,167);fill-rule:nonzero;"/>
        </g>
        <g transform="matrix(26.6667,0,0,26.6667,238.648,259.231)">
            <path d="M0.384,-0.5l0,0.406c0,0 -0.063,0.037 -0.137,0.037c-0.093,0 -0.105,-0.045 -0.105,-0.183l-0,-0.26l-0.075,0l0,0.261c0,0.184 0.029,0.249 0.169,0.249c0.073,-0 0.148,-0.045 0.148,-0.045l0,0.035l0.075,-0l-0,-0.5l-0.075,0Z" style="fill:rgb(167,167,167);fill-rule:nonzero;"/>
        </g>
        <g transform="matrix(26.6667,0,0,26.6667,252.808,259.231)">
            <path d="M0.331,-0.435l-0,-0.065l-0.159,0l-0,-0.153l-0.074,0l0,0.153l-0.071,0l0,0.065l0.071,-0l0,0.263c0,0.144 0.035,0.183 0.138,0.183c0.035,-0 0.102,-0.011 0.102,-0.011l-0.005,-0.062c-0,0 -0.061,0.006 -0.089,0.006c-0.065,0 -0.072,-0.031 -0.072,-0.14l-0,-0.239l0.159,-0Z" style="fill:rgb(167,167,167);fill-rule:nonzero;"/>
        </g>
        <g transform="matrix(26.6667,0,0,26.6667,268.035,259.231)">
            <path d="M0.072,-0l0.075,-0l-0,-0.367c-0,-0 0.088,-0.049 0.182,-0.068l-0,-0.076c-0.096,0.019 -0.183,0.079 -0.183,0.079l-0,-0.068l-0.074,0l0,0.5Z" style="fill:rgb(167,167,167);fill-rule:nonzero;"/>
        </g>
        <g transform="matrix(26.6667,0,0,26.6667,277.261,259.231)">
            <path d="M0.425,-0.349c-0,-0.109 -0.048,-0.161 -0.161,-0.161c-0.086,0 -0.196,0.022 -0.196,0.022l0.003,0.057c0,-0 0.119,-0.013 0.189,-0.013c0.06,-0 0.09,0.025 0.09,0.095l0,0.043l-0.157,0.015c-0.103,0.01 -0.153,0.052 -0.153,0.148c0,0.101 0.05,0.153 0.141,0.153c0.09,-0 0.18,-0.04 0.18,-0.04c0.03,0.03 0.066,0.04 0.119,0.04l0.003,-0.059c-0.032,-0.004 -0.056,-0.015 -0.058,-0.044l-0,-0.256Zm-0.075,0.1l0,0.165c0,0 -0.083,0.031 -0.157,0.031c-0.051,0 -0.076,-0.034 -0.076,-0.092c-0,-0.055 0.024,-0.084 0.085,-0.09l0.148,-0.014Z" style="fill:rgb(167,167,167);fill-rule:nonzero;"/>
        </g>
        <g transform="matrix(26.6667,0,0,26.6667,290.621,259.231)">
            <path d="M0.072,-0l0.075,-0l-0,-0.5l-0.075,0l0,0.5Zm0,-0.613l0.075,-0l-0,-0.087l-0.075,0l0,0.087Z" style="fill:rgb(167,167,167);fill-rule:nonzero;"/>
        </g>
        <g transform="matrix(26.6667,0,0,26.6667,296.461,259.231)">
            <rect x="0.078" y="-0.718" width="0.075" height="0.718" style="fill:rgb(167,167,167);fill-rule:nonzero;"/>
        </g>
        <g transform="matrix(26.6667,0,0,26.6667,302.621,259.231)">
            <path d="M0.085,-0l0.077,-0l-0,-0.61l0.014,-0l0.201,0.585l0.086,-0l0.201,-0.585l0.014,-0l0,0.61l0.077,-0l-0,-0.692l-0.139,0l-0.196,0.585l-0.196,-0.585l-0.139,0l0,0.692Z" style="fill:rgb(167,167,167);fill-rule:nonzero;"/>
        </g>
        <g transform="matrix(26.6667,0,0,26.6667,325.021,259.231)">
            <path d="M0.466,-0l-0,-0.069l-0.304,0l-0,-0.623l-0.077,0l0,0.692l0.381,-0Z" style="fill:rgb(167,167,167);fill-rule:nonzero;"/>
        </g>
        <g transform="matrix(20,0,0,20,337.795,253.898)">
            <path d="M0.059,-0.434c0,0.152 0.112,0.273 0.263,0.273c0.156,-0 0.264,-0.12 0.264,-0.273c-0,-0.15 -0.108,-0.273 -0.264,-0.273c-0.152,0 -0.263,0.119 -0.263,0.273Zm0.044,0c-0,-0.126 0.093,-0.23 0.219,-0.23c0.126,-0 0.22,0.104 0.22,0.23c0,0.127 -0.093,0.229 -0.22,0.229c-0.125,0 -0.219,-0.103 -0.219,-0.229Zm0.277,0.152l0.061,0l-0.055,-0.115c0.038,-0.017 0.051,-0.044 0.051,-0.093c-0,-0.071 -0.042,-0.095 -0.114,-0.095l-0.11,0l0,0.303l0.058,0l-0,-0.107l0.059,-0l0.05,0.107Zm-0.11,-0.256l0.048,-0c0.042,-0 0.062,0.015 0.062,0.051c0,0.036 -0.015,0.051 -0.051,0.051l-0.059,0l-0,-0.102Z" style="fill:rgb(167,167,167);fill-rule:nonzero;"/>
        </g>
    </g>
    <path d="M249.74,207.782l-0.48,9.144l1.411,0.267c0,-0 2,-1.067 4.188,-1.067c2.241,-0 3.735,0.853 3.735,3.521c-0,2.721 -1.548,4.162 -3.976,4.162c-2.347,-0 -5.411,-0.587 -5.411,-0.587l-0.24,1.625c-0,-0 3.144,0.772 5.838,0.772c3.682,-0 5.892,-2.077 5.892,-6.132c-0,-3.761 -2.157,-5.198 -5.598,-5.198c-2.081,-0 -4.135,1.091 -4.135,1.091l0.48,-5.734l8.561,-0l-0,-1.864l-10.265,0Z" style="fill:rgb(167,167,167);fill-rule:nonzero;"/>
    <path d="M270.007,225.379l1.997,-0l-0,-13.33l-1.997,-0l-0,13.33Zm-0,-16.347l1.997,0l-0,-2.316l-1.997,-0l-0,2.316Z" style="fill:rgb(167,167,167);fill-rule:nonzero;"/>
    <path d="M277.844,225.379l-0,-10.827c-0,0 1.84,-0.986 3.761,-0.986c2.482,-0 2.882,1.306 2.882,4.826l-0,6.987l1.97,-0l-0,-7.04c-0,-4.747 -0.825,-6.557 -4.505,-6.557c-1.974,0 -4.135,1.198 -4.135,1.198l-0,-0.931l-1.97,-0l-0,13.33l1.997,-0Z" style="fill:rgb(167,167,167);fill-rule:nonzero;"/>
    <path d="M296.99,213.779l0,-1.73l-4.24,-0l0,-4.08l-1.97,-0l0,4.08l-1.893,-0l-0,1.73l1.893,-0l0,7.016c0,3.839 0.932,4.877 3.677,4.877c0.933,0 2.72,-0.293 2.72,-0.293l-0.133,-1.65c-0,-0 -1.627,0.16 -2.374,0.16c-1.733,-0 -1.92,-0.827 -1.92,-3.735l0,-6.375l4.24,-0Z" style="fill:rgb(167,167,167);fill-rule:nonzero;"/>
    <path d="M304.379,223.889c-2.615,-0 -3.495,-1.495 -3.495,-4.35l8.8,-0l0.106,-1.517c0,-4.376 -1.81,-6.24 -5.358,-6.24c-3.388,0 -5.572,1.944 -5.572,7.012c0,4.534 1.305,6.852 5.278,6.852c2.162,-0 5.2,-0.426 5.2,-0.426l-0.054,-1.571c0,-0 -2.904,0.24 -4.905,0.24Zm-3.522,-5.947c0.027,-3.229 1.307,-4.483 3.575,-4.483c2.348,-0 3.362,1.174 3.362,4.483l-6.937,0Z" style="fill:rgb(167,167,167);fill-rule:nonzero;"/>
    <path d="M312.914,225.379l1.996,-0l0,-9.787c0,0 2.347,-1.306 4.854,-1.813l-0,-2.023c-2.56,0.506 -4.88,2.103 -4.88,2.103l-0,-1.81l-1.97,-0l-0,13.33Z" style="fill:rgb(167,167,167);fill-rule:nonzero;"/>
    <path d="M324.697,213.779l3.867,-0l-0,-1.73l-3.867,-0l-0,-1.174c-0,-2.482 0.48,-3.123 1.973,-3.123c0.8,0 2.294,0.054 2.294,0.054l0.026,-1.65c0,-0.001 -1.786,-0.187 -2.693,-0.187c-2.612,-0 -3.597,1.038 -3.597,4.879l0,1.201l-1.68,-0l0,1.73l1.68,-0l0,11.6l1.997,-0l-0,-11.6Z" style="fill:rgb(167,167,167);fill-rule:nonzero;"/>
    <path d="M340.377,216.067c-0,-2.901 -1.278,-4.285 -4.291,-4.285c-2.295,0 -5.227,0.586 -5.227,0.586l0.08,1.517c-0,-0 3.172,-0.346 5.04,-0.346c1.601,-0 2.401,0.665 2.401,2.528l0,1.145l-4.189,0.4c-2.746,0.268 -4.077,1.391 -4.077,3.954c-0,2.696 1.331,4.08 3.757,4.08c2.401,-0 4.802,-1.065 4.802,-1.065c0.799,0.798 1.757,1.065 3.171,1.065l0.08,-1.571c-0.854,-0.106 -1.494,-0.4 -1.547,-1.174l-0,-6.834Zm-1.997,2.669l0,4.405c0,0 -2.214,0.828 -4.189,0.828c-1.36,-0 -2.027,-0.908 -2.027,-2.456c-0,-1.469 0.64,-2.243 2.267,-2.403l3.949,-0.374Z" style="fill:rgb(167,167,167);fill-rule:nonzero;"/>
    <path d="M349.31,211.782c-3.972,0 -5.543,1.864 -5.543,6.692c-0,5.228 1.251,7.172 5.49,7.172c1.227,-0 3.707,-0.373 3.707,-0.373l-0.08,-1.651c-0,0 -2.134,0.24 -3.147,0.24c-3.307,0 -3.92,-1.44 -3.92,-5.388c-0,-3.575 0.827,-4.908 3.893,-4.908c1.014,-0 3.147,0.24 3.147,0.24l0.08,-1.625c-0,0 -2.4,-0.399 -3.627,-0.399Z" style="fill:rgb(167,167,167);fill-rule:nonzero;"/>
    <path d="M360.725,223.889c-2.614,-0 -3.495,-1.495 -3.495,-4.35l8.8,-0l0.107,-1.517c-0,-4.376 -1.81,-6.24 -5.358,-6.24c-3.389,0 -5.572,1.944 -5.572,7.012c-0,4.534 1.304,6.852 5.278,6.852c2.161,-0 5.199,-0.426 5.199,-0.426l-0.053,-1.571c0,-0 -2.905,0.24 -4.906,0.24Zm-3.521,-5.947c0.026,-3.229 1.307,-4.483 3.575,-4.483c2.347,-0 3.361,1.174 3.361,4.483l-6.936,0Z" style="fill:rgb(167,167,167);fill-rule:nonzero;"/>
    <path d="M378.164,212.289c0,-0.001 -2.824,-0.507 -4.826,-0.507c-2.428,0 -4.798,0.958 -4.798,3.891c0,2.667 1.438,3.228 4.452,3.708c2.908,0.453 3.602,0.8 3.602,2.187c-0,1.814 -1.174,2.294 -3.362,2.294c-1.361,0 -4.399,-0.453 -4.399,-0.453l-0.106,1.73c-0,0.001 2.984,0.507 4.691,0.507c3.202,-0 5.172,-1.039 5.172,-4.158c0,-2.587 -1.251,-3.254 -4.585,-3.814c-2.828,-0.481 -3.468,-0.827 -3.468,-2.081c-0,-1.574 1.254,-2.027 2.908,-2.027c1.708,-0 4.666,0.426 4.666,0.426l0.053,-1.703Z" style="fill:rgb(167,167,167);fill-rule:nonzero;"/>
    <g transform="matrix(1,0,0,1,51.2436,-239.759)">
        <g transform="matrix(26.6667,0,0,26.6667,193.528,259.231)">
            <path d="M0.031,-0.5l0.119,0.5l0.125,-0l0.106,-0.391l0.106,0.391l0.125,-0l0.119,-0.5l-0.075,0l-0.1,0.435l-0.017,0l-0.119,-0.425l-0.078,0l-0.119,0.425l-0.016,0l-0.101,-0.435l-0.075,0Z" style="fill:rgb(167,167,167);fill-rule:nonzero;"/>
        </g>
        <g transform="matrix(26.6667,0,0,26.6667,213.848,259.231)">
            <path d="M0.072,-0l0.075,-0l-0,-0.5l-0.075,0l0,0.5Zm0,-0.613l0.075,-0l-0,-0.087l-0.075,0l0,0.087Z" style="fill:rgb(167,167,167);fill-rule:nonzero;"/>
        </g>
        <g transform="matrix(26.6667,0,0,26.6667,219.688,259.231)">
            <path d="M0.331,-0.435l-0,-0.065l-0.159,0l-0,-0.153l-0.074,0l0,0.153l-0.071,0l0,0.065l0.071,-0l0,0.263c0,0.144 0.035,0.183 0.138,0.183c0.035,-0 0.102,-0.011 0.102,-0.011l-0.005,-0.062c-0,0 -0.061,0.006 -0.089,0.006c-0.065,0 -0.072,-0.031 -0.072,-0.14l-0,-0.239l0.159,-0Z" style="fill:rgb(167,167,167);fill-rule:nonzero;"/>
        </g>
        <g transform="matrix(26.6667,0,0,26.6667,229.048,259.231)">
            <path d="M0.147,-0l-0,-0.413c-0,-0 0.07,-0.03 0.141,-0.03c0.092,-0 0.107,0.049 0.107,0.181l0,0.262l0.075,-0l-0,-0.264c-0,-0.178 -0.032,-0.246 -0.169,-0.246c-0.074,0 -0.154,0.038 -0.154,0.038l-0,-0.246l-0.075,0l0,0.718l0.075,-0Z" style="fill:rgb(167,167,167);fill-rule:nonzero;"/>
        </g>
        <g transform="matrix(26.6667,0,0,26.6667,249.235,259.231)">
            <path d="M0.072,-0l0.075,-0l-0,-0.367c-0,-0 0.088,-0.049 0.182,-0.068l-0,-0.076c-0.096,0.019 -0.183,0.079 -0.183,0.079l-0,-0.068l-0.074,0l0,0.5Z" style="fill:rgb(167,167,167);fill-rule:nonzero;"/>
        </g>
        <g transform="matrix(26.6667,0,0,26.6667,258.461,259.231)">
            <path d="M0.425,-0.349c-0,-0.109 -0.048,-0.161 -0.161,-0.161c-0.086,0 -0.196,0.022 -0.196,0.022l0.003,0.057c0,-0 0.119,-0.013 0.189,-0.013c0.06,-0 0.09,0.025 0.09,0.095l0,0.043l-0.157,0.015c-0.103,0.01 -0.153,0.052 -0.153,0.148c0,0.101 0.05,0.153 0.141,0.153c0.09,-0 0.18,-0.04 0.18,-0.04c0.03,0.03 0.066,0.04 0.119,0.04l0.003,-0.059c-0.032,-0.004 -0.056,-0.015 -0.058,-0.044l-0,-0.256Zm-0.075,0.1l0,0.165c0,0 -0.083,0.031 -0.157,0.031c-0.051,0 -0.076,-0.034 -0.076,-0.092c-0,-0.055 0.024,-0.084 0.085,-0.09l0.148,-0.014Z" style="fill:rgb(167,167,167);fill-rule:nonzero;"/>
        </g>
        <g transform="matrix(26.6667,0,0,26.6667,271.821,259.231)">
            <path d="M0.072,-0l0.075,-0l-0,-0.5l-0.075,0l0,0.5Zm0,-0.613l0.075,-0l-0,-0.087l-0.075,0l0,0.087Z" style="fill:rgb(167,167,167);fill-rule:nonzero;"/>
        </g>
        <g transform="matrix(26.6667,0,0,26.6667,277.661,259.231)">
            <rect x="0.078" y="-0.718" width="0.075" height="0.718" style="fill:rgb(167,167,167);fill-rule:nonzero;"/>
        </g>
        <g transform="matrix(26.6667,0,0,26.6667,283.821,259.231)">
            <path d="M0.085,-0l0.077,-0l-0,-0.61l0.014,-0l0.201,0.585l0.086,-0l0.201,-0.585l0.014,-0l0,0.61l0.077,-0l-0,-0.692l-0.139,0l-0.196,0.585l-0.196,-0.585l-0.139,0l0,0.692Z" style="fill:rgb(167,167,167);fill-rule:nonzero;"/>
        </g>
        <g transform="matrix(26.6667,0,0,26.6667,306.221,259.231)">
            <path d="M0.466,-0l-0,-0.069l-0.304,0l-0,-0.623l-0.077,0l0,0.692l0.381,-0Z" style="fill:rgb(167,167,167);fill-rule:nonzero;"/>
        </g>
        <g transform="matrix(20,0,0,20,318.995,253.898)">
            <path d="M0.059,-0.434c0,0.152 0.112,0.273 0.263,0.273c0.156,-0 0.264,-0.12 0.264,-0.273c-0,-0.15 -0.108,-0.273 -0.264,-0.273c-0.152,0 -0.263,0.119 -0.263,0.273Zm0.044,0c-0,-0.126 0.093,-0.23 0.219,-0.23c0.126,-0 0.22,0.104 0.22,0.23c0,0.127 -0.093,0.229 -0.22,0.229c-0.125,0 -0.219,-0.103 -0.219,-0.229Zm0.277,0.152l0.061,0l-0.055,-0.115c0.038,-0.017 0.051,-0.044 0.051,-0.093c-0,-0.071 -0.042,-0.095 -0.114,-0.095l-0.11,0l0,0.303l0.058,0l-0,-0.107l0.059,-0l0.05,0.107Zm-0.11,-0.256l0.048,-0c0.042,-0 0.062,0.015 0.062,0.051c0,0.036 -0.015,0.051 -0.051,0.051l-0.059,0l-0,-0.102Z" style="fill:rgb(167,167,167);fill-rule:nonzero;"/>
        </g>
    </g>
    <path d="M332.569,110.836c-0,1.621 1.194,2.911 2.804,2.911c1.664,-0 2.816,-1.28 2.816,-2.911c-0,-1.6 -1.152,-2.912 -2.816,-2.912c-1.621,0 -2.804,1.269 -2.804,2.912Zm0.468,-0c-0,-1.345 0.993,-2.455 2.336,-2.455c1.344,0 2.348,1.11 2.348,2.455c-0,1.354 -0.994,2.443 -2.348,2.443c-1.333,-0 -2.336,-1.1 -2.336,-2.443Zm2.956,1.621l0.649,-0l-0.586,-1.227c0.405,-0.181 0.543,-0.469 0.543,-0.992c0,-0.757 -0.447,-1.013 -1.215,-1.013l-1.173,0l0,3.232l0.618,-0l-0,-1.142l0.63,-0l0.534,1.142Zm-1.175,-2.732l0.512,0c0.449,0 0.663,0.161 0.663,0.545c-0,0.384 -0.161,0.545 -0.545,0.545l-0.63,-0l-0,-1.09Z" style="fill:rgb(167,167,167);fill-rule:nonzero;"/>
</svg>
