<?xml version="1.0" encoding="UTF-8" standalone="no"?>
<svg
   xmlns:svg="http://www.w3.org/2000/svg"
   xmlns="http://www.w3.org/2000/svg"
   version="1.0"
   width="300"
   height="180"
   id="svg2"
   xml:space="preserve"><defs
     id="defs6" /><g
     transform="matrix(1.25,0,0,-1.25,-484.36345,249.77834)"
     id="g12"><path
       d="m 428.56433,198.71115 198.75729,0 -40.90449,-141.776947 -198.75729,0 40.90449,141.776947 z"
       id="path1606"
       style="fill:#96092b;fill-opacity:1;fill-rule:nonzero;stroke:none" /><path
       d="m 428.56435,198.71114 198.75728,0 -40.90449,-141.776947 -198.75728,0 40.90449,141.776947 z"
       id="path1616"
       style="fill:none;stroke:#96092b;stroke-width:0.1229902;stroke-linecap:butt;stroke-linejoin:miter;stroke-miterlimit:3.86400008;stroke-opacity:1;stroke-dasharray:none" /><path
       d="m 490.19267,149.5202 19.72968,-47.98155 -68.93089,0.24085 38.23971,56.514 100.84171,0 -15.58901,-24.11633 c 0.24086,-0.24598 -23.62949,0 -23.62949,0 -10.46954,0 -11.44321,-8.52732 -6.57485,-17.53635 0,0 11.44834,-29.471527 11.20748,-29.471527 l 14.85619,0 -11.93517,32.879377 15.82986,0 c 8.04049,0 10.96151,4.38665 14.86132,10.72065 l 13.88252,20.70335 c 4.87348,8.03536 2.68016,21.43104 -13.88252,21.43104 0,0 -98.89437,-0.24086 -98.89437,0 -7.30767,0 -11.44834,-1.21453 -14.61021,-8.03536 l -41.89866,-62.35603 c -6.57485,-7.794503 -3.40786,-15.343027 5.60118,-15.343027 l 91.34072,0 c 9.50099,0 8.04048,9.009032 4.38665,15.829857 l -19.72968,46.52105 -15.10217,0 z"
       id="path1618"
       style="fill:#ffffff;fill-opacity:1;fill-rule:nonzero;stroke:none" /><path
       d="m 490.19267,149.5202 19.72968,-47.98155 -68.93089,0.24085 38.23971,56.514 100.84171,0 -15.58901,-24.11633 c 0.24086,-0.24598 -23.62949,0 -23.62949,0 -10.46954,0 -11.44321,-8.52732 -6.57485,-17.53635 0,0 11.44834,-29.471527 11.20748,-29.471527 l 14.85619,0 -11.93517,32.879377 15.82986,0 c 8.04049,0 10.96151,4.38665 14.86132,10.72065 l 13.88252,20.70335 c 4.87348,8.03536 2.68016,21.43104 -13.88252,21.43104 0,0 -98.89437,-0.24086 -98.89437,0 -7.30767,0 -11.44834,-1.21453 -14.61021,-8.03536 l -41.89866,-62.35603 c -6.57485,-7.794503 -3.40786,-15.343027 5.60118,-15.343027 l 91.34072,0 c 9.50099,0 8.04048,9.009032 4.38665,15.829857 l -19.72968,46.52105 -15.10217,0 z"
       id="path1620"
       style="fill:none;stroke:#ffffff;stroke-width:0.1229902;stroke-linecap:butt;stroke-linejoin:miter;stroke-miterlimit:3.86400008;stroke-opacity:1;stroke-dasharray:none" /></g></svg>