<?xml version="1.0" encoding="UTF-8" standalone="no"?>
<!-- Created with Inkscape (http://www.inkscape.org/) -->

<svg
   xmlns:dc="http://purl.org/dc/elements/1.1/"
   xmlns:cc="http://creativecommons.org/ns#"
   xmlns:rdf="http://www.w3.org/1999/02/22-rdf-syntax-ns#"
   xmlns:svg="http://www.w3.org/2000/svg"
   xmlns="http://www.w3.org/2000/svg"
   version="1.1"
   width="2013.88"
   height="537.98798"
   viewBox="0 0 568.36171 151.83216"
   id="svg2"
   xml:space="preserve"
   style="fill-rule:evenodd"><metadata
   id="metadata108"><rdf:RDF><cc:Work
       rdf:about=""><dc:format>image/svg+xml</dc:format><dc:type
         rdf:resource="http://purl.org/dc/dcmitype/StillImage" /><dc:title></dc:title></cc:Work></rdf:RDF></metadata>
 <defs
   id="defs4">
  <style
   type="text/css"
   id="style6" />
   <mask
   id="id0">
  <linearGradient
   x1="18.5359"
   y1="274.573"
   x2="38.022301"
   y2="281.48001"
   id="id1"
   gradientUnits="userSpaceOnUse">
   <stop
   id="stop10"
   style="stop-color:#ffffff;stop-opacity:1"
   offset="0" />
   <stop
   id="stop12"
   style="stop-color:#ffffff;stop-opacity:0.50196099"
   offset="0.67058802" />
   <stop
   id="stop14"
   style="stop-color:#ffffff;stop-opacity:0"
   offset="0.89019603" />
   <stop
   id="stop16"
   style="stop-color:#ffffff;stop-opacity:0"
   offset="1" />
  </linearGradient>
    <rect
   width="15.922"
   height="16.9828"
   x="20.3181"
   y="269.535"
   id="rect18"
   style="fill:url(#id1)" />
   </mask>
  <linearGradient
   x1="107.421"
   y1="92.430801"
   x2="322.42099"
   y2="92.430801"
   id="id2"
   gradientUnits="userSpaceOnUse">
   <stop
   id="stop21"
   style="stop-color:#f9c9b3;stop-opacity:1"
   offset="0" />
   <stop
   id="stop23"
   style="stop-color:#e2001a;stop-opacity:1"
   offset="0.80000001" />
   <stop
   id="stop25"
   style="stop-color:#e2001a;stop-opacity:1"
   offset="1" />
  </linearGradient>
  <linearGradient
   x1="107.421"
   y1="-125.069"
   x2="322.42099"
   y2="-125.069"
   id="id3"
   gradientUnits="userSpaceOnUse">
   <stop
   id="stop28"
   style="stop-color:#fbdfe2;stop-opacity:1"
   offset="0" />
   <stop
   id="stop30"
   style="stop-color:#ad0270;stop-opacity:1"
   offset="0.80000001" />
   <stop
   id="stop32"
   style="stop-color:#ad0270;stop-opacity:1"
   offset="1" />
  </linearGradient>
  <linearGradient
   x1="20.2897"
   y1="275.19501"
   x2="36.268501"
   y2="280.858"
   id="id4"
   gradientUnits="userSpaceOnUse">
   <stop
   id="stop35"
   style="stop-color:#e2001a;stop-opacity:1"
   offset="0" />
   <stop
   id="stop37"
   style="stop-color:#e2001a;stop-opacity:1"
   offset="0.89019603" />
   <stop
   id="stop39"
   style="stop-color:#e2001a;stop-opacity:1"
   offset="1" />
  </linearGradient>
 </defs>
<symbol
   viewBox="288.921 -132.07 12.9999 1.0002"
   transform="translate(-21.554589,-136.61634)"
   id="Fm2-329-0">
 <polygon
   points="288.921,-131.069 301.921,-131.069 301.921,-132.07 288.921,-132.07 "
   id="polygon42"
   style="fill:#ffffff;fill-rule:nonzero" />
</symbol>
<symbol
   viewBox="107.421 -155.07 215 60.0001"
   transform="translate(-21.554589,-136.61634)"
   id="Fm1-327-0">
 <polygon
   points="322.421,-95.0694 322.421,-155.07 107.421,-155.07 107.421,-95.0694 "
   id="polygon45"
   style="fill:url(#id3)" />
</symbol>
<symbol
   viewBox="107.421 89.9308 215 4.9999"
   transform="translate(-21.554589,-136.61634)"
   id="Fm0-325-0">
 <polygon
   points="322.421,94.9307 322.421,89.9308 107.421,89.9308 107.421,94.9307 "
   id="polygon48"
   style="fill:url(#id2)" />
</symbol>
 <g
   transform="matrix(8,0,0,8,-172.43669,-2155.7558)"
   id="Ebene_x0020_1">
  <metadata
   id="CorelCorpID_0Corel-Layer" />
  <path
   d="m 82.9372,277.358 c 0.7123,0 1.053,0.3252 1.053,0.9133 0,0.9758 -0.7429,1.1769 -1.6566,1.1769 -0.8209,0 -1.0844,-0.1242 -1.27,-0.1701 0.0307,-1.2234 0.8519,-1.9201 1.8736,-1.9201 z m -7.6034,4.537 c -1.0834,0 -1.6253,-0.9444 -1.6253,-2.0905 0,-1.4556 0.5878,-2.3072 1.9816,-2.3072 0.6286,0 1.0523,0.133 1.4093,0.3239 l 0,3.3309 c 0,0.0166 0.0014,0.031 0.0014,0.0473 -0.351,0.4339 -0.9849,0.6956 -1.767,0.6956 z m 15.9032,-5.4356 c -0.2783,1.735 -1.0686,3.5313 -2.0436,4.8779 l -0.0463,0 -2.1681,-4.8779 -1.4404,0 1.1924,2.6328 c -0.4646,1.1765 -1.6567,2.8184 -3.6238,2.8184 -1.161,0 -1.8425,-0.5574 -1.9974,-1.5022 0.2014,0.0311 0.4808,0.1394 1.4245,0.1394 1.2855,0 2.7566,-0.604 2.7566,-2.2913 0,-1.2855 -0.9751,-1.9982 -2.2768,-1.9982 -1.9816,0 -3.344,1.2545 -3.344,3.4534 0,0.7641 0.1454,1.3984 0.4166,1.9057 -0.2278,0.1658 -0.5362,0.309 -0.9122,0.309 -0.4491,0 -0.7278,-0.1245 -0.7278,-0.805 l 0,-6.7518 -1.3473,0 0,2.1685 c -0.3718,-0.1609 -0.8219,-0.2798 -1.3783,-0.2798 -2.3223,0 -3.4223,1.518 -3.4223,3.5462 0,1.9512 0.9913,3.3295 2.9577,3.3295 0.9624,0 1.6725,-0.3246 2.0811,-0.8079 0.309,0.5913 0.9006,0.8079 1.6665,0.8079 0.8036,0 1.4661,-0.265 1.9459,-0.5585 0.5581,0.3729 1.2827,0.5585 2.1421,0.5585 2.4927,0 3.7168,-1.7187 4.2583,-2.7256 l 1.1769,2.5559 0.9289,0 c 1.5025,-1.6732 2.7097,-4.3363 3.1436,-6.5049 l -1.3628,0 z"
   id="path52"
   style="fill:#e2001a;fill-rule:nonzero" />
  <path
   d="m 52.2436,276.446 c -0.889,-0.0473 -1.8281,0.1259 -2.6346,0.7634 l 0.0029,0.3676 0,3.7419 c -0.6555,0.5193 -1.2386,0.6304 -1.6207,0.6308 -0.9719,0 -1.5882,-0.5881 -1.7649,-1.4609 -0.0452,-0.2198 -0.066,-0.4395 -0.065,-0.6516 l -0.0024,0 0,-1.9759 0.0113,0 2.1392,-3e-4 0,-1.1917 -2.1505,10e-4 0,-0.2572 -0.0018,-1.7381 -1.3021,0 0,1.9953 -1.5536,0 0,1.1934 1.5568,0 0,1.9526 -4e-4,0 c 0,0.2741 0.0293,0.5553 0.0861,0.8389 0.296,1.4595 1.4545,2.4787 3.0226,2.4787 l 0.0099,0 c 0.6572,-0.002 1.2756,-0.2022 1.7484,-0.5324 l 0.0017,0.3606 1.209,0 0,-4.9481 c 0.3499,-0.2018 0.7969,-0.3182 1.2777,-0.3182 0.3299,0 0.7229,0.0896 0.8972,0.1718 l 0.5605,-1.1494 c -0.3482,-0.1407 -0.9345,-0.2458 -1.4273,-0.2723 z"
   id="path54"
   style="fill:#e2001a;fill-rule:nonzero" />
  <path
   d="m 58.2683,281.299 c -0.2389,0.2353 -0.8502,0.6424 -1.6267,0.6427 -1.0622,0 -1.5946,-0.7602 -1.7385,-1.4728 -0.1683,-0.8294 -0.03,-1.5678 0.3877,-2.079 0.3736,-0.4568 0.9356,-0.6985 1.6253,-0.6985 l 0.0024,0 c 0.5475,0 1.0813,0.1253 1.3498,0.2124 0,0.4452 -0.0015,3.0424 0,3.3952 z m 13.5166,-0.2177 c -0.006,-1.3152 -0.9578,-1.6394 -1.8221,-1.8387 -0.7302,-0.1679 -1.7074,-0.2014 -1.7074,-0.8343 0,-0.6438 0.6837,-0.8551 1.0894,-0.8551 0.7087,0 1.1962,0.1919 1.7751,0.4903 l 0.5095,-1.022 c -0.5423,-0.2691 -1.336,-0.5881 -2.2494,-0.5881 -1.096,0 -2.365,0.6079 -2.365,1.9629 0,1.3317 0.9984,1.5974 2.1255,1.8182 0.6833,0.1344 1.2337,0.2974 1.2827,0.8781 l -0.0018,0 c 0,0 0.1338,0.8777 -1.4559,0.8777 l -1.7004,0 c -0.9898,0 -1.0283,-0.4332 -1.0283,-1.0347 0,-0.3182 0.0039,-2.0553 0.0039,-2.0553 0,-1.8757 -1.42,-2.3774 -2.6303,-2.3774 -1.1106,0 -2.1259,0.3355 -2.6776,0.7067 l 0,0.3446 0,4.2369 c 0,0.1351 -0.4403,0.2141 -0.6671,0.2148 -0.229,0 -0.7031,-0.1566 -0.7031,-0.4388 l 0,-4.3575 -0.2515,-0.1517 c -0.247,-0.1309 -1.16,-0.5571 -2.5012,-0.5571 -1.1804,0 -2.116,0.4255 -2.7076,1.2295 -0.5609,0.763 -0.7454,1.7952 -0.5207,2.9079 0.302,1.4926 1.5388,2.4956 3.0766,2.4956 l 0.0099,0 c 0.7471,-0.002 1.3828,-0.2343 1.8915,-0.6904 0.3673,0.4367 1.0118,0.6904 1.7551,0.6904 1.1762,0 1.9558,-0.6961 1.9558,-0.6961 l 0,-4.481 c 0,0 0.5126,-0.2744 1.4143,-0.2744 0.8347,0 1.3032,0.2621 1.3032,1.4308 l -0.0018,0 0,1.989 c 0,0.8075 0.1284,1.9876 2.069,1.9876 l 2.0659,0.001 0,0 0.0035,0 0.1136,0 c 1.4813,0 2.1005,-0.6791 2.3598,-1.2478 0.1206,-0.2289 0.1876,-0.4808 0.1876,-0.7493 0,-10e-4 -3e-4,-0.002 -3e-4,-0.003 3e-4,-0.005 3e-4,-0.009 3e-4,-0.009 l -7e-4,0 z"
   id="path56"
   style="fill:#e2001a;fill-rule:nonzero" />
  <path
   d="m 37.365,272.049 c 0.6661,-0.362 0.9119,-1.1963 0.5496,-1.8623 -0.3623,-0.6661 -1.1955,-0.9127 -1.8623,-0.5497 -0.666,0.362 -0.9119,1.1956 -0.5496,1.8623 0.3616,0.6657 1.1959,0.912 1.8623,0.5497 z"
   id="path58"
   style="fill:#e2001a;fill-rule:nonzero" />
  <path
   d="m 42.3808,272.873 c -0.0417,-0.2257 -0.266,-0.3817 -0.7836,-0.3167 -3.2561,0.406 -5.0919,0.6995 -11.7161,1.422 -0.5418,0.0589 -0.9962,0.1362 -1.0466,0.502 -0.0822,0.5958 1.4633,0.6343 2.5385,0.8872 0.5363,0.1263 1.0997,0.2741 1.5925,0.5285 0.363,0.187 0.2332,0.4586 0.1527,0.5764 -1.2559,1.8302 -2.9506,4.4196 -3.4283,5.3534 -0.4723,0.9236 0.3249,1.39 1.1102,0.6922 1.8627,-1.6567 2.4398,-2.4017 4.1078,-3.7077 0.2282,-0.1785 0.4092,-0.1401 0.4699,0.1337 0.0331,0.1503 0.0684,0.3422 0.0998,0.5771 0.0346,0.2622 0.0353,0.7091 -0.0014,1.0189 -0.0014,0.0109 -0.0032,0.0225 -0.0046,0.0338 -0.0053,0.0801 -0.0152,0.181 -0.0289,0.3062 -0.2092,1.8878 -1.3734,3.857 -2.631,5.0299 1.2015,-0.4219 2.2997,-1.1183 3.1831,-2.0626 l 0.0137,-0.003 c 0.1803,-0.1905 0.3609,-0.4096 0.5366,-0.6541 0.713,-0.9581 1.227,-2.1163 1.4595,-3.4579 0.0564,-0.2872 0.1012,-0.5821 0.1294,-0.8844 0.254,-2.691 1.3769,-3.6608 3.694,-5.0969 0.3566,-0.2209 0.6138,-0.5468 0.5528,-0.8778 z"
   id="path60"
   style="fill:#e2001a;fill-rule:nonzero" />
  <path
   d="m 21.6887,276.472 c -0.7888,4.3914 1.9802,8.5962 6.2474,9.6587 l 0,0 c 0.182,0.0455 0.3654,0.0872 0.5528,0.1207 l 0,0 c 1.4654,0.2635 2.9605,0.1369 4.3229,-0.3419 l 0,0 c 1.2577,-1.1729 2.4218,-3.1421 2.6307,-5.0299 l 0,0 c 0.0141,-0.1252 0.0236,-0.2261 0.0293,-0.3062 l 0,0 c -0.0653,0.5197 -0.2459,1.4164 -0.9271,2.3135 l 0,0 c -0.5296,0.6975 -1.2457,1.3565 -2.3457,1.7953 l 0,0 c -1.0445,0.3944 -2.2274,0.5154 -3.4798,0.29 l 0,0 c -0.2279,-0.0409 -0.4505,-0.0928 -0.6688,-0.1541 l 0,0 c -3.489,-0.9787 -5.7362,-4.4786 -5.0825,-8.1161 l 0,0 c 0.6946,-3.866 4.4051,-6.4459 8.2705,-5.7513 l 0,0 0,4e-4 c 0.3532,0.0635 0.6911,-0.1715 0.7546,-0.5246 l 0,0 c 0.0635,-0.3531 -0.1714,-0.6915 -0.5249,-0.7553 l 0,0 c -0.5038,-0.0903 -1.0051,-0.1337 -1.499,-0.1337 l 0,0 c -3.9994,-4e-4 -7.5484,2.8596 -8.2804,6.9345 l 0,0 z"
   mask="url(#id0)"
   id="path62"
   style="fill:url(#id4)" />
  <polygon
   points="46.072,287.99 46.5571,286.371 46.997,286.371 47.3205,288.413 46.9695,288.413 46.7222,286.831 46.2371,288.413 45.8931,288.413 45.4081,286.831 45.1608,288.413 44.8133,288.413 45.1399,286.371 45.5767,286.371 "
   id="polygon64"
   style="fill:#666874;fill-rule:nonzero" />
  <path
   d="m 48.69,286.653 c -0.392,0 -0.6982,0.2925 -0.6982,0.7394 0,0.447 0.3062,0.7395 0.6982,0.7395 0.3922,0 0.6981,-0.2925 0.6981,-0.7395 0,-0.4469 -0.3059,-0.7394 -0.6981,-0.7394 z m 0,-0.3164 c 0.588,0 1.0593,0.4297 1.0593,1.0558 0,0.6259 -0.4713,1.0559 -1.0593,1.0559 -0.5917,0 -1.0591,-0.43 -1.0591,-1.0559 0,-0.6261 0.4674,-1.0558 1.0591,-1.0558 z"
   id="path66"
   style="fill:#666874;fill-rule:nonzero" />
  <path
   d="m 50.504,288.145 c 0.0653,0.007 0.1376,0.0103 0.1824,0.0103 0.3302,0 0.4985,-0.1066 0.4985,-0.3197 0,-0.2201 -0.1821,-0.3062 -0.4608,-0.3062 l -0.2201,0 0,0.6156 z m 0,-0.901 0.1651,0 c 0.2854,0 0.4332,-0.11 0.4332,-0.3199 0,-0.1994 -0.1545,-0.2957 -0.4057,-0.2957 -0.0585,0 -0.1376,0.007 -0.1926,0.0138 l 0,0.6018 z m -0.3404,-0.8667 c 0.1478,-0.0209 0.3577,-0.041 0.5122,-0.041 0.4851,0 0.774,0.175 0.774,0.5673 0,0.2512 -0.1686,0.423 -0.399,0.4576 0.2925,0.0239 0.4883,0.1957 0.4883,0.4914 0,0.3577 -0.2615,0.5919 -0.8975,0.5919 -0.1651,0 -0.344,-0.0176 -0.478,-0.0381 l 0,-2.0291 z"
   id="path68"
   style="fill:#666874;fill-rule:nonzero" />
  <polygon
   points="51.9832,286.371 52.3342,286.371 52.3342,288.413 51.9832,288.413 "
   id="polygon70"
   style="fill:#666874;fill-rule:nonzero" />
  <polygon
   points="52.9561,286.371 53.3071,286.371 53.3071,288.104 54.1393,288.104 54.1393,288.413 52.9561,288.413 "
   id="polygon72"
   style="fill:#666874;fill-rule:nonzero" />
  <polygon
   points="54.5313,286.371 54.8823,286.371 54.8823,288.413 54.5313,288.413 "
   id="polygon74"
   style="fill:#666874;fill-rule:nonzero" />
  <polygon
   points="56.8981,286.68 56.255,286.68 56.255,288.413 55.9039,288.413 55.9039,286.68 55.2576,286.68 55.2576,286.371 56.8981,286.371 "
   id="polygon76"
   style="fill:#666874;fill-rule:nonzero" />
  <polygon
   points="57.1048,286.371 57.4936,286.371 58.0231,287.303 58.5459,286.371 58.9347,286.371 58.1949,287.633 58.1949,288.413 57.8443,288.413 57.8443,287.633 "
   id="polygon78"
   style="fill:#666874;fill-rule:nonzero" />
  <polygon
   points="59.9976,286.371 60.3486,286.371 60.3486,288.413 59.9976,288.413 "
   id="polygon80"
   style="fill:#666874;fill-rule:nonzero" />
  <polygon
   points="61.3115,288.413 60.9707,288.413 60.9707,286.37 61.3284,286.37 62.3567,287.88 62.3567,286.37 62.6972,286.37 62.6972,288.413 62.3603,288.413 61.3115,286.917 "
   id="polygon82"
   style="fill:#666874;fill-rule:nonzero" />
  <path
   d="m 63.1588,287.939 c 0.1584,0.1203 0.3231,0.21 0.5401,0.21 0.2028,0 0.3782,-0.0791 0.3782,-0.2854 0,-0.1895 -0.1479,-0.2615 -0.375,-0.3302 -0.392,-0.1239 -0.5708,-0.2787 -0.5708,-0.6227 0,-0.3715 0.2991,-0.574 0.6501,-0.574 0.2202,0 0.3849,0.0614 0.5225,0.1545 l 0,0.3507 c -0.1616,-0.1305 -0.3161,-0.2064 -0.5122,-0.2064 -0.1962,0 -0.3165,0.1069 -0.3165,0.265 0,0.1651 0.1168,0.2339 0.375,0.3164 0.399,0.1203 0.5708,0.2889 0.5708,0.6361 0,0.4092 -0.3235,0.5951 -0.7189,0.5951 -0.2234,0 -0.4124,-0.0617 -0.5433,-0.1513 l 0,-0.3578 z"
   id="path84"
   style="fill:#666874;fill-rule:nonzero" />
  <path
   d="m 65.2159,287.426 c 0.031,0.004 0.0861,0.007 0.1309,0.007 0.3266,0 0.4981,-0.1274 0.4981,-0.4025 0,-0.2406 -0.1612,-0.3853 -0.4812,-0.3853 -0.0413,0 -0.103,0.004 -0.1478,0.0106 l 0,0.7701 z m 0,0.9871 -0.351,0 0,-2.0359 c 0.1309,-0.0208 0.3337,-0.0412 0.5023,-0.0412 0.5366,0 0.8322,0.2476 0.8322,0.6946 0,0.4815 -0.3545,0.7017 -0.8286,0.7017 -0.0484,0 -0.1101,-0.004 -0.1549,-0.007 l 0,0.6876 z"
   id="path86"
   style="fill:#666874;fill-rule:nonzero" />
  <polygon
   points="66.5987,286.371 66.9498,286.371 66.9498,288.413 66.5987,288.413 "
   id="polygon88"
   style="fill:#666874;fill-rule:nonzero" />
  <path
   d="m 67.9223,287.399 0.1718,0 c 0.2787,0 0.4576,-0.1203 0.4576,-0.3852 0,-0.2339 -0.1616,-0.3715 -0.471,-0.3715 -0.0412,0 -0.1206,0.004 -0.1584,0.007 l 0,0.7496 z m 0,1.0146 -0.351,0 0,-2.0394 c 0.1242,-0.0208 0.344,-0.0377 0.5094,-0.0377 0.5363,0 0.8287,0.237 0.8287,0.6671 0,0.2991 -0.1686,0.5157 -0.4057,0.6053 l 0.6153,0.8047 -0.423,0 -0.5433,-0.7257 -0.2304,0 0,0.7257 z"
   id="path90"
   style="fill:#666874;fill-rule:nonzero" />
  <polygon
   points="69.7905,286.68 69.7905,287.23 70.6262,287.23 70.6262,287.533 69.7905,287.533 69.7905,288.104 70.7123,288.104 70.7123,288.413 69.4433,288.413 69.4433,286.371 70.6918,286.371 70.6918,286.68 "
   id="polygon92"
   style="fill:#666874;fill-rule:nonzero" />
  <path
   d="m 71.5483,288.125 c 0.0758,0.0102 0.1549,0.0137 0.2304,0.0137 0.4713,0 0.7979,-0.2476 0.7979,-0.7807 0,-0.4402 -0.2822,-0.6981 -0.8219,-0.6981 -0.0653,0 -0.1376,0.004 -0.2064,0.0102 l 0,1.4549 z m -0.351,-1.7505 c 0.1517,-0.0208 0.358,-0.0381 0.5436,-0.0381 0.8149,0 1.2002,0.4233 1.2002,1.0216 0,0.6534 -0.4026,1.0866 -1.1935,1.0866 -0.2064,0 -0.3986,-0.0134 -0.5503,-0.0378 l 0,-2.0323 z"
   id="path94"
   style="fill:#666874;fill-rule:nonzero" />
  <path
   d="m 74.4622,288.145 c 0.0656,0.007 0.1379,0.0103 0.1824,0.0103 0.3302,0 0.4984,-0.1066 0.4984,-0.3197 0,-0.2201 -0.182,-0.3062 -0.4607,-0.3062 l -0.2201,0 0,0.6156 z m 0,-0.901 0.1651,0 c 0.2857,0 0.4335,-0.11 0.4335,-0.3199 0,-0.1994 -0.1548,-0.2957 -0.406,-0.2957 -0.0586,0 -0.1372,0.007 -0.1926,0.0138 l 0,0.6018 z m -0.3401,-0.8667 c 0.1475,-0.0209 0.3574,-0.041 0.5122,-0.041 0.4851,0 0.7737,0.175 0.7737,0.5673 0,0.2512 -0.1687,0.423 -0.399,0.4576 0.2924,0.0239 0.4886,0.1957 0.4886,0.4914 0,0.3577 -0.2614,0.5919 -0.8975,0.5919 -0.1654,0 -0.344,-0.0176 -0.478,-0.0381 l 0,-2.0291 z"
   id="path96"
   style="fill:#666874;fill-rule:nonzero" />
  <polygon
   points="75.6288,286.371 76.0172,286.371 76.5467,287.303 77.0699,286.371 77.4587,286.371 76.7189,287.633 76.7189,288.413 76.3679,288.413 76.3679,287.633 "
   id="polygon98"
   style="fill:#666874;fill-rule:nonzero" />
  <polygon
   points="78.2846,286.371 78.673,286.371 79.2025,287.303 79.7257,286.371 80.1145,286.371 79.3747,287.633 79.3747,288.413 79.0237,288.413 79.0237,287.633 "
   id="polygon100"
   style="fill:#666874;fill-rule:nonzero" />
  <path
   d="m 81.2567,286.653 c -0.3923,0 -0.6982,0.2925 -0.6982,0.7394 0,0.447 0.3059,0.7395 0.6982,0.7395 0.3919,0 0.6981,-0.2925 0.6981,-0.7395 0,-0.4469 -0.3062,-0.7394 -0.6981,-0.7394 z m 0,-0.3164 c 0.588,0 1.059,0.4297 1.059,1.0558 0,0.6259 -0.471,1.0559 -1.059,1.0559 -0.5916,0 -1.0594,-0.43 -1.0594,-1.0559 0,-0.6261 0.4678,-1.0558 1.0594,-1.0558 z"
   id="path102"
   style="fill:#666874;fill-rule:nonzero" />
  <path
   d="m 82.736,286.371 0.351,0 0,1.283 c 0,0.392 0.206,0.495 0.509,0.495 0.1581,0 0.2819,-0.0138 0.4022,-0.0346 l 0,-1.7434 0.351,0 0,1.9844 c -0.1894,0.0515 -0.509,0.0931 -0.7532,0.0931 -0.4646,0 -0.86,-0.1655 -0.86,-0.7327 l 0,-1.3448 z"
   id="path104"
   style="fill:#666874;fill-rule:nonzero" />
 </g>
</svg>