<?xml version="1.0" encoding="utf-8"?>
<!-- Generator: Adobe Illustrator 28.0.0, SVG Export Plug-In . SVG Version: 6.00 Build 0)  -->
<svg version="1.1" id="Layer_1" xmlns="http://www.w3.org/2000/svg" xmlns:xlink="http://www.w3.org/1999/xlink" x="0px" y="0px"
	 viewBox="0 0 283.4646 28.012" style="enable-background:new 0 0 283.4646 28.012;" xml:space="preserve">
<style type="text/css">
	.st0{fill:#1E5A9A;}
</style>
<g>
	<path class="st0" d="M56.3192,6.9831v0.0002h-0.0748L56.3192,6.9831z M80.0537,6.9831v0.0002h-0.0499L80.0537,6.9831z
		 M41.0248-0.0004v7.0331h14.9974v20.9789h9.083V7.0327h14.9982v-7.0331H41.0248z"/>
	<polygon class="st0" points="165.6031,-0.0004 165.6031,28.0108 197.0341,28.0108 197.0341,20.9822 174.6854,20.9735 
		174.6854,-0.0004 	"/>
	<polygon class="st0" points="201.4059,0.0106 201.4059,28.0114 238.6812,28.0114 238.6812,20.9932 210.4882,20.9932 
		210.4882,17.1238 235.5437,17.1238 235.5437,10.8386 210.4882,10.8386 210.4882,7.05 238.6812,7.05 238.6812,0.0106 	"/>
	<g>
		<path class="st0" d="M152.7074,14.0053c0,3.8447-2.9382,6.9728-6.5498,6.9728h-16.4428V7.0328h16.4428
			C149.7692,7.0328,152.7074,10.1605,152.7074,14.0053 M157.0846,3.6284c-2.618-2.2719-6.0904-3.6283-9.2883-3.6283h-27.1638
			v28.0105h27.8486c2.8295,0,6.1473-1.4025,8.6588-3.6607c2.9991-2.6968,4.651-6.386,4.651-10.3873
			C161.791,8.7967,159.2316,5.4913,157.0846,3.6284"/>
		<path class="st0" d="M274.3849,9.1572c0,1.0185-0.81,2.118-2.1183,2.118l-19.1711-0.001V7.039l19.1711,0.001
			C273.5749,7.04,274.3849,8.1387,274.3849,9.1572 M277.5431,16.9667c4.8887-2.2599,5.8922-4.8837,5.8922-8.1259
			c0-4.4009-3.228-8.8411-10.4394-8.8411h-28.9833v28.0117h9.083v-9.7387l16.3421,0.0045l4.9473,9.7337h9.0835L277.5431,16.9667z"/>
	</g>
	<path class="st0" d="M95.4654,7.0327l5.8882,9.9883H89.5782L95.4654,7.0327z M95.4904,0.0023h-0.0097h-0.002h-0.0037h-0.0023
		h-0.0095h-5.3348L72.6055,28.0108h10.0883l2.4709-3.9525l10.3033-0.0085h0.007h0.0037h0.0067l10.2788,0.0085l2.4709,3.9525h10.113
		L100.8252,0.0023H95.4904z"/>
	<g>
		<path class="st0" d="M31.815,10.4892H9.3406c-0.8449,0-1.6477-0.7636-1.6477-1.7282c0-0.9534,0.7768-1.7282,1.7023-1.7282h28.2496
			l0.0027-7.0331H8.9218c-4.9213,0-8.9257,4.0043-8.9257,8.9262c0,4.9213,4.0043,8.5965,8.9257,8.5965h22.136
			c1.0305,0,1.727,0.8245,1.727,1.721c0,0.9776-0.8035,1.7347-1.727,1.7347H0.6845v6.9339v0.0998h0.0998H31.815
			c4.7794,0,8.6678-3.8884,8.6678-8.6681S36.5944,10.4892,31.815,10.4892"/>
	</g>
</g>
</svg>
